<?xml version='1.0' encoding='UTF-8' standalone='no'?>
<!-- Created with Fritzing (http://www.fritzing.org/) -->
<svg xmlns="http://www.w3.org/2000/svg" x="0in" y="0in" baseProfile="tiny" viewBox="0 0 106.299 70.8661" width="1.47638in" xmlns:svg="http://www.w3.org/2000/svg" version="1.2" height="0.984252in" >
 <g partID="57660">
  <g id="board" >
   <rect x="0.288" y="0.288" stroke-width="0.5" width="105.723" stroke="black" fill="none" fill-opacity="0.5" id="boardoutline" height="70.2901" />
  </g>
 </g>
 <g partID="854425510">
  <g transform="translate(1.79392,1.94907)">
   <g id="groundplane" >
    <polygon stroke-width="0" stroke="none" fill="black" points="0,0,0,8.928,62.64,8.928,62.64,9.072,63.072,9.072,63.072,9.216,63.36,9.216,63.36,9.36,63.648,9.36,63.648,9.504,96.912,9.504,96.912,9.36,96.336,9.36,96.336,9.216,96.048,9.216,96.048,9.072,95.76,9.072,95.76,8.928,95.472,8.928,95.472,8.784,95.328,8.784,95.328,8.64,95.184,8.64,95.184,8.496,94.896,8.496,94.896,8.352,94.752,8.352,94.752,8.208,94.608,8.208,94.608,7.92,94.464,7.92,94.464,7.776,94.32,7.776,94.32,7.632,94.176,7.632,94.176,7.344,94.032,7.344,94.032,7.056,93.888,7.056,93.888,6.624,93.744,6.624,93.744,6.192,93.6,6.192,93.6,4.464,93.744,4.464,93.744,3.888,93.888,3.888,93.888,3.456,94.032,3.456,94.032,3.168,94.176,3.168,94.176,3.024,94.32,3.024,94.32,2.736,94.464,2.736,94.464,2.592,94.608,2.592,94.608,2.448,94.752,2.448,94.752,2.304,94.896,2.304,94.896,2.16,95.04,2.16,95.04,2.016,95.184,2.016,95.184,1.872,95.328,1.872,95.328,1.728,95.616,1.728,95.616,1.584,95.904,1.584,95.904,1.44,96.192,1.44,96.192,0" />
    <polygon stroke-width="0" stroke="none" fill="black" points="100.944,8.064,100.944,8.208,100.8,8.208,100.8,8.352,100.656,8.352,100.656,8.496,100.512,8.496,100.512,8.64,100.368,8.64,100.368,8.784,100.224,8.784,100.224,8.928,99.936,8.928,99.936,9.072,99.648,9.072,99.648,9.216,99.36,9.216,99.36,9.36,98.784,9.36,98.784,9.504,102.384,9.504,102.384,8.064" />
    <polygon stroke-width="0" stroke="none" fill="black" points="0,8.928,0,16.128,19.44,16.128,19.44,16.272,19.872,16.272,19.872,16.416,20.16,16.416,20.16,16.56,20.448,16.56,20.448,16.704,20.736,16.704,20.736,16.848,20.88,16.848,20.88,16.992,21.024,16.992,21.024,17.136,21.168,17.136,21.168,17.28,21.312,17.28,21.312,17.424,21.456,17.424,21.456,17.568,23.04,17.568,23.04,17.424,23.184,17.424,23.184,17.28,23.328,17.28,23.328,17.136,23.472,17.136,23.472,16.992,23.616,16.992,23.616,16.848,23.76,16.848,23.76,16.704,24.048,16.704,24.048,16.56,24.336,16.56,24.336,16.416,24.624,16.416,24.624,16.272,25.056,16.272,25.056,16.128,32.832,16.128,32.832,15.984,32.112,15.984,32.112,15.84,31.68,15.84,31.68,15.696,31.392,15.696,31.392,15.552,31.104,15.552,31.104,15.408,30.96,15.408,30.96,15.264,30.672,15.264,30.672,15.12,30.528,15.12,30.528,14.976,30.384,14.976,30.384,14.832,30.24,14.832,30.24,14.544,30.096,14.544,30.096,14.4,29.952,14.4,29.952,14.112,29.808,14.112,29.808,13.824,29.664,13.824,29.664,13.392,29.52,13.392,29.52,11.52,29.664,11.52,29.664,11.088,29.808,11.088,29.808,10.8,29.952,10.8,29.952,10.512,30.096,10.512,30.096,10.368,30.24,10.368,30.24,10.224,30.384,10.224,30.384,10.08,30.528,10.08,30.528,9.936,30.672,9.936,30.672,9.792,30.816,9.792,30.816,9.648,30.96,9.648,30.96,9.504,31.248,9.504,31.248,9.36,31.536,9.36,31.536,9.216,31.824,9.216,31.824,9.072,32.256,9.072,32.256,8.928" />
    <polygon stroke-width="0" stroke="none" fill="black" points="33.84,8.928,33.84,9.072,34.272,9.072,34.272,9.216,34.56,9.216,34.56,9.36,34.848,9.36,34.848,9.504,35.136,9.504,35.136,9.648,35.28,9.648,35.28,9.792,35.424,9.792,35.424,9.936,35.568,9.936,35.568,10.08,35.712,10.08,35.712,10.224,35.856,10.224,35.856,10.368,37.44,10.368,37.44,10.224,37.584,10.224,37.584,10.08,37.728,10.08,37.728,9.936,37.872,9.936,37.872,9.792,38.016,9.792,38.016,9.648,38.16,9.648,38.16,9.504,38.448,9.504,38.448,9.36,38.736,9.36,38.736,9.216,39.024,9.216,39.024,9.072,39.456,9.072,39.456,8.928" />
    <polygon stroke-width="0" stroke="none" fill="black" points="41.04,8.928,41.04,9.072,41.472,9.072,41.472,9.216,41.76,9.216,41.76,9.36,42.048,9.36,42.048,9.504,42.336,9.504,42.336,9.648,42.48,9.648,42.48,9.792,42.624,9.792,42.624,9.936,42.768,9.936,42.768,10.08,42.912,10.08,42.912,10.224,43.056,10.224,43.056,10.368,44.64,10.368,44.64,10.224,44.784,10.224,44.784,10.08,44.928,10.08,44.928,9.936,45.072,9.936,45.072,9.792,45.216,9.792,45.216,9.648,45.36,9.648,45.36,9.504,45.648,9.504,45.648,9.36,45.936,9.36,45.936,9.216,46.224,9.216,46.224,9.072,46.656,9.072,46.656,8.928" />
    <polygon stroke-width="0" stroke="none" fill="black" points="48.24,8.928,48.24,9.072,48.672,9.072,48.672,9.216,48.96,9.216,48.96,9.36,49.248,9.36,49.248,9.504,49.536,9.504,49.536,9.648,49.68,9.648,49.68,9.792,49.824,9.792,49.824,9.936,49.968,9.936,49.968,10.08,50.112,10.08,50.112,10.224,50.256,10.224,50.256,10.368,51.84,10.368,51.84,10.224,51.984,10.224,51.984,10.08,52.128,10.08,52.128,9.936,52.272,9.936,52.272,9.792,52.416,9.792,52.416,9.648,52.56,9.648,52.56,9.504,52.848,9.504,52.848,9.36,53.136,9.36,53.136,9.216,53.424,9.216,53.424,9.072,53.856,9.072,53.856,8.928" />
    <polygon stroke-width="0" stroke="none" fill="black" points="55.44,8.928,55.44,9.072,55.872,9.072,55.872,9.216,56.16,9.216,56.16,9.36,56.448,9.36,56.448,9.504,56.736,9.504,56.736,9.648,56.88,9.648,56.88,9.792,57.024,9.792,57.024,9.936,57.168,9.936,57.168,10.08,57.312,10.08,57.312,10.224,57.456,10.224,57.456,10.368,59.04,10.368,59.04,10.224,59.184,10.224,59.184,10.08,59.328,10.08,59.328,9.936,59.472,9.936,59.472,9.792,59.616,9.792,59.616,9.648,59.76,9.648,59.76,9.504,60.048,9.504,60.048,9.36,60.336,9.36,60.336,9.216,60.624,9.216,60.624,9.072,61.056,9.072,61.056,8.928" />
    <polygon stroke-width="0" stroke="none" fill="black" points="63.936,9.504,63.936,9.648,102.384,9.648,102.384,9.504" />
    <polygon stroke-width="0" stroke="none" fill="black" points="63.936,9.504,63.936,9.648,102.384,9.648,102.384,9.504" />
    <polygon stroke-width="0" stroke="none" fill="black" points="64.08,9.648,64.08,9.792,64.224,9.792,64.224,9.936,64.368,9.936,64.368,10.08,64.512,10.08,64.512,10.224,64.656,10.224,64.656,10.368,64.8,10.368,64.8,10.656,64.944,10.656,64.944,10.944,69.552,10.944,69.552,11.088,69.84,11.088,69.84,11.232,70.128,11.232,70.128,11.376,70.272,11.376,70.272,11.52,70.416,11.52,70.416,11.664,70.56,11.664,70.56,11.808,70.704,11.808,70.704,11.952,70.848,11.952,70.848,12.096,70.992,12.096,70.992,12.24,71.136,12.24,71.136,12.384,71.28,12.384,71.28,12.528,71.424,12.528,71.424,12.672,71.568,12.672,71.568,12.816,71.712,12.816,71.712,12.96,71.856,12.96,71.856,13.104,72,13.104,72,13.248,72.144,13.248,72.144,13.392,72.288,13.392,72.288,13.536,72.432,13.536,72.432,13.68,72.576,13.68,72.576,13.824,72.72,13.824,72.72,13.968,72.864,13.968,72.864,14.112,73.008,14.112,73.008,14.256,73.152,14.256,73.152,14.4,73.296,14.4,73.296,14.544,73.44,14.544,73.44,14.688,73.584,14.688,73.584,14.832,73.728,14.832,73.728,14.976,73.872,14.976,73.872,15.12,74.016,15.12,74.016,15.264,74.16,15.264,74.16,15.408,74.304,15.408,74.304,15.552,74.448,15.552,74.448,15.696,74.592,15.696,74.592,15.84,74.736,15.84,74.736,15.984,74.88,15.984,74.88,16.128,75.024,16.128,75.024,16.272,75.168,16.272,75.168,16.416,75.312,16.416,75.312,16.56,75.456,16.56,75.456,16.704,75.6,16.704,75.6,16.848,75.744,16.848,75.744,16.992,75.888,16.992,75.888,17.136,100.368,17.136,100.368,17.28,100.8,17.28,100.8,17.424,102.384,17.424,102.384,9.648" />
    <polygon stroke-width="0" stroke="none" fill="black" points="64.944,14.112,64.944,14.4,64.8,14.4,64.8,14.544,64.656,14.544,64.656,14.688,64.512,14.688,64.512,14.976,64.368,14.976,64.368,15.12,64.08,15.12,64.08,15.264,63.936,15.264,63.936,15.408,63.792,15.408,63.792,15.552,63.504,15.552,63.504,15.696,63.216,15.696,63.216,15.84,62.784,15.84,62.784,15.984,61.92,15.984,61.92,16.128,70.416,16.128,70.416,15.984,70.272,15.984,70.272,15.84,70.128,15.84,70.128,15.696,69.984,15.696,69.984,15.552,69.84,15.552,69.84,15.408,69.696,15.408,69.696,15.264,69.552,15.264,69.552,15.12,69.408,15.12,69.408,14.976,69.264,14.976,69.264,14.832,69.12,14.832,69.12,14.688,68.976,14.688,68.976,14.544,68.832,14.544,68.832,14.4,68.688,14.4,68.688,14.256,68.544,14.256,68.544,14.112" />
    <polygon stroke-width="0" stroke="none" fill="black" points="35.856,14.544,35.856,14.688,35.712,14.688,35.712,14.976,35.568,14.976,35.568,15.12,35.28,15.12,35.28,15.264,35.136,15.264,35.136,15.408,34.992,15.408,34.992,15.552,34.704,15.552,34.704,15.696,34.416,15.696,34.416,15.84,33.984,15.84,33.984,15.984,33.12,15.984,33.12,16.128,40.032,16.128,40.032,15.984,39.312,15.984,39.312,15.84,38.88,15.84,38.88,15.696,38.592,15.696,38.592,15.552,38.304,15.552,38.304,15.408,38.16,15.408,38.16,15.264,37.872,15.264,37.872,15.12,37.728,15.12,37.728,14.976,37.584,14.976,37.584,14.832,37.44,14.832,37.44,14.544" />
    <polygon stroke-width="0" stroke="none" fill="black" points="43.056,14.544,43.056,14.688,42.912,14.688,42.912,14.976,42.768,14.976,42.768,15.12,42.48,15.12,42.48,15.264,42.336,15.264,42.336,15.408,42.192,15.408,42.192,15.552,41.904,15.552,41.904,15.696,41.616,15.696,41.616,15.84,41.184,15.84,41.184,15.984,40.32,15.984,40.32,16.128,45.792,16.128,45.792,15.552,45.504,15.552,45.504,15.408,45.36,15.408,45.36,15.264,45.072,15.264,45.072,15.12,44.928,15.12,44.928,14.976,44.784,14.976,44.784,14.832,44.64,14.832,44.64,14.544" />
    <polygon stroke-width="0" stroke="none" fill="black" points="50.256,14.544,50.256,14.688,50.112,14.688,50.112,14.976,49.968,14.976,49.968,15.12,49.68,15.12,49.68,15.264,49.536,15.264,49.536,15.408,49.392,15.408,49.392,15.552,49.104,15.552,49.104,15.696,48.96,15.696,48.96,23.328,54.432,23.328,54.432,23.184,53.712,23.184,53.712,23.04,53.28,23.04,53.28,22.896,52.992,22.896,52.992,22.752,52.704,22.752,52.704,22.608,52.56,22.608,52.56,22.464,52.272,22.464,52.272,22.32,52.128,22.32,52.128,22.176,51.984,22.176,51.984,22.032,51.84,22.032,51.84,21.744,51.696,21.744,51.696,21.6,51.552,21.6,51.552,21.312,51.408,21.312,51.408,21.024,51.264,21.024,51.264,20.592,51.12,20.592,51.12,18.72,51.264,18.72,51.264,18.288,51.408,18.288,51.408,18,51.552,18,51.552,17.712,51.696,17.712,51.696,17.568,51.84,17.568,51.84,17.424,51.984,17.424,51.984,17.28,52.128,17.28,52.128,17.136,52.272,17.136,52.272,16.992,52.416,16.992,52.416,16.848,52.56,16.848,52.56,15.264,52.272,15.264,52.272,15.12,52.128,15.12,52.128,14.976,51.984,14.976,51.984,14.832,51.84,14.832,51.84,14.544" />
    <polygon stroke-width="0" stroke="none" fill="black" points="57.456,14.544,57.456,14.688,57.312,14.688,57.312,14.976,57.168,14.976,57.168,15.12,56.88,15.12,56.88,15.264,56.736,15.264,56.736,16.128,61.632,16.128,61.632,15.984,60.912,15.984,60.912,15.84,60.48,15.84,60.48,15.696,60.192,15.696,60.192,15.552,59.904,15.552,59.904,15.408,59.76,15.408,59.76,15.264,59.472,15.264,59.472,15.12,59.328,15.12,59.328,14.976,59.184,14.976,59.184,14.832,59.04,14.832,59.04,14.544" />
    <polygon stroke-width="0" stroke="none" fill="black" points="0,16.128,0,17.568,1.44,17.568,1.44,17.424,1.584,17.424,1.584,17.28,1.728,17.28,1.728,17.136,1.872,17.136,1.872,16.992,2.016,16.992,2.016,16.848,2.16,16.848,2.16,16.704,2.448,16.704,2.448,16.56,2.736,16.56,2.736,16.416,3.024,16.416,3.024,16.272,3.456,16.272,3.456,16.128" />
    <polygon stroke-width="0" stroke="none" fill="black" points="5.04,16.128,5.04,16.272,5.472,16.272,5.472,16.416,5.76,16.416,5.76,16.56,6.048,16.56,6.048,16.704,6.336,16.704,6.336,16.848,6.48,16.848,6.48,16.992,6.624,16.992,6.624,17.136,6.768,17.136,6.768,17.28,6.912,17.28,6.912,17.424,7.056,17.424,7.056,17.568,8.64,17.568,8.64,17.424,8.784,17.424,8.784,17.28,8.928,17.28,8.928,17.136,9.072,17.136,9.072,16.992,9.216,16.992,9.216,16.848,9.36,16.848,9.36,16.704,9.648,16.704,9.648,16.56,9.936,16.56,9.936,16.416,10.224,16.416,10.224,16.272,10.656,16.272,10.656,16.128" />
    <polygon stroke-width="0" stroke="none" fill="black" points="12.24,16.128,12.24,16.272,12.672,16.272,12.672,16.416,12.96,16.416,12.96,16.56,13.248,16.56,13.248,16.704,13.536,16.704,13.536,16.848,13.68,16.848,13.68,16.992,13.824,16.992,13.824,17.136,13.968,17.136,13.968,17.28,14.112,17.28,14.112,17.424,14.256,17.424,14.256,17.568,15.84,17.568,15.84,17.424,15.984,17.424,15.984,17.28,16.128,17.28,16.128,17.136,16.272,17.136,16.272,16.992,16.416,16.992,16.416,16.848,16.56,16.848,16.56,16.704,16.848,16.704,16.848,16.56,17.136,16.56,17.136,16.416,17.424,16.416,17.424,16.272,17.856,16.272,17.856,16.128" />
    <polygon stroke-width="0" stroke="none" fill="black" points="26.64,16.128,26.64,16.272,45.792,16.272,45.792,16.128" />
    <polygon stroke-width="0" stroke="none" fill="black" points="26.64,16.128,26.64,16.272,45.792,16.272,45.792,16.128" />
    <polygon stroke-width="0" stroke="none" fill="black" points="26.64,16.128,26.64,16.272,45.792,16.272,45.792,16.128" />
    <polygon stroke-width="0" stroke="none" fill="black" points="56.736,16.128,56.736,16.272,70.56,16.272,70.56,16.128" />
    <polygon stroke-width="0" stroke="none" fill="black" points="56.736,16.128,56.736,16.272,70.56,16.272,70.56,16.128" />
    <polygon stroke-width="0" stroke="none" fill="black" points="27.072,16.272,27.072,16.416,27.36,16.416,27.36,16.56,27.648,16.56,27.648,16.704,27.936,16.704,27.936,16.848,28.08,16.848,28.08,16.992,28.224,16.992,28.224,17.136,28.368,17.136,28.368,17.28,28.512,17.28,28.512,17.424,28.656,17.424,28.656,17.568,28.8,17.568,28.8,17.856,28.944,17.856,28.944,18.144,29.088,18.144,29.088,18.432,29.232,18.432,29.232,18.864,29.376,18.864,29.376,20.448,29.232,20.448,29.232,21.024,29.088,21.024,29.088,21.312,28.944,21.312,28.944,21.6,28.8,21.6,28.8,21.744,28.656,21.744,28.656,21.888,28.512,21.888,28.512,22.176,28.368,22.176,28.368,22.32,28.08,22.32,28.08,22.464,27.936,22.464,27.936,22.608,27.792,22.608,27.792,22.752,27.504,22.752,27.504,22.896,27.36,22.896,27.36,47.952,27.504,47.952,27.504,48.096,27.648,48.096,27.648,48.24,27.792,48.24,27.792,48.384,27.936,48.384,27.936,48.528,28.08,48.528,28.08,48.672,28.224,48.672,28.224,48.816,28.368,48.816,28.368,48.96,28.512,48.96,28.512,49.104,28.656,49.104,28.656,49.248,28.8,49.248,28.8,49.392,28.944,49.392,28.944,49.536,29.088,49.536,29.088,49.68,29.232,49.68,29.232,49.824,29.376,49.824,29.376,49.968,29.52,49.968,29.52,50.112,29.808,50.112,29.808,50.256,29.952,50.256,29.952,50.4,30.096,50.4,30.096,50.544,30.24,50.544,30.24,50.688,30.384,50.688,30.384,50.832,30.528,50.832,30.528,50.976,30.672,50.976,30.672,51.12,30.816,51.12,30.816,51.264,30.96,51.264,30.96,51.408,31.104,51.408,31.104,51.552,31.248,51.552,31.248,51.696,31.392,51.696,31.392,51.84,31.536,51.84,31.536,51.984,31.68,51.984,31.68,52.128,62.64,52.128,62.64,52.272,63.072,52.272,63.072,52.416,63.36,52.416,63.36,52.56,63.648,52.56,63.648,52.704,63.936,52.704,63.936,52.848,64.08,52.848,64.08,52.992,64.224,52.992,64.224,53.136,64.368,53.136,64.368,53.28,64.512,53.28,64.512,53.424,64.656,53.424,64.656,53.568,64.8,53.568,64.8,53.856,64.944,53.856,64.944,54.144,65.088,54.144,65.088,54.432,65.232,54.432,65.232,54.864,65.376,54.864,65.376,56.448,65.232,56.448,65.232,57.024,65.088,57.024,65.088,57.312,64.944,57.312,64.944,57.6,64.8,57.6,64.8,57.744,64.656,57.744,64.656,57.888,64.512,57.888,64.512,58.176,64.368,58.176,64.368,58.32,64.08,58.32,64.08,58.464,63.936,58.464,63.936,58.608,63.792,58.608,63.792,58.752,63.504,58.752,63.504,58.896,63.216,58.896,63.216,59.04,75.312,59.04,75.312,58.896,74.88,58.896,74.88,58.752,74.592,58.752,74.592,58.608,74.304,58.608,74.304,58.464,74.16,58.464,74.16,58.32,74.016,58.32,74.016,58.176,73.728,58.176,73.728,57.888,73.584,57.888,73.584,57.744,73.44,57.744,73.44,57.6,73.296,57.6,73.296,57.312,73.152,57.312,73.152,57.024,73.008,57.024,73.008,56.592,72.864,56.592,72.864,55.728,72.72,55.728,72.72,54.288,72.576,54.288,72.576,54.144,72.432,54.144,72.432,54,72.288,54,72.288,53.856,72.144,53.856,72.144,53.712,72,53.712,72,53.568,71.856,53.568,71.856,53.424,71.712,53.424,71.712,53.28,71.568,53.28,71.568,53.136,71.424,53.136,71.424,52.992,71.28,52.992,71.28,52.848,71.136,52.848,71.136,52.704,70.992,52.704,70.992,52.56,70.848,52.56,70.848,52.416,70.704,52.416,70.704,52.272,70.56,52.272,70.56,52.128,70.416,52.128,70.416,51.984,70.272,51.984,70.272,51.84,70.128,51.84,70.128,51.696,69.984,51.696,69.984,51.552,69.84,51.552,69.84,51.408,69.696,51.408,69.696,51.264,69.552,51.264,69.552,51.12,69.408,51.12,69.408,50.976,69.264,50.976,69.264,50.832,69.12,50.832,69.12,50.688,68.976,50.688,68.976,50.544,68.832,50.544,68.832,50.4,68.688,50.4,68.688,50.256,68.544,50.256,68.544,50.112,68.4,50.112,68.4,49.968,68.256,49.968,68.256,49.824,68.112,49.824,68.112,49.68,67.968,49.68,67.968,49.536,67.824,49.536,67.824,49.392,67.68,49.392,67.68,49.248,67.536,49.248,67.536,49.104,67.392,49.104,67.392,48.96,67.248,48.96,67.248,48.816,67.104,48.816,67.104,48.672,66.96,48.672,66.96,48.528,66.816,48.528,66.816,48.384,66.672,48.384,66.672,48.24,66.528,48.24,66.528,48.096,66.384,48.096,66.384,47.952,66.24,47.952,66.24,47.808,66.096,47.808,66.096,47.664,65.952,47.664,65.952,47.52,65.808,47.52,65.808,47.376,65.664,47.376,65.664,47.232,65.52,47.232,65.52,47.088,65.376,47.088,65.376,46.944,65.232,46.944,65.232,46.8,65.088,46.8,65.088,46.656,64.944,46.656,64.944,46.512,64.8,46.512,64.8,46.368,64.656,46.368,64.656,46.224,64.512,46.224,64.512,46.08,64.368,46.08,64.368,45.936,64.224,45.936,64.224,45.792,64.08,45.792,64.08,45.648,63.936,45.648,63.936,45.504,63.792,45.504,63.792,45.36,63.648,45.36,63.648,45.216,63.504,45.216,63.504,45.072,63.36,45.072,63.36,44.928,63.216,44.928,63.216,44.784,63.072,44.784,63.072,44.64,62.928,44.64,62.928,44.496,62.784,44.496,62.784,44.352,62.64,44.352,62.64,44.208,62.496,44.208,62.496,44.064,62.352,44.064,62.352,43.92,62.208,43.92,62.208,43.776,62.064,43.776,62.064,43.632,61.92,43.632,61.92,43.488,61.776,43.488,61.776,43.344,61.632,43.344,61.632,43.2,61.488,43.2,61.488,43.056,61.344,43.056,61.344,42.912,61.2,42.912,61.2,42.768,61.056,42.768,61.056,42.624,60.912,42.624,60.912,42.48,60.768,42.48,60.768,42.336,60.624,42.336,60.624,42.192,60.48,42.192,60.48,42.048,60.336,42.048,60.336,41.904,60.192,41.904,60.192,41.76,60.048,41.76,60.048,41.616,59.904,41.616,59.904,41.472,59.76,41.472,59.76,41.328,59.616,41.328,59.616,41.184,59.472,41.184,59.472,41.04,59.328,41.04,59.328,40.896,59.184,40.896,59.184,40.752,59.04,40.752,59.04,40.608,58.896,40.608,58.896,40.464,58.752,40.464,58.752,40.32,58.608,40.32,58.608,40.176,58.464,40.176,58.464,40.032,58.32,40.032,58.32,39.888,58.176,39.888,58.176,39.744,58.032,39.744,58.032,39.6,57.888,39.6,57.888,39.456,57.744,39.456,57.744,39.312,57.6,39.312,57.6,39.168,57.456,39.168,57.456,39.024,57.312,39.024,57.312,38.88,57.168,38.88,57.168,38.736,57.024,38.736,57.024,38.592,56.88,38.592,56.88,38.448,56.736,38.448,56.736,38.304,56.592,38.304,56.592,38.16,56.448,38.16,56.448,38.016,56.304,38.016,56.304,37.872,56.16,37.872,56.16,37.728,56.016,37.728,56.016,37.584,55.872,37.584,55.872,37.44,55.728,37.44,55.728,37.296,55.584,37.296,55.584,37.152,55.44,37.152,55.44,37.008,55.296,37.008,55.296,36.864,55.152,36.864,55.152,36.72,55.008,36.72,55.008,36.576,54.864,36.576,54.864,36.432,54.72,36.432,54.72,36.288,54.576,36.288,54.576,36.144,54.432,36.144,54.432,36,54.288,36,54.288,35.856,54.144,35.856,54.144,35.712,54,35.712,54,35.568,53.856,35.568,53.856,35.424,53.712,35.424,53.712,35.28,53.568,35.28,53.568,35.136,53.424,35.136,53.424,34.992,53.28,34.992,53.28,34.848,53.136,34.848,53.136,34.704,52.992,34.704,52.992,34.56,52.848,34.56,52.848,34.416,52.704,34.416,52.704,34.272,52.56,34.272,52.56,34.128,52.416,34.128,52.416,33.984,52.272,33.984,52.272,33.84,52.128,33.84,52.128,33.696,51.984,33.696,51.984,33.552,51.84,33.552,51.84,33.408,51.696,33.408,51.696,33.264,51.552,33.264,51.552,33.12,51.408,33.12,51.408,32.976,51.264,32.976,51.264,32.832,51.12,32.832,51.12,32.688,50.976,32.688,50.976,32.544,50.832,32.544,50.832,32.4,50.688,32.4,50.688,32.256,50.544,32.256,50.544,32.112,50.4,32.112,50.4,31.968,50.256,31.968,50.256,31.824,50.112,31.824,50.112,31.68,49.968,31.68,49.968,31.536,49.824,31.536,49.824,31.392,49.68,31.392,49.68,31.248,49.536,31.248,49.536,31.104,49.392,31.104,49.392,30.96,49.248,30.96,49.248,30.816,49.104,30.816,49.104,30.672,48.96,30.672,48.96,30.528,48.816,30.528,48.816,30.384,48.672,30.384,48.672,30.24,48.528,30.24,48.528,30.096,48.384,30.096,48.384,29.952,48.24,29.952,48.24,29.808,48.096,29.808,48.096,29.664,47.952,29.664,47.952,29.52,47.808,29.52,47.808,29.376,47.664,29.376,47.664,29.232,47.52,29.232,47.52,29.088,47.376,29.088,47.376,28.944,47.232,28.944,47.232,28.8,47.088,28.8,47.088,28.656,46.944,28.656,46.944,28.512,46.8,28.512,46.8,28.368,46.656,28.368,46.656,28.224,46.512,28.224,46.512,28.08,46.368,28.08,46.368,27.936,46.224,27.936,46.224,27.792,46.08,27.792,46.08,27.648,45.936,27.648,45.936,27.216,45.792,27.216,45.792,16.272" />
    <polygon stroke-width="0" stroke="none" fill="black" points="56.736,16.272,56.736,16.848,56.88,16.848,56.88,16.992,57.024,16.992,57.024,17.136,57.168,17.136,57.168,17.28,57.312,17.28,57.312,17.424,57.456,17.424,57.456,17.568,57.6,17.568,57.6,17.856,57.744,17.856,57.744,18.144,57.888,18.144,57.888,18.432,58.032,18.432,58.032,18.864,58.176,18.864,58.176,20.448,58.032,20.448,58.032,21.024,57.888,21.024,57.888,21.312,57.744,21.312,57.744,21.6,57.6,21.6,57.6,21.744,57.456,21.744,57.456,21.888,57.312,21.888,57.312,22.176,57.168,22.176,57.168,22.32,74.16,22.32,74.16,22.176,73.44,22.176,73.44,22.032,73.152,22.032,73.152,21.888,72.864,21.888,72.864,21.744,72.72,21.744,72.72,21.6,72.576,21.6,72.576,21.456,72.432,21.456,72.432,21.312,72.288,21.312,72.288,21.168,72.144,21.168,72.144,20.88,72,20.88,72,20.448,71.856,20.448,71.856,19.728,71.712,19.728,71.712,19.584,71.856,19.584,71.856,17.424,71.712,17.424,71.712,17.28,71.568,17.28,71.568,17.136,71.424,17.136,71.424,16.992,71.28,16.992,71.28,16.848,71.136,16.848,71.136,16.704,70.992,16.704,70.992,16.56,70.848,16.56,70.848,16.416,70.704,16.416,70.704,16.272" />
    <polygon stroke-width="0" stroke="none" fill="black" points="78.768,17.136,78.768,17.28,79.2,17.28,79.2,17.424,79.488,17.424,79.488,17.568,79.632,17.568,79.632,17.712,79.92,17.712,79.92,17.856,80.064,17.856,80.064,18.144,80.208,18.144,80.208,18.288,80.352,18.288,80.352,18.576,80.496,18.576,80.496,19.008,80.64,19.008,80.64,20.448,80.496,20.448,80.496,20.736,80.352,20.736,80.352,21.024,80.208,21.024,80.208,21.312,80.064,21.312,80.064,21.456,79.92,21.456,79.92,21.6,79.776,21.6,79.776,21.744,79.632,21.744,79.632,21.888,79.344,21.888,79.344,22.032,78.912,22.032,78.912,22.176,78.336,22.176,78.336,22.32,95.76,22.32,95.76,22.176,95.04,22.176,95.04,22.032,94.752,22.032,94.752,21.888,94.464,21.888,94.464,21.744,94.32,21.744,94.32,21.6,94.176,21.6,94.176,21.456,94.032,21.456,94.032,21.312,93.888,21.312,93.888,21.168,93.744,21.168,93.744,20.88,93.6,20.88,93.6,20.448,93.456,20.448,93.456,19.728,93.312,19.728,93.312,19.584,93.456,19.584,93.456,18.864,93.6,18.864,93.6,18.576,93.744,18.576,93.744,18.288,93.888,18.288,93.888,18,94.032,18,94.032,17.856,94.176,17.856,94.176,17.712,94.464,17.712,94.464,17.568,94.608,17.568,94.608,17.424,94.896,17.424,94.896,17.28,95.328,17.28,95.328,17.136" />
    <polygon stroke-width="0" stroke="none" fill="black" points="0,21.744,0,23.328,4.032,23.328,4.032,23.184,3.312,23.184,3.312,23.04,2.88,23.04,2.88,22.896,2.592,22.896,2.592,22.752,2.304,22.752,2.304,22.608,2.16,22.608,2.16,22.464,1.872,22.464,1.872,22.32,1.728,22.32,1.728,22.176,1.584,22.176,1.584,22.032,1.44,22.032,1.44,21.744" />
    <polygon stroke-width="0" stroke="none" fill="black" points="7.056,21.744,7.056,21.888,6.912,21.888,6.912,22.176,6.768,22.176,6.768,22.32,6.48,22.32,6.48,22.464,6.336,22.464,6.336,22.608,6.192,22.608,6.192,22.752,5.904,22.752,5.904,22.896,5.616,22.896,5.616,23.04,5.184,23.04,5.184,23.184,4.32,23.184,4.32,23.328,9.792,23.328,9.792,22.752,9.504,22.752,9.504,22.608,9.36,22.608,9.36,22.464,9.072,22.464,9.072,22.32,8.928,22.32,8.928,22.176,8.784,22.176,8.784,22.032,8.64,22.032,8.64,21.744" />
    <polygon stroke-width="0" stroke="none" fill="black" points="14.256,21.744,14.256,21.888,14.112,21.888,14.112,22.176,13.968,22.176,13.968,22.32,13.68,22.32,13.68,22.464,13.536,22.464,13.536,22.608,13.392,22.608,13.392,22.752,13.104,22.752,13.104,22.896,12.96,22.896,12.96,23.328,18.432,23.328,18.432,23.184,17.712,23.184,17.712,23.04,17.28,23.04,17.28,22.896,16.992,22.896,16.992,22.752,16.704,22.752,16.704,22.608,16.56,22.608,16.56,22.464,16.272,22.464,16.272,22.32,16.128,22.32,16.128,22.176,15.984,22.176,15.984,22.032,15.84,22.032,15.84,21.744" />
    <polygon stroke-width="0" stroke="none" fill="black" points="21.456,21.744,21.456,21.888,21.312,21.888,21.312,22.176,21.168,22.176,21.168,22.32,20.88,22.32,20.88,22.464,20.736,22.464,20.736,22.608,20.592,22.608,20.592,22.752,20.304,22.752,20.304,22.896,20.016,22.896,20.016,23.04,19.584,23.04,19.584,23.184,18.72,23.184,18.72,23.328,24.192,23.328,24.192,22.752,23.904,22.752,23.904,22.608,23.76,22.608,23.76,22.464,23.472,22.464,23.472,22.32,23.328,22.32,23.328,22.176,23.184,22.176,23.184,22.032,23.04,22.032,23.04,21.744" />
    <polygon stroke-width="0" stroke="none" fill="black" points="100.944,21.888,100.944,22.032,100.512,22.032,100.512,22.176,99.936,22.176,99.936,22.32,102.384,22.32,102.384,21.888" />
    <polygon stroke-width="0" stroke="none" fill="black" points="56.88,22.32,56.88,22.464,102.384,22.464,102.384,22.32" />
    <polygon stroke-width="0" stroke="none" fill="black" points="56.88,22.32,56.88,22.464,102.384,22.464,102.384,22.32" />
    <polygon stroke-width="0" stroke="none" fill="black" points="56.88,22.32,56.88,22.464,102.384,22.464,102.384,22.32" />
    <polygon stroke-width="0" stroke="none" fill="black" points="56.736,22.464,56.736,22.608,56.592,22.608,56.592,22.752,56.304,22.752,56.304,22.896,56.016,22.896,56.016,23.04,55.584,23.04,55.584,23.184,54.72,23.184,54.72,23.328,102.384,23.328,102.384,22.464" />
    <polygon stroke-width="0" stroke="none" fill="black" points="0,23.328,0,23.472,9.792,23.472,9.792,23.328" />
    <polygon stroke-width="0" stroke="none" fill="black" points="0,23.328,0,23.472,9.792,23.472,9.792,23.328" />
    <polygon stroke-width="0" stroke="none" fill="black" points="12.96,23.328,12.96,23.472,24.192,23.472,24.192,23.328" />
    <polygon stroke-width="0" stroke="none" fill="black" points="12.96,23.328,12.96,23.472,24.192,23.472,24.192,23.328" />
    <polygon stroke-width="0" stroke="none" fill="black" points="48.96,23.328,48.96,23.472,102.384,23.472,102.384,23.328" />
    <polygon stroke-width="0" stroke="none" fill="black" points="48.96,23.328,48.96,23.472,102.384,23.472,102.384,23.328" />
    <polygon stroke-width="0" stroke="none" fill="black" points="0,23.472,0,58.608,4.896,58.608,4.896,58.752,5.472,58.752,5.472,58.896,5.904,58.896,5.904,59.04,6.192,59.04,6.192,59.184,6.48,59.184,6.48,59.328,6.624,59.328,6.624,59.472,6.912,59.472,6.912,59.616,7.056,59.616,7.056,59.76,7.2,59.76,7.2,59.904,7.344,59.904,7.344,60.048,7.488,60.048,7.488,60.192,7.632,60.192,7.632,60.48,7.776,60.48,7.776,60.624,7.92,60.624,7.92,60.912,8.064,60.912,8.064,61.2,8.208,61.2,8.208,61.488,8.352,61.488,8.352,62.208,8.496,62.208,8.496,63.648,8.352,63.648,8.352,64.224,8.208,64.224,8.208,64.368,25.344,64.368,25.344,64.224,24.912,64.224,24.912,64.08,24.768,64.08,24.768,63.936,24.624,63.936,24.624,63.792,24.48,63.792,24.48,63.648,24.336,63.648,24.336,63.504,24.192,63.504,24.192,63.36,24.048,63.36,24.048,63.216,23.904,63.216,23.904,63.072,23.76,63.072,23.76,62.928,23.616,62.928,23.616,62.784,23.472,62.784,23.472,62.64,23.328,62.64,23.328,62.496,23.184,62.496,23.184,62.352,23.04,62.352,23.04,62.208,22.896,62.208,22.896,62.064,22.752,62.064,22.752,61.92,22.608,61.92,22.608,61.776,22.464,61.776,22.464,61.632,22.32,61.632,22.32,61.488,22.176,61.488,22.176,61.344,22.032,61.344,22.032,61.2,21.888,61.2,21.888,61.056,21.744,61.056,21.744,60.912,21.6,60.912,21.6,60.768,21.456,60.768,21.456,60.624,21.312,60.624,21.312,60.48,21.168,60.48,21.168,60.336,21.024,60.336,21.024,60.192,20.88,60.192,20.88,60.048,20.736,60.048,20.736,59.904,20.592,59.904,20.592,59.76,20.448,59.76,20.448,59.616,20.304,59.616,20.304,59.472,20.16,59.472,20.16,59.328,20.016,59.328,20.016,59.184,19.872,59.184,19.872,59.04,19.728,59.04,19.728,58.896,19.584,58.896,19.584,58.752,19.44,58.752,19.44,58.608,19.296,58.608,19.296,58.464,19.152,58.464,19.152,58.32,19.008,58.32,19.008,58.176,18.864,58.176,18.864,58.032,18.72,58.032,18.72,57.888,18.576,57.888,18.576,57.744,18.432,57.744,18.432,57.6,18.288,57.6,18.288,57.456,18.144,57.456,18.144,57.312,18,57.312,18,57.168,17.712,57.168,17.712,57.024,17.568,57.024,17.568,56.88,17.424,56.88,17.424,56.736,17.28,56.736,17.28,56.592,17.136,56.592,17.136,56.448,16.992,56.448,16.992,56.304,16.848,56.304,16.848,56.16,16.704,56.16,16.704,56.016,16.56,56.016,16.56,55.872,16.416,55.872,16.416,55.728,16.272,55.728,16.272,55.584,16.128,55.584,16.128,55.44,15.984,55.44,15.984,55.296,15.84,55.296,15.84,55.152,15.696,55.152,15.696,55.008,15.552,55.008,15.552,54.864,15.408,54.864,15.408,54.72,15.264,54.72,15.264,54.576,15.12,54.576,15.12,54.432,14.976,54.432,14.976,54.288,14.832,54.288,14.832,54.144,14.688,54.144,14.688,54,14.544,54,14.544,53.856,14.4,53.856,14.4,53.712,14.256,53.712,14.256,53.568,14.112,53.568,14.112,53.424,13.968,53.424,13.968,53.28,13.824,53.28,13.824,53.136,13.68,53.136,13.68,52.992,13.536,52.992,13.536,52.848,13.392,52.848,13.392,52.704,13.248,52.704,13.248,52.56,13.104,52.56,13.104,52.416,12.96,52.416,12.96,52.272,12.816,52.272,12.816,52.128,12.672,52.128,12.672,51.984,12.528,51.984,12.528,51.84,12.384,51.84,12.384,51.696,12.24,51.696,12.24,51.552,12.096,51.552,12.096,51.408,11.952,51.408,11.952,51.264,11.808,51.264,11.808,51.12,11.664,51.12,11.664,50.976,11.52,50.976,11.52,50.832,11.376,50.832,11.376,50.688,11.232,50.688,11.232,50.544,11.088,50.544,11.088,50.4,10.944,50.4,10.944,50.256,10.8,50.256,10.8,50.112,10.656,50.112,10.656,49.968,10.512,49.968,10.512,49.824,10.368,49.824,10.368,49.68,10.224,49.68,10.224,49.536,10.08,49.536,10.08,49.248,9.936,49.248,9.936,48.96,9.792,48.96,9.792,23.472" />
    <polygon stroke-width="0" stroke="none" fill="black" points="12.96,23.472,12.96,47.952,13.104,47.952,13.104,48.096,13.248,48.096,13.248,48.24,13.392,48.24,13.392,48.384,13.536,48.384,13.536,48.528,13.68,48.528,13.68,48.672,13.824,48.672,13.824,48.816,13.968,48.816,13.968,48.96,14.112,48.96,14.112,49.104,14.256,49.104,14.256,49.248,14.4,49.248,14.4,49.392,14.544,49.392,14.544,49.536,14.688,49.536,14.688,49.68,14.832,49.68,14.832,49.824,14.976,49.824,14.976,49.968,15.12,49.968,15.12,50.112,15.264,50.112,15.264,50.256,15.408,50.256,15.408,50.4,15.552,50.4,15.552,50.544,15.696,50.544,15.696,50.688,15.84,50.688,15.84,50.832,15.984,50.832,15.984,50.976,16.128,50.976,16.128,51.12,16.272,51.12,16.272,51.264,16.416,51.264,16.416,51.408,16.56,51.408,16.56,51.552,16.704,51.552,16.704,51.696,16.848,51.696,16.848,51.84,16.992,51.84,16.992,51.984,17.136,51.984,17.136,52.128,17.28,52.128,17.28,52.272,17.424,52.272,17.424,52.416,17.568,52.416,17.568,52.56,17.712,52.56,17.712,52.704,17.856,52.704,17.856,52.848,18,52.848,18,52.992,18.144,52.992,18.144,53.136,18.432,53.136,18.432,53.28,18.576,53.28,18.576,53.424,18.72,53.424,18.72,53.568,18.864,53.568,18.864,53.712,19.008,53.712,19.008,53.856,19.152,53.856,19.152,54,19.296,54,19.296,54.144,19.44,54.144,19.44,54.288,19.584,54.288,19.584,54.432,19.728,54.432,19.728,54.576,19.872,54.576,19.872,54.72,20.016,54.72,20.016,54.864,20.16,54.864,20.16,55.008,20.304,55.008,20.304,55.152,20.448,55.152,20.448,55.296,20.592,55.296,20.592,55.44,20.736,55.44,20.736,55.584,20.88,55.584,20.88,55.728,21.024,55.728,21.024,55.872,21.168,55.872,21.168,56.016,21.312,56.016,21.312,56.16,21.456,56.16,21.456,56.304,21.6,56.304,21.6,56.448,21.744,56.448,21.744,56.592,21.888,56.592,21.888,56.736,22.032,56.736,22.032,56.88,22.176,56.88,22.176,57.024,22.32,57.024,22.32,57.168,22.464,57.168,22.464,57.312,22.608,57.312,22.608,57.456,22.752,57.456,22.752,57.6,22.896,57.6,22.896,57.744,23.04,57.744,23.04,57.888,23.184,57.888,23.184,58.032,23.328,58.032,23.328,58.176,23.472,58.176,23.472,58.32,23.616,58.32,23.616,58.464,23.76,58.464,23.76,58.608,23.904,58.608,23.904,58.752,24.048,58.752,24.048,58.896,24.192,58.896,24.192,59.04,24.336,59.04,24.336,59.184,24.48,59.184,24.48,59.328,32.832,59.328,32.832,59.184,32.112,59.184,32.112,59.04,31.68,59.04,31.68,58.896,31.392,58.896,31.392,58.752,31.104,58.752,31.104,58.608,30.96,58.608,30.96,58.464,30.672,58.464,30.672,58.32,30.528,58.32,30.528,58.176,30.384,58.176,30.384,58.032,30.24,58.032,30.24,57.744,30.096,57.744,30.096,57.6,29.952,57.6,29.952,57.312,29.808,57.312,29.808,57.024,29.664,57.024,29.664,56.592,29.52,56.592,29.52,54.432,29.376,54.432,29.376,54.288,29.232,54.288,29.232,54.144,29.088,54.144,29.088,54,28.944,54,28.944,53.856,28.8,53.856,28.8,53.712,28.656,53.712,28.656,53.568,28.512,53.568,28.512,53.424,28.368,53.424,28.368,53.28,28.224,53.28,28.224,53.136,28.08,53.136,28.08,52.992,27.936,52.992,27.936,52.848,27.792,52.848,27.792,52.704,27.648,52.704,27.648,52.56,27.504,52.56,27.504,52.416,27.36,52.416,27.36,52.272,27.216,52.272,27.216,52.128,27.072,52.128,27.072,51.984,26.928,51.984,26.928,51.84,26.784,51.84,26.784,51.696,26.64,51.696,26.64,51.552,26.496,51.552,26.496,51.408,26.352,51.408,26.352,51.264,26.208,51.264,26.208,51.12,26.064,51.12,26.064,50.976,25.92,50.976,25.92,50.832,25.776,50.832,25.776,50.688,25.632,50.688,25.632,50.544,25.488,50.544,25.488,50.4,25.344,50.4,25.344,50.256,25.2,50.256,25.2,50.112,25.056,50.112,25.056,49.968,24.912,49.968,24.912,49.824,24.768,49.824,24.768,49.68,24.624,49.68,24.624,49.536,24.48,49.536,24.48,49.248,24.336,49.248,24.336,48.96,24.192,48.96,24.192,23.472" />
    <polygon stroke-width="0" stroke="none" fill="black" points="48.96,23.472,48.96,24.336,100.368,24.336,100.368,24.48,100.8,24.48,100.8,24.624,102.384,24.624,102.384,23.472" />
    <polygon stroke-width="0" stroke="none" fill="black" points="48.96,24.336,48.96,26.208,49.104,26.208,49.104,26.352,49.248,26.352,49.248,26.496,49.392,26.496,49.392,26.64,49.536,26.64,49.536,26.784,49.68,26.784,49.68,26.928,49.824,26.928,49.824,27.072,49.968,27.072,49.968,27.216,50.112,27.216,50.112,27.36,50.256,27.36,50.256,27.504,50.4,27.504,50.4,27.648,50.544,27.648,50.544,27.792,50.688,27.792,50.688,27.936,50.832,27.936,50.832,28.08,50.976,28.08,50.976,28.224,51.12,28.224,51.12,28.368,51.264,28.368,51.264,28.512,51.408,28.512,51.408,28.656,51.552,28.656,51.552,28.8,51.696,28.8,51.696,28.944,51.84,28.944,51.84,29.088,51.984,29.088,51.984,29.232,52.128,29.232,52.128,29.376,52.272,29.376,52.272,29.52,52.416,29.52,52.416,29.664,52.56,29.664,52.56,29.808,52.704,29.808,52.704,29.952,52.848,29.952,52.848,30.096,52.992,30.096,52.992,30.24,53.136,30.24,53.136,30.384,53.28,30.384,53.28,30.528,53.424,30.528,53.424,30.672,53.568,30.672,53.568,30.816,53.712,30.816,53.712,30.96,53.856,30.96,53.856,31.104,54,31.104,54,31.248,54.144,31.248,54.144,31.392,54.288,31.392,54.288,31.536,54.432,31.536,54.432,31.68,54.576,31.68,54.576,31.824,54.72,31.824,54.72,31.968,54.864,31.968,54.864,32.112,55.008,32.112,55.008,32.256,55.152,32.256,55.152,32.4,55.296,32.4,55.296,32.544,55.44,32.544,55.44,32.688,55.584,32.688,55.584,32.832,55.728,32.832,55.728,32.976,55.872,32.976,55.872,33.12,56.016,33.12,56.016,33.264,56.16,33.264,56.16,33.408,56.304,33.408,56.304,33.552,56.448,33.552,56.448,33.696,56.592,33.696,56.592,33.84,56.736,33.84,56.736,33.984,56.88,33.984,56.88,34.128,57.024,34.128,57.024,34.272,57.168,34.272,57.168,34.416,57.312,34.416,57.312,34.56,57.456,34.56,57.456,34.704,57.6,34.704,57.6,34.848,57.744,34.848,57.744,34.992,57.888,34.992,57.888,35.136,58.032,35.136,58.032,35.28,58.176,35.28,58.176,35.424,58.32,35.424,58.32,35.568,58.464,35.568,58.464,35.712,58.608,35.712,58.608,35.856,58.752,35.856,58.752,36,58.896,36,58.896,36.144,59.04,36.144,59.04,36.288,59.184,36.288,59.184,36.432,59.328,36.432,59.328,36.576,59.472,36.576,59.472,36.72,59.616,36.72,59.616,36.864,59.76,36.864,59.76,37.008,59.904,37.008,59.904,37.152,60.048,37.152,60.048,37.296,60.192,37.296,60.192,37.44,60.336,37.44,60.336,37.584,60.48,37.584,60.48,37.728,60.624,37.728,60.624,37.872,60.768,37.872,60.768,38.016,60.912,38.016,60.912,38.16,61.056,38.16,61.056,38.304,61.2,38.304,61.2,38.448,61.344,38.448,61.344,38.592,61.488,38.592,61.488,38.736,61.632,38.736,61.632,38.88,61.776,38.88,61.776,39.024,61.92,39.024,61.92,39.168,62.064,39.168,62.064,39.312,62.208,39.312,62.208,39.456,62.352,39.456,62.352,39.6,62.496,39.6,62.496,39.744,62.64,39.744,62.64,39.888,62.784,39.888,62.784,40.032,62.928,40.032,62.928,40.176,63.072,40.176,63.072,40.32,63.216,40.32,63.216,40.464,63.36,40.464,63.36,40.608,63.504,40.608,63.504,40.752,63.648,40.752,63.648,40.896,63.792,40.896,63.792,41.04,63.936,41.04,63.936,41.184,64.08,41.184,64.08,41.328,64.224,41.328,64.224,41.472,64.368,41.472,64.368,41.616,64.512,41.616,64.512,41.76,64.656,41.76,64.656,41.904,64.8,41.904,64.8,42.048,64.944,42.048,64.944,42.192,65.088,42.192,65.088,42.336,65.232,42.336,65.232,42.48,65.376,42.48,65.376,42.624,65.52,42.624,65.52,42.768,65.664,42.768,65.664,42.912,65.808,42.912,65.808,43.056,65.952,43.056,65.952,43.2,66.096,43.2,66.096,43.344,66.24,43.344,66.24,43.488,66.384,43.488,66.384,43.632,66.528,43.632,66.528,43.776,66.672,43.776,66.672,43.92,66.816,43.92,66.816,44.064,66.96,44.064,66.96,44.208,67.104,44.208,67.104,44.352,67.248,44.352,67.248,44.496,67.392,44.496,67.392,44.64,67.536,44.64,67.536,44.784,67.68,44.784,67.68,44.928,67.824,44.928,67.824,45.072,67.968,45.072,67.968,45.216,68.112,45.216,68.112,45.36,68.256,45.36,68.256,45.504,68.4,45.504,68.4,45.648,68.544,45.648,68.544,45.792,68.688,45.792,68.688,45.936,68.832,45.936,68.832,46.08,68.976,46.08,68.976,46.224,69.12,46.224,69.12,46.368,69.264,46.368,69.264,46.512,69.408,46.512,69.408,46.656,69.552,46.656,69.552,46.8,69.696,46.8,69.696,46.944,69.84,46.944,69.84,47.088,69.984,47.088,69.984,47.232,70.128,47.232,70.128,47.376,70.272,47.376,70.272,47.52,70.416,47.52,70.416,47.664,70.56,47.664,70.56,47.808,70.704,47.808,70.704,47.952,70.848,47.952,70.848,48.096,70.992,48.096,70.992,48.24,71.136,48.24,71.136,48.384,71.28,48.384,71.28,48.528,71.424,48.528,71.424,48.672,71.568,48.672,71.568,48.816,71.712,48.816,71.712,48.96,71.856,48.96,71.856,49.104,72,49.104,72,49.248,72.144,49.248,72.144,49.392,72.288,49.392,72.288,49.536,72.432,49.536,72.432,49.68,72.576,49.68,72.576,49.824,72.72,49.824,72.72,49.968,72.864,49.968,72.864,50.112,73.008,50.112,73.008,50.256,73.152,50.256,73.152,50.4,73.296,50.4,73.296,50.544,73.44,50.544,73.44,50.688,73.584,50.688,73.584,50.832,73.728,50.832,73.728,50.976,73.872,50.976,73.872,51.12,74.016,51.12,74.016,51.264,74.16,51.264,74.16,51.408,74.304,51.408,74.304,51.552,74.448,51.552,74.448,51.696,74.592,51.696,74.592,51.84,74.736,51.84,74.736,51.984,74.88,51.984,74.88,52.128,75.024,52.128,75.024,52.272,76.896,52.272,76.896,52.416,77.328,52.416,77.328,52.56,77.76,52.56,77.76,52.704,77.904,52.704,77.904,52.848,78.192,52.848,78.192,52.992,78.336,52.992,78.336,53.136,78.624,53.136,78.624,53.28,78.768,53.28,78.768,53.568,78.912,53.568,78.912,53.712,79.056,53.712,79.056,54,79.2,54,79.2,54.144,79.344,54.144,79.344,54.576,79.488,54.576,79.488,55.008,79.632,55.008,79.632,56.304,79.488,56.304,79.488,56.88,79.344,56.88,79.344,57.168,79.2,57.168,79.2,57.456,79.056,57.456,79.056,57.6,78.912,57.6,78.912,57.888,78.768,57.888,78.768,58.032,78.624,58.032,78.624,58.176,78.48,58.176,78.48,58.32,78.336,58.32,78.336,58.464,78.048,58.464,78.048,58.608,77.76,58.608,77.76,58.752,77.616,58.752,77.616,58.896,77.04,58.896,77.04,59.04,81.792,59.04,81.792,49.248,81.648,49.248,81.648,49.104,81.504,49.104,81.504,48.96,81.216,48.96,81.216,48.816,81.072,48.816,81.072,48.672,80.928,48.672,80.928,48.528,80.64,48.528,80.64,48.384,80.496,48.384,80.496,48.24,80.352,48.24,80.352,48.096,80.208,48.096,80.208,47.952,79.92,47.952,79.92,47.808,79.776,47.808,79.776,47.664,79.632,47.664,79.632,47.52,79.344,47.52,79.344,47.376,79.2,47.376,79.2,47.232,79.056,47.232,79.056,47.088,78.912,47.088,78.912,46.944,78.624,46.944,78.624,46.8,78.48,46.8,78.48,46.656,78.336,46.656,78.336,46.512,78.192,46.512,78.192,46.368,75.6,46.368,75.6,46.224,75.168,46.224,75.168,46.08,74.736,46.08,74.736,45.936,74.448,45.936,74.448,45.792,74.304,45.792,74.304,45.648,74.016,45.648,74.016,45.504,73.872,45.504,73.872,45.36,73.728,45.36,73.728,45.216,73.584,45.216,73.584,45.072,73.44,45.072,73.44,44.784,73.296,44.784,73.296,44.496,73.152,44.496,73.152,44.352,73.008,44.352,73.008,43.92,72.864,43.92,72.864,42.048,73.008,42.048,73.008,41.616,73.152,41.616,73.152,41.328,73.296,41.328,73.296,41.04,73.44,41.04,73.44,40.896,73.584,40.896,73.584,40.752,73.728,40.752,73.728,40.464,73.872,40.464,73.872,40.32,74.16,40.32,74.16,40.176,74.304,40.176,74.304,40.032,74.592,40.032,74.592,29.52,74.16,29.52,74.16,29.376,73.44,29.376,73.44,29.232,73.152,29.232,73.152,29.088,72.864,29.088,72.864,28.944,72.72,28.944,72.72,28.8,72.576,28.8,72.576,28.656,72.432,28.656,72.432,28.512,72.288,28.512,72.288,28.368,72.144,28.368,72.144,28.08,72,28.08,72,27.648,71.856,27.648,71.856,26.928,71.712,26.928,71.712,26.784,71.856,26.784,71.856,26.064,72,26.064,72,25.776,72.144,25.776,72.144,25.488,72.288,25.488,72.288,25.2,72.432,25.2,72.432,25.056,72.576,25.056,72.576,24.912,72.864,24.912,72.864,24.768,73.008,24.768,73.008,24.624,73.296,24.624,73.296,24.48,73.728,24.48,73.728,24.336" />
    <polygon stroke-width="0" stroke="none" fill="black" points="78.768,24.336,78.768,24.48,79.2,24.48,79.2,24.624,79.488,24.624,79.488,24.768,79.632,24.768,79.632,24.912,79.92,24.912,79.92,25.056,80.064,25.056,80.064,25.344,80.208,25.344,80.208,25.488,80.352,25.488,80.352,25.776,80.496,25.776,80.496,26.208,80.64,26.208,80.64,27.648,80.496,27.648,80.496,27.936,80.352,27.936,80.352,28.224,80.208,28.224,80.208,28.512,80.064,28.512,80.064,28.656,79.92,28.656,79.92,28.8,79.776,28.8,79.776,28.944,79.632,28.944,79.632,29.088,79.344,29.088,79.344,29.232,78.912,29.232,78.912,29.376,78.336,29.376,78.336,29.52,95.76,29.52,95.76,29.376,95.04,29.376,95.04,29.232,94.752,29.232,94.752,29.088,94.464,29.088,94.464,28.944,94.32,28.944,94.32,28.8,94.176,28.8,94.176,28.656,94.032,28.656,94.032,28.512,93.888,28.512,93.888,28.368,93.744,28.368,93.744,28.08,93.6,28.08,93.6,27.648,93.456,27.648,93.456,26.928,93.312,26.928,93.312,26.784,93.456,26.784,93.456,26.064,93.6,26.064,93.6,25.776,93.744,25.776,93.744,25.488,93.888,25.488,93.888,25.2,94.032,25.2,94.032,25.056,94.176,25.056,94.176,24.912,94.464,24.912,94.464,24.768,94.608,24.768,94.608,24.624,94.896,24.624,94.896,24.48,95.328,24.48,95.328,24.336" />
    <polygon stroke-width="0" stroke="none" fill="black" points="100.944,29.088,100.944,29.232,100.512,29.232,100.512,29.376,99.936,29.376,99.936,29.52,102.384,29.52,102.384,29.088" />
    <polygon stroke-width="0" stroke="none" fill="black" points="77.76,29.52,77.76,29.664,102.384,29.664,102.384,29.52" />
    <polygon stroke-width="0" stroke="none" fill="black" points="77.76,29.52,77.76,29.664,102.384,29.664,102.384,29.52" />
    <polygon stroke-width="0" stroke="none" fill="black" points="77.76,29.664,77.76,39.456,94.896,39.456,94.896,39.6,95.616,39.6,95.616,39.744,96.048,39.744,96.048,39.888,96.336,39.888,96.336,40.032,96.48,40.032,96.48,40.176,96.768,40.176,96.768,40.32,96.912,40.32,96.912,40.464,97.056,40.464,97.056,40.608,97.2,40.608,97.2,40.752,97.344,40.752,97.344,40.896,97.488,40.896,97.488,41.184,97.632,41.184,97.632,41.472,97.776,41.472,97.776,41.76,97.92,41.76,97.92,42.336,98.064,42.336,98.064,43.488,97.92,43.488,97.92,44.064,97.776,44.064,97.776,44.352,97.632,44.352,97.632,44.64,97.488,44.64,97.488,44.928,97.344,44.928,97.344,45.072,97.2,45.072,97.2,45.216,97.056,45.216,97.056,45.36,96.912,45.36,96.912,45.504,96.768,45.504,96.768,45.648,96.624,45.648,96.624,45.792,96.336,45.792,96.336,45.936,96.048,45.936,96.048,46.08,95.76,46.08,95.76,46.224,95.184,46.224,95.184,46.368,102.384,46.368,102.384,29.664" />
    <polygon stroke-width="0" stroke="none" fill="black" points="77.76,39.456,77.76,39.888,77.904,39.888,77.904,40.032,78.048,40.032,78.048,40.176,78.336,40.176,78.336,40.32,78.48,40.32,78.48,40.464,78.624,40.464,78.624,40.608,78.768,40.608,78.768,40.752,78.912,40.752,78.912,40.896,79.056,40.896,79.056,41.184,79.2,41.184,79.2,41.472,79.344,41.472,79.344,41.76,79.488,41.76,79.488,42.336,79.632,42.336,79.632,43.632,79.776,43.632,79.776,43.776,79.92,43.776,79.92,43.92,80.208,43.92,80.208,44.064,80.352,44.064,80.352,44.208,80.496,44.208,80.496,44.352,80.64,44.352,80.64,44.496,80.928,44.496,80.928,44.64,81.072,44.64,81.072,44.784,81.216,44.784,81.216,44.928,81.36,44.928,81.36,45.072,81.648,45.072,81.648,45.216,81.792,45.216,81.792,45.36,81.936,45.36,81.936,45.504,82.224,45.504,82.224,45.648,82.368,45.648,82.368,45.792,82.512,45.792,82.512,45.936,82.656,45.936,82.656,46.08,82.944,46.08,82.944,46.224,83.088,46.224,83.088,46.368,94.032,46.368,94.032,46.224,93.6,46.224,93.6,46.08,93.168,46.08,93.168,45.936,92.88,45.936,92.88,45.792,92.736,45.792,92.736,45.648,92.448,45.648,92.448,45.504,92.304,45.504,92.304,45.36,92.16,45.36,92.16,45.216,92.016,45.216,92.016,45.072,91.872,45.072,91.872,44.784,91.728,44.784,91.728,44.64,91.584,44.64,91.584,44.352,91.44,44.352,91.44,43.92,91.296,43.92,91.296,43.056,91.152,43.056,91.152,42.768,91.296,42.768,91.296,42.048,91.44,42.048,91.44,41.616,91.584,41.616,91.584,41.328,91.728,41.328,91.728,41.04,91.872,41.04,91.872,40.896,92.016,40.896,92.016,40.608,92.16,40.608,92.16,40.464,92.304,40.464,92.304,40.32,92.592,40.32,92.592,40.176,92.736,40.176,92.736,40.032,93.024,40.032,93.024,39.888,93.168,39.888,93.168,39.744,93.6,39.744,93.6,39.6,94.32,39.6,94.32,39.456" />
    <polygon stroke-width="0" stroke="none" fill="black" points="83.232,46.368,83.232,46.512,102.384,46.512,102.384,46.368" />
    <polygon stroke-width="0" stroke="none" fill="black" points="83.232,46.368,83.232,46.512,102.384,46.512,102.384,46.368" />
    <polygon stroke-width="0" stroke="none" fill="black" points="83.52,46.512,83.52,46.656,83.664,46.656,83.664,46.8,83.808,46.8,83.808,46.944,83.952,46.944,83.952,47.088,84.24,47.088,84.24,47.232,84.384,47.232,84.384,47.376,84.528,47.376,84.528,47.52,84.672,47.52,84.672,47.808,84.816,47.808,84.816,48.096,84.96,48.096,84.96,52.272,95.328,52.272,95.328,52.416,95.76,52.416,95.76,52.56,96.192,52.56,96.192,52.704,96.336,52.704,96.336,52.848,96.624,52.848,96.624,52.992,96.768,52.992,96.768,53.136,96.912,53.136,96.912,53.28,97.056,53.28,97.056,53.424,97.2,53.424,97.2,53.568,97.344,53.568,97.344,53.712,97.488,53.712,97.488,54,97.632,54,97.632,54.144,97.776,54.144,97.776,54.576,97.92,54.576,97.92,55.152,98.064,55.152,98.064,56.304,97.92,56.304,97.92,56.88,97.776,56.88,97.776,57.168,97.632,57.168,97.632,57.456,97.488,57.456,97.488,57.6,97.344,57.6,97.344,57.888,97.2,57.888,97.2,58.032,97.056,58.032,97.056,58.176,96.912,58.176,96.912,58.32,96.768,58.32,96.768,58.464,96.48,58.464,96.48,58.608,96.192,58.608,96.192,58.752,96.048,58.752,96.048,58.896,95.472,58.896,95.472,59.04,102.384,59.04,102.384,46.512" />
    <polygon stroke-width="0" stroke="none" fill="black" points="33.84,52.128,33.84,52.272,34.272,52.272,34.272,52.416,34.56,52.416,34.56,52.56,34.848,52.56,34.848,52.704,35.136,52.704,35.136,52.848,35.28,52.848,35.28,52.992,35.424,52.992,35.424,53.136,35.568,53.136,35.568,53.28,35.712,53.28,35.712,53.424,35.856,53.424,35.856,53.568,37.44,53.568,37.44,53.424,37.584,53.424,37.584,53.28,37.728,53.28,37.728,53.136,37.872,53.136,37.872,52.992,38.016,52.992,38.016,52.848,38.16,52.848,38.16,52.704,38.448,52.704,38.448,52.56,38.736,52.56,38.736,52.416,39.024,52.416,39.024,52.272,39.456,52.272,39.456,52.128" />
    <polygon stroke-width="0" stroke="none" fill="black" points="41.04,52.128,41.04,52.272,41.472,52.272,41.472,52.416,41.76,52.416,41.76,52.56,42.048,52.56,42.048,52.704,42.336,52.704,42.336,52.848,42.48,52.848,42.48,52.992,42.624,52.992,42.624,53.136,42.768,53.136,42.768,53.28,42.912,53.28,42.912,53.424,43.056,53.424,43.056,53.568,44.64,53.568,44.64,53.424,44.784,53.424,44.784,53.28,44.928,53.28,44.928,53.136,45.072,53.136,45.072,52.992,45.216,52.992,45.216,52.848,45.36,52.848,45.36,52.704,45.648,52.704,45.648,52.56,45.936,52.56,45.936,52.416,46.224,52.416,46.224,52.272,46.656,52.272,46.656,52.128" />
    <polygon stroke-width="0" stroke="none" fill="black" points="48.24,52.128,48.24,52.272,48.672,52.272,48.672,52.416,48.96,52.416,48.96,52.56,49.248,52.56,49.248,52.704,49.536,52.704,49.536,52.848,49.68,52.848,49.68,52.992,49.824,52.992,49.824,53.136,49.968,53.136,49.968,53.28,50.112,53.28,50.112,53.424,50.256,53.424,50.256,53.568,51.84,53.568,51.84,53.424,51.984,53.424,51.984,53.28,52.128,53.28,52.128,53.136,52.272,53.136,52.272,52.992,52.416,52.992,52.416,52.848,52.56,52.848,52.56,52.704,52.848,52.704,52.848,52.56,53.136,52.56,53.136,52.416,53.424,52.416,53.424,52.272,53.856,52.272,53.856,52.128" />
    <polygon stroke-width="0" stroke="none" fill="black" points="55.44,52.128,55.44,52.272,55.872,52.272,55.872,52.416,56.16,52.416,56.16,52.56,56.448,52.56,56.448,52.704,56.736,52.704,56.736,52.848,56.88,52.848,56.88,52.992,57.024,52.992,57.024,53.136,57.168,53.136,57.168,53.28,57.312,53.28,57.312,53.424,57.456,53.424,57.456,53.568,59.04,53.568,59.04,53.424,59.184,53.424,59.184,53.28,59.328,53.28,59.328,53.136,59.472,53.136,59.472,52.992,59.616,52.992,59.616,52.848,59.76,52.848,59.76,52.704,60.048,52.704,60.048,52.56,60.336,52.56,60.336,52.416,60.624,52.416,60.624,52.272,61.056,52.272,61.056,52.128" />
    <polygon stroke-width="0" stroke="none" fill="black" points="84.96,52.272,84.96,59.04,93.744,59.04,93.744,58.896,93.312,58.896,93.312,58.752,93.024,58.752,93.024,58.608,92.736,58.608,92.736,58.464,92.592,58.464,92.592,58.32,92.448,58.32,92.448,58.176,92.16,58.176,92.16,57.888,92.016,57.888,92.016,57.744,91.872,57.744,91.872,57.6,91.728,57.6,91.728,57.312,91.584,57.312,91.584,57.024,91.44,57.024,91.44,56.592,91.296,56.592,91.296,55.872,91.152,55.872,91.152,55.584,91.296,55.584,91.296,54.72,91.44,54.72,91.44,54.288,91.584,54.288,91.584,54,91.728,54,91.728,53.856,91.872,53.856,91.872,53.568,92.016,53.568,92.016,53.424,92.16,53.424,92.16,53.28,92.304,53.28,92.304,53.136,92.448,53.136,92.448,52.992,92.592,52.992,92.592,52.848,92.88,52.848,92.88,52.704,93.168,52.704,93.168,52.56,93.456,52.56,93.456,52.416,93.888,52.416,93.888,52.272" />
    <polygon stroke-width="0" stroke="none" fill="black" points="35.856,57.744,35.856,57.888,35.712,57.888,35.712,58.176,35.568,58.176,35.568,58.32,35.28,58.32,35.28,58.464,35.136,58.464,35.136,58.608,34.992,58.608,34.992,58.752,34.704,58.752,34.704,58.896,34.416,58.896,34.416,59.04,33.984,59.04,33.984,59.184,33.12,59.184,33.12,59.328,40.032,59.328,40.032,59.184,39.312,59.184,39.312,59.04,38.88,59.04,38.88,58.896,38.592,58.896,38.592,58.752,38.304,58.752,38.304,58.608,38.16,58.608,38.16,58.464,37.872,58.464,37.872,58.32,37.728,58.32,37.728,58.176,37.584,58.176,37.584,58.032,37.44,58.032,37.44,57.744" />
    <polygon stroke-width="0" stroke="none" fill="black" points="43.056,57.744,43.056,57.888,42.912,57.888,42.912,58.176,42.768,58.176,42.768,58.32,42.48,58.32,42.48,58.464,42.336,58.464,42.336,58.608,42.192,58.608,42.192,58.752,41.904,58.752,41.904,58.896,41.616,58.896,41.616,59.04,41.184,59.04,41.184,59.184,40.32,59.184,40.32,59.328,47.232,59.328,47.232,59.184,46.512,59.184,46.512,59.04,46.08,59.04,46.08,58.896,45.792,58.896,45.792,58.752,45.504,58.752,45.504,58.608,45.36,58.608,45.36,58.464,45.072,58.464,45.072,58.32,44.928,58.32,44.928,58.176,44.784,58.176,44.784,58.032,44.64,58.032,44.64,57.744" />
    <polygon stroke-width="0" stroke="none" fill="black" points="50.256,57.744,50.256,57.888,50.112,57.888,50.112,58.176,49.968,58.176,49.968,58.32,49.68,58.32,49.68,58.464,49.536,58.464,49.536,58.608,49.392,58.608,49.392,58.752,49.104,58.752,49.104,58.896,48.816,58.896,48.816,59.04,48.384,59.04,48.384,59.184,47.52,59.184,47.52,59.328,54.432,59.328,54.432,59.184,53.712,59.184,53.712,59.04,53.28,59.04,53.28,58.896,52.992,58.896,52.992,58.752,52.704,58.752,52.704,58.608,52.56,58.608,52.56,58.464,52.272,58.464,52.272,58.32,52.128,58.32,52.128,58.176,51.984,58.176,51.984,58.032,51.84,58.032,51.84,57.744" />
    <polygon stroke-width="0" stroke="none" fill="black" points="57.456,57.744,57.456,57.888,57.312,57.888,57.312,58.176,57.168,58.176,57.168,58.32,56.88,58.32,56.88,58.464,56.736,58.464,56.736,58.608,56.592,58.608,56.592,58.752,56.304,58.752,56.304,58.896,56.016,58.896,56.016,59.04,55.584,59.04,55.584,59.184,54.72,59.184,54.72,59.328,61.632,59.328,61.632,59.184,60.912,59.184,60.912,59.04,60.48,59.04,60.48,58.896,60.192,58.896,60.192,58.752,59.904,58.752,59.904,58.608,59.76,58.608,59.76,58.464,59.472,58.464,59.472,58.32,59.328,58.32,59.328,58.176,59.184,58.176,59.184,58.032,59.04,58.032,59.04,57.744" />
    <polygon stroke-width="0" stroke="none" fill="black" points="0,58.608,0,59.76,1.44,59.76,1.44,59.616,1.584,59.616,1.584,59.472,1.728,59.472,1.728,59.328,2.016,59.328,2.016,59.184,2.304,59.184,2.304,59.04,2.592,59.04,2.592,58.896,3.024,58.896,3.024,58.752,3.6,58.752,3.6,58.608" />
    <polygon stroke-width="0" stroke="none" fill="black" points="62.784,59.04,62.784,59.184,81.792,59.184,81.792,59.04" />
    <polygon stroke-width="0" stroke="none" fill="black" points="62.784,59.04,62.784,59.184,81.792,59.184,81.792,59.04" />
    <polygon stroke-width="0" stroke="none" fill="black" points="84.96,59.04,84.96,59.184,102.384,59.184,102.384,59.04" />
    <polygon stroke-width="0" stroke="none" fill="black" points="84.96,59.04,84.96,59.184,102.384,59.184,102.384,59.04" />
    <polygon stroke-width="0" stroke="none" fill="black" points="61.92,59.184,61.92,59.328,81.792,59.328,81.792,59.184" />
    <polygon stroke-width="0" stroke="none" fill="black" points="84.96,59.184,84.96,63.216,84.816,63.216,84.816,63.648,84.672,63.648,84.672,63.792,84.528,63.792,84.528,63.936,84.384,63.936,84.384,64.08,84.24,64.08,84.24,64.224,83.952,64.224,83.952,64.368,102.384,64.368,102.384,59.184" />
    <polygon stroke-width="0" stroke="none" fill="black" points="24.624,59.328,24.624,59.472,81.792,59.472,81.792,59.328" />
    <polygon stroke-width="0" stroke="none" fill="black" points="24.624,59.328,24.624,59.472,81.792,59.472,81.792,59.328" />
    <polygon stroke-width="0" stroke="none" fill="black" points="24.624,59.328,24.624,59.472,81.792,59.472,81.792,59.328" />
    <polygon stroke-width="0" stroke="none" fill="black" points="24.624,59.328,24.624,59.472,81.792,59.472,81.792,59.328" />
    <polygon stroke-width="0" stroke="none" fill="black" points="24.624,59.328,24.624,59.472,81.792,59.472,81.792,59.328" />
    <polygon stroke-width="0" stroke="none" fill="black" points="24.624,59.328,24.624,59.472,81.792,59.472,81.792,59.328" />
    <polygon stroke-width="0" stroke="none" fill="black" points="24.768,59.472,24.768,59.616,24.912,59.616,24.912,59.76,25.056,59.76,25.056,59.904,25.2,59.904,25.2,60.048,25.344,60.048,25.344,60.192,25.488,60.192,25.488,60.336,25.632,60.336,25.632,60.48,25.776,60.48,25.776,60.624,25.92,60.624,25.92,60.768,26.064,60.768,26.064,60.912,26.208,60.912,26.208,61.056,26.352,61.056,26.352,61.2,81.792,61.2,81.792,59.472" />
    <polygon stroke-width="0" stroke="none" fill="black" points="8.208,64.368,8.208,64.512,102.384,64.512,102.384,64.368" />
    <polygon stroke-width="0" stroke="none" fill="black" points="8.208,64.368,8.208,64.512,102.384,64.512,102.384,64.368" />
    <polygon stroke-width="0" stroke="none" fill="black" points="8.208,64.512,8.208,64.656,8.064,64.656,8.064,64.944,7.92,64.944,7.92,65.088,7.776,65.088,7.776,65.376,7.632,65.376,7.632,65.52,7.488,65.52,7.488,66.96,102.384,66.96,102.384,64.512" />
    <g id="connector0pad" >
     <circle cx="5.8815" cy="4.0815" stroke-width="0" stroke="none" fill="black" r="2.7" />
    </g>
   </g>
  </g>
 </g>
 <g partID="854384610">
  <g transform="translate(75.5835,42.034)">
   <g transform="matrix(1,0,0,1,0,0)">
    <g id="copper0" >
     <circle cx="20.8462" cy="15.6024" stroke-width="1.44" stroke="black" fill="none" r="1.98" id="connector0pad" />
     <circle cx="2.42064" cy="15.6024" stroke-width="1.44" stroke="black" fill="none" r="1.98" id="connector1pad" />
     <circle cx="20.8462" cy="2.84616" stroke-width="1.44" stroke="black" fill="none" r="1.98" id="connector2pad" />
     <circle cx="2.42064" cy="2.84616" stroke-width="1.44" stroke="black" fill="none" r="1.98" id="connector3pad" />
    </g>
   </g>
  </g>
 </g>
 <g partID="854387580">
  <g transform="translate(103.374,15.5884)">
   <g transform="matrix(0,1,-1,0,0,0)">
    <g id="copper0" >
     <circle cx="6.048" cy="25.344" connectorname="1" stroke-width="0.72" stroke="black" fill="none" r="1.512" id="connector0pad" />
     <path stroke-width="0" stroke="none" fill="black"  d="m6.048,21.6a1.872,1.872,0,0,1,1.872,1.872l0,3.744a1.872,1.872,0,0,1,-1.872,1.872l0,0a1.872,1.872,0,0,1,-1.872,-1.872l0,-3.744a1.872,1.872,0,0,1,1.872,-1.872l0,0zM4.896,25.344a1.152,1.152,0,1,0,2.304,0,1.152,1.152,0,1,0,-2.304,0z"/>
     <circle cx="13.248" cy="25.344" connectorname="2" stroke-width="0.72" stroke="black" fill="none" r="1.512" id="connector1pad" />
     <path stroke-width="0" stroke="none" fill="black"  d="m13.248,21.6a1.872,1.872,0,0,1,1.872,1.872l0,3.744a1.872,1.872,0,0,1,-1.872,1.872l0,0a1.872,1.872,0,0,1,-1.872,-1.872l0,-3.744a1.872,1.872,0,0,1,1.872,-1.872l0,0zM12.096,25.344a1.152,1.152,0,1,0,2.304,0,1.152,1.152,0,1,0,-2.304,0z"/>
     <circle cx="13.248" cy="3.744" connectorname="3" stroke-width="0.72" stroke="black" fill="none" r="1.512" id="connector2pad" />
     <path stroke-width="0" stroke="none" fill="black"  d="m13.248,0a1.872,1.872,0,0,1,1.872,1.872l0,3.744a1.872,1.872,0,0,1,-1.872,1.872l0,0a1.872,1.872,0,0,1,-1.872,-1.872l0,-3.744a1.872,1.872,0,0,1,1.872,-1.872l0,0zM12.096,3.744a1.152,1.152,0,1,0,2.304,0,1.152,1.152,0,1,0,-2.304,0z"/>
     <circle cx="6.048" cy="3.744" connectorname="4" stroke-width="0.72" stroke="black" fill="none" r="1.512" id="connector3pad" />
     <path stroke-width="0" stroke="none" fill="black"  d="m6.048,0a1.872,1.872,0,0,1,1.872,1.872l0,3.744a1.872,1.872,0,0,1,-1.872,1.872l0,0a1.872,1.872,0,0,1,-1.872,-1.872l0,-3.744a1.872,1.872,0,0,1,1.872,-1.872l0,0zM4.896,3.744a1.152,1.152,0,1,0,2.304,0,1.152,1.152,0,1,0,-2.304,0z"/>
    </g>
   </g>
  </g>
 </g>
 <g partID="854424460">
  <g transform="translate(51.3897,26.6764)">
   <g transform="matrix(0,-1,1,0,0,0)">
    <g id="copper0" >
     <circle cx="5.04" cy="5.04" stroke-width="1.44" stroke="black" fill="none" r="2.13732" id="connector0pin" />
    </g>
   </g>
  </g>
 </g>
 <g partID="854423620">
  <g transform="translate(0.989701,26.6764)">
   <g transform="matrix(0,-1,1,0,0,0)">
    <g id="copper0" >
     <circle cx="5.04" cy="5.04" stroke-width="1.44" stroke="black" fill="none" r="2.13732" id="connector0pin" />
     <circle cx="5.04" cy="12.24" stroke-width="1.44" stroke="black" fill="none" r="2.13732" id="connector1pin" />
     <circle cx="5.04" cy="19.44" stroke-width="1.44" stroke="black" fill="none" r="2.13732" id="connector2pin" />
     <circle cx="5.04" cy="26.64" stroke-width="1.44" stroke="black" fill="none" r="2.13732" id="connector3pin" />
    </g>
   </g>
  </g>
 </g>
 <g partID="854422830">
  <g transform="translate(29.7897,19.4764)">
   <g transform="matrix(0,-1,1,0,0,0)">
    <g id="copper0" >
     <circle cx="5.04" cy="5.04" stroke-width="1.44" stroke="black" fill="none" r="2.13732" id="connector0pin" />
     <circle cx="5.04" cy="12.24" stroke-width="1.44" stroke="black" fill="none" r="2.13732" id="connector1pin" />
     <circle cx="5.04" cy="19.44" stroke-width="1.44" stroke="black" fill="none" r="2.13732" id="connector2pin" />
     <circle cx="5.04" cy="26.64" stroke-width="1.44" stroke="black" fill="none" r="2.13732" id="connector3pin" />
     <circle cx="5.04" cy="33.84" stroke-width="1.44" stroke="black" fill="none" r="2.13732" id="connector4pin" />
    </g>
   </g>
  </g>
 </g>
 <g partID="854405160">
  <g transform="translate(29.7897,62.6764)">
   <g transform="matrix(0,-1,1,0,0,0)">
    <g id="copper0" >
     <circle cx="5.04" cy="5.04" stroke-width="1.44" stroke="black" fill="none" r="2.13732" id="connector0pin" />
     <circle cx="5.04" cy="12.24" stroke-width="1.44" stroke="black" fill="none" r="2.13732" id="connector1pin" />
     <circle cx="5.04" cy="19.44" stroke-width="1.44" stroke="black" fill="none" r="2.13732" id="connector2pin" />
     <circle cx="5.04" cy="26.64" stroke-width="1.44" stroke="black" fill="none" r="2.13732" id="connector3pin" />
     <circle cx="5.04" cy="33.84" stroke-width="1.44" stroke="black" fill="none" r="2.13732" id="connector4pin" />
    </g>
   </g>
  </g>
 </g>
 <g partID="854418960">
  <g transform="translate(0.886381,59.6931)">
   <g id="copper0" >
    <circle cx="5.14331" cy="5.14331" stroke-width="1.41732" stroke="black" fill="none" r="2.83465" id="nonconn0" />
   </g>
  </g>
 </g>
 <g partID="854418030">
  <g transform="translate(94.4864,2.09311)">
   <g id="copper0" >
    <circle cx="5.14331" cy="5.14331" stroke-width="1.41732" stroke="black" fill="none" r="2.83465" id="nonconn0" />
   </g>
  </g>
 </g>
 <g partID="854410150">
  <line stroke-linecap="round" y2="50.4382" x1="27.6252" x2="27.5713" stroke-width="1.728" stroke="black" y1="23.8537"/>
 </g>
 <g partID="854413380">
  <line stroke-linecap="round" y2="56.0751" x1="27.5713" x2="33.2553" stroke-width="1.728" stroke="black" y1="50.4382"/>
 </g>
 <g partID="854419860">
  <line stroke-linecap="round" y2="30.7884" x1="78.0074" x2="78.0266" stroke-width="1.728" stroke="black" y1="42.8202"/>
 </g>
 <g partID="854419980">
  <line stroke-linecap="round" y2="50.4872" x1="13.2259" x2="13.18" stroke-width="1.728" stroke="black" y1="23.8537"/>
 </g>
 <g partID="854420680">
  <line stroke-linecap="round" y2="64.7614" x1="13.18" x2="27.6095" stroke-width="1.728" stroke="black" y1="50.4872"/>
 </g>
 <g partID="854420200">
  <line stroke-linecap="round" y2="64.7614" x1="27.6095" x2="78.0348" stroke-width="1.728" stroke="black" y1="64.7614"/>
 </g>
 <g partID="854420220">
  <line stroke-linecap="round" y2="64.7614" x1="78.0348" x2="85.1719" stroke-width="1.728" stroke="black" y1="64.7614"/>
 </g>
 <g partID="854425880">
  <line stroke-linecap="round" y2="50.4872" x1="85.1719" x2="85.1719" stroke-width="1.728" stroke="black" y1="64.7614"/>
 </g>
 <g partID="854420320">
  <line stroke-linecap="round" y2="46.1494" x1="85.1719" x2="79.6267" stroke-width="1.728" stroke="black" y1="50.4872"/>
 </g>
 <g partID="854423430">
  <line stroke-linecap="round" y2="14.4912" x1="76.6507" x2="70.8977" stroke-width="1.728" stroke="black" y1="20.2549"/>
 </g>
 <g partID="854424620">
  <line stroke-linecap="round" y2="14.4531" x1="70.8977" x2="65.847" stroke-width="1.728" stroke="black" y1="14.4912"/>
 </g>
 <g partID="854424480">
  <line stroke-linecap="round" y2="16.6537" x1="49.176" x2="49.2214" stroke-width="1.728" stroke="black" y1="28.7655"/>
 </g>
 <g partID="854424100">
  <line stroke-linecap="round" y2="50.4872" x1="76.5519" x2="70.8977" stroke-width="1.728" stroke="black" y1="56.1754"/>
 </g>
 <g partID="854424810">
  <line stroke-linecap="round" y2="28.7655" x1="70.8977" x2="49.176" stroke-width="1.728" stroke="black" y1="50.4872"/>
 </g>
</svg>
