<?xml version='1.0' encoding='UTF-8' standalone='no'?>
<!-- Created with Fritzing (http://www.fritzing.org/) -->
<svg xmlns="http://www.w3.org/2000/svg" x="0in" y="0in" baseProfile="tiny" viewBox="0 0 106.299 70.8661" width="1.47638in" xmlns:svg="http://www.w3.org/2000/svg" version="1.2" height="0.984252in" >
 <g partID="57660">
  <g id="board" >
   <rect x="0.288" y="0.288" stroke-width="0.5" width="105.723" stroke="black" fill="none" fill-opacity="0.5" id="boardoutline" height="70.2901" />
  </g>
 </g>
 <g partID="854384610">
  <g transform="translate(75.5835,42.034)">
   <g transform="matrix(1,0,0,1,0,0)">
    <g id="copper0" >
     <circle cx="20.8462" cy="15.6024" stroke-width="2.16" stroke="black" fill="black" r="1.98" id="connector0pad" />
     <circle cx="2.42064" cy="15.6024" stroke-width="2.16" stroke="black" fill="black" r="1.98" id="connector1pad" />
     <circle cx="20.8462" cy="2.84616" stroke-width="2.16" stroke="black" fill="black" r="1.98" id="connector2pad" />
     <circle cx="2.42064" cy="2.84616" stroke-width="2.16" stroke="black" fill="black" r="1.98" id="connector3pad" />
    </g>
   </g>
  </g>
 </g>
 <g partID="854387580">
  <g transform="translate(103.374,15.5884)">
   <g transform="matrix(0,1,-1,0,0,0)">
    <g id="copper0" >
     <circle cx="6.048" cy="25.344" connectorname="1" stroke-width="1.44" stroke="black" fill="black" r="1.512" id="connector0pad" />
     <path stroke-width="0.72" stroke="black" fill="black"  d="m6.048,21.6a1.872,1.872,0,0,1,1.872,1.872l0,3.744a1.872,1.872,0,0,1,-1.872,1.872l0,0a1.872,1.872,0,0,1,-1.872,-1.872l0,-3.744a1.872,1.872,0,0,1,1.872,-1.872l0,0zM4.896,25.344a1.152,1.152,0,1,0,2.304,0,1.152,1.152,0,1,0,-2.304,0z"/>
     <circle cx="13.248" cy="25.344" connectorname="2" stroke-width="1.44" stroke="black" fill="black" r="1.512" id="connector1pad" />
     <path stroke-width="0.72" stroke="black" fill="black"  d="m13.248,21.6a1.872,1.872,0,0,1,1.872,1.872l0,3.744a1.872,1.872,0,0,1,-1.872,1.872l0,0a1.872,1.872,0,0,1,-1.872,-1.872l0,-3.744a1.872,1.872,0,0,1,1.872,-1.872l0,0zM12.096,25.344a1.152,1.152,0,1,0,2.304,0,1.152,1.152,0,1,0,-2.304,0z"/>
     <circle cx="13.248" cy="3.744" connectorname="3" stroke-width="1.44" stroke="black" fill="black" r="1.512" id="connector2pad" />
     <path stroke-width="0.72" stroke="black" fill="black"  d="m13.248,0a1.872,1.872,0,0,1,1.872,1.872l0,3.744a1.872,1.872,0,0,1,-1.872,1.872l0,0a1.872,1.872,0,0,1,-1.872,-1.872l0,-3.744a1.872,1.872,0,0,1,1.872,-1.872l0,0zM12.096,3.744a1.152,1.152,0,1,0,2.304,0,1.152,1.152,0,1,0,-2.304,0z"/>
     <circle cx="6.048" cy="3.744" connectorname="4" stroke-width="1.44" stroke="black" fill="black" r="1.512" id="connector3pad" />
     <path stroke-width="0.72" stroke="black" fill="black"  d="m6.048,0a1.872,1.872,0,0,1,1.872,1.872l0,3.744a1.872,1.872,0,0,1,-1.872,1.872l0,0a1.872,1.872,0,0,1,-1.872,-1.872l0,-3.744a1.872,1.872,0,0,1,1.872,-1.872l0,0zM4.896,3.744a1.152,1.152,0,1,0,2.304,0,1.152,1.152,0,1,0,-2.304,0z"/>
    </g>
   </g>
  </g>
 </g>
 <g partID="854405160">
  <g transform="translate(29.7897,62.6764)">
   <g transform="matrix(0,-1,1,0,0,0)">
    <g id="copper0" >
     <circle cx="5.04" cy="5.04" stroke-width="2.16" stroke="black" fill="black" r="2.13732" id="connector0pin" />
     <circle cx="5.04" cy="12.24" stroke-width="2.16" stroke="black" fill="black" r="2.13732" id="connector1pin" />
     <circle cx="5.04" cy="19.44" stroke-width="2.16" stroke="black" fill="black" r="2.13732" id="connector2pin" />
     <circle cx="5.04" cy="26.64" stroke-width="2.16" stroke="black" fill="black" r="2.13732" id="connector3pin" />
     <circle cx="5.04" cy="33.84" stroke-width="2.16" stroke="black" fill="black" r="2.13732" id="connector4pin" />
    </g>
   </g>
  </g>
 </g>
 <g partID="854422830">
  <g transform="translate(29.7897,19.4764)">
   <g transform="matrix(0,-1,1,0,0,0)">
    <g id="copper0" >
     <circle cx="5.04" cy="5.04" stroke-width="2.16" stroke="black" fill="black" r="2.13732" id="connector0pin" />
     <circle cx="5.04" cy="12.24" stroke-width="2.16" stroke="black" fill="black" r="2.13732" id="connector1pin" />
     <circle cx="5.04" cy="19.44" stroke-width="2.16" stroke="black" fill="black" r="2.13732" id="connector2pin" />
     <circle cx="5.04" cy="26.64" stroke-width="2.16" stroke="black" fill="black" r="2.13732" id="connector3pin" />
     <circle cx="5.04" cy="33.84" stroke-width="2.16" stroke="black" fill="black" r="2.13732" id="connector4pin" />
    </g>
   </g>
  </g>
 </g>
 <g partID="854423620">
  <g transform="translate(0.989701,26.6764)">
   <g transform="matrix(0,-1,1,0,0,0)">
    <g id="copper0" >
     <circle cx="5.04" cy="5.04" stroke-width="2.16" stroke="black" fill="black" r="2.13732" id="connector0pin" />
     <circle cx="5.04" cy="12.24" stroke-width="2.16" stroke="black" fill="black" r="2.13732" id="connector1pin" />
     <circle cx="5.04" cy="19.44" stroke-width="2.16" stroke="black" fill="black" r="2.13732" id="connector2pin" />
     <circle cx="5.04" cy="26.64" stroke-width="2.16" stroke="black" fill="black" r="2.13732" id="connector3pin" />
    </g>
   </g>
  </g>
 </g>
 <g partID="854424460">
  <g transform="translate(51.3897,26.6764)">
   <g transform="matrix(0,-1,1,0,0,0)">
    <g id="copper0" >
     <circle cx="5.04" cy="5.04" stroke-width="2.16" stroke="black" fill="black" r="2.13732" id="connector0pin" />
    </g>
   </g>
  </g>
 </g>
 <g partID="854418030">
  <g transform="translate(94.4864,2.09311)">
   <g id="copper0" >
    <circle cx="5.14331" cy="5.14331" stroke-width="2.13732" stroke="black" fill="black" r="2.83465" id="nonconn0" />
   </g>
  </g>
 </g>
 <g partID="854418960">
  <g transform="translate(0.886381,59.6931)">
   <g id="copper0" >
    <circle cx="5.14331" cy="5.14331" stroke-width="2.13732" stroke="black" fill="black" r="2.83465" id="nonconn0" />
   </g>
  </g>
 </g>
</svg>
