<?xml version='1.0' encoding='UTF-8' standalone='no'?>
<!-- Created with Fritzing (http://www.fritzing.org/) -->
<svg xmlns="http://www.w3.org/2000/svg" x="0in" y="0in" baseProfile="tiny" viewBox="0 0 106.299 70.8661" width="1.47638in" xmlns:svg="http://www.w3.org/2000/svg" version="1.2" height="0.984252in" >
 <g transform="matrix(-1, 0, 0, 1, 106.299, 0)">
  <g partID="57660">
   <g id="board" >
    <rect x="0.288" y="0.288" stroke-width="0.5" width="105.723" stroke="black" fill="none" fill-opacity="0.5" id="boardoutline" height="70.2901" />
   </g>
  </g>
  <g partID="854425330">
   <g transform="translate(36.4979,15.9171)">
    <g id="groundplane1" >
     <polygon stroke-width="0" stroke="none" fill="black" points="52.272,0,52.272,0.144,42.192,0.144,42.192,0.288,42.048,0.288,42.048,0.432,41.904,0.432,41.904,0.576,41.76,0.576,41.76,0.72,41.616,0.72,41.616,0.864,41.472,0.864,41.472,1.008,41.328,1.008,41.328,1.152,41.04,1.152,41.04,1.296,40.896,1.296,40.896,1.44,40.752,1.44,40.752,1.584,40.608,1.584,40.608,1.728,40.464,1.728,40.464,3.168,44.064,3.168,44.064,3.312,44.496,3.312,44.496,3.456,44.784,3.456,44.784,3.6,44.928,3.6,44.928,3.744,45.216,3.744,45.216,3.888,45.36,3.888,45.36,4.176,45.504,4.176,45.504,4.32,45.648,4.32,45.648,4.608,45.792,4.608,45.792,5.04,45.936,5.04,45.936,6.48,45.792,6.48,45.792,6.768,45.648,6.768,45.648,7.056,45.504,7.056,45.504,7.344,45.36,7.344,45.36,7.488,45.216,7.488,45.216,7.632,45.072,7.632,45.072,7.776,44.928,7.776,44.928,7.92,44.64,7.92,44.64,8.064,44.208,8.064,44.208,8.208,43.632,8.208,43.632,8.352,61.056,8.352,61.056,8.208,60.336,8.208,60.336,8.064,60.048,8.064,60.048,7.92,59.76,7.92,59.76,7.776,59.616,7.776,59.616,7.632,59.472,7.632,59.472,7.488,59.328,7.488,59.328,7.344,59.184,7.344,59.184,7.2,59.04,7.2,59.04,6.912,58.896,6.912,58.896,6.48,58.752,6.48,58.752,5.76,58.608,5.76,58.608,5.616,58.752,5.616,58.752,3.456,58.608,3.456,58.608,3.312,58.464,3.312,58.464,3.168,58.32,3.168,58.32,3.024,58.176,3.024,58.176,2.88,58.032,2.88,58.032,2.736,57.888,2.736,57.888,2.592,57.744,2.592,57.744,2.448,57.6,2.448,57.6,2.304,57.456,2.304,57.456,2.16,57.312,2.16,57.312,2.016,57.168,2.016,57.168,1.872,57.024,1.872,57.024,1.728,56.88,1.728,56.88,1.584,56.736,1.584,56.736,1.44,56.592,1.44,56.592,1.296,56.448,1.296,56.448,1.152,56.304,1.152,56.304,1.008,56.16,1.008,56.16,0.864,56.016,0.864,56.016,0.72,55.872,0.72,55.872,0.576,55.728,0.576,55.728,0.432,55.584,0.432,55.584,0.288,55.44,0.288,55.44,0.144,55.296,0.144,55.296,0" />
     <polygon stroke-width="0" stroke="none" fill="black" points="1.152,0.576,1.152,0.72,1.008,0.72,1.008,1.008,0.864,1.008,0.864,1.152,0.576,1.152,0.576,1.296,0.432,1.296,0.432,1.44,0.288,1.44,0.288,1.584,0,1.584,0,5.184,0.144,5.184,0.144,5.328,0.288,5.328,0.288,5.472,0.432,5.472,0.432,5.616,0.576,5.616,0.576,5.76,0.72,5.76,0.72,5.904,0.864,5.904,0.864,6.048,1.008,6.048,1.008,6.192,1.152,6.192,1.152,6.336,1.296,6.336,1.296,6.48,1.44,6.48,1.44,6.624,1.584,6.624,1.584,6.768,1.728,6.768,1.728,6.912,1.872,6.912,1.872,7.056,2.016,7.056,2.016,7.2,2.16,7.2,2.16,7.344,2.304,7.344,2.304,7.488,2.448,7.488,2.448,7.632,2.592,7.632,2.592,7.776,2.736,7.776,2.736,7.92,2.88,7.92,2.88,8.064,3.024,8.064,3.024,8.208,3.168,8.208,3.168,8.352,3.312,8.352,3.312,8.496,3.456,8.496,3.456,8.64,3.6,8.64,3.6,8.784,3.744,8.784,3.744,8.928,3.888,8.928,3.888,9.072,4.032,9.072,4.032,9.216,4.176,9.216,4.176,9.36,4.32,9.36,4.32,9.504,4.464,9.504,4.464,9.648,4.608,9.648,4.608,9.792,4.752,9.792,4.752,9.936,4.896,9.936,4.896,10.08,5.04,10.08,5.04,10.224,5.184,10.224,5.184,10.368,5.328,10.368,5.328,10.512,5.472,10.512,5.472,10.656,5.616,10.656,5.616,10.8,5.76,10.8,5.76,10.944,5.904,10.944,5.904,11.088,6.048,11.088,6.048,11.232,6.192,11.232,6.192,11.376,6.336,11.376,6.336,11.52,6.48,11.52,6.48,11.664,6.624,11.664,6.624,11.808,6.768,11.808,6.768,11.952,6.912,11.952,6.912,12.096,7.056,12.096,7.056,12.24,7.2,12.24,7.2,12.384,7.344,12.384,7.344,12.528,7.488,12.528,7.488,12.672,7.632,12.672,7.632,12.816,7.776,12.816,7.776,12.96,7.92,12.96,7.92,13.104,8.064,13.104,8.064,13.248,8.208,13.248,8.208,13.392,8.352,13.392,8.352,13.536,8.496,13.536,8.496,13.68,8.64,13.68,8.64,13.824,8.784,13.824,8.784,13.968,8.928,13.968,8.928,14.112,9.072,14.112,9.072,14.256,9.216,14.256,9.216,14.4,12.096,14.4,12.096,14.256,11.808,14.256,11.808,14.112,11.664,14.112,11.664,13.968,11.52,13.968,11.52,13.824,11.376,13.824,11.376,13.68,11.232,13.68,11.232,13.536,11.088,13.536,11.088,13.392,10.944,13.392,10.944,13.248,10.8,13.248,10.8,13.104,10.656,13.104,10.656,12.96,10.512,12.96,10.512,12.816,10.368,12.816,10.368,12.672,10.224,12.672,10.224,12.528,10.08,12.528,10.08,12.384,9.936,12.384,9.936,12.24,9.792,12.24,9.792,12.096,9.648,12.096,9.648,11.952,9.504,11.952,9.504,11.808,9.36,11.808,9.36,11.664,9.216,11.664,9.216,11.52,9.072,11.52,9.072,11.376,8.928,11.376,8.928,11.232,8.784,11.232,8.784,11.088,8.64,11.088,8.64,10.944,8.496,10.944,8.496,10.8,8.352,10.8,8.352,10.656,8.208,10.656,8.208,10.512,8.064,10.512,8.064,10.368,7.92,10.368,7.92,10.224,7.776,10.224,7.776,10.08,7.632,10.08,7.632,9.936,7.488,9.936,7.488,9.792,7.344,9.792,7.344,9.648,7.2,9.648,7.2,9.504,7.056,9.504,7.056,9.36,6.912,9.36,6.912,9.216,6.768,9.216,6.768,9.072,6.624,9.072,6.624,8.928,6.48,8.928,6.48,8.784,6.336,8.784,6.336,8.64,6.192,8.64,6.192,8.496,6.048,8.496,6.048,8.352,5.904,8.352,5.904,8.208,5.76,8.208,5.76,8.064,5.616,8.064,5.616,7.92,5.472,7.92,5.472,7.776,5.328,7.776,5.328,7.632,5.184,7.632,5.184,7.488,5.04,7.488,5.04,7.344,4.896,7.344,4.896,7.2,4.752,7.2,4.752,7.056,4.608,7.056,4.608,6.912,4.464,6.912,4.464,6.768,4.32,6.768,4.32,6.624,4.176,6.624,4.176,6.336,4.032,6.336,4.032,5.76,3.888,5.76,3.888,1.584,3.6,1.584,3.6,1.44,3.456,1.44,3.456,1.296,3.168,1.296,3.168,1.152,3.024,1.152,3.024,1.008,2.88,1.008,2.88,0.864,2.736,0.864,2.736,0.576" />
     <polygon stroke-width="0" stroke="none" fill="black" points="35.712,6.48,35.712,6.624,35.568,6.624,35.568,6.768,35.424,6.768,35.424,6.912,35.28,6.912,35.28,7.056,35.136,7.056,35.136,7.2,34.992,7.2,34.992,7.344,34.848,7.344,34.848,7.488,34.704,7.488,34.704,7.632,34.56,7.632,34.56,7.776,34.416,7.776,34.416,7.92,34.272,7.92,34.272,8.064,34.128,8.064,34.128,8.208,33.984,8.208,33.984,8.352,33.84,8.352,33.84,8.496,33.696,8.496,33.696,8.64,33.552,8.64,33.552,8.784,33.408,8.784,33.408,8.928,33.264,8.928,33.264,9.072,33.12,9.072,33.12,9.216,32.976,9.216,32.976,9.36,32.832,9.36,32.832,9.504,32.688,9.504,32.688,9.648,32.544,9.648,32.544,9.792,32.4,9.792,32.4,9.936,32.256,9.936,32.256,10.08,32.112,10.08,32.112,10.224,31.968,10.224,31.968,10.368,31.824,10.368,31.824,10.512,31.68,10.512,31.68,10.656,31.536,10.656,31.536,10.8,31.392,10.8,31.392,10.944,31.248,10.944,31.248,11.088,31.104,11.088,31.104,11.232,30.96,11.232,30.96,11.376,30.816,11.376,30.816,11.52,30.672,11.52,30.672,11.664,30.528,11.664,30.528,11.808,30.384,11.808,30.384,11.952,30.24,11.952,30.24,12.096,30.096,12.096,30.096,12.24,29.952,12.24,29.952,12.384,29.808,12.384,29.808,12.528,29.664,12.528,29.664,12.672,29.52,12.672,29.52,12.816,29.376,12.816,29.376,12.96,29.232,12.96,29.232,13.104,29.088,13.104,29.088,13.248,28.944,13.248,28.944,13.392,28.8,13.392,28.8,13.536,28.656,13.536,28.656,13.68,28.512,13.68,28.512,13.824,28.368,13.824,28.368,13.968,28.08,13.968,28.08,14.112,27.936,14.112,27.936,14.256,27.648,14.256,27.648,14.4,37.44,14.4,37.44,14.112,37.296,14.112,37.296,13.68,37.152,13.68,37.152,12.96,37.008,12.96,37.008,12.816,37.152,12.816,37.152,12.096,37.296,12.096,37.296,11.808,37.44,11.808,37.44,11.52,37.584,11.52,37.584,11.232,37.728,11.232,37.728,11.088,37.872,11.088,37.872,10.944,38.16,10.944,38.16,10.8,38.304,10.8,38.304,10.656,38.592,10.656,38.592,10.512,39.024,10.512,39.024,10.368,39.888,10.368,39.888,8.352,39.456,8.352,39.456,8.208,38.736,8.208,38.736,8.064,38.448,8.064,38.448,7.92,38.16,7.92,38.16,7.776,38.016,7.776,38.016,7.632,37.872,7.632,37.872,7.488,37.728,7.488,37.728,7.344,37.584,7.344,37.584,7.2,37.44,7.2,37.44,6.912,37.296,6.912,37.296,6.48" />
     <polygon stroke-width="0" stroke="none" fill="black" points="66.24,7.92,66.24,8.064,65.808,8.064,65.808,8.208,65.232,8.208,65.232,8.352,67.68,8.352,67.68,7.92" />
     <polygon stroke-width="0" stroke="none" fill="black" points="43.056,8.352,43.056,8.496,67.68,8.496,67.68,8.352" />
     <polygon stroke-width="0" stroke="none" fill="black" points="43.056,8.352,43.056,8.496,67.68,8.496,67.68,8.352" />
     <polygon stroke-width="0" stroke="none" fill="black" points="43.056,8.496,43.056,10.368,65.664,10.368,65.664,10.512,66.096,10.512,66.096,10.656,67.68,10.656,67.68,8.496" />
     <polygon stroke-width="0" stroke="none" fill="black" points="44.064,10.368,44.064,10.512,44.496,10.512,44.496,10.656,44.784,10.656,44.784,10.8,44.928,10.8,44.928,10.944,45.216,10.944,45.216,11.088,45.36,11.088,45.36,11.376,45.504,11.376,45.504,11.52,45.648,11.52,45.648,11.808,45.792,11.808,45.792,12.24,45.936,12.24,45.936,13.68,45.792,13.68,45.792,13.968,45.648,13.968,45.648,14.256,45.504,14.256,45.504,14.544,45.36,14.544,45.36,14.688,45.216,14.688,45.216,14.832,45.072,14.832,45.072,14.976,44.928,14.976,44.928,15.12,44.64,15.12,44.64,15.264,44.208,15.264,44.208,15.408,43.632,15.408,43.632,15.552,58.32,15.552,58.32,15.408,58.464,15.408,58.464,15.264,58.608,15.264,58.608,15.12,58.752,15.12,58.752,12.96,58.608,12.96,58.608,12.816,58.752,12.816,58.752,12.096,58.896,12.096,58.896,11.808,59.04,11.808,59.04,11.52,59.184,11.52,59.184,11.232,59.328,11.232,59.328,11.088,59.472,11.088,59.472,10.944,59.76,10.944,59.76,10.8,59.904,10.8,59.904,10.656,60.192,10.656,60.192,10.512,60.624,10.512,60.624,10.368" />
     <polygon stroke-width="0" stroke="none" fill="black" points="9.36,14.4,9.36,14.544,37.584,14.544,37.584,14.4" />
     <polygon stroke-width="0" stroke="none" fill="black" points="9.36,14.4,9.36,14.544,37.584,14.544,37.584,14.4" />
     <polygon stroke-width="0" stroke="none" fill="black" points="9.504,14.544,9.504,14.688,9.648,14.688,9.648,14.832,9.792,14.832,9.792,14.976,9.936,14.976,9.936,15.12,10.08,15.12,10.08,15.264,10.224,15.264,10.224,15.408,10.368,15.408,10.368,15.552,39.456,15.552,39.456,15.408,38.736,15.408,38.736,15.264,38.448,15.264,38.448,15.12,38.16,15.12,38.16,14.976,38.016,14.976,38.016,14.832,37.872,14.832,37.872,14.688,37.728,14.688,37.728,14.544" />
     <polygon stroke-width="0" stroke="none" fill="black" points="10.368,15.552,10.368,15.696,58.176,15.696,58.176,15.552" />
     <polygon stroke-width="0" stroke="none" fill="black" points="10.368,15.552,10.368,15.696,58.176,15.696,58.176,15.552" />
     <polygon stroke-width="0" stroke="none" fill="black" points="10.512,15.696,10.512,15.84,10.656,15.84,10.656,15.984,10.8,15.984,10.8,16.128,10.944,16.128,10.944,16.272,11.088,16.272,11.088,16.416,11.232,16.416,11.232,16.56,11.376,16.56,11.376,16.704,11.52,16.704,11.52,16.848,11.664,16.848,11.664,16.992,11.808,16.992,11.808,17.136,11.952,17.136,11.952,17.28,12.096,17.28,12.096,17.424,12.24,17.424,12.24,17.568,12.384,17.568,12.384,17.712,12.528,17.712,12.528,17.856,12.672,17.856,12.672,18,12.816,18,12.816,18.144,12.96,18.144,12.96,18.288,13.104,18.288,13.104,18.432,13.248,18.432,13.248,18.576,55.296,18.576,55.296,18.432,55.44,18.432,55.44,18.288,55.584,18.288,55.584,18.144,55.728,18.144,55.728,18,55.872,18,55.872,17.856,56.016,17.856,56.016,17.712,56.16,17.712,56.16,17.568,56.304,17.568,56.304,17.424,56.448,17.424,56.448,17.28,56.592,17.28,56.592,17.136,56.736,17.136,56.736,16.992,56.88,16.992,56.88,16.848,57.024,16.848,57.024,16.704,57.168,16.704,57.168,16.56,57.312,16.56,57.312,16.416,57.456,16.416,57.456,16.272,57.6,16.272,57.6,16.128,57.744,16.128,57.744,15.984,57.888,15.984,57.888,15.84,58.032,15.84,58.032,15.696" />
     <g id="connector0pad" >
      <circle cx="50.796" cy="3.933" stroke-width="0" stroke="none" fill="black" r="2.7" />
     </g>
    </g>
   </g>
  </g>
  <g partID="854425360">
   <g transform="translate(1.79392,1.94907)">
    <g id="groundplane1" >
     <polygon stroke-width="0" stroke="none" fill="black" points="0,0,0,8.928,62.64,8.928,62.64,9.072,63.072,9.072,63.072,9.216,63.36,9.216,63.36,9.36,63.648,9.36,63.648,9.504,96.912,9.504,96.912,9.36,96.336,9.36,96.336,9.216,96.048,9.216,96.048,9.072,95.76,9.072,95.76,8.928,95.472,8.928,95.472,8.784,95.328,8.784,95.328,8.64,95.184,8.64,95.184,8.496,94.896,8.496,94.896,8.352,94.752,8.352,94.752,8.208,94.608,8.208,94.608,7.92,94.464,7.92,94.464,7.776,94.32,7.776,94.32,7.632,94.176,7.632,94.176,7.344,94.032,7.344,94.032,7.056,93.888,7.056,93.888,6.624,93.744,6.624,93.744,6.192,93.6,6.192,93.6,4.464,93.744,4.464,93.744,3.888,93.888,3.888,93.888,3.456,94.032,3.456,94.032,3.168,94.176,3.168,94.176,3.024,94.32,3.024,94.32,2.736,94.464,2.736,94.464,2.592,94.608,2.592,94.608,2.448,94.752,2.448,94.752,2.304,94.896,2.304,94.896,2.16,95.04,2.16,95.04,2.016,95.184,2.016,95.184,1.872,95.328,1.872,95.328,1.728,95.616,1.728,95.616,1.584,95.904,1.584,95.904,1.44,96.192,1.44,96.192,0" />
     <polygon stroke-width="0" stroke="none" fill="black" points="100.944,8.064,100.944,8.208,100.8,8.208,100.8,8.352,100.656,8.352,100.656,8.496,100.512,8.496,100.512,8.64,100.368,8.64,100.368,8.784,100.224,8.784,100.224,8.928,99.936,8.928,99.936,9.072,99.648,9.072,99.648,9.216,99.36,9.216,99.36,9.36,98.784,9.36,98.784,9.504,102.384,9.504,102.384,8.064" />
     <polygon stroke-width="0" stroke="none" fill="black" points="0,8.928,0,16.128,26.64,16.128,26.64,16.272,27.072,16.272,27.072,16.416,27.36,16.416,27.36,16.56,27.648,16.56,27.648,16.704,27.936,16.704,27.936,16.848,28.08,16.848,28.08,16.992,28.224,16.992,28.224,17.136,28.368,17.136,28.368,17.28,28.512,17.28,28.512,17.424,28.656,17.424,28.656,17.568,28.8,17.568,28.8,17.856,28.944,17.856,28.944,18.144,29.088,18.144,29.088,18.432,29.232,18.432,29.232,18.864,29.376,18.864,29.376,20.448,29.232,20.448,29.232,21.024,29.088,21.024,29.088,21.312,28.944,21.312,28.944,21.6,28.8,21.6,28.8,21.744,28.656,21.744,28.656,21.888,28.512,21.888,28.512,22.176,28.368,22.176,28.368,22.32,28.08,22.32,28.08,22.464,27.936,22.464,27.936,22.608,27.792,22.608,27.792,22.752,27.504,22.752,27.504,22.896,27.216,22.896,27.216,23.04,26.784,23.04,26.784,23.184,25.92,23.184,25.92,23.328,34.416,23.328,34.416,23.184,34.272,23.184,34.272,23.04,34.128,23.04,34.128,22.896,33.984,22.896,33.984,22.752,33.84,22.752,33.84,22.608,33.696,22.608,33.696,22.464,33.552,22.464,33.552,22.32,33.408,22.32,33.408,22.176,33.264,22.176,33.264,22.032,33.12,22.032,33.12,21.888,32.976,21.888,32.976,21.744,32.832,21.744,32.832,21.6,32.688,21.6,32.688,21.456,32.544,21.456,32.544,21.312,32.4,21.312,32.4,21.168,32.256,21.168,32.256,21.024,32.112,21.024,32.112,20.88,31.968,20.88,31.968,20.736,31.824,20.736,31.824,20.448,31.68,20.448,31.68,20.16,31.536,20.16,31.536,15.696,31.392,15.696,31.392,15.552,31.104,15.552,31.104,15.408,30.96,15.408,30.96,15.264,30.672,15.264,30.672,15.12,30.528,15.12,30.528,14.976,30.384,14.976,30.384,14.832,30.24,14.832,30.24,14.544,30.096,14.544,30.096,14.4,29.952,14.4,29.952,14.112,29.808,14.112,29.808,13.824,29.664,13.824,29.664,13.392,29.52,13.392,29.52,11.52,29.664,11.52,29.664,11.088,29.808,11.088,29.808,10.8,29.952,10.8,29.952,10.512,30.096,10.512,30.096,10.368,30.24,10.368,30.24,10.224,30.384,10.224,30.384,10.08,30.528,10.08,30.528,9.936,30.672,9.936,30.672,9.792,30.816,9.792,30.816,9.648,30.96,9.648,30.96,9.504,31.248,9.504,31.248,9.36,31.536,9.36,31.536,9.216,31.824,9.216,31.824,9.072,32.256,9.072,32.256,8.928" />
     <polygon stroke-width="0" stroke="none" fill="black" points="33.84,8.928,33.84,9.072,34.272,9.072,34.272,9.216,34.56,9.216,34.56,9.36,34.848,9.36,34.848,9.504,35.136,9.504,35.136,9.648,35.28,9.648,35.28,9.792,35.424,9.792,35.424,9.936,35.568,9.936,35.568,10.08,35.712,10.08,35.712,10.224,35.856,10.224,35.856,10.368,37.44,10.368,37.44,10.224,37.584,10.224,37.584,10.08,37.728,10.08,37.728,9.936,37.872,9.936,37.872,9.792,38.016,9.792,38.016,9.648,38.16,9.648,38.16,9.504,38.448,9.504,38.448,9.36,38.736,9.36,38.736,9.216,39.024,9.216,39.024,9.072,39.456,9.072,39.456,8.928" />
     <polygon stroke-width="0" stroke="none" fill="black" points="41.04,8.928,41.04,9.072,41.472,9.072,41.472,9.216,41.76,9.216,41.76,9.36,42.048,9.36,42.048,9.504,42.336,9.504,42.336,9.648,42.48,9.648,42.48,9.792,42.624,9.792,42.624,9.936,42.768,9.936,42.768,10.08,42.912,10.08,42.912,10.224,43.056,10.224,43.056,10.368,44.64,10.368,44.64,10.224,44.784,10.224,44.784,10.08,44.928,10.08,44.928,9.936,45.072,9.936,45.072,9.792,45.216,9.792,45.216,9.648,45.36,9.648,45.36,9.504,45.648,9.504,45.648,9.36,45.936,9.36,45.936,9.216,46.224,9.216,46.224,9.072,46.656,9.072,46.656,8.928" />
     <polygon stroke-width="0" stroke="none" fill="black" points="48.24,8.928,48.24,9.072,48.672,9.072,48.672,9.216,48.96,9.216,48.96,9.36,49.248,9.36,49.248,9.504,49.536,9.504,49.536,9.648,49.68,9.648,49.68,9.792,49.824,9.792,49.824,9.936,49.968,9.936,49.968,10.08,50.112,10.08,50.112,10.224,50.256,10.224,50.256,10.368,51.84,10.368,51.84,10.224,51.984,10.224,51.984,10.08,52.128,10.08,52.128,9.936,52.272,9.936,52.272,9.792,52.416,9.792,52.416,9.648,52.56,9.648,52.56,9.504,52.848,9.504,52.848,9.36,53.136,9.36,53.136,9.216,53.424,9.216,53.424,9.072,53.856,9.072,53.856,8.928" />
     <polygon stroke-width="0" stroke="none" fill="black" points="55.44,8.928,55.44,9.072,55.872,9.072,55.872,9.216,56.16,9.216,56.16,9.36,56.448,9.36,56.448,9.504,56.736,9.504,56.736,9.648,56.88,9.648,56.88,9.792,57.024,9.792,57.024,9.936,57.168,9.936,57.168,10.08,57.312,10.08,57.312,10.224,57.456,10.224,57.456,10.368,59.04,10.368,59.04,10.224,59.184,10.224,59.184,10.08,59.328,10.08,59.328,9.936,59.472,9.936,59.472,9.792,59.616,9.792,59.616,9.648,59.76,9.648,59.76,9.504,60.048,9.504,60.048,9.36,60.336,9.36,60.336,9.216,60.624,9.216,60.624,9.072,61.056,9.072,61.056,8.928" />
     <polygon stroke-width="0" stroke="none" fill="black" points="63.936,9.504,63.936,9.648,102.384,9.648,102.384,9.504" />
     <polygon stroke-width="0" stroke="none" fill="black" points="63.936,9.504,63.936,9.648,102.384,9.648,102.384,9.504" />
     <polygon stroke-width="0" stroke="none" fill="black" points="64.08,9.648,64.08,9.792,64.224,9.792,64.224,9.936,64.368,9.936,64.368,10.08,64.512,10.08,64.512,10.224,64.656,10.224,64.656,10.368,64.8,10.368,64.8,10.656,64.944,10.656,64.944,10.8,90.864,10.8,90.864,10.944,91.296,10.944,91.296,11.088,91.584,11.088,91.584,11.232,91.728,11.232,91.728,11.376,91.872,11.376,91.872,11.52,92.016,11.52,92.016,11.664,92.16,11.664,92.16,11.808,92.304,11.808,92.304,11.952,92.448,11.952,92.448,12.096,92.592,12.096,92.592,12.24,92.736,12.24,92.736,12.384,92.88,12.384,92.88,12.528,93.024,12.528,93.024,12.672,93.168,12.672,93.168,12.816,93.312,12.816,93.312,12.96,93.456,12.96,93.456,13.104,93.6,13.104,93.6,13.248,93.744,13.248,93.744,13.392,93.888,13.392,93.888,13.536,94.032,13.536,94.032,13.68,94.176,13.68,94.176,13.824,94.32,13.824,94.32,13.968,94.464,13.968,94.464,14.112,94.608,14.112,94.608,14.256,94.752,14.256,94.752,14.4,94.896,14.4,94.896,14.544,95.04,14.544,95.04,14.688,95.184,14.688,95.184,14.832,95.328,14.832,95.328,14.976,95.472,14.976,95.472,15.12,95.616,15.12,95.616,15.264,95.76,15.264,95.76,15.408,95.904,15.408,95.904,15.552,96.048,15.552,96.048,15.696,96.192,15.696,96.192,15.84,96.336,15.84,96.336,15.984,96.48,15.984,96.48,16.128,96.624,16.128,96.624,16.272,96.768,16.272,96.768,16.416,96.912,16.416,96.912,16.56,97.056,16.56,97.056,16.704,97.2,16.704,97.2,16.848,97.344,16.848,97.344,16.992,97.488,16.992,97.488,17.136,100.368,17.136,100.368,17.28,100.8,17.28,100.8,17.424,102.384,17.424,102.384,9.648" />
     <polygon stroke-width="0" stroke="none" fill="black" points="64.944,10.8,64.944,10.944,65.088,10.944,65.088,11.232,65.232,11.232,65.232,11.664,65.376,11.664,65.376,13.248,65.232,13.248,65.232,13.824,65.088,13.824,65.088,14.112,64.944,14.112,64.944,14.4,64.8,14.4,64.8,14.544,64.656,14.544,64.656,14.688,64.512,14.688,64.512,14.976,64.368,14.976,64.368,15.12,64.08,15.12,64.08,15.264,63.936,15.264,63.936,15.408,63.792,15.408,63.792,15.552,63.504,15.552,63.504,15.696,63.216,15.696,63.216,15.84,62.784,15.84,62.784,15.984,61.92,15.984,61.92,16.128,70.416,16.128,70.416,15.984,70.56,15.984,70.56,15.84,70.704,15.84,70.704,15.696,70.848,15.696,70.848,15.552,70.992,15.552,70.992,15.408,71.136,15.408,71.136,15.264,71.28,15.264,71.28,15.12,71.424,15.12,71.424,14.976,71.568,14.976,71.568,14.832,71.712,14.832,71.712,14.688,71.856,14.688,71.856,14.544,72,14.544,72,14.4,72.144,14.4,72.144,14.256,72.288,14.256,72.288,14.112,72.432,14.112,72.432,13.968,72.576,13.968,72.576,13.824,72.72,13.824,72.72,13.68,72.864,13.68,72.864,13.536,73.008,13.536,73.008,13.392,73.152,13.392,73.152,13.248,73.296,13.248,73.296,13.104,73.44,13.104,73.44,12.96,73.584,12.96,73.584,12.816,73.728,12.816,73.728,12.672,73.872,12.672,73.872,12.528,74.016,12.528,74.016,12.384,74.16,12.384,74.16,12.24,74.304,12.24,74.304,12.096,74.448,12.096,74.448,11.952,74.592,11.952,74.592,11.808,74.736,11.808,74.736,11.664,74.88,11.664,74.88,11.52,75.024,11.52,75.024,11.376,75.312,11.376,75.312,11.232,75.456,11.232,75.456,11.088,75.888,11.088,75.888,10.944,86.832,10.944,86.832,10.8" />
     <polygon stroke-width="0" stroke="none" fill="black" points="43.056,14.544,43.056,14.688,42.912,14.688,42.912,14.976,42.768,14.976,42.768,15.12,42.48,15.12,42.48,15.264,42.336,15.264,42.336,15.408,42.192,15.408,42.192,15.552,41.904,15.552,41.904,15.696,41.76,15.696,41.76,16.128,47.232,16.128,47.232,15.984,46.512,15.984,46.512,15.84,46.08,15.84,46.08,15.696,45.792,15.696,45.792,15.552,45.504,15.552,45.504,15.408,45.36,15.408,45.36,15.264,45.072,15.264,45.072,15.12,44.928,15.12,44.928,14.976,44.784,14.976,44.784,14.832,44.64,14.832,44.64,14.544" />
     <polygon stroke-width="0" stroke="none" fill="black" points="50.256,14.544,50.256,14.688,50.112,14.688,50.112,14.976,49.968,14.976,49.968,15.12,49.68,15.12,49.68,15.264,49.536,15.264,49.536,15.408,49.392,15.408,49.392,15.552,49.104,15.552,49.104,15.696,48.816,15.696,48.816,15.84,48.384,15.84,48.384,15.984,47.52,15.984,47.52,16.128,52.56,16.128,52.56,15.264,52.272,15.264,52.272,15.12,52.128,15.12,52.128,14.976,51.984,14.976,51.984,14.832,51.84,14.832,51.84,14.544" />
     <polygon stroke-width="0" stroke="none" fill="black" points="57.456,14.544,57.456,14.688,57.312,14.688,57.312,14.976,57.168,14.976,57.168,15.12,56.88,15.12,56.88,15.264,56.736,15.264,56.736,16.128,61.632,16.128,61.632,15.984,60.912,15.984,60.912,15.84,60.48,15.84,60.48,15.696,60.192,15.696,60.192,15.552,59.904,15.552,59.904,15.408,59.76,15.408,59.76,15.264,59.472,15.264,59.472,15.12,59.328,15.12,59.328,14.976,59.184,14.976,59.184,14.832,59.04,14.832,59.04,14.544" />
     <polygon stroke-width="0" stroke="none" fill="black" points="0,16.128,0,17.568,1.44,17.568,1.44,17.424,1.584,17.424,1.584,17.28,1.728,17.28,1.728,17.136,1.872,17.136,1.872,16.992,2.016,16.992,2.016,16.848,2.16,16.848,2.16,16.704,2.448,16.704,2.448,16.56,2.736,16.56,2.736,16.416,3.024,16.416,3.024,16.272,3.456,16.272,3.456,16.128" />
     <polygon stroke-width="0" stroke="none" fill="black" points="5.04,16.128,5.04,16.272,5.472,16.272,5.472,16.416,5.76,16.416,5.76,16.56,6.048,16.56,6.048,16.704,6.336,16.704,6.336,16.848,6.48,16.848,6.48,16.992,6.624,16.992,6.624,17.136,6.768,17.136,6.768,17.28,6.912,17.28,6.912,17.424,7.056,17.424,7.056,17.568,8.64,17.568,8.64,17.424,8.784,17.424,8.784,17.28,8.928,17.28,8.928,17.136,9.072,17.136,9.072,16.992,9.216,16.992,9.216,16.848,9.36,16.848,9.36,16.704,9.648,16.704,9.648,16.56,9.936,16.56,9.936,16.416,10.224,16.416,10.224,16.272,10.656,16.272,10.656,16.128" />
     <polygon stroke-width="0" stroke="none" fill="black" points="12.24,16.128,12.24,16.272,12.672,16.272,12.672,16.416,12.96,16.416,12.96,16.56,13.248,16.56,13.248,16.704,13.536,16.704,13.536,16.848,13.68,16.848,13.68,16.992,13.824,16.992,13.824,17.136,13.968,17.136,13.968,17.28,14.112,17.28,14.112,17.424,14.256,17.424,14.256,17.568,15.84,17.568,15.84,17.424,15.984,17.424,15.984,17.28,16.128,17.28,16.128,17.136,16.272,17.136,16.272,16.992,16.416,16.992,16.416,16.848,16.56,16.848,16.56,16.704,16.848,16.704,16.848,16.56,17.136,16.56,17.136,16.416,17.424,16.416,17.424,16.272,17.856,16.272,17.856,16.128" />
     <polygon stroke-width="0" stroke="none" fill="black" points="19.44,16.128,19.44,16.272,19.872,16.272,19.872,16.416,20.16,16.416,20.16,16.56,20.448,16.56,20.448,16.704,20.736,16.704,20.736,16.848,20.88,16.848,20.88,16.992,21.024,16.992,21.024,17.136,21.168,17.136,21.168,17.28,21.312,17.28,21.312,17.424,21.456,17.424,21.456,17.568,23.04,17.568,23.04,17.424,23.184,17.424,23.184,17.28,23.328,17.28,23.328,17.136,23.472,17.136,23.472,16.992,23.616,16.992,23.616,16.848,23.76,16.848,23.76,16.704,24.048,16.704,24.048,16.56,24.336,16.56,24.336,16.416,24.624,16.416,24.624,16.272,25.056,16.272,25.056,16.128" />
     <polygon stroke-width="0" stroke="none" fill="black" points="41.76,16.128,41.76,16.272,52.56,16.272,52.56,16.128" />
     <polygon stroke-width="0" stroke="none" fill="black" points="41.76,16.128,41.76,16.272,52.56,16.272,52.56,16.128" />
     <polygon stroke-width="0" stroke="none" fill="black" points="56.736,16.128,56.736,16.272,70.272,16.272,70.272,16.128" />
     <polygon stroke-width="0" stroke="none" fill="black" points="56.736,16.128,56.736,16.272,70.272,16.272,70.272,16.128" />
     <polygon stroke-width="0" stroke="none" fill="black" points="41.76,16.272,41.76,19.008,41.904,19.008,41.904,19.152,42.048,19.152,42.048,19.296,42.192,19.296,42.192,19.44,42.336,19.44,42.336,19.584,42.48,19.584,42.48,19.728,42.624,19.728,42.624,19.872,42.768,19.872,42.768,20.016,42.912,20.016,42.912,20.16,43.056,20.16,43.056,20.304,43.2,20.304,43.2,20.448,43.344,20.448,43.344,20.592,43.488,20.592,43.488,20.736,43.632,20.736,43.632,20.88,43.776,20.88,43.776,21.024,43.92,21.024,43.92,21.168,44.064,21.168,44.064,21.312,44.208,21.312,44.208,21.456,44.352,21.456,44.352,21.6,44.496,21.6,44.496,21.744,44.64,21.744,44.64,21.888,44.784,21.888,44.784,22.032,44.928,22.032,44.928,22.176,45.072,22.176,45.072,22.32,45.216,22.32,45.216,22.464,45.36,22.464,45.36,22.608,45.504,22.608,45.504,22.752,45.648,22.752,45.648,22.896,45.792,22.896,45.792,23.04,45.936,23.04,45.936,23.184,46.08,23.184,46.08,23.328,54.432,23.328,54.432,23.184,53.712,23.184,53.712,23.04,53.28,23.04,53.28,22.896,52.992,22.896,52.992,22.752,52.704,22.752,52.704,22.608,52.56,22.608,52.56,22.464,52.272,22.464,52.272,22.32,52.128,22.32,52.128,22.176,51.984,22.176,51.984,22.032,51.84,22.032,51.84,21.744,51.696,21.744,51.696,21.6,51.552,21.6,51.552,21.312,51.408,21.312,51.408,21.024,51.264,21.024,51.264,20.592,51.12,20.592,51.12,18.72,51.264,18.72,51.264,18.288,51.408,18.288,51.408,18,51.552,18,51.552,17.712,51.696,17.712,51.696,17.568,51.84,17.568,51.84,17.424,51.984,17.424,51.984,17.28,52.128,17.28,52.128,17.136,52.272,17.136,52.272,16.992,52.416,16.992,52.416,16.848,52.56,16.848,52.56,16.272" />
     <polygon stroke-width="0" stroke="none" fill="black" points="56.736,16.272,56.736,16.848,56.88,16.848,56.88,16.992,57.024,16.992,57.024,17.136,57.168,17.136,57.168,17.28,57.312,17.28,57.312,17.424,57.456,17.424,57.456,17.568,57.6,17.568,57.6,17.856,57.744,17.856,57.744,18.144,57.888,18.144,57.888,18.432,58.032,18.432,58.032,18.864,58.176,18.864,58.176,20.448,58.032,20.448,58.032,21.024,57.888,21.024,57.888,21.312,57.744,21.312,57.744,21.6,57.6,21.6,57.6,21.744,57.456,21.744,57.456,21.888,57.312,21.888,57.312,22.176,57.168,22.176,57.168,22.32,56.88,22.32,56.88,22.464,56.736,22.464,56.736,22.608,56.592,22.608,56.592,22.752,56.304,22.752,56.304,22.896,56.016,22.896,56.016,23.04,55.584,23.04,55.584,23.184,54.72,23.184,54.72,23.328,63.216,23.328,63.216,23.184,63.36,23.184,63.36,23.04,63.504,23.04,63.504,22.896,63.648,22.896,63.648,22.752,63.792,22.752,63.792,22.608,63.936,22.608,63.936,22.464,64.08,22.464,64.08,22.32,64.224,22.32,64.224,22.176,64.368,22.176,64.368,22.032,64.512,22.032,64.512,21.888,64.656,21.888,64.656,21.744,64.8,21.744,64.8,21.6,64.944,21.6,64.944,21.456,65.088,21.456,65.088,21.312,65.232,21.312,65.232,21.168,65.376,21.168,65.376,21.024,65.52,21.024,65.52,20.88,65.664,20.88,65.664,20.736,65.808,20.736,65.808,20.592,65.952,20.592,65.952,20.448,66.096,20.448,66.096,20.304,66.24,20.304,66.24,20.16,66.384,20.16,66.384,20.016,66.528,20.016,66.528,19.872,66.672,19.872,66.672,19.728,66.816,19.728,66.816,19.584,66.96,19.584,66.96,19.44,67.104,19.44,67.104,19.296,67.248,19.296,67.248,19.152,67.392,19.152,67.392,19.008,67.536,19.008,67.536,18.864,67.68,18.864,67.68,18.72,67.824,18.72,67.824,18.576,67.968,18.576,67.968,18.432,68.112,18.432,68.112,18.288,68.256,18.288,68.256,18.144,68.4,18.144,68.4,18,68.544,18,68.544,17.856,68.688,17.856,68.688,17.712,68.832,17.712,68.832,17.568,68.976,17.568,68.976,17.424,69.12,17.424,69.12,17.28,69.264,17.28,69.264,17.136,69.408,17.136,69.408,16.992,69.552,16.992,69.552,16.848,69.696,16.848,69.696,16.704,69.84,16.704,69.84,16.56,69.984,16.56,69.984,16.416,70.128,16.416,70.128,16.272" />
     <polygon stroke-width="0" stroke="none" fill="black" points="0,21.744,0,58.608,4.896,58.608,4.896,58.752,5.472,58.752,5.472,58.896,5.904,58.896,5.904,59.04,6.192,59.04,6.192,59.184,6.48,59.184,6.48,59.328,6.624,59.328,6.624,59.472,6.912,59.472,6.912,59.616,7.056,59.616,7.056,59.76,7.2,59.76,7.2,59.904,7.344,59.904,7.344,60.048,7.488,60.048,7.488,60.192,7.632,60.192,7.632,60.48,7.776,60.48,7.776,60.624,7.92,60.624,7.92,60.912,8.064,60.912,8.064,61.2,8.208,61.2,8.208,61.488,8.352,61.488,8.352,62.208,8.496,62.208,8.496,63.648,8.352,63.648,8.352,64.224,8.208,64.224,8.208,64.512,38.736,64.512,38.736,64.368,18.144,64.368,18.144,64.224,17.856,64.224,17.856,64.08,17.712,64.08,17.712,63.936,17.424,63.936,17.424,63.792,17.28,63.792,17.28,63.648,17.136,63.648,17.136,63.504,16.992,63.504,16.992,63.36,16.848,63.36,16.848,63.216,16.704,63.216,16.704,63.072,16.56,63.072,16.56,62.928,16.416,62.928,16.416,62.784,16.272,62.784,16.272,62.64,16.128,62.64,16.128,62.496,15.984,62.496,15.984,62.352,15.84,62.352,15.84,62.208,15.696,62.208,15.696,62.064,15.552,62.064,15.552,61.92,15.408,61.92,15.408,61.776,15.264,61.776,15.264,61.632,15.12,61.632,15.12,61.488,14.976,61.488,14.976,61.344,14.832,61.344,14.832,61.2,14.688,61.2,14.688,61.056,14.544,61.056,14.544,60.912,14.4,60.912,14.4,60.768,14.256,60.768,14.256,60.624,14.112,60.624,14.112,60.48,13.968,60.48,13.968,60.336,13.824,60.336,13.824,60.192,13.68,60.192,13.68,60.048,13.536,60.048,13.536,59.904,13.392,59.904,13.392,59.76,13.248,59.76,13.248,59.616,13.104,59.616,13.104,59.472,12.96,59.472,12.96,59.328,12.816,59.328,12.816,59.184,12.672,59.184,12.672,59.04,12.528,59.04,12.528,58.896,12.384,58.896,12.384,58.752,12.24,58.752,12.24,58.608,12.096,58.608,12.096,58.464,11.952,58.464,11.952,58.32,11.808,58.32,11.808,58.176,11.664,58.176,11.664,58.032,11.52,58.032,11.52,57.888,11.376,57.888,11.376,57.744,11.232,57.744,11.232,57.6,10.944,57.6,10.944,57.456,10.8,57.456,10.8,57.312,10.656,57.312,10.656,57.168,10.512,57.168,10.512,57.024,10.368,57.024,10.368,56.88,10.224,56.88,10.224,56.736,10.08,56.736,10.08,56.592,9.936,56.592,9.936,56.448,9.792,56.448,9.792,56.304,9.648,56.304,9.648,56.16,9.504,56.16,9.504,56.016,9.36,56.016,9.36,55.872,9.216,55.872,9.216,55.728,9.072,55.728,9.072,55.584,8.928,55.584,8.928,55.44,8.784,55.44,8.784,55.296,8.64,55.296,8.64,55.152,8.496,55.152,8.496,55.008,8.352,55.008,8.352,54.864,8.208,54.864,8.208,54.72,8.064,54.72,8.064,54.576,7.92,54.576,7.92,54.432,7.776,54.432,7.776,54.288,7.632,54.288,7.632,54.144,7.488,54.144,7.488,54,7.344,54,7.344,53.856,7.2,53.856,7.2,53.712,7.056,53.712,7.056,53.568,6.912,53.568,6.912,53.424,6.768,53.424,6.768,53.28,6.624,53.28,6.624,53.136,6.48,53.136,6.48,52.992,6.336,52.992,6.336,52.848,6.192,52.848,6.192,52.704,6.048,52.704,6.048,52.56,5.904,52.56,5.904,52.416,5.76,52.416,5.76,52.272,5.616,52.272,5.616,52.128,5.472,52.128,5.472,51.984,5.328,51.984,5.328,51.84,5.184,51.84,5.184,51.696,5.04,51.696,5.04,51.552,4.896,51.552,4.896,51.408,4.752,51.408,4.752,51.264,4.608,51.264,4.608,51.12,4.464,51.12,4.464,50.976,4.32,50.976,4.32,50.832,4.176,50.832,4.176,50.688,4.032,50.688,4.032,50.544,3.888,50.544,3.888,50.4,3.744,50.4,3.744,50.256,3.6,50.256,3.6,50.112,3.456,50.112,3.456,49.968,3.312,49.968,3.312,49.824,3.168,49.824,3.168,49.68,3.024,49.68,3.024,49.392,2.88,49.392,2.88,49.248,2.736,49.248,2.736,48.528,2.592,48.528,2.592,22.752,2.304,22.752,2.304,22.608,2.16,22.608,2.16,22.464,1.872,22.464,1.872,22.32,1.728,22.32,1.728,22.176,1.584,22.176,1.584,22.032,1.44,22.032,1.44,21.744" />
     <polygon stroke-width="0" stroke="none" fill="black" points="21.456,21.744,21.456,21.888,21.312,21.888,21.312,22.176,21.168,22.176,21.168,22.32,20.88,22.32,20.88,22.464,20.736,22.464,20.736,22.608,20.592,22.608,20.592,22.752,20.304,22.752,20.304,23.328,25.632,23.328,25.632,23.184,24.912,23.184,24.912,23.04,24.48,23.04,24.48,22.896,24.192,22.896,24.192,22.752,23.904,22.752,23.904,22.608,23.76,22.608,23.76,22.464,23.472,22.464,23.472,22.32,23.328,22.32,23.328,22.176,23.184,22.176,23.184,22.032,23.04,22.032,23.04,21.744" />
     <polygon stroke-width="0" stroke="none" fill="black" points="20.304,23.328,20.304,23.472,34.56,23.472,34.56,23.328" />
     <polygon stroke-width="0" stroke="none" fill="black" points="20.304,23.328,20.304,23.472,34.56,23.472,34.56,23.328" />
     <polygon stroke-width="0" stroke="none" fill="black" points="46.224,23.328,46.224,23.472,63.072,23.472,63.072,23.328" />
     <polygon stroke-width="0" stroke="none" fill="black" points="46.224,23.328,46.224,23.472,63.072,23.472,63.072,23.328" />
     <polygon stroke-width="0" stroke="none" fill="black" points="20.304,23.472,20.304,33.552,20.448,33.552,20.448,33.696,20.592,33.696,20.592,33.84,20.736,33.84,20.736,33.984,20.88,33.984,20.88,34.128,21.024,34.128,21.024,34.272,21.168,34.272,21.168,34.416,21.312,34.416,21.312,34.56,21.456,34.56,21.456,34.704,21.6,34.704,21.6,34.848,21.744,34.848,21.744,34.992,21.888,34.992,21.888,35.136,22.032,35.136,22.032,35.28,22.176,35.28,22.176,35.424,22.32,35.424,22.32,35.568,22.464,35.568,22.464,35.712,46.944,35.712,46.944,35.568,46.656,35.568,46.656,35.424,46.368,35.424,46.368,35.28,46.224,35.28,46.224,35.136,46.08,35.136,46.08,34.992,45.936,34.992,45.936,34.848,45.792,34.848,45.792,34.704,45.648,34.704,45.648,34.56,45.504,34.56,45.504,34.416,45.36,34.416,45.36,34.272,45.216,34.272,45.216,34.128,45.072,34.128,45.072,33.984,44.928,33.984,44.928,33.84,44.784,33.84,44.784,33.696,44.64,33.696,44.64,33.552,44.496,33.552,44.496,33.408,44.352,33.408,44.352,33.264,44.208,33.264,44.208,33.12,44.064,33.12,44.064,32.976,43.92,32.976,43.92,32.832,43.776,32.832,43.776,32.688,43.632,32.688,43.632,32.544,43.488,32.544,43.488,32.4,43.344,32.4,43.344,32.256,43.2,32.256,43.2,32.112,43.056,32.112,43.056,31.968,42.912,31.968,42.912,31.824,42.768,31.824,42.768,31.68,42.624,31.68,42.624,31.536,42.48,31.536,42.48,31.392,42.336,31.392,42.336,31.248,42.192,31.248,42.192,31.104,42.048,31.104,42.048,30.96,41.904,30.96,41.904,30.816,41.76,30.816,41.76,30.672,41.616,30.672,41.616,30.528,41.472,30.528,41.472,30.384,41.328,30.384,41.328,30.24,41.184,30.24,41.184,29.952,41.04,29.952,41.04,29.808,40.896,29.808,40.896,29.664,40.752,29.664,40.752,29.52,40.608,29.52,40.608,29.376,40.464,29.376,40.464,29.232,40.32,29.232,40.32,29.088,40.176,29.088,40.176,28.944,40.032,28.944,40.032,28.8,39.888,28.8,39.888,28.656,39.744,28.656,39.744,28.512,39.6,28.512,39.6,28.368,39.456,28.368,39.456,28.224,39.312,28.224,39.312,28.08,39.168,28.08,39.168,27.936,39.024,27.936,39.024,27.792,38.88,27.792,38.88,27.648,38.736,27.648,38.736,27.504,38.592,27.504,38.592,27.36,38.448,27.36,38.448,27.216,38.304,27.216,38.304,27.072,38.16,27.072,38.16,26.928,38.016,26.928,38.016,26.784,37.872,26.784,37.872,26.64,37.728,26.64,37.728,26.496,37.584,26.496,37.584,26.352,37.44,26.352,37.44,26.208,37.296,26.208,37.296,26.064,37.152,26.064,37.152,25.92,37.008,25.92,37.008,25.776,36.864,25.776,36.864,25.632,36.72,25.632,36.72,25.488,36.576,25.488,36.576,25.344,36.432,25.344,36.432,25.2,36.288,25.2,36.288,25.056,36.144,25.056,36.144,24.912,36,24.912,36,24.768,35.856,24.768,35.856,24.624,35.712,24.624,35.712,24.48,35.568,24.48,35.568,24.336,35.424,24.336,35.424,24.192,35.28,24.192,35.28,24.048,35.136,24.048,35.136,23.904,34.992,23.904,34.992,23.76,34.848,23.76,34.848,23.616,34.704,23.616,34.704,23.472" />
     <polygon stroke-width="0" stroke="none" fill="black" points="46.368,23.472,46.368,23.616,46.512,23.616,46.512,23.76,46.656,23.76,46.656,23.904,46.8,23.904,46.8,24.048,46.944,24.048,46.944,24.192,47.088,24.192,47.088,24.336,47.232,24.336,47.232,24.48,47.376,24.48,47.376,24.624,47.52,24.624,47.52,24.768,47.664,24.768,47.664,24.912,47.808,24.912,47.808,25.056,47.952,25.056,47.952,25.2,61.2,25.2,61.2,25.056,61.344,25.056,61.344,24.912,61.488,24.912,61.488,24.768,61.632,24.768,61.632,24.624,61.92,24.624,61.92,24.48,62.064,24.48,62.064,24.336,62.208,24.336,62.208,24.192,62.352,24.192,62.352,24.048,62.496,24.048,62.496,23.904,62.64,23.904,62.64,23.76,62.784,23.76,62.784,23.616,62.928,23.616,62.928,23.472" />
     <polygon stroke-width="0" stroke="none" fill="black" points="100.944,29.088,100.944,29.232,100.512,29.232,100.512,29.376,99.936,29.376,99.936,29.52,97.344,29.52,97.344,29.664,97.2,29.664,97.2,29.808,97.056,29.808,97.056,29.952,96.912,29.952,96.912,30.096,96.768,30.096,96.768,30.24,96.624,30.24,96.624,30.384,96.48,30.384,96.48,30.528,96.336,30.528,96.336,30.672,96.192,30.672,96.192,30.816,96.048,30.816,96.048,30.96,95.904,30.96,95.904,31.104,95.76,31.104,95.76,31.248,95.616,31.248,95.616,31.392,95.472,31.392,95.472,31.536,95.328,31.536,95.328,31.68,95.184,31.68,95.184,31.824,95.04,31.824,95.04,31.968,94.896,31.968,94.896,32.112,94.752,32.112,94.752,32.256,94.608,32.256,94.608,32.4,94.464,32.4,94.464,32.544,94.32,32.544,94.32,32.688,94.176,32.688,94.176,32.832,94.032,32.832,94.032,32.976,93.888,32.976,93.888,33.12,93.744,33.12,93.744,33.264,93.6,33.264,93.6,33.408,93.456,33.408,93.456,33.552,93.312,33.552,93.312,33.84,93.168,33.84,93.168,33.984,93.024,33.984,93.024,34.128,92.88,34.128,92.88,34.272,92.736,34.272,92.736,34.416,92.592,34.416,92.592,34.56,92.448,34.56,92.448,34.704,92.304,34.704,92.304,34.848,92.16,34.848,92.16,34.992,92.016,34.992,92.016,35.136,91.872,35.136,91.872,35.28,91.584,35.28,91.584,35.424,91.44,35.424,91.44,35.568,91.008,35.568,91.008,35.712,102.384,35.712,102.384,29.088" />
     <polygon stroke-width="0" stroke="none" fill="black" points="22.608,35.712,22.608,35.856,102.384,35.856,102.384,35.712" />
     <polygon stroke-width="0" stroke="none" fill="black" points="22.608,35.712,22.608,35.856,102.384,35.856,102.384,35.712" />
     <polygon stroke-width="0" stroke="none" fill="black" points="22.752,35.856,22.752,36,22.896,36,22.896,36.144,23.04,36.144,23.04,36.288,23.184,36.288,23.184,36.432,23.328,36.432,23.328,36.576,23.472,36.576,23.472,36.72,23.616,36.72,23.616,36.864,23.76,36.864,23.76,37.008,23.904,37.008,23.904,37.152,24.048,37.152,24.048,37.296,24.192,37.296,24.192,37.44,24.336,37.44,24.336,37.584,24.48,37.584,24.48,37.728,24.624,37.728,24.624,37.872,24.768,37.872,24.768,38.016,24.912,38.016,24.912,38.16,25.056,38.16,25.056,38.304,25.2,38.304,25.2,38.448,25.344,38.448,25.344,38.592,25.488,38.592,25.488,38.736,25.632,38.736,25.632,38.88,25.776,38.88,25.776,39.024,25.92,39.024,25.92,39.168,26.064,39.168,26.064,39.312,26.208,39.312,26.208,39.456,94.896,39.456,94.896,39.6,95.616,39.6,95.616,39.744,96.048,39.744,96.048,39.888,96.336,39.888,96.336,40.032,96.48,40.032,96.48,40.176,96.768,40.176,96.768,40.32,96.912,40.32,96.912,40.464,97.056,40.464,97.056,40.608,97.2,40.608,97.2,40.752,97.344,40.752,97.344,40.896,97.488,40.896,97.488,41.184,97.632,41.184,97.632,41.472,97.776,41.472,97.776,41.76,97.92,41.76,97.92,42.336,98.064,42.336,98.064,43.488,97.92,43.488,97.92,44.064,97.776,44.064,97.776,44.352,97.632,44.352,97.632,44.64,97.488,44.64,97.488,44.928,97.344,44.928,97.344,45.072,97.2,45.072,97.2,45.216,97.056,45.216,97.056,45.36,96.912,45.36,96.912,45.504,96.768,45.504,96.768,45.648,96.624,45.648,96.624,45.792,96.336,45.792,96.336,45.936,96.048,45.936,96.048,46.08,95.76,46.08,95.76,46.224,95.184,46.224,95.184,46.368,102.384,46.368,102.384,35.856" />
     <polygon stroke-width="0" stroke="none" fill="black" points="26.352,39.456,26.352,39.6,26.496,39.6,26.496,39.744,26.64,39.744,26.64,39.888,26.784,39.888,26.784,40.032,26.928,40.032,26.928,40.176,27.072,40.176,27.072,40.32,27.216,40.32,27.216,40.464,27.36,40.464,27.36,40.608,27.504,40.608,27.504,40.752,27.648,40.752,27.648,40.896,27.792,40.896,27.792,41.04,27.936,41.04,27.936,41.184,28.08,41.184,28.08,41.328,28.224,41.328,28.224,41.472,28.368,41.472,28.368,41.616,28.512,41.616,28.512,41.76,28.656,41.76,28.656,41.904,28.8,41.904,28.8,42.048,28.944,42.048,28.944,42.192,29.088,42.192,29.088,42.336,29.232,42.336,29.232,42.48,29.376,42.48,29.376,42.624,29.52,42.624,29.52,42.768,29.664,42.768,29.664,42.912,29.808,42.912,29.808,43.056,29.952,43.056,29.952,43.2,30.096,43.2,30.096,43.344,30.24,43.344,30.24,43.488,30.384,43.488,30.384,43.632,30.528,43.632,30.528,43.776,30.672,43.776,30.672,43.92,30.816,43.92,30.816,44.064,30.96,44.064,30.96,44.208,31.104,44.208,31.104,44.352,31.248,44.352,31.248,44.496,31.392,44.496,31.392,44.64,31.536,44.64,31.536,44.784,31.68,44.784,31.68,44.928,31.824,44.928,31.824,45.072,31.968,45.072,31.968,45.216,32.112,45.216,32.112,45.36,32.256,45.36,32.256,45.504,32.4,45.504,32.4,45.648,32.544,45.648,32.544,45.792,32.688,45.792,32.688,45.936,32.832,45.936,32.832,46.08,32.976,46.08,32.976,46.224,33.12,46.224,33.12,46.368,75.6,46.368,75.6,46.224,75.168,46.224,75.168,46.08,74.736,46.08,74.736,45.936,74.448,45.936,74.448,45.792,74.304,45.792,74.304,45.648,74.016,45.648,74.016,45.504,73.872,45.504,73.872,45.36,73.728,45.36,73.728,45.216,73.584,45.216,73.584,45.072,73.44,45.072,73.44,44.784,73.296,44.784,73.296,44.496,73.152,44.496,73.152,44.352,73.008,44.352,73.008,43.92,72.864,43.92,72.864,42.048,73.008,42.048,73.008,41.616,73.152,41.616,73.152,41.328,73.296,41.328,73.296,41.04,73.44,41.04,73.44,40.896,73.584,40.896,73.584,40.752,73.728,40.752,73.728,40.464,73.872,40.464,73.872,40.32,74.16,40.32,74.16,40.176,74.304,40.176,74.304,40.032,74.592,40.032,74.592,39.888,74.88,39.888,74.88,39.744,75.168,39.744,75.168,39.6,75.888,39.6,75.888,39.456" />
     <polygon stroke-width="0" stroke="none" fill="black" points="76.464,39.456,76.464,39.6,77.184,39.6,77.184,39.744,77.616,39.744,77.616,39.888,77.904,39.888,77.904,40.032,78.048,40.032,78.048,40.176,78.336,40.176,78.336,40.32,78.48,40.32,78.48,40.464,78.624,40.464,78.624,40.608,78.768,40.608,78.768,40.752,78.912,40.752,78.912,40.896,79.056,40.896,79.056,41.184,79.2,41.184,79.2,41.472,79.344,41.472,79.344,41.76,79.488,41.76,79.488,42.336,79.632,42.336,79.632,43.632,79.488,43.632,79.488,44.064,79.344,44.064,79.344,44.352,79.2,44.352,79.2,44.64,79.056,44.64,79.056,44.928,78.912,44.928,78.912,45.072,78.768,45.072,78.768,45.216,78.624,45.216,78.624,45.36,78.48,45.36,78.48,45.504,78.336,45.504,78.336,45.648,78.192,45.648,78.192,45.792,77.904,45.792,77.904,45.936,77.616,45.936,77.616,46.08,77.328,46.08,77.328,46.224,76.752,46.224,76.752,46.368,94.032,46.368,94.032,46.224,93.6,46.224,93.6,46.08,93.168,46.08,93.168,45.936,92.88,45.936,92.88,45.792,92.736,45.792,92.736,45.648,92.448,45.648,92.448,45.504,92.304,45.504,92.304,45.36,92.16,45.36,92.16,45.216,92.016,45.216,92.016,45.072,91.872,45.072,91.872,44.784,91.728,44.784,91.728,44.64,91.584,44.64,91.584,44.352,91.44,44.352,91.44,43.92,91.296,43.92,91.296,43.056,91.152,43.056,91.152,42.768,91.296,42.768,91.296,42.048,91.44,42.048,91.44,41.616,91.584,41.616,91.584,41.328,91.728,41.328,91.728,41.04,91.872,41.04,91.872,40.896,92.016,40.896,92.016,40.608,92.16,40.608,92.16,40.464,92.304,40.464,92.304,40.32,92.592,40.32,92.592,40.176,92.736,40.176,92.736,40.032,93.024,40.032,93.024,39.888,93.168,39.888,93.168,39.744,93.6,39.744,93.6,39.6,94.32,39.6,94.32,39.456" />
     <polygon stroke-width="0" stroke="none" fill="black" points="33.264,46.368,33.264,46.512,102.384,46.512,102.384,46.368" />
     <polygon stroke-width="0" stroke="none" fill="black" points="33.264,46.368,33.264,46.512,102.384,46.512,102.384,46.368" />
     <polygon stroke-width="0" stroke="none" fill="black" points="33.264,46.368,33.264,46.512,102.384,46.512,102.384,46.368" />
     <polygon stroke-width="0" stroke="none" fill="black" points="33.408,46.512,33.408,46.656,33.552,46.656,33.552,46.8,33.696,46.8,33.696,46.944,33.84,46.944,33.84,47.088,33.984,47.088,33.984,47.232,34.128,47.232,34.128,47.376,34.272,47.376,34.272,47.52,34.416,47.52,34.416,47.664,34.56,47.664,34.56,47.808,34.704,47.808,34.704,47.952,34.848,47.952,34.848,48.096,34.992,48.096,34.992,48.24,35.136,48.24,35.136,48.384,35.28,48.384,35.28,48.528,35.424,48.528,35.424,48.672,35.568,48.672,35.568,48.816,35.712,48.816,35.712,48.96,35.856,48.96,35.856,49.104,36,49.104,36,49.248,36.144,49.248,36.144,49.392,36.288,49.392,36.288,49.536,36.432,49.536,36.432,49.68,36.576,49.68,36.576,49.824,36.72,49.824,36.72,49.968,36.864,49.968,36.864,50.112,37.008,50.112,37.008,50.256,37.152,50.256,37.152,50.4,37.296,50.4,37.296,50.544,37.44,50.544,37.44,50.688,37.584,50.688,37.584,50.832,37.728,50.832,37.728,50.976,37.872,50.976,37.872,51.12,38.016,51.12,38.016,51.264,38.16,51.264,38.16,51.408,38.304,51.408,38.304,51.552,38.448,51.552,38.448,51.696,38.592,51.696,38.592,51.84,38.736,51.84,38.736,51.984,38.88,51.984,38.88,52.128,62.64,52.128,62.64,52.272,95.328,52.272,95.328,52.416,95.76,52.416,95.76,52.56,96.192,52.56,96.192,52.704,96.336,52.704,96.336,52.848,96.624,52.848,96.624,52.992,96.768,52.992,96.768,53.136,96.912,53.136,96.912,53.28,97.056,53.28,97.056,53.424,97.2,53.424,97.2,53.568,97.344,53.568,97.344,53.712,97.488,53.712,97.488,54,97.632,54,97.632,54.144,97.776,54.144,97.776,54.576,97.92,54.576,97.92,55.152,98.064,55.152,98.064,56.304,97.92,56.304,97.92,56.88,97.776,56.88,97.776,57.168,97.632,57.168,97.632,57.456,97.488,57.456,97.488,57.6,97.344,57.6,97.344,57.888,97.2,57.888,97.2,58.032,97.056,58.032,97.056,58.176,96.912,58.176,96.912,58.32,96.768,58.32,96.768,58.464,96.48,58.464,96.48,58.608,96.192,58.608,96.192,58.752,96.048,58.752,96.048,58.896,95.472,58.896,95.472,59.04,102.384,59.04,102.384,46.512" />
     <polygon stroke-width="0" stroke="none" fill="black" points="41.04,52.128,41.04,52.272,41.472,52.272,41.472,52.416,41.76,52.416,41.76,52.56,42.048,52.56,42.048,52.704,42.336,52.704,42.336,52.848,42.48,52.848,42.48,52.992,42.624,52.992,42.624,53.136,42.768,53.136,42.768,53.28,42.912,53.28,42.912,53.424,43.056,53.424,43.056,53.568,44.64,53.568,44.64,53.424,44.784,53.424,44.784,53.28,44.928,53.28,44.928,53.136,45.072,53.136,45.072,52.992,45.216,52.992,45.216,52.848,45.36,52.848,45.36,52.704,45.648,52.704,45.648,52.56,45.936,52.56,45.936,52.416,46.224,52.416,46.224,52.272,46.656,52.272,46.656,52.128" />
     <polygon stroke-width="0" stroke="none" fill="black" points="48.24,52.128,48.24,52.272,48.672,52.272,48.672,52.416,48.96,52.416,48.96,52.56,49.248,52.56,49.248,52.704,49.536,52.704,49.536,52.848,49.68,52.848,49.68,52.992,49.824,52.992,49.824,53.136,49.968,53.136,49.968,53.28,50.112,53.28,50.112,53.424,50.256,53.424,50.256,53.568,51.84,53.568,51.84,53.424,51.984,53.424,51.984,53.28,52.128,53.28,52.128,53.136,52.272,53.136,52.272,52.992,52.416,52.992,52.416,52.848,52.56,52.848,52.56,52.704,52.848,52.704,52.848,52.56,53.136,52.56,53.136,52.416,53.424,52.416,53.424,52.272,53.856,52.272,53.856,52.128" />
     <polygon stroke-width="0" stroke="none" fill="black" points="55.44,52.128,55.44,52.272,55.872,52.272,55.872,52.416,56.16,52.416,56.16,52.56,56.448,52.56,56.448,52.704,56.736,52.704,56.736,52.848,56.88,52.848,56.88,52.992,57.024,52.992,57.024,53.136,57.168,53.136,57.168,53.28,57.312,53.28,57.312,53.424,57.456,53.424,57.456,53.568,59.04,53.568,59.04,53.424,59.184,53.424,59.184,53.28,59.328,53.28,59.328,53.136,59.472,53.136,59.472,52.992,59.616,52.992,59.616,52.848,59.76,52.848,59.76,52.704,60.048,52.704,60.048,52.56,60.336,52.56,60.336,52.416,60.624,52.416,60.624,52.272,61.056,52.272,61.056,52.128" />
     <polygon stroke-width="0" stroke="none" fill="black" points="63.072,52.272,63.072,52.416,63.36,52.416,63.36,52.56,63.648,52.56,63.648,52.704,63.936,52.704,63.936,52.848,64.08,52.848,64.08,52.992,64.224,52.992,64.224,53.136,64.368,53.136,64.368,53.28,64.512,53.28,64.512,53.424,64.656,53.424,64.656,53.568,64.8,53.568,64.8,53.856,64.944,53.856,64.944,54.144,65.088,54.144,65.088,54.432,65.232,54.432,65.232,54.864,65.376,54.864,65.376,56.448,65.232,56.448,65.232,57.024,65.088,57.024,65.088,57.312,64.944,57.312,64.944,57.6,64.8,57.6,64.8,57.744,64.656,57.744,64.656,57.888,64.512,57.888,64.512,58.176,64.368,58.176,64.368,58.32,64.08,58.32,64.08,58.464,63.936,58.464,63.936,58.608,63.792,58.608,63.792,58.752,63.504,58.752,63.504,58.896,63.216,58.896,63.216,59.04,75.312,59.04,75.312,58.896,74.88,58.896,74.88,58.752,74.592,58.752,74.592,58.608,74.304,58.608,74.304,58.464,74.16,58.464,74.16,58.32,74.016,58.32,74.016,58.176,73.728,58.176,73.728,57.888,73.584,57.888,73.584,57.744,73.44,57.744,73.44,57.6,73.296,57.6,73.296,57.312,73.152,57.312,73.152,57.024,73.008,57.024,73.008,56.592,72.864,56.592,72.864,55.728,72.72,55.728,72.72,55.584,72.864,55.584,72.864,54.72,73.008,54.72,73.008,54.288,73.152,54.288,73.152,54,73.296,54,73.296,53.856,73.44,53.856,73.44,53.568,73.584,53.568,73.584,53.424,73.728,53.424,73.728,53.28,73.872,53.28,73.872,53.136,74.016,53.136,74.016,52.992,74.16,52.992,74.16,52.848,74.448,52.848,74.448,52.704,74.736,52.704,74.736,52.56,75.024,52.56,75.024,52.416,75.6,52.416,75.6,52.272" />
     <polygon stroke-width="0" stroke="none" fill="black" points="76.896,52.272,76.896,52.416,77.328,52.416,77.328,52.56,77.76,52.56,77.76,52.704,77.904,52.704,77.904,52.848,78.192,52.848,78.192,52.992,78.336,52.992,78.336,53.136,78.624,53.136,78.624,53.28,78.768,53.28,78.768,53.568,78.912,53.568,78.912,53.712,79.056,53.712,79.056,54,79.2,54,79.2,54.144,79.344,54.144,79.344,54.576,79.488,54.576,79.488,55.008,79.632,55.008,79.632,56.304,79.488,56.304,79.488,56.88,79.344,56.88,79.344,57.168,79.2,57.168,79.2,57.456,79.056,57.456,79.056,57.6,78.912,57.6,78.912,57.888,78.768,57.888,78.768,58.032,78.624,58.032,78.624,58.176,78.48,58.176,78.48,58.32,78.336,58.32,78.336,58.464,78.048,58.464,78.048,58.608,77.76,58.608,77.76,58.752,77.616,58.752,77.616,58.896,77.04,58.896,77.04,59.04,93.744,59.04,93.744,58.896,93.312,58.896,93.312,58.752,93.024,58.752,93.024,58.608,92.736,58.608,92.736,58.464,92.592,58.464,92.592,58.32,92.448,58.32,92.448,58.176,92.16,58.176,92.16,57.888,92.016,57.888,92.016,57.744,91.872,57.744,91.872,57.6,91.728,57.6,91.728,57.312,91.584,57.312,91.584,57.024,91.44,57.024,91.44,56.592,91.296,56.592,91.296,55.872,91.152,55.872,91.152,55.584,91.296,55.584,91.296,54.72,91.44,54.72,91.44,54.288,91.584,54.288,91.584,54,91.728,54,91.728,53.856,91.872,53.856,91.872,53.568,92.016,53.568,92.016,53.424,92.16,53.424,92.16,53.28,92.304,53.28,92.304,53.136,92.448,53.136,92.448,52.992,92.592,52.992,92.592,52.848,92.88,52.848,92.88,52.704,93.168,52.704,93.168,52.56,93.456,52.56,93.456,52.416,93.888,52.416,93.888,52.272" />
     <polygon stroke-width="0" stroke="none" fill="black" points="0,58.608,0,59.76,1.44,59.76,1.44,59.616,1.584,59.616,1.584,59.472,1.728,59.472,1.728,59.328,2.016,59.328,2.016,59.184,2.304,59.184,2.304,59.04,2.592,59.04,2.592,58.896,3.024,58.896,3.024,58.752,3.6,58.752,3.6,58.608" />
     <polygon stroke-width="0" stroke="none" fill="black" points="62.784,59.04,62.784,59.184,102.384,59.184,102.384,59.04" />
     <polygon stroke-width="0" stroke="none" fill="black" points="62.784,59.04,62.784,59.184,102.384,59.184,102.384,59.04" />
     <polygon stroke-width="0" stroke="none" fill="black" points="62.784,59.04,62.784,59.184,102.384,59.184,102.384,59.04" />
     <polygon stroke-width="0" stroke="none" fill="black" points="61.92,59.184,61.92,59.328,60.336,59.328,60.336,59.472,60.192,59.472,60.192,59.616,60.048,59.616,60.048,59.76,59.904,59.76,59.904,59.904,59.76,59.904,59.76,60.048,59.616,60.048,59.616,60.192,59.472,60.192,59.472,60.336,59.328,60.336,59.328,60.48,59.184,60.48,59.184,60.624,59.04,60.624,59.04,60.768,58.896,60.768,58.896,60.912,58.752,60.912,58.752,61.056,58.608,61.056,58.608,61.2,58.464,61.2,58.464,61.344,58.32,61.344,58.32,61.488,58.176,61.488,58.176,61.632,58.032,61.632,58.032,61.776,57.888,61.776,57.888,61.92,57.744,61.92,57.744,62.064,57.6,62.064,57.6,62.208,57.456,62.208,57.456,62.352,57.312,62.352,57.312,62.496,57.168,62.496,57.168,62.64,57.024,62.64,57.024,62.784,56.88,62.784,56.88,62.928,56.736,62.928,56.736,63.072,56.592,63.072,56.592,63.216,56.448,63.216,56.448,63.36,56.304,63.36,56.304,63.504,56.16,63.504,56.16,63.648,56.016,63.648,56.016,63.792,55.872,63.792,55.872,63.936,55.728,63.936,55.728,64.08,55.584,64.08,55.584,64.224,55.296,64.224,55.296,64.368,54.864,64.368,54.864,64.512,102.384,64.512,102.384,59.184" />
     <polygon stroke-width="0" stroke="none" fill="black" points="8.208,64.512,8.208,64.656,102.384,64.656,102.384,64.512" />
     <polygon stroke-width="0" stroke="none" fill="black" points="8.208,64.512,8.208,64.656,102.384,64.656,102.384,64.512" />
     <polygon stroke-width="0" stroke="none" fill="black" points="8.064,64.656,8.064,64.944,7.92,64.944,7.92,65.088,7.776,65.088,7.776,65.376,7.632,65.376,7.632,65.52,7.488,65.52,7.488,66.96,102.384,66.96,102.384,64.656" />
     <g id="connector0pad" >
      <circle cx="5.8815" cy="4.0815" stroke-width="0" stroke="none" fill="black" r="2.7" />
     </g>
    </g>
   </g>
  </g>
  <g partID="854425390">
   <g transform="translate(7.55392,23.6931)">
    <g id="groundplane1" >
     <polygon stroke-width="0" stroke="none" fill="black" points="1.296,0,1.296,0.144,1.152,0.144,1.152,0.432,1.008,0.432,1.008,0.576,0.72,0.576,0.72,0.72,0.576,0.72,0.576,0.864,0.432,0.864,0.432,1.008,0.144,1.008,0.144,1.152,0,1.152,0,1.584,5.472,1.584,5.472,1.44,4.752,1.44,4.752,1.296,4.32,1.296,4.32,1.152,4.032,1.152,4.032,1.008,3.744,1.008,3.744,0.864,3.6,0.864,3.6,0.72,3.312,0.72,3.312,0.576,3.168,0.576,3.168,0.432,3.024,0.432,3.024,0.288,2.88,0.288,2.88,0" />
     <polygon stroke-width="0" stroke="none" fill="black" points="8.496,0,8.496,0.144,8.352,0.144,8.352,0.432,8.208,0.432,8.208,0.576,7.92,0.576,7.92,0.72,7.776,0.72,7.776,0.864,7.632,0.864,7.632,1.008,7.344,1.008,7.344,1.152,7.056,1.152,7.056,1.296,6.624,1.296,6.624,1.44,5.76,1.44,5.76,1.584,11.232,1.584,11.232,1.008,10.944,1.008,10.944,0.864,10.8,0.864,10.8,0.72,10.512,0.72,10.512,0.576,10.368,0.576,10.368,0.432,10.224,0.432,10.224,0.288,10.08,0.288,10.08,0" />
     <polygon stroke-width="0" stroke="none" fill="black" points="0,1.584,0,1.728,11.232,1.728,11.232,1.584" />
     <polygon stroke-width="0" stroke="none" fill="black" points="0,1.584,0,1.728,11.232,1.728,11.232,1.584" />
     <polygon stroke-width="0" stroke="none" fill="black" points="0,1.728,0,19.584,0.144,19.584,0.144,26.352,0.288,26.352,0.288,26.496,0.432,26.496,0.432,26.64,0.576,26.64,0.576,26.784,0.72,26.784,0.72,26.928,0.864,26.928,0.864,27.072,1.008,27.072,1.008,27.216,1.152,27.216,1.152,27.36,1.296,27.36,1.296,27.504,1.44,27.504,1.44,27.648,1.584,27.648,1.584,27.792,1.728,27.792,1.728,27.936,1.872,27.936,1.872,28.08,2.016,28.08,2.016,28.224,2.16,28.224,2.16,28.368,2.304,28.368,2.304,28.512,2.448,28.512,2.448,28.656,2.592,28.656,2.592,28.8,2.736,28.8,2.736,28.944,2.88,28.944,2.88,29.088,3.024,29.088,3.024,29.232,3.168,29.232,3.168,29.376,3.312,29.376,3.312,29.52,3.456,29.52,3.456,29.664,3.6,29.664,3.6,29.808,3.744,29.808,3.744,29.952,3.888,29.952,3.888,30.096,4.032,30.096,4.032,30.24,4.176,30.24,4.176,30.384,4.32,30.384,4.32,30.528,4.464,30.528,4.464,30.672,4.608,30.672,4.608,30.816,4.752,30.816,4.752,30.96,4.896,30.96,4.896,31.104,5.04,31.104,5.04,31.248,5.184,31.248,5.184,31.392,5.328,31.392,5.328,31.536,5.472,31.536,5.472,31.68,5.616,31.68,5.616,31.824,5.76,31.824,5.76,31.968,5.904,31.968,5.904,32.112,6.048,32.112,6.048,32.256,6.192,32.256,6.192,32.4,6.336,32.4,6.336,32.544,6.48,32.544,6.48,32.688,6.624,32.688,6.624,32.832,6.912,32.832,6.912,32.976,7.056,32.976,7.056,33.12,7.2,33.12,7.2,33.264,7.344,33.264,7.344,33.408,7.488,33.408,7.488,33.552,7.632,33.552,7.632,33.696,7.776,33.696,7.776,33.84,7.92,33.84,7.92,33.984,8.064,33.984,8.064,34.128,8.208,34.128,8.208,34.272,8.352,34.272,8.352,34.416,8.496,34.416,8.496,34.56,8.64,34.56,8.64,34.704,8.784,34.704,8.784,34.848,8.928,34.848,8.928,34.992,9.072,34.992,9.072,35.136,9.216,35.136,9.216,35.28,9.36,35.28,9.36,35.424,9.504,35.424,9.504,35.568,9.648,35.568,9.648,35.712,9.792,35.712,9.792,35.856,9.936,35.856,9.936,36,10.08,36,10.08,36.144,10.224,36.144,10.224,36.288,10.368,36.288,10.368,36.432,10.512,36.432,10.512,36.576,10.656,36.576,10.656,36.72,10.8,36.72,10.8,36.864,10.944,36.864,10.944,37.008,11.088,37.008,11.088,37.152,11.232,37.152,11.232,37.296,11.376,37.296,11.376,37.44,11.52,37.44,11.52,37.584,27.072,37.584,27.072,37.44,26.352,37.44,26.352,37.296,25.92,37.296,25.92,37.152,25.632,37.152,25.632,37.008,25.344,37.008,25.344,36.864,25.2,36.864,25.2,36.72,24.912,36.72,24.912,36.576,24.768,36.576,24.768,36.432,24.624,36.432,24.624,36.288,24.48,36.288,24.48,36,24.336,36,24.336,35.856,24.192,35.856,24.192,35.568,24.048,35.568,24.048,35.28,23.904,35.28,23.904,34.848,23.76,34.848,23.76,32.976,23.904,32.976,23.904,32.544,24.048,32.544,24.048,32.256,24.192,32.256,24.192,31.968,24.336,31.968,24.336,31.824,24.48,31.824,24.48,31.68,24.624,31.68,24.624,31.536,24.768,31.536,24.768,31.392,24.912,31.392,24.912,31.248,25.056,31.248,25.056,31.104,25.2,31.104,25.2,30.96,25.488,30.96,25.488,30.816,25.776,30.816,25.776,30.672,26.064,30.672,26.064,30.528,26.496,30.528,26.496,30.384,27.36,30.384,27.36,28.944,27.216,28.944,27.216,28.8,27.072,28.8,27.072,28.656,26.928,28.656,26.928,28.512,26.784,28.512,26.784,28.368,26.64,28.368,26.64,28.224,26.496,28.224,26.496,28.08,26.352,28.08,26.352,27.936,26.208,27.936,26.208,27.792,26.064,27.792,26.064,27.648,25.92,27.648,25.92,27.504,25.776,27.504,25.776,27.36,25.632,27.36,25.632,27.216,25.488,27.216,25.488,27.072,25.344,27.072,25.344,26.928,25.2,26.928,25.2,26.784,25.056,26.784,25.056,26.64,24.912,26.64,24.912,26.496,24.768,26.496,24.768,26.352,24.624,26.352,24.624,26.208,24.48,26.208,24.48,26.064,24.336,26.064,24.336,25.92,24.192,25.92,24.192,25.776,24.048,25.776,24.048,25.632,23.904,25.632,23.904,25.488,23.76,25.488,23.76,25.344,23.616,25.344,23.616,25.2,23.472,25.2,23.472,25.056,23.328,25.056,23.328,24.912,23.184,24.912,23.184,24.768,23.04,24.768,23.04,24.624,22.896,24.624,22.896,24.48,22.752,24.48,22.752,24.336,22.608,24.336,22.608,24.192,22.464,24.192,22.464,24.048,22.32,24.048,22.32,23.904,22.176,23.904,22.176,23.76,22.032,23.76,22.032,23.616,21.888,23.616,21.888,23.472,21.744,23.472,21.744,23.328,21.6,23.328,21.6,23.184,21.456,23.184,21.456,23.04,21.312,23.04,21.312,22.896,21.168,22.896,21.168,22.752,21.024,22.752,21.024,22.608,20.88,22.608,20.88,22.464,20.736,22.464,20.736,22.32,20.592,22.32,20.592,22.176,20.448,22.176,20.448,22.032,20.304,22.032,20.304,21.888,20.16,21.888,20.16,21.744,20.016,21.744,20.016,21.6,19.872,21.6,19.872,21.456,19.728,21.456,19.728,21.312,19.584,21.312,19.584,21.168,19.44,21.168,19.44,21.024,19.296,21.024,19.296,20.88,19.152,20.88,19.152,20.736,19.008,20.736,19.008,20.592,18.864,20.592,18.864,20.448,18.72,20.448,18.72,20.304,18.576,20.304,18.576,20.16,18.432,20.16,18.432,20.016,18.288,20.016,18.288,19.872,18.144,19.872,18.144,19.728,18,19.728,18,19.584,17.856,19.584,17.856,19.44,17.712,19.44,17.712,19.296,17.568,19.296,17.568,19.152,17.424,19.152,17.424,19.008,17.28,19.008,17.28,18.864,17.136,18.864,17.136,18.72,16.992,18.72,16.992,18.576,16.848,18.576,16.848,18.432,16.704,18.432,16.704,18.288,16.56,18.288,16.56,18.144,16.416,18.144,16.416,18,16.272,18,16.272,17.856,16.128,17.856,16.128,17.712,15.984,17.712,15.984,17.568,15.84,17.568,15.84,17.424,15.696,17.424,15.696,17.28,15.552,17.28,15.552,17.136,15.408,17.136,15.408,16.992,15.264,16.992,15.264,16.848,15.12,16.848,15.12,16.704,14.976,16.704,14.976,16.56,14.832,16.56,14.832,16.416,14.688,16.416,14.688,16.272,14.544,16.272,14.544,16.128,14.4,16.128,14.4,15.984,14.256,15.984,14.256,15.84,14.112,15.84,14.112,15.696,13.968,15.696,13.968,15.552,13.824,15.552,13.824,15.408,13.68,15.408,13.68,15.264,13.536,15.264,13.536,15.12,13.392,15.12,13.392,14.976,13.248,14.976,13.248,14.832,13.104,14.832,13.104,14.688,12.96,14.688,12.96,14.544,12.816,14.544,12.816,14.4,12.672,14.4,12.672,14.256,12.528,14.256,12.528,14.112,12.384,14.112,12.384,13.968,12.24,13.968,12.24,13.824,12.096,13.824,12.096,13.68,11.952,13.68,11.952,13.536,11.808,13.536,11.808,13.392,11.664,13.392,11.664,13.248,11.52,13.248,11.52,12.96,11.376,12.96,11.376,2.592,11.232,2.592,11.232,1.728" />
     <polygon stroke-width="0" stroke="none" fill="black" points="30.096,36,30.096,36.144,29.952,36.144,29.952,36.432,29.808,36.432,29.808,36.576,29.52,36.576,29.52,36.72,29.376,36.72,29.376,36.864,29.232,36.864,29.232,37.008,28.944,37.008,28.944,37.152,28.656,37.152,28.656,37.296,28.224,37.296,28.224,37.44,27.36,37.44,27.36,37.584,34.272,37.584,34.272,37.44,33.552,37.44,33.552,37.296,33.12,37.296,33.12,37.152,32.832,37.152,32.832,37.008,32.544,37.008,32.544,36.864,32.4,36.864,32.4,36.72,32.112,36.72,32.112,36.576,31.968,36.576,31.968,36.432,31.824,36.432,31.824,36.288,31.68,36.288,31.68,36" />
     <polygon stroke-width="0" stroke="none" fill="black" points="37.296,36,37.296,36.144,37.152,36.144,37.152,36.432,37.008,36.432,37.008,36.576,36.72,36.576,36.72,36.72,36.576,36.72,36.576,36.864,36.432,36.864,36.432,37.008,36.144,37.008,36.144,37.152,35.856,37.152,35.856,37.296,35.424,37.296,35.424,37.44,34.56,37.44,34.56,37.584,41.472,37.584,41.472,37.44,40.752,37.44,40.752,37.296,40.32,37.296,40.32,37.152,40.032,37.152,40.032,37.008,39.744,37.008,39.744,36.864,39.6,36.864,39.6,36.72,39.312,36.72,39.312,36.576,39.168,36.576,39.168,36.432,39.024,36.432,39.024,36.288,38.88,36.288,38.88,36" />
     <polygon stroke-width="0" stroke="none" fill="black" points="44.496,36,44.496,36.144,44.352,36.144,44.352,36.432,44.208,36.432,44.208,36.576,43.92,36.576,43.92,36.72,43.776,36.72,43.776,36.864,43.632,36.864,43.632,37.008,43.344,37.008,43.344,37.152,43.056,37.152,43.056,37.296,42.624,37.296,42.624,37.44,41.76,37.44,41.76,37.584,48.672,37.584,48.672,37.44,47.952,37.44,47.952,37.296,47.52,37.296,47.52,37.152,47.232,37.152,47.232,37.008,46.944,37.008,46.944,36.864,46.8,36.864,46.8,36.72,46.512,36.72,46.512,36.576,46.368,36.576,46.368,36.432,46.224,36.432,46.224,36.288,46.08,36.288,46.08,36" />
     <polygon stroke-width="0" stroke="none" fill="black" points="11.664,37.584,11.664,37.728,48.816,37.728,48.816,37.584" />
     <polygon stroke-width="0" stroke="none" fill="black" points="11.664,37.584,11.664,37.728,48.816,37.728,48.816,37.584" />
     <polygon stroke-width="0" stroke="none" fill="black" points="11.664,37.584,11.664,37.728,48.816,37.728,48.816,37.584" />
     <polygon stroke-width="0" stroke="none" fill="black" points="11.664,37.584,11.664,37.728,48.816,37.728,48.816,37.584" />
     <polygon stroke-width="0" stroke="none" fill="black" points="11.808,37.728,11.808,37.872,11.952,37.872,11.952,38.016,12.096,38.016,12.096,38.16,12.24,38.16,12.24,38.304,12.384,38.304,12.384,38.448,12.528,38.448,12.528,38.592,12.672,38.592,12.672,38.736,12.816,38.736,12.816,38.88,12.96,38.88,12.96,39.024,13.104,39.024,13.104,39.168,13.248,39.168,13.248,39.312,13.392,39.312,13.392,39.456,33.264,39.456,33.264,39.6,48.24,39.6,48.24,39.456,48.384,39.456,48.384,39.312,48.528,39.312,48.528,39.168,48.672,39.168,48.672,39.024,48.816,39.024,48.816,37.728" />
     <g id="connector0pad" >
      <circle cx="5.4432" cy="7.34746" stroke-width="0" stroke="none" fill="black" r="2.7" />
     </g>
    </g>
   </g>
  </g>
  <g partID="854384612">
   <g transform="translate(75.5835,42.034)">
    <g transform="matrix(1,0,0,1,0,0)">
     <g id="copper1" >
      <g id="copper0" >
       <circle cx="20.8462" cy="15.6024" stroke-width="1.44" stroke="black" fill="none" r="1.98" id="connector0pad" />
       <circle cx="2.42064" cy="15.6024" stroke-width="1.44" stroke="black" fill="none" r="1.98" id="connector1pad" />
       <circle cx="20.8462" cy="2.84616" stroke-width="1.44" stroke="black" fill="none" r="1.98" id="connector2pad" />
       <circle cx="2.42064" cy="2.84616" stroke-width="1.44" stroke="black" fill="none" r="1.98" id="connector3pad" />
      </g>
     </g>
    </g>
   </g>
  </g>
  <g partID="854387582">
   <g transform="translate(103.374,15.5884)">
    <g transform="matrix(0,1,-1,0,0,0)">
     <g id="copper1" >
      <circle cx="6.048" cy="25.344" connectorname="1" stroke-width="0.72" stroke="black" fill="none" r="1.512" id="connector0pad" />
      <path stroke-width="0" stroke="none" fill="black"  d="m6.048,21.6a1.872,1.872,0,0,1,1.872,1.872l0,3.744a1.872,1.872,0,0,1,-1.872,1.872l0,0a1.872,1.872,0,0,1,-1.872,-1.872l0,-3.744a1.872,1.872,0,0,1,1.872,-1.872l0,0zM4.896,25.344a1.152,1.152,0,1,0,2.304,0,1.152,1.152,0,1,0,-2.304,0z"/>
      <circle cx="13.248" cy="25.344" connectorname="2" stroke-width="0.72" stroke="black" fill="none" r="1.512" id="connector1pad" />
      <path stroke-width="0" stroke="none" fill="black"  d="m13.248,21.6a1.872,1.872,0,0,1,1.872,1.872l0,3.744a1.872,1.872,0,0,1,-1.872,1.872l0,0a1.872,1.872,0,0,1,-1.872,-1.872l0,-3.744a1.872,1.872,0,0,1,1.872,-1.872l0,0zM12.096,25.344a1.152,1.152,0,1,0,2.304,0,1.152,1.152,0,1,0,-2.304,0z"/>
      <circle cx="13.248" cy="3.744" connectorname="3" stroke-width="0.72" stroke="black" fill="none" r="1.512" id="connector2pad" />
      <path stroke-width="0" stroke="none" fill="black"  d="m13.248,0a1.872,1.872,0,0,1,1.872,1.872l0,3.744a1.872,1.872,0,0,1,-1.872,1.872l0,0a1.872,1.872,0,0,1,-1.872,-1.872l0,-3.744a1.872,1.872,0,0,1,1.872,-1.872l0,0zM12.096,3.744a1.152,1.152,0,1,0,2.304,0,1.152,1.152,0,1,0,-2.304,0z"/>
      <circle cx="6.048" cy="3.744" connectorname="4" stroke-width="0.72" stroke="black" fill="none" r="1.512" id="connector3pad" />
      <path stroke-width="0" stroke="none" fill="black"  d="m6.048,0a1.872,1.872,0,0,1,1.872,1.872l0,3.744a1.872,1.872,0,0,1,-1.872,1.872l0,0a1.872,1.872,0,0,1,-1.872,-1.872l0,-3.744a1.872,1.872,0,0,1,1.872,-1.872l0,0zM4.896,3.744a1.152,1.152,0,1,0,2.304,0,1.152,1.152,0,1,0,-2.304,0z"/>
      <g id="copper0" >
       <circle cx="6.048" cy="25.344" connectorname="1" stroke-width="0.72" stroke="black" fill="none" r="1.512" id="connector0pad" />
       <path stroke-width="0" stroke="none" fill="black"  d="m6.048,21.6a1.872,1.872,0,0,1,1.872,1.872l0,3.744a1.872,1.872,0,0,1,-1.872,1.872l0,0a1.872,1.872,0,0,1,-1.872,-1.872l0,-3.744a1.872,1.872,0,0,1,1.872,-1.872l0,0zM4.896,25.344a1.152,1.152,0,1,0,2.304,0,1.152,1.152,0,1,0,-2.304,0z"/>
       <circle cx="13.248" cy="25.344" connectorname="2" stroke-width="0.72" stroke="black" fill="none" r="1.512" id="connector1pad" />
       <path stroke-width="0" stroke="none" fill="black"  d="m13.248,21.6a1.872,1.872,0,0,1,1.872,1.872l0,3.744a1.872,1.872,0,0,1,-1.872,1.872l0,0a1.872,1.872,0,0,1,-1.872,-1.872l0,-3.744a1.872,1.872,0,0,1,1.872,-1.872l0,0zM12.096,25.344a1.152,1.152,0,1,0,2.304,0,1.152,1.152,0,1,0,-2.304,0z"/>
       <circle cx="13.248" cy="3.744" connectorname="3" stroke-width="0.72" stroke="black" fill="none" r="1.512" id="connector2pad" />
       <path stroke-width="0" stroke="none" fill="black"  d="m13.248,0a1.872,1.872,0,0,1,1.872,1.872l0,3.744a1.872,1.872,0,0,1,-1.872,1.872l0,0a1.872,1.872,0,0,1,-1.872,-1.872l0,-3.744a1.872,1.872,0,0,1,1.872,-1.872l0,0zM12.096,3.744a1.152,1.152,0,1,0,2.304,0,1.152,1.152,0,1,0,-2.304,0z"/>
       <circle cx="6.048" cy="3.744" connectorname="4" stroke-width="0.72" stroke="black" fill="none" r="1.512" id="connector3pad" />
       <path stroke-width="0" stroke="none" fill="black"  d="m6.048,0a1.872,1.872,0,0,1,1.872,1.872l0,3.744a1.872,1.872,0,0,1,-1.872,1.872l0,0a1.872,1.872,0,0,1,-1.872,-1.872l0,-3.744a1.872,1.872,0,0,1,1.872,-1.872l0,0zM4.896,3.744a1.152,1.152,0,1,0,2.304,0,1.152,1.152,0,1,0,-2.304,0z"/>
      </g>
     </g>
    </g>
   </g>
  </g>
  <g partID="854405162">
   <g transform="translate(29.7897,62.6764)">
    <g transform="matrix(0,-1,1,0,0,0)">
     <g id="copper1" >
      <g id="copper0" >
       <circle cx="5.04" cy="5.04" stroke-width="1.44" stroke="black" fill="none" r="2.13732" id="connector0pin" />
       <circle cx="5.04" cy="12.24" stroke-width="1.44" stroke="black" fill="none" r="2.13732" id="connector1pin" />
       <circle cx="5.04" cy="19.44" stroke-width="1.44" stroke="black" fill="none" r="2.13732" id="connector2pin" />
       <circle cx="5.04" cy="26.64" stroke-width="1.44" stroke="black" fill="none" r="2.13732" id="connector3pin" />
       <circle cx="5.04" cy="33.84" stroke-width="1.44" stroke="black" fill="none" r="2.13732" id="connector4pin" />
      </g>
     </g>
    </g>
   </g>
  </g>
  <g partID="854418031">
   <g transform="translate(94.4864,2.09311)">
    <g id="copper1" >
     <circle cx="5.14331" cy="5.14331" stroke-width="1.41732" stroke="black" fill="none" r="2.83465" id="nonconn0" />
    </g>
   </g>
  </g>
  <g partID="854418961">
   <g transform="translate(0.886381,59.6931)">
    <g id="copper1" >
     <circle cx="5.14331" cy="5.14331" stroke-width="1.41732" stroke="black" fill="none" r="2.83465" id="nonconn0" />
    </g>
   </g>
  </g>
  <g partID="854422832">
   <g transform="translate(29.7897,19.4764)">
    <g transform="matrix(0,-1,1,0,0,0)">
     <g id="copper1" >
      <g id="copper0" >
       <circle cx="5.04" cy="5.04" stroke-width="1.44" stroke="black" fill="none" r="2.13732" id="connector0pin" />
       <circle cx="5.04" cy="12.24" stroke-width="1.44" stroke="black" fill="none" r="2.13732" id="connector1pin" />
       <circle cx="5.04" cy="19.44" stroke-width="1.44" stroke="black" fill="none" r="2.13732" id="connector2pin" />
       <circle cx="5.04" cy="26.64" stroke-width="1.44" stroke="black" fill="none" r="2.13732" id="connector3pin" />
       <circle cx="5.04" cy="33.84" stroke-width="1.44" stroke="black" fill="none" r="2.13732" id="connector4pin" />
      </g>
     </g>
    </g>
   </g>
  </g>
  <g partID="854423622">
   <g transform="translate(0.989701,26.6764)">
    <g transform="matrix(0,-1,1,0,0,0)">
     <g id="copper1" >
      <g id="copper0" >
       <circle cx="5.04" cy="5.04" stroke-width="1.44" stroke="black" fill="none" r="2.13732" id="connector0pin" />
       <circle cx="5.04" cy="12.24" stroke-width="1.44" stroke="black" fill="none" r="2.13732" id="connector1pin" />
       <circle cx="5.04" cy="19.44" stroke-width="1.44" stroke="black" fill="none" r="2.13732" id="connector2pin" />
       <circle cx="5.04" cy="26.64" stroke-width="1.44" stroke="black" fill="none" r="2.13732" id="connector3pin" />
      </g>
     </g>
    </g>
   </g>
  </g>
  <g partID="854424462">
   <g transform="translate(51.3897,26.6764)">
    <g transform="matrix(0,-1,1,0,0,0)">
     <g id="copper1" >
      <g id="copper0" >
       <circle cx="5.04" cy="5.04" stroke-width="1.44" stroke="black" fill="none" r="2.13732" id="connector0pin" />
      </g>
     </g>
    </g>
   </g>
  </g>
  <g partID="854406600">
   <line stroke-linecap="round" y2="26.8844" x1="78.0297" x2="78.0297" stroke-width="1.728" stroke="black" y1="23.5884"/>
  </g>
  <g partID="854424290">
   <line stroke-linecap="round" y2="28.7655" x1="42.0389" x2="49.176" stroke-width="1.728" stroke="black" y1="21.6283"/>
  </g>
  <g partID="854410450">
   <line stroke-linecap="round" y2="21.6283" x1="42.0325" x2="42.0389" stroke-width="1.728" stroke="black" y1="16.6538"/>
  </g>
  <g partID="854413090">
   <line stroke-linecap="round" y2="28.7655" x1="49.176" x2="63.6054" stroke-width="1.728" stroke="black" y1="28.7655"/>
  </g>
  <g partID="854410550">
   <line stroke-linecap="round" y2="14.4912" x1="63.6054" x2="78.0348" stroke-width="1.728" stroke="black" y1="28.7655"/>
  </g>
  <g partID="854421170">
   <line stroke-linecap="round" y2="14.376" x1="78.0348" x2="92.434" stroke-width="1.728" stroke="black" y1="14.4912"/>
  </g>
  <g partID="854410570">
   <line stroke-linecap="round" y2="20.25" x1="92.434" x2="98.2556" stroke-width="1.728" stroke="black" y1="14.376"/>
  </g>
  <g partID="854421740">
   <line stroke-linecap="round" y2="64.7614" x1="13.18" x2="20.4723" stroke-width="1.728" stroke="black" y1="57.6243"/>
  </g>
  <g partID="854421810">
   <line stroke-linecap="round" y2="50.4872" x1="6.04292" x2="6.04292" stroke-width="1.728" stroke="black" y1="43.1949"/>
  </g>
  <g partID="854411190">
   <line stroke-linecap="round" y2="43.1949" x1="6.03106" x2="6.04292" stroke-width="1.728" stroke="black" y1="23.8538"/>
  </g>
  <g partID="854412840">
   <line stroke-linecap="round" y2="57.6243" x1="6.04292" x2="13.18" stroke-width="1.728" stroke="black" y1="50.4872"/>
  </g>
  <g partID="854411550">
   <line stroke-linecap="round" y2="64.8385" x1="20.4723" x2="56.3718" stroke-width="1.728" stroke="black" y1="64.7614"/>
  </g>
  <g partID="854411570">
   <line stroke-linecap="round" y2="59.1982" x1="56.3718" x2="62.0558" stroke-width="1.728" stroke="black" y1="64.8385"/>
  </g>
  <g partID="854425600">
   <line stroke-linecap="round" y2="36.0577" x1="34.9017" x2="20.4723" stroke-width="1.728" stroke="black" y1="50.4872"/>
  </g>
  <g partID="854420890">
   <line stroke-linecap="round" y2="23.8537" x1="20.4723" x2="20.4363" stroke-width="1.728" stroke="black" y1="36.0577"/>
  </g>
  <g partID="854419500">
   <line stroke-linecap="round" y2="50.4872" x1="40.4642" x2="34.9017" stroke-width="1.728" stroke="black" y1="56.0662"/>
  </g>
  <g partID="854419660">
   <line stroke-linecap="round" y2="36.0577" x1="98.2548" x2="92.4642" stroke-width="1.728" stroke="black" y1="30.2221"/>
  </g>
  <g partID="854421100">
   <line stroke-linecap="round" y2="36.0577" x1="70.8977" x2="49.176" stroke-width="1.728" stroke="black" y1="36.0577"/>
  </g>
  <g partID="854420960">
   <line stroke-linecap="round" y2="21.6283" x1="49.176" x2="34.9017" stroke-width="1.728" stroke="black" y1="36.0577"/>
  </g>
  <g partID="854419740">
   <line stroke-linecap="round" y2="36.0577" x1="92.4642" x2="70.8977" stroke-width="1.728" stroke="black" y1="36.0577"/>
  </g>
  <g partID="854419760">
   <line stroke-linecap="round" y2="16.6536" x1="34.9017" x2="34.8519" stroke-width="1.728" stroke="black" y1="21.6283"/>
  </g>
  <g partID="854424550">
   <line stroke-linecap="round" y2="16.6538" x1="56.4297" x2="56.4297" stroke-width="1.728" stroke="black" y1="19.4191"/>
  </g>
 </g>
</svg>
