<?xml version='1.0' encoding='UTF-8' standalone='no'?>
<!-- Created with Fritzing (http://www.fritzing.org/) -->
<svg xmlns="http://www.w3.org/2000/svg" x="0in" y="0in" baseProfile="tiny" viewBox="0 0 106.299 70.8661" width="1.47638in" xmlns:svg="http://www.w3.org/2000/svg" version="1.2" height="0.984252in" >
 <g transform="matrix(-1, 0, 0, 1, 106.299, 0)">
  <g partID="57661">
   <g id="silkscreen">
    <rect x="0.288" y="0.288" stroke-width="0.576" width="105.723" stroke="black" fill="none" height="70.2901"/>
   </g>
  </g>
  <g partID="57660">
   <g id="board">
    <rect x="0.288" y="0.288" stroke-width="0.5" width="105.723" stroke="black" fill="none" fill-opacity="0.5" id="boardoutline" height="70.2901"/>
   </g>
  </g>
  <g partID="854384611">
   <g transform="translate(75.5835,42.034)">
    <g transform="matrix(1,0,0,1,0,0)">
     <g id="silkscreen">
      <line y2="12.0586" x1="20.137" x2="20.137" stroke-width="0.72" stroke="black" y1="6.38928"/>
      <line y2="0.72" x1="5.96376" x2="18.0115" stroke-width="0.72" stroke="black" y1="0.72"/>
      <line y2="17.7278" x1="5.96376" x2="18.0115" stroke-width="0.72" stroke="black" y1="17.7278"/>
      <line y2="12.0586" x1="3.12912" x2="3.12912" stroke-width="0.72" stroke="black" y1="6.38928"/>
      <line y2="10.6416" x1="11.633" x2="11.633" stroke-width="0.72" stroke="black" y1="7.80696"/>
      <line y2="9.22392" x1="13.0507" x2="10.2161" stroke-width="0.72" stroke="black" y1="9.22392"/>
     </g>
    </g>
   </g>
  </g>
  <g partID="854387581">
   <g transform="translate(103.374,15.5884)">
    <g transform="matrix(0,1,-1,0,0,0)">
     <g id="silkscreen">
      <line y2="28.584" stroke-linecap="round" x1="0.288" x2="19.008" stroke-width="0.576" stroke="black" class="other" y1="28.584"/>
      <line y2="0.504" stroke-linecap="round" x1="19.008" x2="0.288" stroke-width="0.576" stroke="black" class="other" y1="0.504"/>
      <line y2="9.864" stroke-linecap="round" x1="0.288" x2="0.288" stroke-width="0.576" stroke="black" class="other" y1="0.504"/>
      <line y2="19.224" stroke-linecap="round" x1="0.288" x2="1.728" stroke-width="0.576" stroke="black" class="other" y1="19.224"/>
      <line y2="9.864" stroke-linecap="round" x1="1.728" x2="1.728" stroke-width="0.576" stroke="black" class="other" y1="19.224"/>
      <line y2="9.864" stroke-linecap="round" x1="1.728" x2="0.288" stroke-width="0.576" stroke="black" class="other" y1="9.864"/>
      <line y2="28.584" stroke-linecap="round" x1="0.288" x2="0.288" stroke-width="0.576" stroke="black" class="other" y1="19.224"/>
      <line y2="19.224" stroke-linecap="round" x1="0.288" x2="0.288" stroke-width="0.576" stroke="black" class="other" y1="9.864"/>
      <line y2="19.224" stroke-linecap="round" x1="19.008" x2="19.008" stroke-width="0.576" stroke="black" class="other" y1="28.584"/>
      <line y2="9.864" stroke-linecap="round" x1="19.008" x2="17.568" stroke-width="0.576" stroke="black" class="other" y1="9.864"/>
      <line y2="19.224" stroke-linecap="round" x1="17.568" x2="17.568" stroke-width="0.576" stroke="black" class="other" y1="9.864"/>
      <line y2="19.224" stroke-linecap="round" x1="17.568" x2="19.008" stroke-width="0.576" stroke="black" class="other" y1="19.224"/>
      <line y2="0.504" stroke-linecap="round" x1="19.008" x2="19.008" stroke-width="0.576" stroke="black" class="other" y1="9.864"/>
      <line y2="9.864" stroke-linecap="round" x1="19.008" x2="19.008" stroke-width="0.576" stroke="black" class="other" y1="19.224"/>
      <line y2="19.944" stroke-linecap="round" x1="11.088" x2="11.088" stroke-width="0.576" stroke="black" class="other" y1="9.144"/>
      <line y2="9.144" stroke-linecap="round" x1="11.088" x2="15.408" stroke-width="0.576" stroke="black" class="other" y1="9.144"/>
      <line y2="9.144" stroke-linecap="round" x1="15.408" x2="15.408" stroke-width="0.576" stroke="black" class="other" y1="19.944"/>
      <line y2="19.944" stroke-linecap="round" x1="15.408" x2="11.088" stroke-width="0.576" stroke="black" class="other" y1="19.944"/>
      <line y2="19.944" stroke-linecap="round" x1="3.888" x2="3.888" stroke-width="0.576" stroke="black" class="other" y1="9.144"/>
      <line y2="9.144" stroke-linecap="round" x1="3.888" x2="8.208" stroke-width="0.576" stroke="black" class="other" y1="9.144"/>
      <line y2="9.144" stroke-linecap="round" x1="8.208" x2="8.208" stroke-width="0.576" stroke="black" class="other" y1="19.944"/>
      <line y2="19.944" stroke-linecap="round" x1="8.208" x2="3.888" stroke-width="0.576" stroke="black" class="other" y1="19.944"/>
      <rect x="11.808" stroke-linecap="round" y="14.544" stroke-width="0" width="2.88" stroke="none" fill="black" class="other" height="1.08"/>
      <rect x="11.808" stroke-linecap="round" y="16.344" stroke-width="0" width="2.88" stroke="none" fill="black" class="other" height="1.08"/>
      <rect x="11.808" stroke-linecap="round" y="18.144" stroke-width="0" width="2.88" stroke="none" fill="black" class="other" height="1.08"/>
      <rect x="4.608" stroke-linecap="round" y="14.544" stroke-width="0" width="2.88" stroke="none" fill="black" class="other" height="1.08"/>
      <rect x="4.608" stroke-linecap="round" y="16.344" stroke-width="0" width="2.88" stroke="none" fill="black" class="other" height="1.08"/>
      <rect x="4.608" stroke-linecap="round" y="18.144" stroke-width="0" width="2.88" stroke="none" fill="black" class="other" height="1.08"/>
     </g>
    </g>
   </g>
  </g>
  <g partID="854405161">
   <g transform="translate(29.7897,62.6764)">
    <g transform="matrix(0,-1,1,0,0,0)">
     <g id="silkscreen">
      <line y2="37.44" x1="1.44" x2="1.44" stroke-width="0.72" stroke="black" y1="1.44"/>
      <line y2="37.44" x1="1.44" x2="8.64" stroke-width="0.72" stroke="black" y1="37.44"/>
      <line y2="1.44" x1="8.64" x2="8.64" stroke-width="0.72" stroke="black" y1="37.44"/>
      <line y2="1.44" x1="8.64" x2="1.44" stroke-width="0.72" stroke="black" y1="1.44"/>
      <line y2="1.44" x1="1.44" x2="3.96" stroke-width="0.36" stroke="black" y1="3.96"/>
      <!-- 120 -->
     </g>
    </g>
   </g>
  </g>
  <g partID="854418630">
   <g transform="translate(11.6579,57.4438)">
    <g id="silkscreen">
     <text x="6.99869" y="4.19922" xmlns:xml="http://www.w3.org/XML/1998/namespace" stroke-width="0" font-family="OCRA" fill="black" font-size="4.66579" xml:space="preserve" id="label" text-anchor="middle">APL</text>
    </g>
   </g>
  </g>
  <g partID="854418660">
   <g transform="translate(5.40559,63.4353)">
    <g id="silkscreen">
     <text x="27.9948" y="4.19922" xmlns:xml="http://www.w3.org/XML/1998/namespace" stroke-width="0" font-family="OCRA" fill="black" font-size="4.6658" xml:space="preserve" id="label" text-anchor="middle">Head Tracker</text>
    </g>
   </g>
  </g>
  <g partID="854425190">
   <g transform="translate(59.3993,5.81615)">
    <g transform="matrix(1,0,0,1,0,0)">
     <g id="silkscreen">
      <text x="4.98168" y="2.98901" xmlns:xml="http://www.w3.org/XML/1998/namespace" stroke-width="0" font-family="OCRA" fill="black" font-size="3.32112" xml:space="preserve" id="label" text-anchor="middle">GND</text>
     </g>
    </g>
   </g>
  </g>
  <g partID="854425170">
   <g transform="translate(54.1542,36.2296)">
    <g transform="matrix(0,-1,1,0,0,0)">
     <g id="silkscreen">
      <text x="4.98168" y="2.98901" xmlns:xml="http://www.w3.org/XML/1998/namespace" stroke-width="0" font-family="OCRA" fill="black" font-size="3.32112" xml:space="preserve" id="label" text-anchor="middle">INT</text>
     </g>
    </g>
   </g>
  </g>
  <g partID="854425020">
   <g transform="translate(25.7608,36.0745)">
    <g transform="matrix(0,-1,1,0,0,0)">
     <g id="silkscreen">
      <text x="4.98168" y="2.98901" xmlns:xml="http://www.w3.org/XML/1998/namespace" stroke-width="0" font-family="OCRA" fill="black" font-size="3.32112" xml:space="preserve" id="label" text-anchor="middle">SDA</text>
     </g>
    </g>
   </g>
  </g>
  <g partID="854425230">
   <g transform="translate(38.5623,5.97113)">
    <g transform="matrix(1,0,0,1,0,0)">
     <g id="silkscreen">
      <text x="3.32113" y="2.98901" xmlns:xml="http://www.w3.org/XML/1998/namespace" stroke-width="0" font-family="OCRA" fill="black" font-size="3.32113" xml:space="preserve" id="label" text-anchor="middle">D4</text>
     </g>
    </g>
   </g>
  </g>
  <g partID="854425000">
   <g transform="translate(11.6425,36.8503)">
    <g transform="matrix(0,-1,1,0,0,0)">
     <g id="silkscreen">
      <text x="4.98168" y="2.98901" xmlns:xml="http://www.w3.org/XML/1998/namespace" stroke-width="0" font-family="OCRA" fill="black" font-size="3.32112" xml:space="preserve" id="label" text-anchor="middle">GND</text>
     </g>
    </g>
   </g>
  </g>
  <g partID="854425040">
   <g transform="translate(18.6237,36.3848)">
    <g transform="matrix(0,-1,1,0,0,0)">
     <g id="silkscreen">
      <text x="4.98168" y="2.98901" xmlns:xml="http://www.w3.org/XML/1998/namespace" stroke-width="0" font-family="OCRA" fill="black" font-size="3.32112" xml:space="preserve" id="label" text-anchor="middle">SCL</text>
     </g>
    </g>
   </g>
  </g>
  <g partID="854425250">
   <g transform="translate(31.4252,6.12629)">
    <g transform="matrix(1,0,0,1,0,0)">
     <g id="silkscreen">
      <text x="3.32113" y="2.98901" xmlns:xml="http://www.w3.org/XML/1998/namespace" stroke-width="0" font-family="OCRA" fill="black" font-size="3.32113" xml:space="preserve" id="label" text-anchor="middle">D5</text>
     </g>
    </g>
   </g>
  </g>
  <g partID="854425210">
   <g transform="translate(46.1649,6.08015)">
    <g transform="matrix(1,0,0,1,0,0)">
     <g id="silkscreen">
      <text x="3.32113" y="2.98901" xmlns:xml="http://www.w3.org/XML/1998/namespace" stroke-width="0" font-family="OCRA" fill="black" font-size="3.32113" xml:space="preserve" id="label" text-anchor="middle">D3</text>
     </g>
    </g>
   </g>
  </g>
  <g partID="854425580">
   <g transform="translate(53.1479,48.6388)">
    <g transform="matrix(1,0,0,1,0,0)">
     <g id="silkscreen">
      <text x="3.32113" y="2.98901" xmlns:xml="http://www.w3.org/XML/1998/namespace" stroke-width="0" font-family="OCRA" fill="black" font-size="3.32113" xml:space="preserve" id="label" text-anchor="middle">NC</text>
     </g>
    </g>
   </g>
  </g>
  <g partID="854425540">
   <g transform="translate(46.2275,48.7014)">
    <g transform="matrix(1,0,0,1,0,0)">
     <g id="silkscreen">
      <text x="3.32113" y="2.98901" xmlns:xml="http://www.w3.org/XML/1998/namespace" stroke-width="0" font-family="OCRA" fill="black" font-size="3.32113" xml:space="preserve" id="label" text-anchor="middle">NC</text>
     </g>
    </g>
   </g>
  </g>
  <g partID="854425690">
   <g transform="translate(5.2294,40.3947)">
    <g transform="matrix(1,1.11022e-16,-1.11022e-16,1,0,0)">
     <g id="silkscreen">
      <text x="26.569" y="2.98901" xmlns:xml="http://www.w3.org/XML/1998/namespace" stroke-width="0" font-family="OCRA" fill="black" font-size="3.32113" xml:space="preserve" id="label" text-anchor="middle">&#xa9; Bogdan Bacila </text>
     </g>
    </g>
   </g>
  </g>
  <g partID="854425270">
   <g transform="translate(58.158,62.913)">
    <g transform="matrix(1,0,0,1,0,0)">
     <g id="silkscreen">
      <text x="4.98168" y="2.98901" xmlns:xml="http://www.w3.org/XML/1998/namespace" stroke-width="0" font-family="OCRA" fill="black" font-size="3.32112" xml:space="preserve" id="label" text-anchor="middle">+5V</text>
     </g>
    </g>
   </g>
  </g>
  <g partID="854425300">
   <g transform="translate(38.718,48.5611)">
    <g transform="matrix(1,0,0,1,0,0)">
     <g id="silkscreen">
      <text x="3.32113" y="2.98901" xmlns:xml="http://www.w3.org/XML/1998/namespace" stroke-width="0" font-family="OCRA" fill="black" font-size="3.32113" xml:space="preserve" id="label" text-anchor="middle">A5</text>
     </g>
    </g>
   </g>
  </g>
  <g partID="854425290">
   <g transform="translate(31.5813,48.5612)">
    <g transform="matrix(1,0,0,1,0,0)">
     <g id="silkscreen">
      <text x="3.32113" y="2.98901" xmlns:xml="http://www.w3.org/XML/1998/namespace" stroke-width="0" font-family="OCRA" fill="black" font-size="3.32113" xml:space="preserve" id="label" text-anchor="middle">A4</text>
     </g>
    </g>
   </g>
  </g>
  <g partID="854422831">
   <g transform="translate(29.7897,19.4764)">
    <g transform="matrix(0,-1,1,0,0,0)">
     <g id="silkscreen">
      <line y2="37.44" x1="1.44" x2="1.44" stroke-width="0.72" stroke="black" y1="1.44"/>
      <line y2="37.44" x1="1.44" x2="8.64" stroke-width="0.72" stroke="black" y1="37.44"/>
      <line y2="1.44" x1="8.64" x2="8.64" stroke-width="0.72" stroke="black" y1="37.44"/>
      <line y2="1.44" x1="8.64" x2="1.44" stroke-width="0.72" stroke="black" y1="1.44"/>
      <line y2="1.44" x1="1.44" x2="3.96" stroke-width="0.36" stroke="black" y1="3.96"/>
      <!-- 120 -->
     </g>
    </g>
   </g>
  </g>
  <g partID="854423621">
   <g transform="translate(0.989701,26.6764)">
    <g transform="matrix(0,-1,1,0,0,0)">
     <g id="silkscreen">
      <line y2="30.24" x1="1.44" x2="1.44" stroke-width="0.72" stroke="black" y1="1.44"/>
      <line y2="30.24" x1="1.44" x2="8.64" stroke-width="0.72" stroke="black" y1="30.24"/>
      <line y2="1.44" x1="8.64" x2="8.64" stroke-width="0.72" stroke="black" y1="30.24"/>
      <line y2="1.44" x1="8.64" x2="1.44" stroke-width="0.72" stroke="black" y1="1.44"/>
      <line y2="1.44" x1="1.44" x2="3.96" stroke-width="0.36" stroke="black" y1="3.96"/>
      <!-- 120 -->
     </g>
    </g>
   </g>
  </g>
  <g partID="854424461">
   <g transform="translate(51.3897,26.6764)">
    <g transform="matrix(0,-1,1,0,0,0)">
     <g id="silkscreen">
      <line y2="8.64" x1="1.44" x2="1.44" stroke-width="0.72" stroke="black" y1="1.44"/>
      <line y2="8.64" x1="1.44" x2="8.64" stroke-width="0.72" stroke="black" y1="8.64"/>
      <line y2="1.44" x1="8.64" x2="8.64" stroke-width="0.72" stroke="black" y1="8.64"/>
      <line y2="1.44" x1="8.64" x2="1.44" stroke-width="0.72" stroke="black" y1="1.44"/>
      <line y2="1.44" x1="1.44" x2="3.96" stroke-width="0.36" stroke="black" y1="3.96"/>
      <!-- 120 -->
     </g>
    </g>
   </g>
  </g>
  <g partID="854424970">
   <g transform="translate(4.27943,36.6175)">
    <g transform="matrix(0,-1,1,0,0,0)">
     <g id="silkscreen">
      <text x="4.98168" y="2.98901" xmlns:xml="http://www.w3.org/XML/1998/namespace" stroke-width="0" font-family="OCRA" fill="black" font-size="3.32112" xml:space="preserve" id="label" text-anchor="middle">VCC</text>
     </g>
    </g>
   </g>
  </g>
  <g partID="57661">
   <g id="silkscreen">
    <rect x="0.288" y="0.288" stroke-width="0.576" width="105.723" stroke="black" fill="none" height="70.2901"/>
   </g>
  </g>
  <g partID="854384610" id="partLabel">
   <g transform="translate(84.2701,62.1481)">
    <g font-weight="normal" font-family="'OCRA'" stroke="none" font-size="5" fill="#000000" fill-opacity="1" font-style="normal" id="silkscreenLabel">
     <text x="0" y="3.75">S1</text>
    </g>
   </g>
  </g>
  <g partID="854387580" id="partLabel">
   <g transform="translate(83.3426,7.2839)">
    <g font-weight="normal" font-family="'OCRA'" stroke="none" font-size="5" fill="#000000" fill-opacity="1" font-style="normal" id="silkscreenLabel">
     <text x="0" y="3.75">SW1</text>
    </g>
   </g>
  </g>
  <g partID="854423620" id="partLabel">
   <g transform="translate(3.71657,11.9882)">
    <g font-weight="normal" font-family="'OCRA'" stroke="none" font-size="5" fill="#000000" fill-opacity="1" font-style="normal" id="silkscreenLabel">
     <text x="0" y="3.75">MPU6050</text>
    </g>
   </g>
  </g>
  <g partID="854384612">
   <g transform="translate(75.5835,42.034)">
    <g transform="matrix(1,0,0,1,0,0)">
     <g id="copper1">
      <g id="copper0">
       <circle cx="20.8462" cy="15.6024" stroke-width="2.16" stroke="white" fill="white" r="1.98" id="connector0pad"/>
       <circle cx="2.42064" cy="15.6024" stroke-width="2.16" stroke="white" fill="white" r="1.98" id="connector1pad"/>
       <circle cx="20.8462" cy="2.84616" stroke-width="2.16" stroke="white" fill="white" r="1.98" id="connector2pad"/>
       <circle cx="2.42064" cy="2.84616" stroke-width="2.16" stroke="white" fill="white" r="1.98" id="connector3pad"/>
      </g>
     </g>
    </g>
   </g>
  </g>
  <g partID="854387582">
   <g transform="translate(103.374,15.5884)">
    <g transform="matrix(0,1,-1,0,0,0)">
     <g id="copper1">
      <circle cx="6.048" cy="25.344" connectorname="1" stroke-width="1.44" stroke="white" fill="white" r="1.512" id="connector0pad"/>
      <path stroke-width="0.72" stroke="white" fill="white" d="m6.048,21.6a1.872,1.872,0,0,1,1.872,1.872l0,3.744a1.872,1.872,0,0,1,-1.872,1.872l0,0a1.872,1.872,0,0,1,-1.872,-1.872l0,-3.744a1.872,1.872,0,0,1,1.872,-1.872l0,0zM4.896,25.344a1.152,1.152,0,1,0,2.304,0,1.152,1.152,0,1,0,-2.304,0z"/>
      <circle cx="13.248" cy="25.344" connectorname="2" stroke-width="1.44" stroke="white" fill="white" r="1.512" id="connector1pad"/>
      <path stroke-width="0.72" stroke="white" fill="white" d="m13.248,21.6a1.872,1.872,0,0,1,1.872,1.872l0,3.744a1.872,1.872,0,0,1,-1.872,1.872l0,0a1.872,1.872,0,0,1,-1.872,-1.872l0,-3.744a1.872,1.872,0,0,1,1.872,-1.872l0,0zM12.096,25.344a1.152,1.152,0,1,0,2.304,0,1.152,1.152,0,1,0,-2.304,0z"/>
      <circle cx="13.248" cy="3.744" connectorname="3" stroke-width="1.44" stroke="white" fill="white" r="1.512" id="connector2pad"/>
      <path stroke-width="0.72" stroke="white" fill="white" d="m13.248,0a1.872,1.872,0,0,1,1.872,1.872l0,3.744a1.872,1.872,0,0,1,-1.872,1.872l0,0a1.872,1.872,0,0,1,-1.872,-1.872l0,-3.744a1.872,1.872,0,0,1,1.872,-1.872l0,0zM12.096,3.744a1.152,1.152,0,1,0,2.304,0,1.152,1.152,0,1,0,-2.304,0z"/>
      <circle cx="6.048" cy="3.744" connectorname="4" stroke-width="1.44" stroke="white" fill="white" r="1.512" id="connector3pad"/>
      <path stroke-width="0.72" stroke="white" fill="white" d="m6.048,0a1.872,1.872,0,0,1,1.872,1.872l0,3.744a1.872,1.872,0,0,1,-1.872,1.872l0,0a1.872,1.872,0,0,1,-1.872,-1.872l0,-3.744a1.872,1.872,0,0,1,1.872,-1.872l0,0zM4.896,3.744a1.152,1.152,0,1,0,2.304,0,1.152,1.152,0,1,0,-2.304,0z"/>
      <g id="copper0">
       <circle cx="6.048" cy="25.344" connectorname="1" stroke-width="1.44" stroke="white" fill="white" r="1.512" id="connector0pad"/>
       <path stroke-width="0.72" stroke="white" fill="white" d="m6.048,21.6a1.872,1.872,0,0,1,1.872,1.872l0,3.744a1.872,1.872,0,0,1,-1.872,1.872l0,0a1.872,1.872,0,0,1,-1.872,-1.872l0,-3.744a1.872,1.872,0,0,1,1.872,-1.872l0,0zM4.896,25.344a1.152,1.152,0,1,0,2.304,0,1.152,1.152,0,1,0,-2.304,0z"/>
       <circle cx="13.248" cy="25.344" connectorname="2" stroke-width="1.44" stroke="white" fill="white" r="1.512" id="connector1pad"/>
       <path stroke-width="0.72" stroke="white" fill="white" d="m13.248,21.6a1.872,1.872,0,0,1,1.872,1.872l0,3.744a1.872,1.872,0,0,1,-1.872,1.872l0,0a1.872,1.872,0,0,1,-1.872,-1.872l0,-3.744a1.872,1.872,0,0,1,1.872,-1.872l0,0zM12.096,25.344a1.152,1.152,0,1,0,2.304,0,1.152,1.152,0,1,0,-2.304,0z"/>
       <circle cx="13.248" cy="3.744" connectorname="3" stroke-width="1.44" stroke="white" fill="white" r="1.512" id="connector2pad"/>
       <path stroke-width="0.72" stroke="white" fill="white" d="m13.248,0a1.872,1.872,0,0,1,1.872,1.872l0,3.744a1.872,1.872,0,0,1,-1.872,1.872l0,0a1.872,1.872,0,0,1,-1.872,-1.872l0,-3.744a1.872,1.872,0,0,1,1.872,-1.872l0,0zM12.096,3.744a1.152,1.152,0,1,0,2.304,0,1.152,1.152,0,1,0,-2.304,0z"/>
       <circle cx="6.048" cy="3.744" connectorname="4" stroke-width="1.44" stroke="white" fill="white" r="1.512" id="connector3pad"/>
       <path stroke-width="0.72" stroke="white" fill="white" d="m6.048,0a1.872,1.872,0,0,1,1.872,1.872l0,3.744a1.872,1.872,0,0,1,-1.872,1.872l0,0a1.872,1.872,0,0,1,-1.872,-1.872l0,-3.744a1.872,1.872,0,0,1,1.872,-1.872l0,0zM4.896,3.744a1.152,1.152,0,1,0,2.304,0,1.152,1.152,0,1,0,-2.304,0z"/>
      </g>
     </g>
    </g>
   </g>
  </g>
  <g partID="854405162">
   <g transform="translate(29.7897,62.6764)">
    <g transform="matrix(0,-1,1,0,0,0)">
     <g id="copper1">
      <g id="copper0">
       <circle cx="5.04" cy="5.04" stroke-width="2.16" stroke="white" fill="white" r="2.13732" id="connector0pin"/>
       <circle cx="5.04" cy="12.24" stroke-width="2.16" stroke="white" fill="white" r="2.13732" id="connector1pin"/>
       <circle cx="5.04" cy="19.44" stroke-width="2.16" stroke="white" fill="white" r="2.13732" id="connector2pin"/>
       <circle cx="5.04" cy="26.64" stroke-width="2.16" stroke="white" fill="white" r="2.13732" id="connector3pin"/>
       <circle cx="5.04" cy="33.84" stroke-width="2.16" stroke="white" fill="white" r="2.13732" id="connector4pin"/>
      </g>
     </g>
    </g>
   </g>
  </g>
  <g partID="854418031">
   <g transform="translate(94.4864,2.09311)">
    <g id="copper1">
     <circle cx="5.14331" cy="5.14331" stroke-width="2.13732" stroke="white" fill="white" r="2.83465" id="nonconn0"/>
    </g>
   </g>
  </g>
  <g partID="854418961">
   <g transform="translate(0.886381,59.6931)">
    <g id="copper1">
     <circle cx="5.14331" cy="5.14331" stroke-width="2.13732" stroke="white" fill="white" r="2.83465" id="nonconn0"/>
    </g>
   </g>
  </g>
  <g partID="854422832">
   <g transform="translate(29.7897,19.4764)">
    <g transform="matrix(0,-1,1,0,0,0)">
     <g id="copper1">
      <g id="copper0">
       <circle cx="5.04" cy="5.04" stroke-width="2.16" stroke="white" fill="white" r="2.13732" id="connector0pin"/>
       <circle cx="5.04" cy="12.24" stroke-width="2.16" stroke="white" fill="white" r="2.13732" id="connector1pin"/>
       <circle cx="5.04" cy="19.44" stroke-width="2.16" stroke="white" fill="white" r="2.13732" id="connector2pin"/>
       <circle cx="5.04" cy="26.64" stroke-width="2.16" stroke="white" fill="white" r="2.13732" id="connector3pin"/>
       <circle cx="5.04" cy="33.84" stroke-width="2.16" stroke="white" fill="white" r="2.13732" id="connector4pin"/>
      </g>
     </g>
    </g>
   </g>
  </g>
  <g partID="854423622">
   <g transform="translate(0.989701,26.6764)">
    <g transform="matrix(0,-1,1,0,0,0)">
     <g id="copper1">
      <g id="copper0">
       <circle cx="5.04" cy="5.04" stroke-width="2.16" stroke="white" fill="white" r="2.13732" id="connector0pin"/>
       <circle cx="5.04" cy="12.24" stroke-width="2.16" stroke="white" fill="white" r="2.13732" id="connector1pin"/>
       <circle cx="5.04" cy="19.44" stroke-width="2.16" stroke="white" fill="white" r="2.13732" id="connector2pin"/>
       <circle cx="5.04" cy="26.64" stroke-width="2.16" stroke="white" fill="white" r="2.13732" id="connector3pin"/>
      </g>
     </g>
    </g>
   </g>
  </g>
  <g partID="854424462">
   <g transform="translate(51.3897,26.6764)">
    <g transform="matrix(0,-1,1,0,0,0)">
     <g id="copper1">
      <g id="copper0">
       <circle cx="5.04" cy="5.04" stroke-width="2.16" stroke="white" fill="white" r="2.13732" id="connector0pin"/>
      </g>
     </g>
    </g>
   </g>
  </g>
 </g>
</svg>
