<?xml version="1.0" encoding="UTF-8" standalone="no"?>
<svg
   width="100%"
   height="100%"
   viewBox="0 0 412 159"
   version="1.1"
   xml:space="preserve"
   style="fill-rule:evenodd;clip-rule:evenodd;stroke-linejoin:round;stroke-miterlimit:2;"
   id="svg12"
   sodipodi:docname="APL-logo.svg"
   inkscape:version="1.1.1 (c3084ef, 2021-09-22)"
   xmlns:inkscape="http://www.inkscape.org/namespaces/inkscape"
   xmlns:sodipodi="http://sodipodi.sourceforge.net/DTD/sodipodi-0.dtd"
   xmlns="http://www.w3.org/2000/svg"
   xmlns:svg="http://www.w3.org/2000/svg"><defs
   id="defs16" /><sodipodi:namedview
   id="namedview14"
   pagecolor="#ffffff"
   bordercolor="#666666"
   borderopacity="1.0"
   inkscape:pageshadow="2"
   inkscape:pageopacity="0.0"
   inkscape:pagecheckerboard="0"
   showgrid="false"
   inkscape:zoom="2.6286408"
   inkscape:cx="206"
   inkscape:cy="79.31856"
   inkscape:window-width="1878"
   inkscape:window-height="1035"
   inkscape:window-x="42"
   inkscape:window-y="23"
   inkscape:window-maximized="1"
   inkscape:current-layer="svg12" />
    <g
   transform="matrix(1,0,0,1,-80,-67)"
   id="g10">
        <g
   id="g8">
            <path
   d="M491.15,204.95L491.15,218.41C491.15,222 488.25,224.87 484.69,224.87L397.13,224.87C397,224.87 396.91,224.87 396.78,224.84C393.57,224.52 391.02,221.78 391.02,218.41L391.02,77.17C391.02,73.83 393.57,71.06 396.78,70.74C397,70.71 397.23,70.71 397.45,70.71L410.94,70.71C411.07,70.71 411.16,70.71 411.29,70.74C414.54,71.06 417.05,73.83 417.05,77.17L417.05,198.52L484.69,198.52C488.25,198.52 491.15,201.42 491.15,204.95Z"
   style="fill:none;fill-rule:nonzero;stroke:black;stroke-width:1px;"
   id="path2" />
            <path
   d="M374.89,118.92C374.89,132.86 369.26,145.46 360.13,154.59C351.76,162.96 340.47,168.4 327.93,169.23L277.88,169.23L277.88,217.91C277.88,221.76 274.79,224.88 270.94,224.88L258.44,224.88C254.56,224.88 251.47,221.76 251.47,217.91L251.47,153.23C251.47,153.1 251.47,152.98 251.5,152.85C251.56,151.45 252.04,150.15 252.84,149.1C253.76,147.86 255.07,146.94 256.59,146.52C257.16,146.36 257.8,146.27 258.44,146.27L327.51,146.27C327.92,146.27 328.37,146.24 328.78,146.21C329.54,146.18 330.28,146.08 330.98,145.96C331.04,145.96 331.14,145.93 331.2,145.9C333.55,145.39 335.75,144.47 337.63,143.13C338.08,142.84 338.52,142.49 338.93,142.14C338.93,142.11 338.96,142.11 338.96,142.11C340.55,141.06 342.01,139.88 343.35,138.55C348.38,133.52 351.5,126.55 351.5,118.89C351.5,103.55 339.03,91.08 323.66,91.08L258.47,91.49C257.83,91.49 257.23,91.39 256.66,91.24C253.7,90.44 251.51,87.71 251.51,84.49L251.51,75.45C251.51,73.76 252.11,72.24 253.1,71.03C253.26,70.87 253.39,70.68 253.55,70.52C253.96,70.14 254.44,69.76 254.95,69.47C255.4,69.18 255.87,68.96 256.38,68.83C256.6,68.73 256.86,68.7 257.08,68.64C257.53,68.58 257.97,68.51 258.48,68.51L324.47,68.51C352.3,68.48 374.89,91.08 374.89,118.92Z"
   style="fill:none;fill-rule:nonzero;stroke:black;stroke-width:1px;"
   id="path4" />
            <path
   d="M199.39,132.21L173.62,74.28C172.05,70.76 168.56,68.48 164.7,68.48L151.64,68.48C147.78,68.48 144.29,70.75 142.72,74.28L116.95,132.21L102.98,163.64C100.11,170.1 104.84,177.37 111.9,177.37L119.57,177.37C123.43,177.37 126.93,175.1 128.49,171.57L157.12,107.17L158.03,107.17L197.47,198.09L136.23,197.98L136.23,198.09L94,198.09C90.14,198.09 86.64,200.36 85.08,203.89L81.86,211.14C78.99,217.6 83.72,224.87 90.78,224.87L225.56,224.87C232.63,224.87 237.35,217.6 234.48,211.14L199.39,132.21Z"
   style="fill:none;fill-rule:nonzero;stroke:black;stroke-width:1px;"
   id="path6" />
        </g>
    </g>
</svg>
