  0
SECTION
  2
HEADER
  9
$ACADVER
  1
AC1024
  9
$DWGCODEPAGE
  3
ANSI_1252
  9
$HANDSEED
  5
1002C
  9
$CECOLOR
 62
   256
  9
$CELTSCALE
 40
1.0
  9
$CELTYPE
  6
BYLAYER
  9
$LTSCALE
 40
1.0
  9
$CELWEIGHT
370
    -1
  9
$CLAYER
  8
0
  9
$CMLSTYLE
  2
Standard
  9
$INSBASE
 10
0.0
 20
0.0
 30
0.0
  9
$LWDISPLAY
290
     0
  9
$PDMODE
 70
     0
  9
$PDSIZE
 40
0.0
  9
$TEXTSIZE
 40
2.5
  9
$TEXTSTYLE
  7
STANDARD
  9
$PLINEGEN
 70
     0
  9
$PLINEWID
 40
0.0
  9
$PSLTSCALE
 70
     1
  9
$THICKNESS
 40
0.0
  9
$TILEMODE
 70
     0
  9
$ELEVATION
 40
0.0
  9
$DIMSTYLE
  2
Standard
  9
$CMATERIAL
347
10025
  9
$INSUNITS
 70
     4
  9
$LIGHTGLYPHDISPLAY
280
     1
  9
$ANGDIR
 70
     0
  9
$LUNITS
 70
     2
  9
$LUPREC
 70
     2
  9
$AUNITS
 70
     0
  9
$AUPREC
 70
     0
  9
$ANGBASE
 50
0.0
  9
$FILLETRAD
 40
0.0
  9
$CHAMFERA
 40
0.0
  9
$CHAMFERB
 40
0.0
  9
$CHAMFERC
 40
0.0
  9
$CHAMFERD
 40
0.0
  9
$UCSORG
 10
0.0
 20
0.0
 30
0.0
  9
$UCSXDIR
 10
1.0
 20
0.0
 30
0.0
  9
$UCSYDIR
 10
0.0
 20
1.0
 30
0.0
  9
$DIMADEC
 70
     0
  9
$DIMALT
 70
     0
  9
$DIMALTD
 70
     3
  9
$DIMALTF
 40
0.0394
  9
$DIMALTRND
 40
0.0
  9
$DIMALTTD
 70
     3
  9
$DIMALTTZ
 70
     0
  9
$DIMALTU
 70
     2
  9
$DIMALTZ
 70
     0
  9
$DIMAPOST
  1
[]
  9
$DIMASZ
 40
2.5
  9
$DIMAUNIT
 70
     0
  9
$DIMAZIN
 70
     0
  9
$DIMCEN
 40
2.5
  9
$DIMCLRD
 70
0
  9
$DIMCLRE
 70
0
  9
$DIMCLRT
 70
0
  9
$DIMDEC
 70
     2
  9
$DIMDLE
 40
0.0
  9
$DIMDLI
 40
3.75
  9
$DIMDSEP
 70
    46
  9
$DIMEXE
 40
1.25
  9
$DIMEXO
 40
0.625
  9
$DIMGAP
 40
0.625
  9
$DIMJUST
 70
     0
  9
$DIMLFAC
 40
1.0
  9
$DIMLIM
 70
     0
  9
$DIMLUNIT
 70
     2
  9
$DIMLWD
 70
    -2
  9
$DIMLWE
 70
    -2
  9
$DIMPOST
  1
<>
  9
$DIMRND
 40
0.0
  9
$DIMSAH
 70
     0
  9
$DIMSCALE
 40
1.0
  9
$DIMSD1
 70
     0
  9
$DIMSD2
 70
     0
  9
$DIMSE1
 70
     0
  9
$DIMSE2
 70
     0
  9
$DIMSOXD
 70
     0
  9
$DIMTAD
 70
     1
  9
$DIMTDEC
 70
     2
  9
$DIMTFAC
 40
0.5
  9
$DIMTIH
 70
     0
  9
$DIMTIX
 70
     0
  9
$DIMTM
 40
0.0
  9
$DIMTMOVE
 70
     0
  9
$DIMTOFL
 70
     1
  9
$DIMTOH
 70
     0
  9
$DIMTOL
 70
     0
  9
$DIMTOLJ
 70
     0
  9
$DIMTP
 40
0.0
  9
$DIMTSZ
 40
0.0
  9
$DIMTVP
 40
0.0
  9
$DIMTXSTY
  7
STANDARD
  9
$DIMTXT
 40
2.5
  9
$DIMTZIN
 70
     8
  9
$DIMUPT
 70
     0
  9
$DIMZIN
 70
     8
  9
$DIMZIN
 70
     8
  0
ENDSEC
  0
SECTION
  2
CLASSES
  0
CLASS
  1
MATERIAL
  2
AcDbMaterial
  3
ObjectDBX Classes
 90
0
 91
3
280
     0
281
     0
  0
CLASS
  1
VISUALSTYLE
  2
AcDbVisualStyle
  3
ObjectDBX Classes
 90
0
 91
24
280
     0
281
     0
  0
CLASS
  1
ACDBDICTIONARYWDFLT
  2
AcDbDictionaryWithDefault
  3
ObjectDBX Classes
 90
0
 91
1
280
     0
281
     0
  0
ENDSEC
  0
SECTION
  2
TABLES
  0
TABLE
  2
VPORT
  5
8
330
0
100
AcDbSymbolTable
 70
     1
  0
VPORT
  5
2E
330
8
100
AcDbSymbolTableRecord
100
AcDbViewportTableRecord
  2
*ACTIVE
 70
     0
 10
0.0
 20
0.0
 11
1.0
 21
1.0
 12
210.0
 22
148.5
 13
0.0
 23
0.0
 14
10.0
 24
10.0
 15
10.0
 25
10.0
 16
0.0
 26
0.0
 36
1.0
 17
0.0
 27
0.0
 37
0.0
 40
341.0
 41
2.4
 42
50.0
 43
0.0
 44
0.0
 50
0.0
 51
0.0
 71
     0
 72
   100
 73
     1
 74
     3
 75
     0
 76
     0
 77
     0
 78
     0
281
     0
 65
     1
110
0.0
120
0.0
130
0.0
111
1.0
121
0.0
131
0.0
112
0.0
122
1.0
132
0.0
345
0
346
0
 79
     0
146
0.0
348
10010
 60
     3
 61
     5
332
0
292
     1
282
     1
141
0.0
142
0.0
 63
   251
421
3355443
  0
ENDTAB
  0
TABLE
  2
LTYPE
  5
5
330
0
100
AcDbSymbolTable
 70
     3
  0
LTYPE
  5
14
330
5
100
AcDbSymbolTableRecord
100
AcDbLinetypeTableRecord
  2
BYBLOCK
 70
     0
  3

 72
    65
 73
     0
 40
0.0
  0
LTYPE
  5
15
330
5
100
AcDbSymbolTableRecord
100
AcDbLinetypeTableRecord
  2
BYLAYER
 70
     0
  3

 72
    65
 73
     0
 40
0.0
  0
LTYPE
  5
16
330
5
100
AcDbSymbolTableRecord
100
AcDbLinetypeTableRecord
  2
CONTINUOUS
 70
     0
  3
Solid line
 72
    65
 73
     0
 40
0.0
  0
ENDTAB
  0
TABLE
  2
LAYER
  5
2
330
0
100
AcDbSymbolTable
 70
     1
  0
LAYER
  5
50
330
2
100
AcDbSymbolTableRecord
100
AcDbLayerTableRecord
  2
0
 70
     0
 62
     7
  6
CONTINUOUS
290
     1
370
    -3
347
10027
348
0
390
0
  0
ENDTAB
  0
TABLE
  2
STYLE
  5
3
330
0
100
AcDbSymbolTable
 70
     1
  0
STYLE
  5
11
330
3
100
AcDbSymbolTableRecord
100
AcDbTextStyleTableRecord
  2
STANDARD
 70
     0
 40
0.0
 41
1.0
 50
0.0
 71
     0
 42
2.5
  3
txt
  4

  0
ENDTAB
  0
TABLE
  2
VIEW
  5
6
330
0
100
AcDbSymbolTable
 70
     0
  0
ENDTAB
  0
TABLE
  2
UCS
  5
7
330
0
100
AcDbSymbolTable
 70
     0
  0
ENDTAB
  0
TABLE
  2
APPID
  5
9
330
0
100
AcDbSymbolTable
 70
     1
  0
APPID
  5
12
330
9
100
AcDbSymbolTableRecord
100
AcDbRegAppTableRecord
  2
ACAD
 70
     0
  0
ENDTAB
  0
TABLE
  2
DIMSTYLE
  5
A
330
0
100
AcDbSymbolTable
 70
     2
100
AcDbDimStyleTable
 71
     0
  0
DIMSTYLE
105
27
330
A
100
AcDbSymbolTableRecord
100
AcDbDimStyleTableRecord
  2
ISO-25
 70
     0
  3
<>
  4
[]
 40
1.0
 41
2.5
 42
0.625
 43
3.75
 44
1.25
 45
0.0
 46
0.0
 47
0.0
 48
0.0
 49
1.0
 50
45.0
140
2.5
141
2.5
142
0.0
143
0.0393700787402
144
1.0
145
0.0
146
1.0
147
0.625
148
0.0
 69
     0
 70
0
 71
     0
 72
     0
 73
     0
 74
     0
 75
     0
 76
     0
 77
     1
 78
     8
 79
     0
170
     0
171
     3
172
     1
173
     0
174
     0
175
     0
176
0
177
0
178
0
179
     0
270
     2
271
     2
272
     2
273
     2
274
     3
275
     0
276
     0
277
     2
278
    46
279
     0
280
     0
281
     0
282
     0
283
     0
284
     8
285
     0
286
     0
287
     3
288
     0
289
     3
290
     0
340
11
341
0
342
0
343
0
344
0
371
    -2
372
    -2
  0
DIMSTYLE
105
10003
330
A
100
AcDbSymbolTableRecord
100
AcDbDimStyleTableRecord
  2
Standard
 70
     0
  3
<>
  4
[]
 40
1.0
 41
2.5
 42
0.625
 43
3.75
 44
1.25
 45
0.0
 46
0.0
 47
0.0
 48
0.0
 49
1.0
 50
45.0
140
2.5
141
2.5
142
0.0
143
0.0394
144
1.0
145
0.0
146
0.5
147
0.625
148
0.0
 69
     0
 70
0
 71
     0
 72
     0
 73
     0
 74
     0
 75
     0
 76
     0
 77
     1
 78
     8
 79
     0
170
     0
171
     3
172
     1
173
     0
174
     0
175
     0
176
0
177
0
178
0
179
     0
270
     2
271
     2
272
     2
273
     2
274
     3
275
     0
276
     0
277
     2
278
    46
279
     0
280
     0
281
     0
282
     0
283
     0
284
     8
285
     0
286
     0
287
     3
288
     0
289
     3
290
     0
340
11
341
0
342
0
343
0
344
0
371
    -2
372
    -2
  0
ENDTAB
  0
TABLE
  2
BLOCK_RECORD
  5
1
330
0
100
AcDbSymbolTable
 70
     2
  0
BLOCK_RECORD
  5
1B
330
1
100
AcDbSymbolTableRecord
100
AcDbBlockTableRecord
  2
*Paper_Space
340
10029
 70
     4
280
     1
281
     0
  0
BLOCK_RECORD
  5
1F
330
1
100
AcDbSymbolTableRecord
100
AcDbBlockTableRecord
  2
*Model_Space
340
10028
 70
     4
280
     1
281
     0
  0
ENDTAB
  0
ENDSEC
  0
SECTION
  2
BLOCKS
  0
BLOCK
  5
1C
330
1B
100
AcDbEntity
 67
     1
  8
0
100
AcDbBlockBegin
  2
*Paper_Space
 70
     0
 71
     0
 10
0.0
 20
0.0
 30
0.0
  2
*Paper_Space
  1

  4

  0
ENDBLK
  5
1D
330
1B
100
AcDbEntity
 67
     1
  8
0
100
AcDbBlockEnd
  0
BLOCK
  5
20
330
1F
100
AcDbEntity
  8
0
100
AcDbBlockBegin
  2
*Model_Space
 70
     0
 71
     0
 10
0.0
 20
0.0
 30
0.0
  2
*Model_Space
  1

  4

  0
ENDBLK
  5
21
330
1F
100
AcDbEntity
  8
0
100
AcDbBlockEnd
  0
ENDSEC
  0
SECTION
  2
ENTITIES
  0
SPLINE
  5
100
330
1F
100
AcDbEntity
  8
0
 62
     7
100
AcDbSpline
 71
     3
 70
     0
 72
     8
 73
     4
 42
0.0000001
 43
0.0000001
 40
0.0
 40
0.0
 40
0.0
 40
0.0
 40
1.0
 40
1.0
 40
1.0
 40
1.0
 10
308.3625
 20
5.6925
 30
0.0
 10
308.3625
 20
3.0
 30
0.0
 10
306.1875
 20
0.8475
 30
0.0
 10
303.5175
 20
0.8475
 30
0.0
  0
LWPOLYLINE
  5
101
330
1F
100
AcDbEntity
  8
0
 62
     7
100
AcDbPolyline
 90
2
 70
     0
 10
308.3625
 20
15.7875
 40
0.0
 41
0.0
 42
0.0
 10
308.3625
 20
5.6925
 40
0.0
 41
0.0
 42
0.0
  0
SPLINE
  5
102
330
1F
100
AcDbEntity
  8
0
 62
     7
100
AcDbSpline
 71
     3
 70
     0
 72
     8
 73
     4
 42
0.0000001
 43
0.0000001
 40
0.0
 40
0.0
 40
0.0
 40
0.0
 40
1.0
 40
1.0
 40
1.0
 40
1.0
 10
237.8475
 20
0.8475
 30
0.0
 10
237.75
 20
0.8475
 30
0.0
 10
237.6825
 20
0.8475
 30
0.0
 10
237.585
 20
0.87
 30
0.0
  0
SPLINE
  5
103
330
1F
100
AcDbEntity
  8
0
 62
     7
100
AcDbSpline
 71
     3
 70
     0
 72
     8
 73
     4
 42
0.0000001
 43
0.0000001
 40
0.0
 40
0.0
 40
0.0
 40
0.0
 40
1.0
 40
1.0
 40
1.0
 40
1.0
 10
237.585
 20
0.87
 30
0.0
 10
235.1775
 20
1.11
 30
0.0
 10
233.265
 20
3.165
 30
0.0
 10
233.265
 20
5.6925
 30
0.0
  0
LWPOLYLINE
  5
104
330
1F
100
AcDbEntity
  8
0
 62
     7
100
AcDbPolyline
 90
2
 70
     0
 10
303.5175
 20
0.8475
 40
0.0
 41
0.0
 42
0.0
 10
237.8475
 20
0.8475
 40
0.0
 41
0.0
 42
0.0
  0
SPLINE
  5
105
330
1F
100
AcDbEntity
  8
0
 62
     7
100
AcDbSpline
 71
     3
 70
     0
 72
     8
 73
     4
 42
0.0000001
 43
0.0000001
 40
0.0
 40
0.0
 40
0.0
 40
0.0
 40
1.0
 40
1.0
 40
1.0
 40
1.0
 10
233.265
 20
111.6225
 30
0.0
 10
233.265
 20
114.1275
 30
0.0
 10
235.1775
 20
116.205
 30
0.0
 10
237.585
 20
116.445
 30
0.0
  0
SPLINE
  5
106
330
1F
100
AcDbEntity
  8
0
 62
     7
100
AcDbSpline
 71
     3
 70
     0
 72
     8
 73
     4
 42
0.0000001
 43
0.0000001
 40
0.0
 40
0.0
 40
0.0
 40
0.0
 40
1.0
 40
1.0
 40
1.0
 40
1.0
 10
237.585
 20
116.445
 30
0.0
 10
237.75
 20
116.4675
 30
0.0
 10
237.9225
 20
116.4675
 30
0.0
 10
238.0875
 20
116.4675
 30
0.0
  0
LWPOLYLINE
  5
107
330
1F
100
AcDbEntity
  8
0
 62
     7
100
AcDbPolyline
 90
2
 70
     0
 10
233.265
 20
5.6925
 40
0.0
 41
0.0
 42
0.0
 10
233.265
 20
111.6225
 40
0.0
 41
0.0
 42
0.0
  0
SPLINE
  5
108
330
1F
100
AcDbEntity
  8
0
 62
     7
100
AcDbSpline
 71
     3
 70
     0
 72
     8
 73
     4
 42
0.0000001
 43
0.0000001
 40
0.0
 40
0.0
 40
0.0
 40
0.0
 40
1.0
 40
1.0
 40
1.0
 40
1.0
 10
248.205
 20
116.4675
 30
0.0
 10
248.3025
 20
116.4675
 30
0.0
 10
248.37
 20
116.4675
 30
0.0
 10
248.4675
 20
116.445
 30
0.0
  0
SPLINE
  5
109
330
1F
100
AcDbEntity
  8
0
 62
     7
100
AcDbSpline
 71
     3
 70
     0
 72
     8
 73
     4
 42
0.0000001
 43
0.0000001
 40
0.0
 40
0.0
 40
0.0
 40
0.0
 40
1.0
 40
1.0
 40
1.0
 40
1.0
 10
248.4675
 20
116.445
 30
0.0
 10
250.905
 20
116.205
 30
0.0
 10
252.7875
 20
114.1275
 30
0.0
 10
252.7875
 20
111.6225
 30
0.0
  0
LWPOLYLINE
  5
10A
330
1F
100
AcDbEntity
  8
0
 62
     7
100
AcDbPolyline
 90
2
 70
     0
 10
238.0875
 20
116.4675
 40
0.0
 41
0.0
 42
0.0
 10
248.205
 20
116.4675
 40
0.0
 41
0.0
 42
0.0
  0
SPLINE
  5
10B
330
1F
100
AcDbEntity
  8
0
 62
     7
100
AcDbSpline
 71
     3
 70
     0
 72
     8
 73
     4
 42
0.0000001
 43
0.0000001
 40
0.0
 40
0.0
 40
0.0
 40
0.0
 40
1.0
 40
1.0
 40
1.0
 40
1.0
 10
303.5175
 20
20.61
 30
0.0
 10
306.1875
 20
20.61
 30
0.0
 10
308.3625
 20
18.435
 30
0.0
 10
308.3625
 20
15.7875
 30
0.0
  0
LWPOLYLINE
  5
10C
330
1F
100
AcDbEntity
  8
0
 62
     7
100
AcDbPolyline
 90
3
 70
     0
 10
252.7875
 20
111.6225
 40
0.0
 41
0.0
 42
0.0
 10
252.7875
 20
20.61
 40
0.0
 41
0.0
 42
0.0
 10
303.5175
 20
20.61
 40
0.0
 41
0.0
 42
0.0
  0
SPLINE
  5
10D
330
1F
100
AcDbEntity
  8
0
 62
     7
100
AcDbSpline
 71
     3
 70
     0
 72
     8
 73
     4
 42
0.0000001
 43
0.0000001
 40
0.0
 40
0.0
 40
0.0
 40
0.0
 40
1.0
 40
1.0
 40
1.0
 40
1.0
 10
221.1675
 20
80.31
 30
0.0
 10
221.1675
 20
69.855
 30
0.0
 10
216.945
 20
60.405
 30
0.0
 10
210.0975
 20
53.5575
 30
0.0
  0
SPLINE
  5
10E
330
1F
100
AcDbEntity
  8
0
 62
     7
100
AcDbSpline
 71
     3
 70
     0
 72
     8
 73
     4
 42
0.0000001
 43
0.0000001
 40
0.0
 40
0.0
 40
0.0
 40
0.0
 40
1.0
 40
1.0
 40
1.0
 40
1.0
 10
210.0975
 20
53.5575
 30
0.0
 10
203.82
 20
47.28
 30
0.0
 10
195.3525
 20
43.2
 30
0.0
 10
185.9475
 20
42.5775
 30
0.0
  0
LWPOLYLINE
  5
10F
330
1F
100
AcDbEntity
  8
0
 62
     7
100
AcDbPolyline
 90
1
 70
     1
 10
308.3625
 20
15.7875
 40
0.0
 41
0.0
 42
0.0
  0
SPLINE
  5
110
330
1F
100
AcDbEntity
  8
0
 62
     7
100
AcDbSpline
 71
     3
 70
     0
 72
     8
 73
     4
 42
0.0000001
 43
0.0000001
 40
0.0
 40
0.0
 40
0.0
 40
0.0
 40
1.0
 40
1.0
 40
1.0
 40
1.0
 10
148.41
 20
6.0675
 30
0.0
 10
148.41
 20
3.18
 30
0.0
 10
146.0925
 20
0.84
 30
0.0
 10
143.205
 20
0.84
 30
0.0
  0
LWPOLYLINE
  5
111
330
1F
100
AcDbEntity
  8
0
 62
     7
100
AcDbPolyline
 90
3
 70
     0
 10
185.9475
 20
42.5775
 40
0.0
 41
0.0
 42
0.0
 10
148.41
 20
42.5775
 40
0.0
 41
0.0
 42
0.0
 10
148.41
 20
6.0675
 40
0.0
 41
0.0
 42
0.0
  0
SPLINE
  5
112
330
1F
100
AcDbEntity
  8
0
 62
     7
100
AcDbSpline
 71
     3
 70
     0
 72
     8
 73
     4
 42
0.0000001
 43
0.0000001
 40
0.0
 40
0.0
 40
0.0
 40
0.0
 40
1.0
 40
1.0
 40
1.0
 40
1.0
 10
133.83
 20
0.84
 30
0.0
 10
130.92
 20
0.84
 30
0.0
 10
128.6025
 20
3.18
 30
0.0
 10
128.6025
 20
6.0675
 30
0.0
  0
LWPOLYLINE
  5
113
330
1F
100
AcDbEntity
  8
0
 62
     7
100
AcDbPolyline
 90
2
 70
     0
 10
143.205
 20
0.84
 40
0.0
 41
0.0
 42
0.0
 10
133.83
 20
0.84
 40
0.0
 41
0.0
 42
0.0
  0
SPLINE
  5
114
330
1F
100
AcDbEntity
  8
0
 62
     7
100
AcDbSpline
 71
     3
 70
     0
 72
     8
 73
     4
 42
0.0000001
 43
0.0000001
 40
0.0
 40
0.0
 40
0.0
 40
0.0
 40
1.0
 40
1.0
 40
1.0
 40
1.0
 10
128.6025
 20
54.5775
 30
0.0
 10
128.6025
 20
54.675
 30
0.0
 10
128.6025
 20
54.765
 30
0.0
 10
128.625
 20
54.8625
 30
0.0
  0
SPLINE
  5
115
330
1F
100
AcDbEntity
  8
0
 62
     7
100
AcDbSpline
 71
     3
 70
     0
 72
     8
 73
     4
 42
0.0000001
 43
0.0000001
 40
0.0
 40
0.0
 40
0.0
 40
0.0
 40
1.0
 40
1.0
 40
1.0
 40
1.0
 10
128.625
 20
54.8625
 30
0.0
 10
128.67
 20
55.9125
 30
0.0
 10
129.03
 20
56.8875
 30
0.0
 10
129.63
 20
57.675
 30
0.0
  0
SPLINE
  5
116
330
1F
100
AcDbEntity
  8
0
 62
     7
100
AcDbSpline
 71
     3
 70
     0
 72
     8
 73
     4
 42
0.0000001
 43
0.0000001
 40
0.0
 40
0.0
 40
0.0
 40
0.0
 40
1.0
 40
1.0
 40
1.0
 40
1.0
 10
129.63
 20
57.675
 30
0.0
 10
130.32
 20
58.605
 30
0.0
 10
131.3025
 20
59.295
 30
0.0
 10
132.4425
 20
59.61
 30
0.0
  0
SPLINE
  5
117
330
1F
100
AcDbEntity
  8
0
 62
     7
100
AcDbSpline
 71
     3
 70
     0
 72
     8
 73
     4
 42
0.0000001
 43
0.0000001
 40
0.0
 40
0.0
 40
0.0
 40
0.0
 40
1.0
 40
1.0
 40
1.0
 40
1.0
 10
132.4425
 20
59.61
 30
0.0
 10
132.87
 20
59.73
 30
0.0
 10
133.35
 20
59.7975
 30
0.0
 10
133.83
 20
59.7975
 30
0.0
  0
LWPOLYLINE
  5
118
330
1F
100
AcDbEntity
  8
0
 62
     7
100
AcDbPolyline
 90
2
 70
     0
 10
128.6025
 20
6.0675
 40
0.0
 41
0.0
 42
0.0
 10
128.6025
 20
54.5775
 40
0.0
 41
0.0
 42
0.0
  0
SPLINE
  5
119
330
1F
100
AcDbEntity
  8
0
 62
     7
100
AcDbSpline
 71
     3
 70
     0
 72
     8
 73
     4
 42
0.0000001
 43
0.0000001
 40
0.0
 40
0.0
 40
0.0
 40
0.0
 40
1.0
 40
1.0
 40
1.0
 40
1.0
 10
185.6325
 20
59.7975
 30
0.0
 10
185.94
 20
59.7975
 30
0.0
 10
186.2775
 20
59.82
 30
0.0
 10
186.585
 20
59.8425
 30
0.0
  0
SPLINE
  5
11A
330
1F
100
AcDbEntity
  8
0
 62
     7
100
AcDbSpline
 71
     3
 70
     0
 72
     8
 73
     4
 42
0.0000001
 43
0.0000001
 40
0.0
 40
0.0
 40
0.0
 40
0.0
 40
1.0
 40
1.0
 40
1.0
 40
1.0
 10
186.585
 20
59.8425
 30
0.0
 10
187.155
 20
59.865
 30
0.0
 10
187.71
 20
59.94
 30
0.0
 10
188.235
 20
60.03
 30
0.0
  0
SPLINE
  5
11B
330
1F
100
AcDbEntity
  8
0
 62
     7
100
AcDbSpline
 71
     3
 70
     0
 72
     8
 73
     4
 42
0.0000001
 43
0.0000001
 40
0.0
 40
0.0
 40
0.0
 40
0.0
 40
1.0
 40
1.0
 40
1.0
 40
1.0
 10
188.235
 20
60.03
 30
0.0
 10
188.28
 20
60.03
 30
0.0
 10
188.355
 20
60.0525
 30
0.0
 10
188.4
 20
60.075
 30
0.0
  0
SPLINE
  5
11C
330
1F
100
AcDbEntity
  8
0
 62
     7
100
AcDbSpline
 71
     3
 70
     0
 72
     8
 73
     4
 42
0.0000001
 43
0.0000001
 40
0.0
 40
0.0
 40
0.0
 40
0.0
 40
1.0
 40
1.0
 40
1.0
 40
1.0
 10
188.4
 20
60.075
 30
0.0
 10
190.1625
 20
60.4575
 30
0.0
 10
191.8125
 20
61.1475
 30
0.0
 10
193.2225
 20
62.1525
 30
0.0
  0
SPLINE
  5
11D
330
1F
100
AcDbEntity
  8
0
 62
     7
100
AcDbSpline
 71
     3
 70
     0
 72
     8
 73
     4
 42
0.0000001
 43
0.0000001
 40
0.0
 40
0.0
 40
0.0
 40
0.0
 40
1.0
 40
1.0
 40
1.0
 40
1.0
 10
193.2225
 20
62.1525
 30
0.0
 10
193.56
 20
62.37
 30
0.0
 10
193.89
 20
62.6325
 30
0.0
 10
194.1975
 20
62.895
 30
0.0
  0
SPLINE
  5
11E
330
1F
100
AcDbEntity
  8
0
 62
     7
100
AcDbSpline
 71
     3
 70
     0
 72
     8
 73
     4
 42
0.0000001
 43
0.0000001
 40
0.0
 40
0.0
 40
0.0
 40
0.0
 40
1.0
 40
1.0
 40
1.0
 40
1.0
 10
194.1975
 20
62.895
 30
0.0
 10
194.1975
 20
62.9175
 30
0.0
 10
194.22
 20
62.9175
 30
0.0
 10
194.22
 20
62.9175
 30
0.0
  0
SPLINE
  5
11F
330
1F
100
AcDbEntity
  8
0
 62
     7
100
AcDbSpline
 71
     3
 70
     0
 72
     8
 73
     4
 42
0.0000001
 43
0.0000001
 40
0.0
 40
0.0
 40
0.0
 40
0.0
 40
1.0
 40
1.0
 40
1.0
 40
1.0
 10
194.22
 20
62.9175
 30
0.0
 10
195.4125
 20
63.705
 30
0.0
 10
196.5075
 20
64.59
 30
0.0
 10
197.5125
 20
65.5875
 30
0.0
  0
SPLINE
  5
120
330
1F
100
AcDbEntity
  8
0
 62
     7
100
AcDbSpline
 71
     3
 70
     0
 72
     8
 73
     4
 42
0.0000001
 43
0.0000001
 40
0.0
 40
0.0
 40
0.0
 40
0.0
 40
1.0
 40
1.0
 40
1.0
 40
1.0
 10
197.5125
 20
65.5875
 30
0.0
 10
201.285
 20
69.36
 30
0.0
 10
203.625
 20
74.5875
 30
0.0
 10
203.625
 20
80.3325
 30
0.0
  0
SPLINE
  5
121
330
1F
100
AcDbEntity
  8
0
 62
     7
100
AcDbSpline
 71
     3
 70
     0
 72
     8
 73
     4
 42
0.0000001
 43
0.0000001
 40
0.0
 40
0.0
 40
0.0
 40
0.0
 40
1.0
 40
1.0
 40
1.0
 40
1.0
 10
203.625
 20
80.3325
 30
0.0
 10
203.625
 20
91.8375
 30
0.0
 10
194.2725
 20
101.19
 30
0.0
 10
182.745
 20
101.19
 30
0.0
  0
LWPOLYLINE
  5
122
330
1F
100
AcDbEntity
  8
0
 62
     7
100
AcDbPolyline
 90
2
 70
     0
 10
133.83
 20
59.7975
 40
0.0
 41
0.0
 42
0.0
 10
185.6325
 20
59.7975
 40
0.0
 41
0.0
 42
0.0
  0
SPLINE
  5
123
330
1F
100
AcDbEntity
  8
0
 62
     7
100
AcDbSpline
 71
     3
 70
     0
 72
     8
 73
     4
 42
0.0000001
 43
0.0000001
 40
0.0
 40
0.0
 40
0.0
 40
0.0
 40
1.0
 40
1.0
 40
1.0
 40
1.0
 10
133.8525
 20
100.8825
 30
0.0
 10
133.3725
 20
100.8825
 30
0.0
 10
132.9225
 20
100.9575
 30
0.0
 10
132.495
 20
101.07
 30
0.0
  0
SPLINE
  5
124
330
1F
100
AcDbEntity
  8
0
 62
     7
100
AcDbSpline
 71
     3
 70
     0
 72
     8
 73
     4
 42
0.0000001
 43
0.0000001
 40
0.0
 40
0.0
 40
0.0
 40
0.0
 40
1.0
 40
1.0
 40
1.0
 40
1.0
 10
132.495
 20
101.07
 30
0.0
 10
130.275
 20
101.67
 30
0.0
 10
128.6325
 20
103.7175
 30
0.0
 10
128.6325
 20
106.1325
 30
0.0
  0
LWPOLYLINE
  5
125
330
1F
100
AcDbEntity
  8
0
 62
     7
100
AcDbPolyline
 90
2
 70
     0
 10
182.745
 20
101.19
 40
0.0
 41
0.0
 42
0.0
 10
133.8525
 20
100.8825
 40
0.0
 41
0.0
 42
0.0
  0
SPLINE
  5
126
330
1F
100
AcDbEntity
  8
0
 62
     7
100
AcDbSpline
 71
     3
 70
     0
 72
     8
 73
     4
 42
0.0000001
 43
0.0000001
 40
0.0
 40
0.0
 40
0.0
 40
0.0
 40
1.0
 40
1.0
 40
1.0
 40
1.0
 10
128.6325
 20
112.9125
 30
0.0
 10
128.6325
 20
114.18
 30
0.0
 10
129.0825
 20
115.32
 30
0.0
 10
129.825
 20
116.2275
 30
0.0
  0
SPLINE
  5
127
330
1F
100
AcDbEntity
  8
0
 62
     7
100
AcDbSpline
 71
     3
 70
     0
 72
     8
 73
     4
 42
0.0000001
 43
0.0000001
 40
0.0
 40
0.0
 40
0.0
 40
0.0
 40
1.0
 40
1.0
 40
1.0
 40
1.0
 10
129.825
 20
116.2275
 30
0.0
 10
129.945
 20
116.3475
 30
0.0
 10
130.0425
 20
116.49
 30
0.0
 10
130.1625
 20
116.61
 30
0.0
  0
SPLINE
  5
128
330
1F
100
AcDbEntity
  8
0
 62
     7
100
AcDbSpline
 71
     3
 70
     0
 72
     8
 73
     4
 42
0.0000001
 43
0.0000001
 40
0.0
 40
0.0
 40
0.0
 40
0.0
 40
1.0
 40
1.0
 40
1.0
 40
1.0
 10
130.1625
 20
116.61
 30
0.0
 10
130.47
 20
116.895
 30
0.0
 10
130.83
 20
117.18
 30
0.0
 10
131.2125
 20
117.3975
 30
0.0
  0
SPLINE
  5
129
330
1F
100
AcDbEntity
  8
0
 62
     7
100
AcDbSpline
 71
     3
 70
     0
 72
     8
 73
     4
 42
0.0000001
 43
0.0000001
 40
0.0
 40
0.0
 40
0.0
 40
0.0
 40
1.0
 40
1.0
 40
1.0
 40
1.0
 10
131.2125
 20
117.3975
 30
0.0
 10
131.55
 20
117.615
 30
0.0
 10
131.9025
 20
117.78
 30
0.0
 10
132.285
 20
117.8775
 30
0.0
  0
SPLINE
  5
12A
330
1F
100
AcDbEntity
  8
0
 62
     7
100
AcDbSpline
 71
     3
 70
     0
 72
     8
 73
     4
 42
0.0000001
 43
0.0000001
 40
0.0
 40
0.0
 40
0.0
 40
0.0
 40
1.0
 40
1.0
 40
1.0
 40
1.0
 10
132.285
 20
117.8775
 30
0.0
 10
132.45
 20
117.9525
 30
0.0
 10
132.645
 20
117.975
 30
0.0
 10
132.81
 20
118.02
 30
0.0
  0
SPLINE
  5
12B
330
1F
100
AcDbEntity
  8
0
 62
     7
100
AcDbSpline
 71
     3
 70
     0
 72
     8
 73
     4
 42
0.0000001
 43
0.0000001
 40
0.0
 40
0.0
 40
0.0
 40
0.0
 40
1.0
 40
1.0
 40
1.0
 40
1.0
 10
132.81
 20
118.02
 30
0.0
 10
133.1475
 20
118.065
 30
0.0
 10
133.4775
 20
118.1175
 30
0.0
 10
133.86
 20
118.1175
 30
0.0
  0
LWPOLYLINE
  5
12C
330
1F
100
AcDbEntity
  8
0
 62
     7
100
AcDbPolyline
 90
2
 70
     0
 10
128.6325
 20
106.1325
 40
0.0
 41
0.0
 42
0.0
 10
128.6325
 20
112.9125
 40
0.0
 41
0.0
 42
0.0
  0
SPLINE
  5
12D
330
1F
100
AcDbEntity
  8
0
 62
     7
100
AcDbSpline
 71
     3
 70
     0
 72
     8
 73
     4
 42
0.0000001
 43
0.0000001
 40
0.0
 40
0.0
 40
0.0
 40
0.0
 40
1.0
 40
1.0
 40
1.0
 40
1.0
 10
183.3525
 20
118.1175
 30
0.0
 10
204.225
 20
118.14
 30
0.0
 10
221.1675
 20
101.19
 30
0.0
 10
221.1675
 20
80.31
 30
0.0
  0
LWPOLYLINE
  5
12E
330
1F
100
AcDbEntity
  8
0
 62
     7
100
AcDbPolyline
 90
2
 70
     0
 10
133.86
 20
118.1175
 40
0.0
 41
0.0
 42
0.0
 10
183.3525
 20
118.1175
 40
0.0
 41
0.0
 42
0.0
  0
LWPOLYLINE
  5
12F
330
1F
100
AcDbEntity
  8
0
 62
     7
100
AcDbPolyline
 90
1
 70
     1
 10
221.1675
 20
80.31
 40
0.0
 41
0.0
 42
0.0
  0
SPLINE
  5
130
330
1F
100
AcDbEntity
  8
0
 62
     7
100
AcDbSpline
 71
     3
 70
     0
 72
     8
 73
     4
 42
0.0000001
 43
0.0000001
 40
0.0
 40
0.0
 40
0.0
 40
0.0
 40
1.0
 40
1.0
 40
1.0
 40
1.0
 10
70.215
 20
113.79
 30
0.0
 10
69.0375
 20
116.43
 30
0.0
 10
66.42
 20
118.14
 30
0.0
 10
63.525
 20
118.14
 30
0.0
  0
LWPOLYLINE
  5
131
330
1F
100
AcDbEntity
  8
0
 62
     7
100
AcDbPolyline
 90
2
 70
     0
 10
89.5425
 20
70.3425
 40
0.0
 41
0.0
 42
0.0
 10
70.215
 20
113.79
 40
0.0
 41
0.0
 42
0.0
  0
SPLINE
  5
132
330
1F
100
AcDbEntity
  8
0
 62
     7
100
AcDbSpline
 71
     3
 70
     0
 72
     8
 73
     4
 42
0.0000001
 43
0.0000001
 40
0.0
 40
0.0
 40
0.0
 40
0.0
 40
1.0
 40
1.0
 40
1.0
 40
1.0
 10
53.73
 20
118.14
 30
0.0
 10
50.835
 20
118.14
 30
0.0
 10
48.2175
 20
116.4375
 30
0.0
 10
47.04
 20
113.79
 30
0.0
  0
LWPOLYLINE
  5
133
330
1F
100
AcDbEntity
  8
0
 62
     7
100
AcDbPolyline
 90
2
 70
     0
 10
63.525
 20
118.14
 40
0.0
 41
0.0
 42
0.0
 10
53.73
 20
118.14
 40
0.0
 41
0.0
 42
0.0
  0
SPLINE
  5
134
330
1F
100
AcDbEntity
  8
0
 62
     7
100
AcDbSpline
 71
     3
 70
     0
 72
     8
 73
     4
 42
0.0000001
 43
0.0000001
 40
0.0
 40
0.0
 40
0.0
 40
0.0
 40
1.0
 40
1.0
 40
1.0
 40
1.0
 10
17.235
 20
46.77
 30
0.0
 10
15.0825
 20
41.925
 30
0.0
 10
18.63
 20
36.4725
 30
0.0
 10
23.925
 20
36.4725
 30
0.0
  0
LWPOLYLINE
  5
135
330
1F
100
AcDbEntity
  8
0
 62
     7
100
AcDbPolyline
 90
3
 70
     0
 10
47.04
 20
113.79
 40
0.0
 41
0.0
 42
0.0
 10
27.7125
 20
70.3425
 40
0.0
 41
0.0
 42
0.0
 10
17.235
 20
46.77
 40
0.0
 41
0.0
 42
0.0
  0
SPLINE
  5
136
330
1F
100
AcDbEntity
  8
0
 62
     7
100
AcDbSpline
 71
     3
 70
     0
 72
     8
 73
     4
 42
0.0000001
 43
0.0000001
 40
0.0
 40
0.0
 40
0.0
 40
0.0
 40
1.0
 40
1.0
 40
1.0
 40
1.0
 10
29.6775
 20
36.4725
 30
0.0
 10
32.5725
 20
36.4725
 30
0.0
 10
35.1975
 20
38.175
 30
0.0
 10
36.3675
 20
40.8225
 30
0.0
  0
LWPOLYLINE
  5
137
330
1F
100
AcDbEntity
  8
0
 62
     7
100
AcDbPolyline
 90
2
 70
     0
 10
23.925
 20
36.4725
 40
0.0
 41
0.0
 42
0.0
 10
29.6775
 20
36.4725
 40
0.0
 41
0.0
 42
0.0
  0
SPLINE
  5
138
330
1F
100
AcDbEntity
  8
0
 62
     7
100
AcDbSpline
 71
     3
 70
     0
 72
     8
 73
     4
 42
0.0000001
 43
0.0000001
 40
0.0
 40
0.0
 40
0.0
 40
0.0
 40
1.0
 40
1.0
 40
1.0
 40
1.0
 10
10.5
 20
20.9325
 30
0.0
 10
7.605
 20
20.9325
 30
0.0
 10
4.98
 20
19.23
 30
0.0
 10
3.81
 20
16.5825
 30
0.0
  0
LWPOLYLINE
  5
139
330
1F
100
AcDbEntity
  8
0
 62
     7
100
AcDbPolyline
 90
7
 70
     0
 10
36.3675
 20
40.8225
 40
0.0
 41
0.0
 42
0.0
 10
57.84
 20
89.1225
 40
0.0
 41
0.0
 42
0.0
 10
58.5225
 20
89.1225
 40
0.0
 41
0.0
 42
0.0
 10
88.1025
 20
20.9325
 40
0.0
 41
0.0
 42
0.0
 10
42.1725
 20
21.015
 40
0.0
 41
0.0
 42
0.0
 10
42.1725
 20
20.9325
 40
0.0
 41
0.0
 42
0.0
 10
10.5
 20
20.9325
 40
0.0
 41
0.0
 42
0.0
  0
SPLINE
  5
13A
330
1F
100
AcDbEntity
  8
0
 62
     7
100
AcDbSpline
 71
     3
 70
     0
 72
     8
 73
     4
 42
0.0000001
 43
0.0000001
 40
0.0
 40
0.0
 40
0.0
 40
0.0
 40
1.0
 40
1.0
 40
1.0
 40
1.0
 10
1.395
 20
11.145
 30
0.0
 10
-0.7575
 20
6.3
 30
0.0
 10
2.79
 20
0.8475
 30
0.0
 10
8.085
 20
0.8475
 30
0.0
  0
LWPOLYLINE
  5
13B
330
1F
100
AcDbEntity
  8
0
 62
     7
100
AcDbPolyline
 90
2
 70
     0
 10
3.81
 20
16.5825
 40
0.0
 41
0.0
 42
0.0
 10
1.395
 20
11.145
 40
0.0
 41
0.0
 42
0.0
  0
SPLINE
  5
13C
330
1F
100
AcDbEntity
  8
0
 62
     7
100
AcDbSpline
 71
     3
 70
     0
 72
     8
 73
     4
 42
0.0000001
 43
0.0000001
 40
0.0
 40
0.0
 40
0.0
 40
0.0
 40
1.0
 40
1.0
 40
1.0
 40
1.0
 10
109.17
 20
0.8475
 30
0.0
 10
114.4725
 20
0.8475
 30
0.0
 10
118.0125
 20
6.3
 30
0.0
 10
115.86
 20
11.145
 30
0.0
  0
LWPOLYLINE
  5
13D
330
1F
100
AcDbEntity
  8
0
 62
     7
100
AcDbPolyline
 90
2
 70
     0
 10
8.085
 20
0.8475
 40
0.0
 41
0.0
 42
0.0
 10
109.17
 20
0.8475
 40
0.0
 41
0.0
 42
0.0
  0
LWPOLYLINE
  5
13E
330
1F
100
AcDbEntity
  8
0
 62
     7
100
AcDbPolyline
 90
3
 70
     0
 10
115.86
 20
11.145
 40
0.0
 41
0.0
 42
0.0
 10
89.5425
 20
70.3425
 40
0.0
 41
0.0
 42
0.0
 10
89.5425
 20
70.3425
 40
0.0
 41
0.0
 42
0.0
  0
VIEWPORT
  5
1002A
330
1B
100
AcDbEntity
 67
     1
  8
0
347
10025
100
AcDbViewport
 10
88.3465552241121
 20
140.0767138374595
 30
0.0
 40
1223.3707251801959
 41
509.737802158415
 68
     1
 69
     1
 12
88.3465552241121
 22
140.0767138374595
 13
0.0
 23
0.0
 14
10.0
 24
10.0
 15
10.0
 25
10.0
 16
0.0
 26
0.0
 36
2.340393949304
 17
0.0
 27
0.0
 37
0.0
 42
50.0
 43
0.0
 44
0.0
 45
509.737802158415
 50
0.0
 51
0.0
 90
798832
340
0
281
     0
 71
     1
110
0.0
120
0.0
130
0.0
111
1.0
121
0.0
131
0.0
112
0.0
122
1.0
132
0.0
345
0
346
0
 79
     0
146
0.0
170
     0
 61
     5
332
        0
333
0
348
10010
292
     1
282
     0
141
0.0
142
0.0
 63
   251
421
3355443
  0
VIEWPORT
  5
1002B
330
1B
100
AcDbEntity
 67
     1
  8
0
347
10025
100
AcDbViewport
 10
137.5
 20
99.0
 30
0.0
 40
275.0
 41
198.0
 68
     2
 69
     2
 12
210.0
 22
148.5
 13
0.0
 23
0.0
 14
10.0
 24
10.0
 15
10.0
 25
10.0
 16
0.0
 26
0.0
 36
1.0
 17
0.0
 27
0.0
 37
0.0
 42
50.0
 43
0.0
 44
0.0
 45
341.0
 50
0.0
 51
0.0
 90
536640
340
0
281
     0
 71
     1
110
0.0
120
0.0
130
0.0
111
1.0
121
0.0
131
0.0
112
0.0
122
1.0
132
0.0
345
0
346
0
 79
     0
146
0.0
170
     0
 61
     5
332
        0
333
0
348
10010
292
     1
282
     1
141
0.0
142
0.0
 63
   251
421
3355443
  0
ENDSEC
  0
SECTION
  2
OBJECTS
  0
DICTIONARY
  5
C
330
0
100
AcDbDictionary
280
     1
281
     1
  3
ACAD_GROUP
350
D
  3
ACAD_MLINESTYLE
350
17
  3
ACAD_LAYOUT
350
10004
  3
ACAD_SCALELIST
350
10006
  3
ACAD_IMAGE_DICT
350
10007
  3
ACAD_PLOTSTYLENAME
350
10008
  3
ACAD_PLOTSETTINGS
350
1000A
  3
ACAD_VISUALSTYLE
350
1000B
  3
ACAD_MATERIAL
350
10024
  0
DICTIONARY
  5
D
102
{ACAD_REACTORS
330
C
102
}
330
C
100
AcDbDictionary
280
     1
281
     1
  0
DICTIONARY
  5
17
102
{ACAD_REACTORS
330
C
102
}
330
C
100
AcDbDictionary
280
     1
281
     1
  3
STANDARD
350
18
  3
Standard
350
10005
  0
MLINESTYLE
  5
10005
102
{ACAD_REACTORS
330
17
102
}
330
17
100
AcDbMlineStyle
  2
Standard
 70
     0
  3

 62
   256
 51
90.0000025044782
 52
90.0000025044782
 71
     2
 49
0.5
 62
   256
  6
BYLAYER
 49
-0.5
 62
   256
  6
BYLAYER
  0
DICTIONARY
  5
19
102
{ACAD_REACTORS
330
C
102
}
330
C
100
AcDbDictionary
280
     1
281
     1
  0
DICTIONARY
  5
1A
102
{ACAD_REACTORS
330
C
102
}
330
C
100
AcDbDictionary
280
     1
281
     1
  0
DICTIONARY
  5
10004
102
{ACAD_REACTORS
330
C
102
}
330
C
100
AcDbDictionary
280
     1
281
     0
  3
Model
350
10028
  3
Paper
350
10029
  0
LAYOUT
  5
10028
102
{ACAD_REACTORS
330
10004
102
}
330
10004
100
AcDbPlotSettings
  1

  2

  4

 40
0.0
 41
0.0
 42
0.0
 43
0.0
 44
0.0
 45
0.0
 46
0.0
 47
0.0
 48
0.0
 49
0.0
140
0.0
141
0.0
142
1.0
143
1.0
 70
 11952
 72
     0
 73
     0
 74
     0
 76
     0
 77
     2
 78
   300
148
0.0
149
0.0
333
0
100
AcDbLayout
  1
Model
 71
     0
330
1F
331
2E
  0
LAYOUT
  5
10029
102
{ACAD_REACTORS
330
10004
102
}
330
10004
100
AcDbPlotSettings
  1

  2

  4

 40
6.0
 41
11.0
 42
6.0
 43
11.0
 44
210.0
 45
297.0
 46
0.0
 47
0.0
 48
0.0
 49
0.0
140
0.0
141
0.0
142
1.0
143
1.0
 70
   688
 72
     1
 73
     1
 74
     0
 76
     0
 77
     2
 78
   300
148
0.0
149
0.0
333
0
100
AcDbLayout
  1
Paper
 71
     0
330
1B
331
1002A
  0
DICTIONARY
  5
10006
102
{ACAD_REACTORS
330
C
102
}
330
C
100
AcDbDictionary
280
     1
281
     0
  0
DICTIONARY
  5
10007
102
{ACAD_REACTORS
330
C
102
}
330
C
100
AcDbDictionary
280
     1
281
     0
  0
ACDBDICTIONARYWDFLT
  5
10008
102
{ACAD_REACTORS
330
C
102
}
330
C
100
AcDbDictionary
280
     1
281
     0
  3
Normal
350
10009
100
AcDbDictionaryWithDefault
340
10009
  0
ACDBPLACEHOLDER
  5
10009
102
{ACAD_REACTORS
330
10008
102
}
330
10008
  0
DICTIONARY
  5
1000A
102
{ACAD_REACTORS
330
C
102
}
330
C
100
AcDbDictionary
280
     1
281
     0
  0
DICTIONARY
  5
1000B
102
{ACAD_REACTORS
330
C
102
}
330
C
100
AcDbDictionary
280
     1
281
     0
  3
Flat
350
1000C
  3
FlatWithEdges
350
1000D
  3
Gouraud
350
1000E
  3
GouraudWithEdges
350
1000F
  3
2dWireframe
350
10010
  3
Wireframe
350
10011
  3
Hidden
350
10012
  3
Basic
350
10013
  3
Realistic
350
10014
  3
Conceptual
350
10015
  3
Dim
350
10016
  3
Brighten
350
10017
  3
Thicken
350
10018
  3
Linepattern
350
10019
  3
Facepattern
350
1001A
  3
ColorChange
350
1001B
  3
JitterOff
350
1001C
  3
OverhangOff
350
1001D
  3
EdgeColorOff
350
1001E
  3
Shades of Gray
350
1001F
  3
Sketchy
350
10020
  3
X-Ray
350
10021
  3
Shaded with edges
350
10022
  3
Shaded
350
10023
  0
VISUALSTYLE
  5
1000C
102
{ACAD_REACTORS
330
1000B
102
}
330
1000B
100
AcDbVisualStyle
  2
Flat
 70
     0
177
     2
 71
     2
 72
     1
 73
     1
 90
2
 40
0.6
 41
30.0
 62
     5
 63
   255
421
16777215
 74
     0
 91
0
 64
     7
 65
   257
 75
     1
175
     1
 42
1.0
 92
8
 66
     7
 43
1.0
 76
     1
 77
     6
 78
     2
 67
     7
 79
     5
170
     0
171
     0
290
     0
 93
13
 44
0.0
173
     0
291
     1
 45
0.0
1001
ACAD
1000
AcDbSavedByObjectVersion
1070
     0
  0
VISUALSTYLE
  5
1000D
102
{ACAD_REACTORS
330
1000B
102
}
330
1000B
100
AcDbVisualStyle
  2
FlatWithEdges
 70
     1
177
     2
 71
     2
 72
     1
 73
     1
 90
2
 40
0.6
 41
30.0
 62
     5
 63
   255
421
16777215
 74
     1
 91
0
 64
     7
 65
   257
 75
     1
175
     1
 42
1.0
 92
0
 66
   257
 43
1.0
 76
     1
 77
     6
 78
     2
 67
     7
 79
     5
170
     0
171
     0
290
     0
 93
13
 44
0.0
173
     0
291
     1
 45
0.0
1001
ACAD
1000
AcDbSavedByObjectVersion
1070
     0
  0
VISUALSTYLE
  5
1000E
102
{ACAD_REACTORS
330
1000B
102
}
330
1000B
100
AcDbVisualStyle
  2
Gouraud
 70
     2
177
     2
 71
     2
 72
     2
 73
     1
 90
2
 40
0.6
 41
30.0
 62
     5
 63
   255
421
16777215
 74
     0
 91
0
 64
     7
 65
   257
 75
     1
175
     1
 42
1.0
 92
0
 66
     7
 43
1.0
 76
     1
 77
     6
 78
     2
 67
     7
 79
     5
170
     0
171
     0
290
     0
 93
13
 44
0.0
173
     0
291
     1
 45
0.0
1001
ACAD
1000
AcDbSavedByObjectVersion
1070
     0
  0
VISUALSTYLE
  5
1000F
102
{ACAD_REACTORS
330
1000B
102
}
330
1000B
100
AcDbVisualStyle
  2
GouraudWithEdges
 70
     3
177
     2
 71
     2
 72
     2
 73
     1
 90
2
 40
0.6
 41
30.0
 62
     5
 63
   255
421
16777215
 74
     1
 91
0
 64
     7
 65
   257
 75
     1
175
     1
 42
1.0
 92
0
 66
   257
 43
1.0
 76
     1
 77
     6
 78
     2
 67
     7
 79
     5
170
     0
171
     0
290
     0
 93
13
 44
0.0
173
     0
291
     1
 45
0.0
1001
ACAD
1000
AcDbSavedByObjectVersion
1070
     0
  0
VISUALSTYLE
  5
10010
102
{ACAD_REACTORS
330
1000B
102
}
330
1000B
100
AcDbVisualStyle
  2
2dWireframe
 70
     4
177
     2
 71
     0
 72
     2
 73
     1
 90
0
 40
0.6
 41
30.0
 62
     5
 63
   255
421
16777215
 74
     1
 91
4
 64
     7
 65
   257
 75
     1
175
     1
 42
1.0
 92
0
 66
   257
 43
1.0
 76
     1
 77
     6
 78
     2
 67
     7
 79
     5
170
     0
171
     0
290
     0
 93
1
 44
0.0
173
     0
291
     0
 45
0.0
1001
ACAD
1000
AcDbSavedByObjectVersion
1070
     0
  0
VISUALSTYLE
  5
10011
102
{ACAD_REACTORS
330
1000B
102
}
330
1000B
100
AcDbVisualStyle
  2
Wireframe
 70
     5
177
     2
 71
     0
 72
     2
 73
     0
 90
0
 40
0.6
 41
30.0
 62
     5
 63
   255
421
16777215
 74
     1
 91
4
 64
     7
 65
   257
 75
     1
175
     1
 42
1.0
 92
0
 66
   257
 43
1.0
 76
     1
 77
     6
 78
     2
 67
     7
 79
     3
170
     0
171
     0
290
     0
 93
1
 44
0.0
173
     0
291
     0
 45
0.0
1001
ACAD
1000
AcDbSavedByObjectVersion
1070
     0
  0
VISUALSTYLE
  5
10012
102
{ACAD_REACTORS
330
1000B
102
}
330
1000B
100
AcDbVisualStyle
  2
Hidden
 70
     6
177
     2
 71
     1
 72
     2
 73
     2
 90
0
 40
0.6
 41
30.0
 62
     5
 63
   255
421
16777215
 74
     2
 91
2
 64
     7
 65
   257
 75
     2
175
     1
 42
40.0
 92
0
 66
   257
 43
1.0
 76
     1
 77
     6
 78
     2
 67
     7
 79
     3
170
     0
171
     0
290
     0
 93
1
 44
0.0
173
     0
291
     0
 45
0.0
1001
ACAD
1000
AcDbSavedByObjectVersion
1070
     0
  0
VISUALSTYLE
  5
10013
102
{ACAD_REACTORS
330
1000B
102
}
330
1000B
100
AcDbVisualStyle
  2
Basic
 70
     7
177
     2
 71
     1
 72
     0
 73
     1
 90
0
 40
0.6
 41
30.0
 62
     5
 63
   255
421
16777215
 74
     0
 91
4
 64
     7
 65
   257
 75
     1
175
     1
 42
1.0
 92
8
 66
     7
 43
1.0
 76
     1
 77
     6
 78
     2
 67
     7
 79
     5
170
     0
171
     0
290
     0
 93
1
 44
0.0
173
     0
291
     1
 45
0.0
1001
ACAD
1000
AcDbSavedByObjectVersion
1070
     0
  0
VISUALSTYLE
  5
10014
102
{ACAD_REACTORS
330
1000B
102
}
330
1000B
100
AcDbVisualStyle
  2
Realistic
 70
     8
177
     2
 71
     2
 72
     3
 73
     0
 90
2
 40
0.6
 41
30.0
 62
     5
 63
   255
421
16777215
 74
     0
 91
0
 64
     7
 65
   257
 75
     1
175
     1
 42
1.0
 92
8
 66
   257
 43
1.0
 76
     1
 77
     6
 78
     2
 67
     7
 79
     3
170
     0
171
     0
290
     0
 93
13
 44
0.0
173
     0
291
     0
 45
0.0
1001
ACAD
1000
AcDbSavedByObjectVersion
1070
     0
  0
VISUALSTYLE
  5
10015
102
{ACAD_REACTORS
330
1000B
102
}
330
1000B
100
AcDbVisualStyle
  2
Conceptual
 70
     9
177
     2
 71
     3
 72
     2
 73
     1
 90
0
 40
0.6
 41
30.0
 62
     5
 63
   255
421
16777215
 74
     2
 91
2
 64
     7
 65
   257
 75
     1
175
     1
 42
40.0
 92
8
 66
     7
 43
1.0
 76
     1
 77
     6
 78
     2
 67
     7
 79
     3
170
     0
171
     0
290
     0
 93
1
 44
0.0
173
     0
291
     0
 45
0.0
1001
ACAD
1000
AcDbSavedByObjectVersion
1070
     0
  0
VISUALSTYLE
  5
10016
102
{ACAD_REACTORS
330
1000B
102
}
330
1000B
100
AcDbVisualStyle
  2
Dim
 70
    11
177
     2
 71
     2
 72
     2
 73
     1
 90
0
 40
0.6
 41
30.0
 62
     5
 63
   255
421
16777215
 74
     1
 91
4
 64
     7
 65
   257
 75
     1
175
     1
 42
1.0
 92
8
 66
     7
 43
1.0
 76
     1
 77
     6
 78
     2
 67
     7
 79
     5
170
     0
171
     0
290
     0
 93
1
 44
-50.0
173
     0
291
     1
 45
0.0
1001
ACAD
1000
AcDbSavedByObjectVersion
1070
     0
  0
VISUALSTYLE
  5
10017
102
{ACAD_REACTORS
330
1000B
102
}
330
1000B
100
AcDbVisualStyle
  2
Brighten
 70
    12
177
     2
 71
     2
 72
     2
 73
     1
 90
0
 40
0.6
 41
30.0
 62
     5
 63
   255
421
16777215
 74
     1
 91
4
 64
     7
 65
   257
 75
     1
175
     1
 42
1.0
 92
8
 66
     7
 43
1.0
 76
     1
 77
     6
 78
     2
 67
     7
 79
     5
170
     0
171
     0
290
     0
 93
1
 44
50.0
173
     0
291
     1
 45
0.0
1001
ACAD
1000
AcDbSavedByObjectVersion
1070
     0
  0
VISUALSTYLE
  5
10018
102
{ACAD_REACTORS
330
1000B
102
}
330
1000B
100
AcDbVisualStyle
  2
Thicken
 70
    13
177
     2
 71
     2
 72
     2
 73
     1
 90
0
 40
0.6
 41
30.0
 62
     5
 63
   255
421
16777215
 74
     1
 91
4
 64
     7
 65
   257
 75
     1
175
     1
 42
1.0
 92
12
 66
     7
 43
1.0
 76
     1
 77
     6
 78
     2
 67
     7
 79
     5
170
     0
171
     0
290
     0
 93
1
 44
0.0
173
     0
291
     1
 45
0.0
1001
ACAD
1000
AcDbSavedByObjectVersion
1070
     0
  0
VISUALSTYLE
  5
10019
102
{ACAD_REACTORS
330
1000B
102
}
330
1000B
100
AcDbVisualStyle
  2
Linepattern
 70
    14
177
     2
 71
     2
 72
     2
 73
     1
 90
0
 40
0.6
 41
30.0
 62
     5
 63
   255
421
16777215
 74
     1
 91
4
 64
     7
 65
   257
 75
     7
175
     7
 42
1.0
 92
8
 66
     7
 43
1.0
 76
     1
 77
     6
 78
     2
 67
     7
 79
     5
170
     0
171
     0
290
     0
 93
1
 44
0.0
173
     0
291
     1
 45
0.0
1001
ACAD
1000
AcDbSavedByObjectVersion
1070
     0
  0
VISUALSTYLE
  5
1001A
102
{ACAD_REACTORS
330
1000B
102
}
330
1000B
100
AcDbVisualStyle
  2
Facepattern
 70
    15
177
     2
 71
     2
 72
     2
 73
     1
 90
0
 40
0.6
 41
30.0
 62
     5
 63
   255
421
16777215
 74
     1
 91
4
 64
     7
 65
   257
 75
     1
175
     1
 42
1.0
 92
8
 66
     7
 43
1.0
 76
     1
 77
     6
 78
     2
 67
     7
 79
     5
170
     0
171
     0
290
     0
 93
1
 44
0.0
173
     0
291
     1
 45
0.0
1001
ACAD
1000
AcDbSavedByObjectVersion
1070
     0
  0
VISUALSTYLE
  5
1001B
102
{ACAD_REACTORS
330
1000B
102
}
330
1000B
100
AcDbVisualStyle
  2
ColorChange
 70
    16
177
     2
 71
     2
 72
     2
 73
     3
 90
0
 40
0.6
 41
30.0
 62
     5
 63
     8
421
8421504
 74
     1
 91
4
 64
     7
 65
   257
 75
     1
175
     1
 42
1.0
 92
8
 66
     8
424
8421504
 43
1.0
 76
     1
 77
     6
 78
     2
 67
     7
 79
     5
170
     0
171
     0
290
     0
 93
1
 44
0.0
173
     0
291
     1
 45
0.0
1001
ACAD
1000
AcDbSavedByObjectVersion
1070
     0
  0
VISUALSTYLE
  5
1001C
102
{ACAD_REACTORS
330
1000B
102
}
330
1000B
100
AcDbVisualStyle
  2
JitterOff
 70
    20
177
     2
 71
     2
 72
     2
 73
     0
 90
0
 40
0.6
 41
30.0
 62
     5
 63
   255
421
16777215
 74
     1
 91
4
 64
     7
 65
   257
 75
     1
175
     1
 42
1.0
 92
10
 66
     7
 43
1.0
 76
     1
 77
     6
 78
     2
 67
     7
 79
     5
170
     0
171
     0
290
     0
 93
1
 44
0.0
173
     0
291
     1
 45
0.0
1001
ACAD
1000
AcDbSavedByObjectVersion
1070
     0
  0
VISUALSTYLE
  5
1001D
102
{ACAD_REACTORS
330
1000B
102
}
330
1000B
100
AcDbVisualStyle
  2
OverhangOff
 70
    21
177
     2
 71
     2
 72
     2
 73
     0
 90
0
 40
0.6
 41
30.0
 62
     5
 63
   255
421
16777215
 74
     1
 91
4
 64
     7
 65
   257
 75
     1
175
     1
 42
1.0
 92
9
 66
     7
 43
1.0
 76
     1
 77
     6
 78
     2
 67
     7
 79
     5
170
     0
171
     0
290
     0
 93
1
 44
0.0
173
     0
291
     1
 45
0.0
1001
ACAD
1000
AcDbSavedByObjectVersion
1070
     0
  0
VISUALSTYLE
  5
1001E
102
{ACAD_REACTORS
330
1000B
102
}
330
1000B
100
AcDbVisualStyle
  2
EdgeColorOff
 70
    22
177
     2
 71
     2
 72
     2
 73
     0
 90
0
 40
0.6
 41
30.0
 62
     5
 63
   255
421
16777215
 74
     1
 91
4
 64
     7
 65
   257
 75
     1
175
     1
 42
1.0
 92
8
 66
     7
 43
1.0
 76
     1
 77
     6
 78
     2
 67
     7
 79
     5
170
     0
171
     0
290
     0
 93
1
 44
0.0
173
     0
291
     1
 45
0.0
1001
ACAD
1000
AcDbSavedByObjectVersion
1070
     0
  0
VISUALSTYLE
  5
1001F
102
{ACAD_REACTORS
330
1000B
102
}
330
1000B
100
AcDbVisualStyle
  2
Shades of Gray
 70
    23
177
     2
 71
     2
 72
     2
 73
     3
 90
0
 40
0.6
 41
30.0
 62
     5
 63
   255
421
16777215
 74
     2
 91
2
 64
     7
 65
     7
 75
     1
175
     1
 42
40.0
 92
8
 66
     7
 43
1.0
 76
     1
 77
     6
 78
     2
 67
     7
 79
     3
170
     0
171
     0
290
     0
 93
1
 44
0.0
173
     0
291
     0
 45
0.0
1001
ACAD
1000
AcDbSavedByObjectVersion
1070
     0
  0
VISUALSTYLE
  5
10020
102
{ACAD_REACTORS
330
1000B
102
}
330
1000B
100
AcDbVisualStyle
  2
Sketchy
 70
    24
177
     2
 71
     1
 72
     2
 73
     2
 90
0
 40
0.6
 41
30.0
 62
     5
 63
   255
421
16777215
 74
     2
 91
2
 64
     7
 65
     7
 75
     1
175
     1
 42
40.0
 92
11
 66
     7
 43
1.0
 76
     1
 77
     6
 78
     2
 67
     7
 79
     6
170
     0
171
     0
290
     0
 93
1
 44
0.0
173
     0
291
     0
 45
0.0
1001
ACAD
1000
AcDbSavedByObjectVersion
1070
     0
  0
VISUALSTYLE
  5
10021
102
{ACAD_REACTORS
330
1000B
102
}
330
1000B
100
AcDbVisualStyle
  2
X-Ray
 70
    25
177
     2
 71
     2
 72
     2
 73
     1
 90
1
 40
0.5
 41
30.0
 62
     5
 63
   255
421
16777215
 74
     1
 91
0
 64
     7
 65
   257
 75
     1
175
     1
 42
1.0
 92
8
 66
     7
 43
1.0
 76
     1
 77
     6
 78
     2
 67
     7
 79
     3
170
     0
171
     0
290
     0
 93
13
 44
0.0
173
     0
291
     0
 45
0.0
1001
ACAD
1000
AcDbSavedByObjectVersion
1070
     0
  0
VISUALSTYLE
  5
10022
102
{ACAD_REACTORS
330
1000B
102
}
330
1000B
100
AcDbVisualStyle
  2
Shaded with edges
 70
    26
177
     2
 71
     2
 72
     2
 73
     1
 90
2
 40
0.6
 41
30.0
 62
     5
 63
   255
421
16777215
 74
     1
 91
10
 64
     7
 65
   257
 75
     2
175
     1
 42
1.0
 92
8
 66
   257
 43
1.0
 76
     1
 77
     6
 78
     2
 67
     7
 79
     3
170
     0
171
     0
290
     0
 93
5
 44
0.0
173
     0
291
     0
 45
0.0
1001
ACAD
1000
AcDbSavedByObjectVersion
1070
     0
  0
VISUALSTYLE
  5
10023
102
{ACAD_REACTORS
330
1000B
102
}
330
1000B
100
AcDbVisualStyle
  2
Shaded
 70
    27
177
     2
 71
     2
 72
     2
 73
     1
 90
2
 40
0.6
 41
30.0
 62
     5
 63
   255
421
16777215
 74
     0
 91
4
 64
     7
 65
   257
 75
     1
175
     1
 42
1.0
 92
8
 66
   257
 43
1.0
 76
     1
 77
     6
 78
     2
 67
     8
425
7895160
 79
     3
170
     0
171
     0
290
     0
 93
5
 44
0.0
173
     0
291
     0
 45
0.0
1001
ACAD
1000
AcDbSavedByObjectVersion
1070
     0
  0
DICTIONARY
  5
10024
102
{ACAD_REACTORS
330
C
102
}
330
C
100
AcDbDictionary
280
     1
281
     0
  3
ByBlock
350
10025
  3
ByLayer
350
10026
  3
Global
350
10027
  0
MATERIAL
  5
10025
102
{ACAD_REACTORS
330
10024
102
}
330
10024
100
AcDbMaterial
  1
ByBlock
  0
MATERIAL
  5
10026
102
{ACAD_REACTORS
330
10024
102
}
330
10024
100
AcDbMaterial
  1
ByLayer
  0
MATERIAL
  5
10027
102
{ACAD_REACTORS
330
10024
102
}
330
10024
100
AcDbMaterial
  1
Global
  0
ENDSEC
  0
EOF
