; NON-PLATED HOLES START AT T1
; THROUGH (PLATED) HOLES START AT T100
M48
INCH
T100C0.059055
T101C0.039370
T102C0.035000
T103C0.032000
%
T100
X013837Y008837
X000837Y000837
T101
X004837Y007837
X004837Y001837
X005837Y007837
X005837Y001837
X007837Y006837
X000837Y006837
X001837Y006837
X006837Y007837
X006837Y001837
X007837Y007837
X007837Y001837
X008837Y007837
X008837Y001837
X002837Y006837
X003837Y006837
T102
X013393Y001837
X010833Y001837
X013393Y003609
X010833Y003609
T103
X010837Y005837
X013837Y006837
X010837Y006837
X013837Y005837
T00
M30
