G04 MADE WITH FRITZING*
G04 WWW.FRITZING.ORG*
G04 DOUBLE SIDED*
G04 HOLES PLATED*
G04 CONTOUR ON CENTER OF CONTOUR VECTOR*
%ASAXBY*%
%FSLAX23Y23*%
%MOIN*%
%OFA0B0*%
%SFA1.0B1.0*%
%ADD10C,0.075000*%
%ADD11C,0.052000*%
%ADD12C,0.079370*%
%ADD13C,0.098425*%
%ADD14C,0.024000*%
%ADD15R,0.001000X0.001000*%
%LNCOPPER1*%
G90*
G70*
G54D10*
X1212Y709D03*
X107Y900D03*
X181Y553D03*
X1339Y184D03*
X1083Y184D03*
X1339Y361D03*
X1083Y361D03*
G54D11*
X1084Y684D03*
X1084Y584D03*
X1384Y584D03*
X1384Y684D03*
X1084Y684D03*
X1084Y584D03*
X1384Y584D03*
X1384Y684D03*
G54D12*
X484Y184D03*
X584Y184D03*
X684Y184D03*
X784Y184D03*
X884Y184D03*
G54D13*
X1384Y884D03*
X84Y84D03*
G54D12*
X484Y784D03*
X584Y784D03*
X684Y784D03*
X784Y784D03*
X884Y784D03*
X84Y684D03*
X184Y684D03*
X284Y684D03*
X384Y684D03*
X784Y684D03*
G54D14*
X1084Y657D02*
X1084Y611D01*
D02*
X584Y684D02*
X683Y585D01*
D02*
X584Y753D02*
X584Y684D01*
D02*
X683Y585D02*
X883Y585D01*
D02*
X883Y585D02*
X1084Y783D01*
D02*
X1084Y783D02*
X1284Y785D01*
D02*
X1284Y785D02*
X1365Y703D01*
D02*
X183Y184D02*
X284Y85D01*
D02*
X84Y384D02*
X84Y283D01*
D02*
X84Y653D02*
X84Y384D01*
D02*
X84Y283D02*
X183Y184D01*
D02*
X284Y85D02*
X783Y84D01*
D02*
X783Y84D02*
X862Y162D01*
D02*
X485Y283D02*
X284Y483D01*
D02*
X284Y483D02*
X284Y653D01*
D02*
X562Y206D02*
X485Y283D01*
D02*
X1365Y565D02*
X1284Y483D01*
D02*
X985Y483D02*
X683Y483D01*
D02*
X683Y483D02*
X485Y684D01*
D02*
X1284Y483D02*
X985Y483D01*
D02*
X485Y684D02*
X484Y753D01*
D02*
X784Y715D02*
X784Y753D01*
G36*
X1233Y763D02*
X1233Y761D01*
X1093Y761D01*
X1093Y759D01*
X1091Y759D01*
X1091Y757D01*
X1089Y757D01*
X1089Y755D01*
X1087Y755D01*
X1087Y753D01*
X1085Y753D01*
X1085Y751D01*
X1083Y751D01*
X1083Y749D01*
X1081Y749D01*
X1081Y747D01*
X1077Y747D01*
X1077Y745D01*
X1075Y745D01*
X1075Y743D01*
X1073Y743D01*
X1073Y741D01*
X1071Y741D01*
X1071Y739D01*
X1069Y739D01*
X1069Y719D01*
X1119Y719D01*
X1119Y717D01*
X1125Y717D01*
X1125Y715D01*
X1129Y715D01*
X1129Y713D01*
X1131Y713D01*
X1131Y711D01*
X1135Y711D01*
X1135Y709D01*
X1137Y709D01*
X1137Y705D01*
X1139Y705D01*
X1139Y703D01*
X1141Y703D01*
X1141Y699D01*
X1143Y699D01*
X1143Y693D01*
X1145Y693D01*
X1145Y673D01*
X1143Y673D01*
X1143Y669D01*
X1141Y669D01*
X1141Y665D01*
X1139Y665D01*
X1139Y661D01*
X1137Y661D01*
X1137Y659D01*
X1135Y659D01*
X1135Y657D01*
X1133Y657D01*
X1133Y655D01*
X1131Y655D01*
X1131Y653D01*
X1127Y653D01*
X1127Y651D01*
X1121Y651D01*
X1121Y649D01*
X1113Y649D01*
X1113Y647D01*
X1355Y647D01*
X1355Y649D01*
X1345Y649D01*
X1345Y651D01*
X1341Y651D01*
X1341Y653D01*
X1337Y653D01*
X1337Y655D01*
X1335Y655D01*
X1335Y657D01*
X1333Y657D01*
X1333Y659D01*
X1331Y659D01*
X1331Y661D01*
X1329Y661D01*
X1329Y663D01*
X1327Y663D01*
X1327Y667D01*
X1325Y667D01*
X1325Y673D01*
X1323Y673D01*
X1323Y683D01*
X1321Y683D01*
X1321Y685D01*
X1323Y685D01*
X1323Y715D01*
X1321Y715D01*
X1321Y717D01*
X1319Y717D01*
X1319Y719D01*
X1317Y719D01*
X1317Y721D01*
X1315Y721D01*
X1315Y723D01*
X1313Y723D01*
X1313Y725D01*
X1311Y725D01*
X1311Y727D01*
X1309Y727D01*
X1309Y729D01*
X1307Y729D01*
X1307Y731D01*
X1305Y731D01*
X1305Y733D01*
X1303Y733D01*
X1303Y735D01*
X1301Y735D01*
X1301Y737D01*
X1299Y737D01*
X1299Y739D01*
X1297Y739D01*
X1297Y741D01*
X1295Y741D01*
X1295Y743D01*
X1293Y743D01*
X1293Y745D01*
X1291Y745D01*
X1291Y747D01*
X1289Y747D01*
X1289Y749D01*
X1287Y749D01*
X1287Y751D01*
X1285Y751D01*
X1285Y753D01*
X1283Y753D01*
X1283Y755D01*
X1281Y755D01*
X1281Y757D01*
X1279Y757D01*
X1279Y759D01*
X1277Y759D01*
X1277Y761D01*
X1275Y761D01*
X1275Y763D01*
X1233Y763D01*
G37*
D02*
G36*
X523Y755D02*
X523Y753D01*
X521Y753D01*
X521Y749D01*
X519Y749D01*
X519Y747D01*
X515Y747D01*
X515Y745D01*
X513Y745D01*
X513Y743D01*
X511Y743D01*
X511Y741D01*
X507Y741D01*
X507Y691D01*
X509Y691D01*
X509Y689D01*
X511Y689D01*
X511Y687D01*
X513Y687D01*
X513Y685D01*
X515Y685D01*
X515Y683D01*
X517Y683D01*
X517Y681D01*
X519Y681D01*
X519Y679D01*
X521Y679D01*
X521Y677D01*
X523Y677D01*
X523Y675D01*
X525Y675D01*
X525Y673D01*
X527Y673D01*
X527Y671D01*
X529Y671D01*
X529Y669D01*
X531Y669D01*
X531Y667D01*
X533Y667D01*
X533Y665D01*
X535Y665D01*
X535Y663D01*
X537Y663D01*
X537Y661D01*
X539Y661D01*
X539Y659D01*
X541Y659D01*
X541Y657D01*
X543Y657D01*
X543Y655D01*
X545Y655D01*
X545Y653D01*
X547Y653D01*
X547Y651D01*
X549Y651D01*
X549Y649D01*
X551Y649D01*
X551Y647D01*
X553Y647D01*
X553Y645D01*
X555Y645D01*
X555Y643D01*
X557Y643D01*
X557Y641D01*
X559Y641D01*
X559Y639D01*
X561Y639D01*
X561Y637D01*
X563Y637D01*
X563Y635D01*
X565Y635D01*
X565Y633D01*
X567Y633D01*
X567Y631D01*
X569Y631D01*
X569Y629D01*
X571Y629D01*
X571Y627D01*
X573Y627D01*
X573Y625D01*
X575Y625D01*
X575Y623D01*
X577Y623D01*
X577Y621D01*
X579Y621D01*
X579Y619D01*
X581Y619D01*
X581Y617D01*
X583Y617D01*
X583Y615D01*
X585Y615D01*
X585Y613D01*
X587Y613D01*
X587Y611D01*
X589Y611D01*
X589Y609D01*
X591Y609D01*
X591Y607D01*
X593Y607D01*
X593Y605D01*
X595Y605D01*
X595Y603D01*
X597Y603D01*
X597Y601D01*
X599Y601D01*
X599Y599D01*
X601Y599D01*
X601Y597D01*
X603Y597D01*
X603Y595D01*
X605Y595D01*
X605Y593D01*
X607Y593D01*
X607Y591D01*
X609Y591D01*
X609Y589D01*
X611Y589D01*
X611Y587D01*
X613Y587D01*
X613Y585D01*
X615Y585D01*
X615Y583D01*
X617Y583D01*
X617Y581D01*
X619Y581D01*
X619Y579D01*
X621Y579D01*
X621Y577D01*
X623Y577D01*
X623Y575D01*
X625Y575D01*
X625Y573D01*
X627Y573D01*
X627Y571D01*
X629Y571D01*
X629Y569D01*
X631Y569D01*
X631Y567D01*
X633Y567D01*
X633Y565D01*
X635Y565D01*
X635Y563D01*
X675Y563D01*
X675Y565D01*
X671Y565D01*
X671Y567D01*
X669Y567D01*
X669Y569D01*
X667Y569D01*
X667Y571D01*
X665Y571D01*
X665Y573D01*
X663Y573D01*
X663Y575D01*
X661Y575D01*
X661Y577D01*
X659Y577D01*
X659Y579D01*
X657Y579D01*
X657Y581D01*
X655Y581D01*
X655Y583D01*
X653Y583D01*
X653Y585D01*
X651Y585D01*
X651Y587D01*
X649Y587D01*
X649Y589D01*
X647Y589D01*
X647Y591D01*
X645Y591D01*
X645Y593D01*
X643Y593D01*
X643Y595D01*
X641Y595D01*
X641Y597D01*
X639Y597D01*
X639Y599D01*
X637Y599D01*
X637Y601D01*
X635Y601D01*
X635Y603D01*
X633Y603D01*
X633Y605D01*
X631Y605D01*
X631Y607D01*
X629Y607D01*
X629Y609D01*
X627Y609D01*
X627Y611D01*
X625Y611D01*
X625Y613D01*
X623Y613D01*
X623Y615D01*
X621Y615D01*
X621Y617D01*
X619Y617D01*
X619Y619D01*
X617Y619D01*
X617Y621D01*
X615Y621D01*
X615Y623D01*
X613Y623D01*
X613Y625D01*
X611Y625D01*
X611Y627D01*
X609Y627D01*
X609Y629D01*
X607Y629D01*
X607Y631D01*
X605Y631D01*
X605Y633D01*
X603Y633D01*
X603Y635D01*
X601Y635D01*
X601Y637D01*
X599Y637D01*
X599Y639D01*
X597Y639D01*
X597Y641D01*
X595Y641D01*
X595Y643D01*
X593Y643D01*
X593Y645D01*
X591Y645D01*
X591Y647D01*
X589Y647D01*
X589Y649D01*
X587Y649D01*
X587Y651D01*
X585Y651D01*
X585Y653D01*
X583Y653D01*
X583Y655D01*
X581Y655D01*
X581Y657D01*
X579Y657D01*
X579Y659D01*
X577Y659D01*
X577Y661D01*
X575Y661D01*
X575Y663D01*
X573Y663D01*
X573Y665D01*
X571Y665D01*
X571Y667D01*
X569Y667D01*
X569Y669D01*
X567Y669D01*
X567Y671D01*
X565Y671D01*
X565Y675D01*
X563Y675D01*
X563Y683D01*
X561Y683D01*
X561Y741D01*
X557Y741D01*
X557Y743D01*
X555Y743D01*
X555Y745D01*
X551Y745D01*
X551Y747D01*
X549Y747D01*
X549Y749D01*
X547Y749D01*
X547Y751D01*
X545Y751D01*
X545Y755D01*
X523Y755D01*
G37*
D02*
G36*
X1003Y673D02*
X1003Y671D01*
X1001Y671D01*
X1001Y669D01*
X999Y669D01*
X999Y667D01*
X997Y667D01*
X997Y665D01*
X995Y665D01*
X995Y663D01*
X993Y663D01*
X993Y661D01*
X991Y661D01*
X991Y659D01*
X989Y659D01*
X989Y657D01*
X987Y657D01*
X987Y655D01*
X985Y655D01*
X985Y653D01*
X983Y653D01*
X983Y651D01*
X981Y651D01*
X981Y649D01*
X979Y649D01*
X979Y647D01*
X977Y647D01*
X977Y645D01*
X975Y645D01*
X975Y643D01*
X973Y643D01*
X973Y641D01*
X971Y641D01*
X971Y639D01*
X969Y639D01*
X969Y637D01*
X967Y637D01*
X967Y635D01*
X965Y635D01*
X965Y633D01*
X963Y633D01*
X963Y631D01*
X961Y631D01*
X961Y629D01*
X959Y629D01*
X959Y627D01*
X957Y627D01*
X957Y625D01*
X955Y625D01*
X955Y623D01*
X953Y623D01*
X953Y621D01*
X951Y621D01*
X951Y619D01*
X949Y619D01*
X949Y617D01*
X947Y617D01*
X947Y615D01*
X945Y615D01*
X945Y613D01*
X943Y613D01*
X943Y611D01*
X941Y611D01*
X941Y609D01*
X939Y609D01*
X939Y607D01*
X937Y607D01*
X937Y605D01*
X935Y605D01*
X935Y603D01*
X933Y603D01*
X933Y601D01*
X931Y601D01*
X931Y599D01*
X929Y599D01*
X929Y597D01*
X927Y597D01*
X927Y595D01*
X925Y595D01*
X925Y593D01*
X923Y593D01*
X923Y591D01*
X921Y591D01*
X921Y589D01*
X919Y589D01*
X919Y587D01*
X917Y587D01*
X917Y585D01*
X915Y585D01*
X915Y583D01*
X913Y583D01*
X913Y581D01*
X911Y581D01*
X911Y579D01*
X909Y579D01*
X909Y577D01*
X907Y577D01*
X907Y575D01*
X905Y575D01*
X905Y573D01*
X903Y573D01*
X903Y571D01*
X901Y571D01*
X901Y569D01*
X897Y569D01*
X897Y567D01*
X895Y567D01*
X895Y565D01*
X891Y565D01*
X891Y563D01*
X1027Y563D01*
X1027Y567D01*
X1025Y567D01*
X1025Y573D01*
X1023Y573D01*
X1023Y583D01*
X1021Y583D01*
X1021Y585D01*
X1023Y585D01*
X1023Y595D01*
X1025Y595D01*
X1025Y599D01*
X1027Y599D01*
X1027Y603D01*
X1029Y603D01*
X1029Y607D01*
X1031Y607D01*
X1031Y609D01*
X1033Y609D01*
X1033Y611D01*
X1037Y611D01*
X1037Y613D01*
X1039Y613D01*
X1039Y615D01*
X1043Y615D01*
X1043Y617D01*
X1049Y617D01*
X1049Y619D01*
X1061Y619D01*
X1061Y647D01*
X1055Y647D01*
X1055Y649D01*
X1045Y649D01*
X1045Y651D01*
X1041Y651D01*
X1041Y653D01*
X1037Y653D01*
X1037Y655D01*
X1035Y655D01*
X1035Y657D01*
X1033Y657D01*
X1033Y659D01*
X1031Y659D01*
X1031Y661D01*
X1029Y661D01*
X1029Y663D01*
X1027Y663D01*
X1027Y667D01*
X1025Y667D01*
X1025Y673D01*
X1003Y673D01*
G37*
D02*
G36*
X1427Y653D02*
X1427Y651D01*
X1421Y651D01*
X1421Y649D01*
X1413Y649D01*
X1413Y647D01*
X1447Y647D01*
X1447Y653D01*
X1427Y653D01*
G37*
D02*
G36*
X1105Y647D02*
X1105Y645D01*
X1447Y645D01*
X1447Y647D01*
X1105Y647D01*
G37*
D02*
G36*
X1105Y647D02*
X1105Y645D01*
X1447Y645D01*
X1447Y647D01*
X1105Y647D01*
G37*
D02*
G36*
X1105Y645D02*
X1105Y619D01*
X1419Y619D01*
X1419Y617D01*
X1425Y617D01*
X1425Y615D01*
X1447Y615D01*
X1447Y645D01*
X1105Y645D01*
G37*
D02*
G36*
X1119Y619D02*
X1119Y617D01*
X1125Y617D01*
X1125Y615D01*
X1129Y615D01*
X1129Y613D01*
X1131Y613D01*
X1131Y611D01*
X1135Y611D01*
X1135Y609D01*
X1137Y609D01*
X1137Y605D01*
X1139Y605D01*
X1139Y603D01*
X1141Y603D01*
X1141Y599D01*
X1143Y599D01*
X1143Y593D01*
X1145Y593D01*
X1145Y573D01*
X1143Y573D01*
X1143Y569D01*
X1141Y569D01*
X1141Y565D01*
X1139Y565D01*
X1139Y561D01*
X1137Y561D01*
X1137Y559D01*
X1135Y559D01*
X1135Y557D01*
X1133Y557D01*
X1133Y555D01*
X1131Y555D01*
X1131Y553D01*
X1127Y553D01*
X1127Y551D01*
X1121Y551D01*
X1121Y549D01*
X1113Y549D01*
X1113Y547D01*
X1317Y547D01*
X1317Y549D01*
X1319Y549D01*
X1319Y551D01*
X1321Y551D01*
X1321Y553D01*
X1323Y553D01*
X1323Y583D01*
X1321Y583D01*
X1321Y585D01*
X1323Y585D01*
X1323Y595D01*
X1325Y595D01*
X1325Y599D01*
X1327Y599D01*
X1327Y603D01*
X1329Y603D01*
X1329Y607D01*
X1331Y607D01*
X1331Y609D01*
X1333Y609D01*
X1333Y611D01*
X1337Y611D01*
X1337Y613D01*
X1339Y613D01*
X1339Y615D01*
X1343Y615D01*
X1343Y617D01*
X1349Y617D01*
X1349Y619D01*
X1119Y619D01*
G37*
D02*
G36*
X637Y563D02*
X637Y561D01*
X1029Y561D01*
X1029Y563D01*
X637Y563D01*
G37*
D02*
G36*
X637Y563D02*
X637Y561D01*
X1029Y561D01*
X1029Y563D01*
X637Y563D01*
G37*
D02*
G36*
X639Y561D02*
X639Y559D01*
X641Y559D01*
X641Y557D01*
X643Y557D01*
X643Y555D01*
X645Y555D01*
X645Y553D01*
X647Y553D01*
X647Y551D01*
X649Y551D01*
X649Y549D01*
X651Y549D01*
X651Y547D01*
X1055Y547D01*
X1055Y549D01*
X1045Y549D01*
X1045Y551D01*
X1041Y551D01*
X1041Y553D01*
X1037Y553D01*
X1037Y555D01*
X1035Y555D01*
X1035Y557D01*
X1033Y557D01*
X1033Y559D01*
X1031Y559D01*
X1031Y561D01*
X639Y561D01*
G37*
D02*
G36*
X651Y547D02*
X651Y545D01*
X1315Y545D01*
X1315Y547D01*
X651Y547D01*
G37*
D02*
G36*
X651Y547D02*
X651Y545D01*
X1315Y545D01*
X1315Y547D01*
X651Y547D01*
G37*
D02*
G36*
X653Y545D02*
X653Y543D01*
X655Y543D01*
X655Y541D01*
X657Y541D01*
X657Y539D01*
X659Y539D01*
X659Y537D01*
X661Y537D01*
X661Y535D01*
X663Y535D01*
X663Y533D01*
X665Y533D01*
X665Y531D01*
X667Y531D01*
X667Y529D01*
X669Y529D01*
X669Y527D01*
X671Y527D01*
X671Y525D01*
X673Y525D01*
X673Y523D01*
X675Y523D01*
X675Y521D01*
X677Y521D01*
X677Y519D01*
X679Y519D01*
X679Y517D01*
X681Y517D01*
X681Y515D01*
X683Y515D01*
X683Y513D01*
X685Y513D01*
X685Y511D01*
X687Y511D01*
X687Y509D01*
X689Y509D01*
X689Y507D01*
X691Y507D01*
X691Y505D01*
X1275Y505D01*
X1275Y507D01*
X1277Y507D01*
X1277Y509D01*
X1279Y509D01*
X1279Y511D01*
X1281Y511D01*
X1281Y513D01*
X1283Y513D01*
X1283Y515D01*
X1285Y515D01*
X1285Y517D01*
X1287Y517D01*
X1287Y519D01*
X1289Y519D01*
X1289Y521D01*
X1291Y521D01*
X1291Y523D01*
X1293Y523D01*
X1293Y525D01*
X1295Y525D01*
X1295Y527D01*
X1297Y527D01*
X1297Y529D01*
X1299Y529D01*
X1299Y531D01*
X1301Y531D01*
X1301Y533D01*
X1303Y533D01*
X1303Y535D01*
X1305Y535D01*
X1305Y537D01*
X1307Y537D01*
X1307Y539D01*
X1309Y539D01*
X1309Y541D01*
X1311Y541D01*
X1311Y543D01*
X1313Y543D01*
X1313Y545D01*
X653Y545D01*
G37*
D02*
G36*
X25Y957D02*
X25Y833D01*
X895Y833D01*
X895Y831D01*
X901Y831D01*
X901Y829D01*
X905Y829D01*
X905Y827D01*
X909Y827D01*
X909Y825D01*
X1371Y825D01*
X1371Y827D01*
X1363Y827D01*
X1363Y829D01*
X1359Y829D01*
X1359Y831D01*
X1355Y831D01*
X1355Y833D01*
X1351Y833D01*
X1351Y835D01*
X1349Y835D01*
X1349Y837D01*
X1347Y837D01*
X1347Y839D01*
X1343Y839D01*
X1343Y841D01*
X1341Y841D01*
X1341Y843D01*
X1339Y843D01*
X1339Y847D01*
X1337Y847D01*
X1337Y849D01*
X1335Y849D01*
X1335Y851D01*
X1333Y851D01*
X1333Y855D01*
X1331Y855D01*
X1331Y859D01*
X1329Y859D01*
X1329Y865D01*
X1327Y865D01*
X1327Y871D01*
X1325Y871D01*
X1325Y895D01*
X1327Y895D01*
X1327Y903D01*
X1329Y903D01*
X1329Y909D01*
X1331Y909D01*
X1331Y913D01*
X1333Y913D01*
X1333Y915D01*
X1335Y915D01*
X1335Y919D01*
X1337Y919D01*
X1337Y921D01*
X1339Y921D01*
X1339Y923D01*
X1341Y923D01*
X1341Y925D01*
X1343Y925D01*
X1343Y927D01*
X1345Y927D01*
X1345Y929D01*
X1347Y929D01*
X1347Y931D01*
X1349Y931D01*
X1349Y933D01*
X1353Y933D01*
X1353Y935D01*
X1357Y935D01*
X1357Y937D01*
X1361Y937D01*
X1361Y957D01*
X25Y957D01*
G37*
D02*
G36*
X1427Y845D02*
X1427Y843D01*
X1425Y843D01*
X1425Y841D01*
X1423Y841D01*
X1423Y839D01*
X1421Y839D01*
X1421Y837D01*
X1419Y837D01*
X1419Y835D01*
X1417Y835D01*
X1417Y833D01*
X1413Y833D01*
X1413Y831D01*
X1409Y831D01*
X1409Y829D01*
X1405Y829D01*
X1405Y827D01*
X1397Y827D01*
X1397Y825D01*
X1447Y825D01*
X1447Y845D01*
X1427Y845D01*
G37*
D02*
G36*
X25Y833D02*
X25Y733D01*
X395Y733D01*
X395Y731D01*
X401Y731D01*
X401Y729D01*
X405Y729D01*
X405Y727D01*
X409Y727D01*
X409Y725D01*
X413Y725D01*
X413Y723D01*
X415Y723D01*
X415Y721D01*
X417Y721D01*
X417Y719D01*
X419Y719D01*
X419Y717D01*
X421Y717D01*
X421Y715D01*
X423Y715D01*
X423Y713D01*
X425Y713D01*
X425Y709D01*
X427Y709D01*
X427Y705D01*
X429Y705D01*
X429Y701D01*
X431Y701D01*
X431Y695D01*
X433Y695D01*
X433Y673D01*
X431Y673D01*
X431Y665D01*
X429Y665D01*
X429Y661D01*
X427Y661D01*
X427Y657D01*
X425Y657D01*
X425Y655D01*
X423Y655D01*
X423Y653D01*
X421Y653D01*
X421Y649D01*
X419Y649D01*
X419Y647D01*
X415Y647D01*
X415Y645D01*
X413Y645D01*
X413Y643D01*
X411Y643D01*
X411Y641D01*
X407Y641D01*
X407Y639D01*
X403Y639D01*
X403Y637D01*
X397Y637D01*
X397Y635D01*
X385Y635D01*
X385Y633D01*
X503Y633D01*
X503Y635D01*
X501Y635D01*
X501Y637D01*
X499Y637D01*
X499Y639D01*
X497Y639D01*
X497Y641D01*
X495Y641D01*
X495Y643D01*
X493Y643D01*
X493Y645D01*
X491Y645D01*
X491Y647D01*
X489Y647D01*
X489Y649D01*
X487Y649D01*
X487Y651D01*
X485Y651D01*
X485Y653D01*
X483Y653D01*
X483Y655D01*
X481Y655D01*
X481Y657D01*
X479Y657D01*
X479Y659D01*
X477Y659D01*
X477Y661D01*
X475Y661D01*
X475Y663D01*
X473Y663D01*
X473Y665D01*
X471Y665D01*
X471Y667D01*
X469Y667D01*
X469Y669D01*
X467Y669D01*
X467Y673D01*
X465Y673D01*
X465Y677D01*
X463Y677D01*
X463Y739D01*
X461Y739D01*
X461Y741D01*
X457Y741D01*
X457Y743D01*
X455Y743D01*
X455Y745D01*
X451Y745D01*
X451Y747D01*
X449Y747D01*
X449Y749D01*
X447Y749D01*
X447Y751D01*
X445Y751D01*
X445Y755D01*
X443Y755D01*
X443Y757D01*
X441Y757D01*
X441Y761D01*
X439Y761D01*
X439Y765D01*
X437Y765D01*
X437Y771D01*
X435Y771D01*
X435Y797D01*
X437Y797D01*
X437Y803D01*
X439Y803D01*
X439Y807D01*
X441Y807D01*
X441Y811D01*
X443Y811D01*
X443Y813D01*
X445Y813D01*
X445Y815D01*
X447Y815D01*
X447Y817D01*
X449Y817D01*
X449Y819D01*
X451Y819D01*
X451Y821D01*
X453Y821D01*
X453Y823D01*
X455Y823D01*
X455Y825D01*
X459Y825D01*
X459Y827D01*
X463Y827D01*
X463Y829D01*
X467Y829D01*
X467Y831D01*
X473Y831D01*
X473Y833D01*
X25Y833D01*
G37*
D02*
G36*
X495Y833D02*
X495Y831D01*
X501Y831D01*
X501Y829D01*
X505Y829D01*
X505Y827D01*
X509Y827D01*
X509Y825D01*
X513Y825D01*
X513Y823D01*
X515Y823D01*
X515Y821D01*
X517Y821D01*
X517Y819D01*
X519Y819D01*
X519Y817D01*
X521Y817D01*
X521Y815D01*
X523Y815D01*
X523Y813D01*
X545Y813D01*
X545Y815D01*
X547Y815D01*
X547Y817D01*
X549Y817D01*
X549Y819D01*
X551Y819D01*
X551Y821D01*
X553Y821D01*
X553Y823D01*
X555Y823D01*
X555Y825D01*
X559Y825D01*
X559Y827D01*
X563Y827D01*
X563Y829D01*
X567Y829D01*
X567Y831D01*
X573Y831D01*
X573Y833D01*
X495Y833D01*
G37*
D02*
G36*
X595Y833D02*
X595Y831D01*
X601Y831D01*
X601Y829D01*
X605Y829D01*
X605Y827D01*
X609Y827D01*
X609Y825D01*
X613Y825D01*
X613Y823D01*
X615Y823D01*
X615Y821D01*
X617Y821D01*
X617Y819D01*
X619Y819D01*
X619Y817D01*
X621Y817D01*
X621Y815D01*
X623Y815D01*
X623Y813D01*
X645Y813D01*
X645Y815D01*
X647Y815D01*
X647Y817D01*
X649Y817D01*
X649Y819D01*
X651Y819D01*
X651Y821D01*
X653Y821D01*
X653Y823D01*
X655Y823D01*
X655Y825D01*
X659Y825D01*
X659Y827D01*
X663Y827D01*
X663Y829D01*
X667Y829D01*
X667Y831D01*
X673Y831D01*
X673Y833D01*
X595Y833D01*
G37*
D02*
G36*
X695Y833D02*
X695Y831D01*
X701Y831D01*
X701Y829D01*
X705Y829D01*
X705Y827D01*
X709Y827D01*
X709Y825D01*
X713Y825D01*
X713Y823D01*
X715Y823D01*
X715Y821D01*
X717Y821D01*
X717Y819D01*
X719Y819D01*
X719Y817D01*
X721Y817D01*
X721Y815D01*
X723Y815D01*
X723Y813D01*
X745Y813D01*
X745Y815D01*
X747Y815D01*
X747Y817D01*
X749Y817D01*
X749Y819D01*
X751Y819D01*
X751Y821D01*
X753Y821D01*
X753Y823D01*
X755Y823D01*
X755Y825D01*
X759Y825D01*
X759Y827D01*
X763Y827D01*
X763Y829D01*
X767Y829D01*
X767Y831D01*
X773Y831D01*
X773Y833D01*
X695Y833D01*
G37*
D02*
G36*
X795Y833D02*
X795Y831D01*
X801Y831D01*
X801Y829D01*
X805Y829D01*
X805Y827D01*
X809Y827D01*
X809Y825D01*
X813Y825D01*
X813Y823D01*
X815Y823D01*
X815Y821D01*
X817Y821D01*
X817Y819D01*
X819Y819D01*
X819Y817D01*
X821Y817D01*
X821Y815D01*
X823Y815D01*
X823Y813D01*
X845Y813D01*
X845Y815D01*
X847Y815D01*
X847Y817D01*
X849Y817D01*
X849Y819D01*
X851Y819D01*
X851Y821D01*
X853Y821D01*
X853Y823D01*
X855Y823D01*
X855Y825D01*
X859Y825D01*
X859Y827D01*
X863Y827D01*
X863Y829D01*
X867Y829D01*
X867Y831D01*
X873Y831D01*
X873Y833D01*
X795Y833D01*
G37*
D02*
G36*
X913Y825D02*
X913Y823D01*
X1447Y823D01*
X1447Y825D01*
X913Y825D01*
G37*
D02*
G36*
X913Y825D02*
X913Y823D01*
X1447Y823D01*
X1447Y825D01*
X913Y825D01*
G37*
D02*
G36*
X915Y823D02*
X915Y821D01*
X917Y821D01*
X917Y819D01*
X919Y819D01*
X919Y817D01*
X921Y817D01*
X921Y815D01*
X923Y815D01*
X923Y813D01*
X925Y813D01*
X925Y809D01*
X927Y809D01*
X927Y807D01*
X1287Y807D01*
X1287Y805D01*
X1293Y805D01*
X1293Y803D01*
X1297Y803D01*
X1297Y801D01*
X1299Y801D01*
X1299Y799D01*
X1301Y799D01*
X1301Y797D01*
X1303Y797D01*
X1303Y795D01*
X1305Y795D01*
X1305Y793D01*
X1307Y793D01*
X1307Y791D01*
X1309Y791D01*
X1309Y789D01*
X1311Y789D01*
X1311Y787D01*
X1313Y787D01*
X1313Y785D01*
X1315Y785D01*
X1315Y783D01*
X1317Y783D01*
X1317Y781D01*
X1319Y781D01*
X1319Y779D01*
X1321Y779D01*
X1321Y777D01*
X1323Y777D01*
X1323Y775D01*
X1325Y775D01*
X1325Y773D01*
X1327Y773D01*
X1327Y771D01*
X1329Y771D01*
X1329Y769D01*
X1331Y769D01*
X1331Y767D01*
X1333Y767D01*
X1333Y765D01*
X1335Y765D01*
X1335Y763D01*
X1337Y763D01*
X1337Y761D01*
X1339Y761D01*
X1339Y759D01*
X1341Y759D01*
X1341Y757D01*
X1343Y757D01*
X1343Y755D01*
X1345Y755D01*
X1345Y753D01*
X1347Y753D01*
X1347Y751D01*
X1349Y751D01*
X1349Y749D01*
X1351Y749D01*
X1351Y747D01*
X1353Y747D01*
X1353Y745D01*
X1355Y745D01*
X1355Y743D01*
X1357Y743D01*
X1357Y741D01*
X1359Y741D01*
X1359Y739D01*
X1361Y739D01*
X1361Y737D01*
X1363Y737D01*
X1363Y735D01*
X1365Y735D01*
X1365Y733D01*
X1367Y733D01*
X1367Y731D01*
X1369Y731D01*
X1369Y729D01*
X1371Y729D01*
X1371Y727D01*
X1373Y727D01*
X1373Y725D01*
X1375Y725D01*
X1375Y723D01*
X1377Y723D01*
X1377Y721D01*
X1379Y721D01*
X1379Y719D01*
X1419Y719D01*
X1419Y717D01*
X1425Y717D01*
X1425Y715D01*
X1447Y715D01*
X1447Y823D01*
X915Y823D01*
G37*
D02*
G36*
X927Y807D02*
X927Y805D01*
X929Y805D01*
X929Y801D01*
X931Y801D01*
X931Y795D01*
X933Y795D01*
X933Y773D01*
X931Y773D01*
X931Y765D01*
X929Y765D01*
X929Y761D01*
X927Y761D01*
X927Y757D01*
X925Y757D01*
X925Y755D01*
X923Y755D01*
X923Y753D01*
X921Y753D01*
X921Y749D01*
X919Y749D01*
X919Y747D01*
X915Y747D01*
X915Y745D01*
X913Y745D01*
X913Y743D01*
X911Y743D01*
X911Y741D01*
X907Y741D01*
X907Y739D01*
X903Y739D01*
X903Y737D01*
X897Y737D01*
X897Y735D01*
X885Y735D01*
X885Y733D01*
X1003Y733D01*
X1003Y735D01*
X1005Y735D01*
X1005Y737D01*
X1007Y737D01*
X1007Y739D01*
X1009Y739D01*
X1009Y741D01*
X1011Y741D01*
X1011Y743D01*
X1013Y743D01*
X1013Y745D01*
X1015Y745D01*
X1015Y747D01*
X1017Y747D01*
X1017Y749D01*
X1019Y749D01*
X1019Y751D01*
X1021Y751D01*
X1021Y753D01*
X1023Y753D01*
X1023Y755D01*
X1025Y755D01*
X1025Y757D01*
X1027Y757D01*
X1027Y759D01*
X1029Y759D01*
X1029Y761D01*
X1031Y761D01*
X1031Y763D01*
X1033Y763D01*
X1033Y765D01*
X1035Y765D01*
X1035Y767D01*
X1037Y767D01*
X1037Y769D01*
X1039Y769D01*
X1039Y771D01*
X1041Y771D01*
X1041Y773D01*
X1043Y773D01*
X1043Y775D01*
X1045Y775D01*
X1045Y777D01*
X1047Y777D01*
X1047Y779D01*
X1049Y779D01*
X1049Y781D01*
X1051Y781D01*
X1051Y783D01*
X1053Y783D01*
X1053Y785D01*
X1055Y785D01*
X1055Y787D01*
X1057Y787D01*
X1057Y789D01*
X1059Y789D01*
X1059Y791D01*
X1061Y791D01*
X1061Y793D01*
X1063Y793D01*
X1063Y795D01*
X1065Y795D01*
X1065Y797D01*
X1067Y797D01*
X1067Y799D01*
X1071Y799D01*
X1071Y801D01*
X1073Y801D01*
X1073Y803D01*
X1079Y803D01*
X1079Y805D01*
X1231Y805D01*
X1231Y807D01*
X927Y807D01*
G37*
D02*
G36*
X623Y755D02*
X623Y753D01*
X621Y753D01*
X621Y749D01*
X619Y749D01*
X619Y747D01*
X615Y747D01*
X615Y745D01*
X613Y745D01*
X613Y743D01*
X611Y743D01*
X611Y741D01*
X607Y741D01*
X607Y739D01*
X605Y739D01*
X605Y733D01*
X681Y733D01*
X681Y735D01*
X671Y735D01*
X671Y737D01*
X665Y737D01*
X665Y739D01*
X661Y739D01*
X661Y741D01*
X657Y741D01*
X657Y743D01*
X655Y743D01*
X655Y745D01*
X651Y745D01*
X651Y747D01*
X649Y747D01*
X649Y749D01*
X647Y749D01*
X647Y751D01*
X645Y751D01*
X645Y755D01*
X623Y755D01*
G37*
D02*
G36*
X723Y755D02*
X723Y753D01*
X721Y753D01*
X721Y749D01*
X719Y749D01*
X719Y747D01*
X715Y747D01*
X715Y745D01*
X713Y745D01*
X713Y743D01*
X711Y743D01*
X711Y741D01*
X707Y741D01*
X707Y739D01*
X703Y739D01*
X703Y737D01*
X697Y737D01*
X697Y735D01*
X685Y735D01*
X685Y733D01*
X755Y733D01*
X755Y745D01*
X751Y745D01*
X751Y747D01*
X749Y747D01*
X749Y749D01*
X747Y749D01*
X747Y751D01*
X745Y751D01*
X745Y755D01*
X723Y755D01*
G37*
D02*
G36*
X823Y755D02*
X823Y753D01*
X821Y753D01*
X821Y749D01*
X819Y749D01*
X819Y747D01*
X815Y747D01*
X815Y745D01*
X813Y745D01*
X813Y733D01*
X881Y733D01*
X881Y735D01*
X871Y735D01*
X871Y737D01*
X865Y737D01*
X865Y739D01*
X861Y739D01*
X861Y741D01*
X857Y741D01*
X857Y743D01*
X855Y743D01*
X855Y745D01*
X851Y745D01*
X851Y747D01*
X849Y747D01*
X849Y749D01*
X847Y749D01*
X847Y751D01*
X845Y751D01*
X845Y755D01*
X823Y755D01*
G37*
D02*
G36*
X25Y733D02*
X25Y713D01*
X45Y713D01*
X45Y715D01*
X47Y715D01*
X47Y717D01*
X49Y717D01*
X49Y719D01*
X51Y719D01*
X51Y721D01*
X53Y721D01*
X53Y723D01*
X55Y723D01*
X55Y725D01*
X59Y725D01*
X59Y727D01*
X63Y727D01*
X63Y729D01*
X67Y729D01*
X67Y731D01*
X73Y731D01*
X73Y733D01*
X25Y733D01*
G37*
D02*
G36*
X95Y733D02*
X95Y731D01*
X101Y731D01*
X101Y729D01*
X105Y729D01*
X105Y727D01*
X109Y727D01*
X109Y725D01*
X113Y725D01*
X113Y723D01*
X115Y723D01*
X115Y721D01*
X117Y721D01*
X117Y719D01*
X119Y719D01*
X119Y717D01*
X121Y717D01*
X121Y715D01*
X123Y715D01*
X123Y713D01*
X145Y713D01*
X145Y715D01*
X147Y715D01*
X147Y717D01*
X149Y717D01*
X149Y719D01*
X151Y719D01*
X151Y721D01*
X153Y721D01*
X153Y723D01*
X155Y723D01*
X155Y725D01*
X159Y725D01*
X159Y727D01*
X163Y727D01*
X163Y729D01*
X167Y729D01*
X167Y731D01*
X173Y731D01*
X173Y733D01*
X95Y733D01*
G37*
D02*
G36*
X195Y733D02*
X195Y731D01*
X201Y731D01*
X201Y729D01*
X205Y729D01*
X205Y727D01*
X209Y727D01*
X209Y725D01*
X213Y725D01*
X213Y723D01*
X215Y723D01*
X215Y721D01*
X217Y721D01*
X217Y719D01*
X219Y719D01*
X219Y717D01*
X221Y717D01*
X221Y715D01*
X223Y715D01*
X223Y713D01*
X245Y713D01*
X245Y715D01*
X247Y715D01*
X247Y717D01*
X249Y717D01*
X249Y719D01*
X251Y719D01*
X251Y721D01*
X253Y721D01*
X253Y723D01*
X255Y723D01*
X255Y725D01*
X259Y725D01*
X259Y727D01*
X263Y727D01*
X263Y729D01*
X267Y729D01*
X267Y731D01*
X273Y731D01*
X273Y733D01*
X195Y733D01*
G37*
D02*
G36*
X295Y733D02*
X295Y731D01*
X301Y731D01*
X301Y729D01*
X305Y729D01*
X305Y727D01*
X309Y727D01*
X309Y725D01*
X313Y725D01*
X313Y723D01*
X315Y723D01*
X315Y721D01*
X317Y721D01*
X317Y719D01*
X319Y719D01*
X319Y717D01*
X321Y717D01*
X321Y715D01*
X323Y715D01*
X323Y713D01*
X345Y713D01*
X345Y715D01*
X347Y715D01*
X347Y717D01*
X349Y717D01*
X349Y719D01*
X351Y719D01*
X351Y721D01*
X353Y721D01*
X353Y723D01*
X355Y723D01*
X355Y725D01*
X359Y725D01*
X359Y727D01*
X363Y727D01*
X363Y729D01*
X367Y729D01*
X367Y731D01*
X373Y731D01*
X373Y733D01*
X295Y733D01*
G37*
D02*
G36*
X605Y733D02*
X605Y731D01*
X755Y731D01*
X755Y733D01*
X605Y733D01*
G37*
D02*
G36*
X605Y733D02*
X605Y731D01*
X755Y731D01*
X755Y733D01*
X605Y733D01*
G37*
D02*
G36*
X813Y733D02*
X813Y731D01*
X1001Y731D01*
X1001Y733D01*
X813Y733D01*
G37*
D02*
G36*
X813Y733D02*
X813Y731D01*
X1001Y731D01*
X1001Y733D01*
X813Y733D01*
G37*
D02*
G36*
X605Y731D02*
X605Y693D01*
X607Y693D01*
X607Y691D01*
X609Y691D01*
X609Y689D01*
X611Y689D01*
X611Y687D01*
X613Y687D01*
X613Y685D01*
X615Y685D01*
X615Y683D01*
X617Y683D01*
X617Y681D01*
X619Y681D01*
X619Y679D01*
X621Y679D01*
X621Y677D01*
X623Y677D01*
X623Y675D01*
X625Y675D01*
X625Y673D01*
X627Y673D01*
X627Y671D01*
X629Y671D01*
X629Y669D01*
X631Y669D01*
X631Y667D01*
X633Y667D01*
X633Y665D01*
X635Y665D01*
X635Y663D01*
X637Y663D01*
X637Y661D01*
X639Y661D01*
X639Y659D01*
X641Y659D01*
X641Y657D01*
X643Y657D01*
X643Y655D01*
X645Y655D01*
X645Y653D01*
X647Y653D01*
X647Y651D01*
X649Y651D01*
X649Y649D01*
X651Y649D01*
X651Y647D01*
X653Y647D01*
X653Y645D01*
X655Y645D01*
X655Y643D01*
X657Y643D01*
X657Y641D01*
X659Y641D01*
X659Y639D01*
X661Y639D01*
X661Y637D01*
X663Y637D01*
X663Y635D01*
X665Y635D01*
X665Y633D01*
X781Y633D01*
X781Y635D01*
X771Y635D01*
X771Y637D01*
X765Y637D01*
X765Y639D01*
X761Y639D01*
X761Y641D01*
X757Y641D01*
X757Y643D01*
X755Y643D01*
X755Y645D01*
X751Y645D01*
X751Y647D01*
X749Y647D01*
X749Y649D01*
X747Y649D01*
X747Y651D01*
X745Y651D01*
X745Y655D01*
X743Y655D01*
X743Y657D01*
X741Y657D01*
X741Y661D01*
X739Y661D01*
X739Y665D01*
X737Y665D01*
X737Y671D01*
X735Y671D01*
X735Y697D01*
X737Y697D01*
X737Y703D01*
X739Y703D01*
X739Y707D01*
X741Y707D01*
X741Y711D01*
X743Y711D01*
X743Y713D01*
X745Y713D01*
X745Y715D01*
X747Y715D01*
X747Y717D01*
X749Y717D01*
X749Y719D01*
X751Y719D01*
X751Y721D01*
X753Y721D01*
X753Y723D01*
X755Y723D01*
X755Y731D01*
X605Y731D01*
G37*
D02*
G36*
X813Y731D02*
X813Y723D01*
X815Y723D01*
X815Y721D01*
X817Y721D01*
X817Y719D01*
X819Y719D01*
X819Y717D01*
X821Y717D01*
X821Y715D01*
X823Y715D01*
X823Y713D01*
X825Y713D01*
X825Y709D01*
X827Y709D01*
X827Y705D01*
X829Y705D01*
X829Y701D01*
X831Y701D01*
X831Y695D01*
X833Y695D01*
X833Y673D01*
X831Y673D01*
X831Y665D01*
X829Y665D01*
X829Y661D01*
X827Y661D01*
X827Y657D01*
X825Y657D01*
X825Y655D01*
X823Y655D01*
X823Y653D01*
X821Y653D01*
X821Y649D01*
X819Y649D01*
X819Y647D01*
X815Y647D01*
X815Y645D01*
X813Y645D01*
X813Y643D01*
X811Y643D01*
X811Y641D01*
X807Y641D01*
X807Y639D01*
X803Y639D01*
X803Y637D01*
X797Y637D01*
X797Y635D01*
X785Y635D01*
X785Y633D01*
X903Y633D01*
X903Y635D01*
X905Y635D01*
X905Y637D01*
X907Y637D01*
X907Y639D01*
X909Y639D01*
X909Y641D01*
X911Y641D01*
X911Y643D01*
X913Y643D01*
X913Y645D01*
X915Y645D01*
X915Y647D01*
X917Y647D01*
X917Y649D01*
X919Y649D01*
X919Y651D01*
X921Y651D01*
X921Y653D01*
X923Y653D01*
X923Y655D01*
X925Y655D01*
X925Y657D01*
X927Y657D01*
X927Y659D01*
X929Y659D01*
X929Y661D01*
X931Y661D01*
X931Y663D01*
X933Y663D01*
X933Y665D01*
X935Y665D01*
X935Y667D01*
X937Y667D01*
X937Y669D01*
X939Y669D01*
X939Y671D01*
X941Y671D01*
X941Y673D01*
X943Y673D01*
X943Y675D01*
X945Y675D01*
X945Y677D01*
X947Y677D01*
X947Y679D01*
X949Y679D01*
X949Y681D01*
X951Y681D01*
X951Y683D01*
X953Y683D01*
X953Y685D01*
X955Y685D01*
X955Y687D01*
X957Y687D01*
X957Y689D01*
X959Y689D01*
X959Y691D01*
X961Y691D01*
X961Y693D01*
X963Y693D01*
X963Y695D01*
X965Y695D01*
X965Y697D01*
X967Y697D01*
X967Y699D01*
X969Y699D01*
X969Y701D01*
X971Y701D01*
X971Y703D01*
X973Y703D01*
X973Y705D01*
X975Y705D01*
X975Y707D01*
X977Y707D01*
X977Y709D01*
X979Y709D01*
X979Y711D01*
X981Y711D01*
X981Y713D01*
X983Y713D01*
X983Y715D01*
X985Y715D01*
X985Y717D01*
X987Y717D01*
X987Y719D01*
X989Y719D01*
X989Y721D01*
X991Y721D01*
X991Y723D01*
X993Y723D01*
X993Y725D01*
X995Y725D01*
X995Y727D01*
X997Y727D01*
X997Y729D01*
X999Y729D01*
X999Y731D01*
X813Y731D01*
G37*
D02*
G36*
X25Y655D02*
X25Y143D01*
X93Y143D01*
X93Y141D01*
X101Y141D01*
X101Y139D01*
X107Y139D01*
X107Y137D01*
X111Y137D01*
X111Y135D01*
X115Y135D01*
X115Y133D01*
X117Y133D01*
X117Y131D01*
X121Y131D01*
X121Y129D01*
X123Y129D01*
X123Y127D01*
X125Y127D01*
X125Y125D01*
X127Y125D01*
X127Y123D01*
X129Y123D01*
X129Y121D01*
X131Y121D01*
X131Y117D01*
X133Y117D01*
X133Y115D01*
X135Y115D01*
X135Y111D01*
X137Y111D01*
X137Y107D01*
X139Y107D01*
X139Y103D01*
X141Y103D01*
X141Y93D01*
X143Y93D01*
X143Y73D01*
X141Y73D01*
X141Y65D01*
X139Y65D01*
X139Y61D01*
X563Y61D01*
X563Y63D01*
X277Y63D01*
X277Y65D01*
X273Y65D01*
X273Y67D01*
X271Y67D01*
X271Y69D01*
X267Y69D01*
X267Y71D01*
X265Y71D01*
X265Y73D01*
X263Y73D01*
X263Y75D01*
X261Y75D01*
X261Y77D01*
X259Y77D01*
X259Y79D01*
X257Y79D01*
X257Y81D01*
X255Y81D01*
X255Y83D01*
X253Y83D01*
X253Y85D01*
X251Y85D01*
X251Y87D01*
X249Y87D01*
X249Y89D01*
X247Y89D01*
X247Y91D01*
X245Y91D01*
X245Y93D01*
X243Y93D01*
X243Y95D01*
X241Y95D01*
X241Y97D01*
X239Y97D01*
X239Y99D01*
X237Y99D01*
X237Y101D01*
X235Y101D01*
X235Y103D01*
X233Y103D01*
X233Y105D01*
X231Y105D01*
X231Y107D01*
X229Y107D01*
X229Y109D01*
X227Y109D01*
X227Y111D01*
X225Y111D01*
X225Y113D01*
X223Y113D01*
X223Y115D01*
X221Y115D01*
X221Y117D01*
X219Y117D01*
X219Y119D01*
X217Y119D01*
X217Y121D01*
X215Y121D01*
X215Y123D01*
X213Y123D01*
X213Y125D01*
X211Y125D01*
X211Y127D01*
X209Y127D01*
X209Y129D01*
X207Y129D01*
X207Y131D01*
X205Y131D01*
X205Y133D01*
X203Y133D01*
X203Y135D01*
X201Y135D01*
X201Y137D01*
X199Y137D01*
X199Y139D01*
X197Y139D01*
X197Y141D01*
X195Y141D01*
X195Y143D01*
X193Y143D01*
X193Y145D01*
X191Y145D01*
X191Y147D01*
X189Y147D01*
X189Y149D01*
X187Y149D01*
X187Y151D01*
X185Y151D01*
X185Y153D01*
X183Y153D01*
X183Y155D01*
X181Y155D01*
X181Y157D01*
X177Y157D01*
X177Y159D01*
X175Y159D01*
X175Y161D01*
X173Y161D01*
X173Y163D01*
X171Y163D01*
X171Y165D01*
X169Y165D01*
X169Y167D01*
X167Y167D01*
X167Y169D01*
X165Y169D01*
X165Y171D01*
X163Y171D01*
X163Y173D01*
X161Y173D01*
X161Y175D01*
X159Y175D01*
X159Y177D01*
X157Y177D01*
X157Y179D01*
X155Y179D01*
X155Y181D01*
X153Y181D01*
X153Y183D01*
X151Y183D01*
X151Y185D01*
X149Y185D01*
X149Y187D01*
X147Y187D01*
X147Y189D01*
X145Y189D01*
X145Y191D01*
X143Y191D01*
X143Y193D01*
X141Y193D01*
X141Y195D01*
X139Y195D01*
X139Y197D01*
X137Y197D01*
X137Y199D01*
X135Y199D01*
X135Y201D01*
X133Y201D01*
X133Y203D01*
X131Y203D01*
X131Y205D01*
X129Y205D01*
X129Y207D01*
X127Y207D01*
X127Y209D01*
X125Y209D01*
X125Y211D01*
X123Y211D01*
X123Y213D01*
X121Y213D01*
X121Y215D01*
X119Y215D01*
X119Y217D01*
X117Y217D01*
X117Y219D01*
X115Y219D01*
X115Y221D01*
X113Y221D01*
X113Y223D01*
X111Y223D01*
X111Y225D01*
X109Y225D01*
X109Y227D01*
X107Y227D01*
X107Y229D01*
X105Y229D01*
X105Y231D01*
X103Y231D01*
X103Y233D01*
X101Y233D01*
X101Y235D01*
X99Y235D01*
X99Y237D01*
X97Y237D01*
X97Y239D01*
X95Y239D01*
X95Y241D01*
X93Y241D01*
X93Y243D01*
X91Y243D01*
X91Y245D01*
X89Y245D01*
X89Y247D01*
X87Y247D01*
X87Y249D01*
X85Y249D01*
X85Y251D01*
X83Y251D01*
X83Y253D01*
X81Y253D01*
X81Y255D01*
X79Y255D01*
X79Y257D01*
X77Y257D01*
X77Y259D01*
X75Y259D01*
X75Y261D01*
X73Y261D01*
X73Y263D01*
X71Y263D01*
X71Y265D01*
X69Y265D01*
X69Y267D01*
X67Y267D01*
X67Y271D01*
X65Y271D01*
X65Y273D01*
X63Y273D01*
X63Y283D01*
X61Y283D01*
X61Y641D01*
X57Y641D01*
X57Y643D01*
X55Y643D01*
X55Y645D01*
X51Y645D01*
X51Y647D01*
X49Y647D01*
X49Y649D01*
X47Y649D01*
X47Y651D01*
X45Y651D01*
X45Y655D01*
X25Y655D01*
G37*
D02*
G36*
X323Y655D02*
X323Y653D01*
X321Y653D01*
X321Y649D01*
X319Y649D01*
X319Y647D01*
X315Y647D01*
X315Y645D01*
X313Y645D01*
X313Y643D01*
X311Y643D01*
X311Y641D01*
X307Y641D01*
X307Y633D01*
X381Y633D01*
X381Y635D01*
X371Y635D01*
X371Y637D01*
X365Y637D01*
X365Y639D01*
X361Y639D01*
X361Y641D01*
X357Y641D01*
X357Y643D01*
X355Y643D01*
X355Y645D01*
X351Y645D01*
X351Y647D01*
X349Y647D01*
X349Y649D01*
X347Y649D01*
X347Y651D01*
X345Y651D01*
X345Y655D01*
X323Y655D01*
G37*
D02*
G36*
X307Y633D02*
X307Y631D01*
X505Y631D01*
X505Y633D01*
X307Y633D01*
G37*
D02*
G36*
X307Y633D02*
X307Y631D01*
X505Y631D01*
X505Y633D01*
X307Y633D01*
G37*
D02*
G36*
X667Y633D02*
X667Y631D01*
X901Y631D01*
X901Y633D01*
X667Y633D01*
G37*
D02*
G36*
X667Y633D02*
X667Y631D01*
X901Y631D01*
X901Y633D01*
X667Y633D01*
G37*
D02*
G36*
X307Y631D02*
X307Y491D01*
X309Y491D01*
X309Y489D01*
X311Y489D01*
X311Y487D01*
X313Y487D01*
X313Y485D01*
X315Y485D01*
X315Y483D01*
X317Y483D01*
X317Y481D01*
X319Y481D01*
X319Y479D01*
X321Y479D01*
X321Y477D01*
X323Y477D01*
X323Y475D01*
X325Y475D01*
X325Y473D01*
X327Y473D01*
X327Y471D01*
X329Y471D01*
X329Y469D01*
X331Y469D01*
X331Y467D01*
X333Y467D01*
X333Y465D01*
X335Y465D01*
X335Y463D01*
X337Y463D01*
X337Y461D01*
X677Y461D01*
X677Y463D01*
X673Y463D01*
X673Y465D01*
X669Y465D01*
X669Y467D01*
X667Y467D01*
X667Y469D01*
X665Y469D01*
X665Y471D01*
X663Y471D01*
X663Y473D01*
X661Y473D01*
X661Y475D01*
X659Y475D01*
X659Y477D01*
X657Y477D01*
X657Y479D01*
X655Y479D01*
X655Y481D01*
X653Y481D01*
X653Y483D01*
X651Y483D01*
X651Y485D01*
X649Y485D01*
X649Y487D01*
X647Y487D01*
X647Y489D01*
X645Y489D01*
X645Y491D01*
X643Y491D01*
X643Y493D01*
X641Y493D01*
X641Y495D01*
X639Y495D01*
X639Y497D01*
X637Y497D01*
X637Y499D01*
X635Y499D01*
X635Y501D01*
X633Y501D01*
X633Y503D01*
X631Y503D01*
X631Y505D01*
X629Y505D01*
X629Y507D01*
X627Y507D01*
X627Y509D01*
X625Y509D01*
X625Y511D01*
X623Y511D01*
X623Y513D01*
X621Y513D01*
X621Y515D01*
X619Y515D01*
X619Y517D01*
X617Y517D01*
X617Y519D01*
X615Y519D01*
X615Y521D01*
X613Y521D01*
X613Y523D01*
X611Y523D01*
X611Y525D01*
X609Y525D01*
X609Y527D01*
X607Y527D01*
X607Y529D01*
X605Y529D01*
X605Y531D01*
X603Y531D01*
X603Y533D01*
X601Y533D01*
X601Y535D01*
X599Y535D01*
X599Y537D01*
X597Y537D01*
X597Y541D01*
X595Y541D01*
X595Y543D01*
X593Y543D01*
X593Y545D01*
X591Y545D01*
X591Y547D01*
X589Y547D01*
X589Y549D01*
X587Y549D01*
X587Y551D01*
X585Y551D01*
X585Y553D01*
X583Y553D01*
X583Y555D01*
X581Y555D01*
X581Y557D01*
X579Y557D01*
X579Y559D01*
X577Y559D01*
X577Y561D01*
X575Y561D01*
X575Y563D01*
X573Y563D01*
X573Y565D01*
X571Y565D01*
X571Y567D01*
X569Y567D01*
X569Y569D01*
X567Y569D01*
X567Y571D01*
X565Y571D01*
X565Y573D01*
X563Y573D01*
X563Y575D01*
X561Y575D01*
X561Y577D01*
X559Y577D01*
X559Y579D01*
X557Y579D01*
X557Y581D01*
X555Y581D01*
X555Y583D01*
X553Y583D01*
X553Y585D01*
X551Y585D01*
X551Y587D01*
X549Y587D01*
X549Y589D01*
X547Y589D01*
X547Y591D01*
X545Y591D01*
X545Y593D01*
X543Y593D01*
X543Y595D01*
X541Y595D01*
X541Y597D01*
X539Y597D01*
X539Y599D01*
X537Y599D01*
X537Y601D01*
X535Y601D01*
X535Y603D01*
X533Y603D01*
X533Y605D01*
X531Y605D01*
X531Y607D01*
X529Y607D01*
X529Y609D01*
X527Y609D01*
X527Y611D01*
X525Y611D01*
X525Y613D01*
X523Y613D01*
X523Y615D01*
X521Y615D01*
X521Y617D01*
X519Y617D01*
X519Y619D01*
X517Y619D01*
X517Y621D01*
X515Y621D01*
X515Y623D01*
X513Y623D01*
X513Y625D01*
X511Y625D01*
X511Y627D01*
X509Y627D01*
X509Y629D01*
X507Y629D01*
X507Y631D01*
X307Y631D01*
G37*
D02*
G36*
X669Y631D02*
X669Y629D01*
X671Y629D01*
X671Y627D01*
X673Y627D01*
X673Y625D01*
X675Y625D01*
X675Y623D01*
X677Y623D01*
X677Y621D01*
X679Y621D01*
X679Y619D01*
X681Y619D01*
X681Y617D01*
X683Y617D01*
X683Y615D01*
X685Y615D01*
X685Y613D01*
X687Y613D01*
X687Y611D01*
X689Y611D01*
X689Y609D01*
X691Y609D01*
X691Y607D01*
X875Y607D01*
X875Y609D01*
X877Y609D01*
X877Y611D01*
X879Y611D01*
X879Y613D01*
X881Y613D01*
X881Y615D01*
X885Y615D01*
X885Y617D01*
X887Y617D01*
X887Y619D01*
X889Y619D01*
X889Y621D01*
X891Y621D01*
X891Y623D01*
X893Y623D01*
X893Y625D01*
X895Y625D01*
X895Y627D01*
X897Y627D01*
X897Y629D01*
X899Y629D01*
X899Y631D01*
X669Y631D01*
G37*
D02*
G36*
X1427Y553D02*
X1427Y551D01*
X1421Y551D01*
X1421Y549D01*
X1413Y549D01*
X1413Y547D01*
X1377Y547D01*
X1377Y545D01*
X1375Y545D01*
X1375Y543D01*
X1373Y543D01*
X1373Y541D01*
X1371Y541D01*
X1371Y539D01*
X1369Y539D01*
X1369Y537D01*
X1367Y537D01*
X1367Y535D01*
X1365Y535D01*
X1365Y533D01*
X1363Y533D01*
X1363Y531D01*
X1361Y531D01*
X1361Y529D01*
X1359Y529D01*
X1359Y527D01*
X1357Y527D01*
X1357Y525D01*
X1355Y525D01*
X1355Y523D01*
X1353Y523D01*
X1353Y521D01*
X1351Y521D01*
X1351Y519D01*
X1349Y519D01*
X1349Y517D01*
X1347Y517D01*
X1347Y515D01*
X1345Y515D01*
X1345Y513D01*
X1343Y513D01*
X1343Y511D01*
X1341Y511D01*
X1341Y509D01*
X1339Y509D01*
X1339Y507D01*
X1337Y507D01*
X1337Y505D01*
X1335Y505D01*
X1335Y503D01*
X1333Y503D01*
X1333Y501D01*
X1331Y501D01*
X1331Y499D01*
X1329Y499D01*
X1329Y497D01*
X1327Y497D01*
X1327Y495D01*
X1325Y495D01*
X1325Y493D01*
X1323Y493D01*
X1323Y491D01*
X1321Y491D01*
X1321Y487D01*
X1319Y487D01*
X1319Y485D01*
X1317Y485D01*
X1317Y483D01*
X1315Y483D01*
X1315Y481D01*
X1313Y481D01*
X1313Y479D01*
X1311Y479D01*
X1311Y477D01*
X1309Y477D01*
X1309Y475D01*
X1307Y475D01*
X1307Y473D01*
X1305Y473D01*
X1305Y471D01*
X1303Y471D01*
X1303Y469D01*
X1301Y469D01*
X1301Y467D01*
X1297Y467D01*
X1297Y465D01*
X1295Y465D01*
X1295Y463D01*
X1289Y463D01*
X1289Y461D01*
X1447Y461D01*
X1447Y553D01*
X1427Y553D01*
G37*
D02*
G36*
X339Y461D02*
X339Y459D01*
X1447Y459D01*
X1447Y461D01*
X339Y461D01*
G37*
D02*
G36*
X339Y461D02*
X339Y459D01*
X1447Y459D01*
X1447Y461D01*
X339Y461D01*
G37*
D02*
G36*
X341Y459D02*
X341Y457D01*
X343Y457D01*
X343Y455D01*
X345Y455D01*
X345Y453D01*
X347Y453D01*
X347Y451D01*
X349Y451D01*
X349Y449D01*
X351Y449D01*
X351Y447D01*
X353Y447D01*
X353Y445D01*
X355Y445D01*
X355Y443D01*
X357Y443D01*
X357Y441D01*
X359Y441D01*
X359Y439D01*
X361Y439D01*
X361Y437D01*
X363Y437D01*
X363Y435D01*
X365Y435D01*
X365Y433D01*
X367Y433D01*
X367Y431D01*
X369Y431D01*
X369Y429D01*
X371Y429D01*
X371Y427D01*
X373Y427D01*
X373Y425D01*
X375Y425D01*
X375Y423D01*
X377Y423D01*
X377Y421D01*
X379Y421D01*
X379Y419D01*
X381Y419D01*
X381Y417D01*
X383Y417D01*
X383Y415D01*
X385Y415D01*
X385Y413D01*
X387Y413D01*
X387Y411D01*
X389Y411D01*
X389Y409D01*
X1343Y409D01*
X1343Y407D01*
X1353Y407D01*
X1353Y405D01*
X1359Y405D01*
X1359Y403D01*
X1363Y403D01*
X1363Y401D01*
X1365Y401D01*
X1365Y399D01*
X1369Y399D01*
X1369Y397D01*
X1371Y397D01*
X1371Y395D01*
X1373Y395D01*
X1373Y393D01*
X1375Y393D01*
X1375Y391D01*
X1377Y391D01*
X1377Y389D01*
X1379Y389D01*
X1379Y385D01*
X1381Y385D01*
X1381Y381D01*
X1383Y381D01*
X1383Y377D01*
X1385Y377D01*
X1385Y369D01*
X1387Y369D01*
X1387Y353D01*
X1385Y353D01*
X1385Y345D01*
X1383Y345D01*
X1383Y341D01*
X1381Y341D01*
X1381Y337D01*
X1379Y337D01*
X1379Y333D01*
X1377Y333D01*
X1377Y331D01*
X1375Y331D01*
X1375Y329D01*
X1373Y329D01*
X1373Y327D01*
X1371Y327D01*
X1371Y325D01*
X1369Y325D01*
X1369Y323D01*
X1367Y323D01*
X1367Y321D01*
X1363Y321D01*
X1363Y319D01*
X1359Y319D01*
X1359Y317D01*
X1355Y317D01*
X1355Y315D01*
X1347Y315D01*
X1347Y313D01*
X1447Y313D01*
X1447Y459D01*
X341Y459D01*
G37*
D02*
G36*
X391Y409D02*
X391Y407D01*
X393Y407D01*
X393Y405D01*
X395Y405D01*
X395Y403D01*
X397Y403D01*
X397Y401D01*
X399Y401D01*
X399Y399D01*
X401Y399D01*
X401Y397D01*
X403Y397D01*
X403Y395D01*
X405Y395D01*
X405Y393D01*
X407Y393D01*
X407Y391D01*
X409Y391D01*
X409Y389D01*
X411Y389D01*
X411Y387D01*
X413Y387D01*
X413Y385D01*
X415Y385D01*
X415Y383D01*
X417Y383D01*
X417Y381D01*
X419Y381D01*
X419Y379D01*
X421Y379D01*
X421Y377D01*
X423Y377D01*
X423Y375D01*
X425Y375D01*
X425Y373D01*
X427Y373D01*
X427Y371D01*
X429Y371D01*
X429Y369D01*
X431Y369D01*
X431Y367D01*
X433Y367D01*
X433Y365D01*
X435Y365D01*
X435Y363D01*
X437Y363D01*
X437Y361D01*
X439Y361D01*
X439Y359D01*
X441Y359D01*
X441Y357D01*
X443Y357D01*
X443Y355D01*
X445Y355D01*
X445Y353D01*
X447Y353D01*
X447Y351D01*
X449Y351D01*
X449Y349D01*
X451Y349D01*
X451Y347D01*
X453Y347D01*
X453Y345D01*
X455Y345D01*
X455Y343D01*
X457Y343D01*
X457Y341D01*
X459Y341D01*
X459Y339D01*
X461Y339D01*
X461Y337D01*
X463Y337D01*
X463Y335D01*
X465Y335D01*
X465Y333D01*
X467Y333D01*
X467Y331D01*
X469Y331D01*
X469Y329D01*
X471Y329D01*
X471Y327D01*
X473Y327D01*
X473Y325D01*
X475Y325D01*
X475Y323D01*
X477Y323D01*
X477Y321D01*
X479Y321D01*
X479Y319D01*
X481Y319D01*
X481Y317D01*
X483Y317D01*
X483Y315D01*
X485Y315D01*
X485Y313D01*
X1075Y313D01*
X1075Y315D01*
X1069Y315D01*
X1069Y317D01*
X1063Y317D01*
X1063Y319D01*
X1059Y319D01*
X1059Y321D01*
X1057Y321D01*
X1057Y323D01*
X1053Y323D01*
X1053Y325D01*
X1051Y325D01*
X1051Y327D01*
X1049Y327D01*
X1049Y329D01*
X1047Y329D01*
X1047Y331D01*
X1045Y331D01*
X1045Y335D01*
X1043Y335D01*
X1043Y339D01*
X1041Y339D01*
X1041Y341D01*
X1039Y341D01*
X1039Y347D01*
X1037Y347D01*
X1037Y373D01*
X1039Y373D01*
X1039Y379D01*
X1041Y379D01*
X1041Y383D01*
X1043Y383D01*
X1043Y387D01*
X1045Y387D01*
X1045Y389D01*
X1047Y389D01*
X1047Y391D01*
X1049Y391D01*
X1049Y395D01*
X1051Y395D01*
X1051Y397D01*
X1055Y397D01*
X1055Y399D01*
X1057Y399D01*
X1057Y401D01*
X1061Y401D01*
X1061Y403D01*
X1065Y403D01*
X1065Y405D01*
X1069Y405D01*
X1069Y407D01*
X1079Y407D01*
X1079Y409D01*
X391Y409D01*
G37*
D02*
G36*
X1087Y409D02*
X1087Y407D01*
X1097Y407D01*
X1097Y405D01*
X1103Y405D01*
X1103Y403D01*
X1107Y403D01*
X1107Y401D01*
X1109Y401D01*
X1109Y399D01*
X1113Y399D01*
X1113Y397D01*
X1115Y397D01*
X1115Y395D01*
X1117Y395D01*
X1117Y393D01*
X1119Y393D01*
X1119Y391D01*
X1121Y391D01*
X1121Y389D01*
X1123Y389D01*
X1123Y385D01*
X1125Y385D01*
X1125Y381D01*
X1127Y381D01*
X1127Y377D01*
X1129Y377D01*
X1129Y369D01*
X1131Y369D01*
X1131Y351D01*
X1129Y351D01*
X1129Y345D01*
X1127Y345D01*
X1127Y341D01*
X1125Y341D01*
X1125Y337D01*
X1123Y337D01*
X1123Y333D01*
X1121Y333D01*
X1121Y331D01*
X1119Y331D01*
X1119Y329D01*
X1117Y329D01*
X1117Y327D01*
X1115Y327D01*
X1115Y325D01*
X1113Y325D01*
X1113Y323D01*
X1111Y323D01*
X1111Y321D01*
X1107Y321D01*
X1107Y319D01*
X1103Y319D01*
X1103Y317D01*
X1099Y317D01*
X1099Y315D01*
X1091Y315D01*
X1091Y313D01*
X1331Y313D01*
X1331Y315D01*
X1325Y315D01*
X1325Y317D01*
X1319Y317D01*
X1319Y319D01*
X1315Y319D01*
X1315Y321D01*
X1313Y321D01*
X1313Y323D01*
X1309Y323D01*
X1309Y325D01*
X1307Y325D01*
X1307Y327D01*
X1305Y327D01*
X1305Y329D01*
X1303Y329D01*
X1303Y331D01*
X1301Y331D01*
X1301Y335D01*
X1299Y335D01*
X1299Y337D01*
X1297Y337D01*
X1297Y341D01*
X1295Y341D01*
X1295Y347D01*
X1293Y347D01*
X1293Y359D01*
X1291Y359D01*
X1291Y363D01*
X1293Y363D01*
X1293Y373D01*
X1295Y373D01*
X1295Y379D01*
X1297Y379D01*
X1297Y383D01*
X1299Y383D01*
X1299Y387D01*
X1301Y387D01*
X1301Y389D01*
X1303Y389D01*
X1303Y393D01*
X1305Y393D01*
X1305Y395D01*
X1307Y395D01*
X1307Y397D01*
X1311Y397D01*
X1311Y399D01*
X1313Y399D01*
X1313Y401D01*
X1317Y401D01*
X1317Y403D01*
X1319Y403D01*
X1319Y405D01*
X1325Y405D01*
X1325Y407D01*
X1335Y407D01*
X1335Y409D01*
X1087Y409D01*
G37*
D02*
G36*
X487Y313D02*
X487Y311D01*
X1447Y311D01*
X1447Y313D01*
X487Y313D01*
G37*
D02*
G36*
X487Y313D02*
X487Y311D01*
X1447Y311D01*
X1447Y313D01*
X487Y313D01*
G37*
D02*
G36*
X487Y313D02*
X487Y311D01*
X1447Y311D01*
X1447Y313D01*
X487Y313D01*
G37*
D02*
G36*
X489Y311D02*
X489Y309D01*
X491Y309D01*
X491Y307D01*
X493Y307D01*
X493Y305D01*
X495Y305D01*
X495Y303D01*
X497Y303D01*
X497Y301D01*
X499Y301D01*
X499Y299D01*
X501Y299D01*
X501Y297D01*
X503Y297D01*
X503Y295D01*
X505Y295D01*
X505Y293D01*
X507Y293D01*
X507Y291D01*
X509Y291D01*
X509Y289D01*
X511Y289D01*
X511Y287D01*
X513Y287D01*
X513Y285D01*
X515Y285D01*
X515Y283D01*
X517Y283D01*
X517Y281D01*
X519Y281D01*
X519Y279D01*
X521Y279D01*
X521Y277D01*
X523Y277D01*
X523Y275D01*
X525Y275D01*
X525Y273D01*
X527Y273D01*
X527Y271D01*
X529Y271D01*
X529Y269D01*
X531Y269D01*
X531Y267D01*
X533Y267D01*
X533Y265D01*
X535Y265D01*
X535Y263D01*
X537Y263D01*
X537Y261D01*
X539Y261D01*
X539Y259D01*
X541Y259D01*
X541Y257D01*
X543Y257D01*
X543Y255D01*
X545Y255D01*
X545Y253D01*
X547Y253D01*
X547Y251D01*
X549Y251D01*
X549Y249D01*
X551Y249D01*
X551Y247D01*
X553Y247D01*
X553Y245D01*
X555Y245D01*
X555Y243D01*
X557Y243D01*
X557Y241D01*
X559Y241D01*
X559Y239D01*
X561Y239D01*
X561Y237D01*
X563Y237D01*
X563Y235D01*
X565Y235D01*
X565Y233D01*
X895Y233D01*
X895Y231D01*
X1349Y231D01*
X1349Y229D01*
X1355Y229D01*
X1355Y227D01*
X1361Y227D01*
X1361Y225D01*
X1363Y225D01*
X1363Y223D01*
X1367Y223D01*
X1367Y221D01*
X1369Y221D01*
X1369Y219D01*
X1371Y219D01*
X1371Y217D01*
X1373Y217D01*
X1373Y215D01*
X1375Y215D01*
X1375Y213D01*
X1377Y213D01*
X1377Y211D01*
X1379Y211D01*
X1379Y207D01*
X1381Y207D01*
X1381Y205D01*
X1383Y205D01*
X1383Y199D01*
X1385Y199D01*
X1385Y191D01*
X1387Y191D01*
X1387Y175D01*
X1385Y175D01*
X1385Y167D01*
X1383Y167D01*
X1383Y163D01*
X1381Y163D01*
X1381Y159D01*
X1379Y159D01*
X1379Y157D01*
X1377Y157D01*
X1377Y153D01*
X1375Y153D01*
X1375Y151D01*
X1373Y151D01*
X1373Y149D01*
X1371Y149D01*
X1371Y147D01*
X1369Y147D01*
X1369Y145D01*
X1365Y145D01*
X1365Y143D01*
X1361Y143D01*
X1361Y141D01*
X1359Y141D01*
X1359Y139D01*
X1351Y139D01*
X1351Y137D01*
X1447Y137D01*
X1447Y311D01*
X489Y311D01*
G37*
D02*
G36*
X595Y233D02*
X595Y231D01*
X601Y231D01*
X601Y229D01*
X605Y229D01*
X605Y227D01*
X609Y227D01*
X609Y225D01*
X613Y225D01*
X613Y223D01*
X615Y223D01*
X615Y221D01*
X617Y221D01*
X617Y219D01*
X619Y219D01*
X619Y217D01*
X621Y217D01*
X621Y215D01*
X623Y215D01*
X623Y213D01*
X645Y213D01*
X645Y215D01*
X647Y215D01*
X647Y217D01*
X649Y217D01*
X649Y219D01*
X651Y219D01*
X651Y221D01*
X653Y221D01*
X653Y223D01*
X655Y223D01*
X655Y225D01*
X659Y225D01*
X659Y227D01*
X663Y227D01*
X663Y229D01*
X667Y229D01*
X667Y231D01*
X673Y231D01*
X673Y233D01*
X595Y233D01*
G37*
D02*
G36*
X695Y233D02*
X695Y231D01*
X701Y231D01*
X701Y229D01*
X705Y229D01*
X705Y227D01*
X709Y227D01*
X709Y225D01*
X713Y225D01*
X713Y223D01*
X715Y223D01*
X715Y221D01*
X717Y221D01*
X717Y219D01*
X719Y219D01*
X719Y217D01*
X721Y217D01*
X721Y215D01*
X723Y215D01*
X723Y213D01*
X745Y213D01*
X745Y215D01*
X747Y215D01*
X747Y217D01*
X749Y217D01*
X749Y219D01*
X751Y219D01*
X751Y221D01*
X753Y221D01*
X753Y223D01*
X755Y223D01*
X755Y225D01*
X759Y225D01*
X759Y227D01*
X763Y227D01*
X763Y229D01*
X767Y229D01*
X767Y231D01*
X773Y231D01*
X773Y233D01*
X695Y233D01*
G37*
D02*
G36*
X795Y233D02*
X795Y231D01*
X801Y231D01*
X801Y229D01*
X805Y229D01*
X805Y227D01*
X809Y227D01*
X809Y225D01*
X813Y225D01*
X813Y223D01*
X815Y223D01*
X815Y221D01*
X817Y221D01*
X817Y219D01*
X819Y219D01*
X819Y217D01*
X821Y217D01*
X821Y215D01*
X823Y215D01*
X823Y213D01*
X845Y213D01*
X845Y215D01*
X847Y215D01*
X847Y217D01*
X849Y217D01*
X849Y219D01*
X851Y219D01*
X851Y221D01*
X853Y221D01*
X853Y223D01*
X855Y223D01*
X855Y225D01*
X859Y225D01*
X859Y227D01*
X863Y227D01*
X863Y229D01*
X867Y229D01*
X867Y231D01*
X873Y231D01*
X873Y233D01*
X795Y233D01*
G37*
D02*
G36*
X901Y231D02*
X901Y229D01*
X905Y229D01*
X905Y227D01*
X909Y227D01*
X909Y225D01*
X913Y225D01*
X913Y223D01*
X915Y223D01*
X915Y221D01*
X917Y221D01*
X917Y219D01*
X919Y219D01*
X919Y217D01*
X921Y217D01*
X921Y215D01*
X923Y215D01*
X923Y213D01*
X925Y213D01*
X925Y209D01*
X927Y209D01*
X927Y205D01*
X929Y205D01*
X929Y201D01*
X931Y201D01*
X931Y195D01*
X933Y195D01*
X933Y173D01*
X931Y173D01*
X931Y165D01*
X929Y165D01*
X929Y161D01*
X927Y161D01*
X927Y157D01*
X925Y157D01*
X925Y155D01*
X923Y155D01*
X923Y153D01*
X921Y153D01*
X921Y149D01*
X919Y149D01*
X919Y147D01*
X915Y147D01*
X915Y145D01*
X913Y145D01*
X913Y143D01*
X911Y143D01*
X911Y141D01*
X907Y141D01*
X907Y139D01*
X903Y139D01*
X903Y137D01*
X1071Y137D01*
X1071Y139D01*
X1065Y139D01*
X1065Y141D01*
X1061Y141D01*
X1061Y143D01*
X1057Y143D01*
X1057Y145D01*
X1055Y145D01*
X1055Y147D01*
X1053Y147D01*
X1053Y149D01*
X1049Y149D01*
X1049Y153D01*
X1047Y153D01*
X1047Y155D01*
X1045Y155D01*
X1045Y157D01*
X1043Y157D01*
X1043Y161D01*
X1041Y161D01*
X1041Y165D01*
X1039Y165D01*
X1039Y171D01*
X1037Y171D01*
X1037Y183D01*
X1035Y183D01*
X1035Y185D01*
X1037Y185D01*
X1037Y197D01*
X1039Y197D01*
X1039Y203D01*
X1041Y203D01*
X1041Y207D01*
X1043Y207D01*
X1043Y209D01*
X1045Y209D01*
X1045Y213D01*
X1047Y213D01*
X1047Y215D01*
X1049Y215D01*
X1049Y217D01*
X1051Y217D01*
X1051Y219D01*
X1053Y219D01*
X1053Y221D01*
X1055Y221D01*
X1055Y223D01*
X1059Y223D01*
X1059Y225D01*
X1063Y225D01*
X1063Y227D01*
X1067Y227D01*
X1067Y229D01*
X1075Y229D01*
X1075Y231D01*
X901Y231D01*
G37*
D02*
G36*
X1093Y231D02*
X1093Y229D01*
X1099Y229D01*
X1099Y227D01*
X1105Y227D01*
X1105Y225D01*
X1107Y225D01*
X1107Y223D01*
X1111Y223D01*
X1111Y221D01*
X1113Y221D01*
X1113Y219D01*
X1117Y219D01*
X1117Y217D01*
X1119Y217D01*
X1119Y213D01*
X1121Y213D01*
X1121Y211D01*
X1123Y211D01*
X1123Y207D01*
X1125Y207D01*
X1125Y205D01*
X1127Y205D01*
X1127Y199D01*
X1129Y199D01*
X1129Y193D01*
X1131Y193D01*
X1131Y175D01*
X1129Y175D01*
X1129Y167D01*
X1127Y167D01*
X1127Y163D01*
X1125Y163D01*
X1125Y159D01*
X1123Y159D01*
X1123Y157D01*
X1121Y157D01*
X1121Y153D01*
X1119Y153D01*
X1119Y151D01*
X1117Y151D01*
X1117Y149D01*
X1115Y149D01*
X1115Y147D01*
X1113Y147D01*
X1113Y145D01*
X1109Y145D01*
X1109Y143D01*
X1105Y143D01*
X1105Y141D01*
X1103Y141D01*
X1103Y139D01*
X1095Y139D01*
X1095Y137D01*
X1327Y137D01*
X1327Y139D01*
X1321Y139D01*
X1321Y141D01*
X1317Y141D01*
X1317Y143D01*
X1313Y143D01*
X1313Y145D01*
X1311Y145D01*
X1311Y147D01*
X1309Y147D01*
X1309Y149D01*
X1305Y149D01*
X1305Y153D01*
X1303Y153D01*
X1303Y155D01*
X1301Y155D01*
X1301Y157D01*
X1299Y157D01*
X1299Y161D01*
X1297Y161D01*
X1297Y165D01*
X1295Y165D01*
X1295Y171D01*
X1293Y171D01*
X1293Y181D01*
X1291Y181D01*
X1291Y185D01*
X1293Y185D01*
X1293Y197D01*
X1295Y197D01*
X1295Y203D01*
X1297Y203D01*
X1297Y207D01*
X1299Y207D01*
X1299Y209D01*
X1301Y209D01*
X1301Y213D01*
X1303Y213D01*
X1303Y215D01*
X1305Y215D01*
X1305Y217D01*
X1307Y217D01*
X1307Y219D01*
X1309Y219D01*
X1309Y221D01*
X1311Y221D01*
X1311Y223D01*
X1315Y223D01*
X1315Y225D01*
X1319Y225D01*
X1319Y227D01*
X1323Y227D01*
X1323Y229D01*
X1329Y229D01*
X1329Y231D01*
X1093Y231D01*
G37*
D02*
G36*
X25Y143D02*
X25Y127D01*
X45Y127D01*
X45Y129D01*
X47Y129D01*
X47Y131D01*
X49Y131D01*
X49Y133D01*
X53Y133D01*
X53Y135D01*
X57Y135D01*
X57Y137D01*
X61Y137D01*
X61Y139D01*
X67Y139D01*
X67Y141D01*
X75Y141D01*
X75Y143D01*
X25Y143D01*
G37*
D02*
G36*
X897Y137D02*
X897Y135D01*
X1447Y135D01*
X1447Y137D01*
X897Y137D01*
G37*
D02*
G36*
X897Y137D02*
X897Y135D01*
X1447Y135D01*
X1447Y137D01*
X897Y137D01*
G37*
D02*
G36*
X897Y137D02*
X897Y135D01*
X1447Y135D01*
X1447Y137D01*
X897Y137D01*
G37*
D02*
G36*
X885Y135D02*
X885Y133D01*
X863Y133D01*
X863Y131D01*
X861Y131D01*
X861Y129D01*
X859Y129D01*
X859Y127D01*
X857Y127D01*
X857Y125D01*
X855Y125D01*
X855Y123D01*
X853Y123D01*
X853Y121D01*
X851Y121D01*
X851Y119D01*
X849Y119D01*
X849Y117D01*
X847Y117D01*
X847Y115D01*
X845Y115D01*
X845Y113D01*
X843Y113D01*
X843Y111D01*
X841Y111D01*
X841Y109D01*
X839Y109D01*
X839Y107D01*
X837Y107D01*
X837Y105D01*
X835Y105D01*
X835Y103D01*
X833Y103D01*
X833Y101D01*
X831Y101D01*
X831Y99D01*
X829Y99D01*
X829Y97D01*
X827Y97D01*
X827Y95D01*
X825Y95D01*
X825Y93D01*
X823Y93D01*
X823Y91D01*
X821Y91D01*
X821Y89D01*
X819Y89D01*
X819Y87D01*
X817Y87D01*
X817Y85D01*
X815Y85D01*
X815Y83D01*
X813Y83D01*
X813Y81D01*
X811Y81D01*
X811Y79D01*
X809Y79D01*
X809Y77D01*
X807Y77D01*
X807Y75D01*
X805Y75D01*
X805Y73D01*
X803Y73D01*
X803Y71D01*
X801Y71D01*
X801Y69D01*
X799Y69D01*
X799Y67D01*
X797Y67D01*
X797Y65D01*
X793Y65D01*
X793Y63D01*
X787Y63D01*
X787Y61D01*
X1447Y61D01*
X1447Y135D01*
X885Y135D01*
G37*
D02*
G36*
X139Y61D02*
X139Y59D01*
X1447Y59D01*
X1447Y61D01*
X139Y61D01*
G37*
D02*
G36*
X139Y61D02*
X139Y59D01*
X1447Y59D01*
X1447Y61D01*
X139Y61D01*
G37*
D02*
G36*
X137Y59D02*
X137Y55D01*
X135Y55D01*
X135Y53D01*
X133Y53D01*
X133Y49D01*
X131Y49D01*
X131Y47D01*
X129Y47D01*
X129Y27D01*
X1447Y27D01*
X1447Y59D01*
X137Y59D01*
G37*
D02*
G36*
X123Y655D02*
X123Y653D01*
X121Y653D01*
X121Y649D01*
X119Y649D01*
X119Y647D01*
X115Y647D01*
X115Y645D01*
X113Y645D01*
X113Y643D01*
X111Y643D01*
X111Y641D01*
X107Y641D01*
X107Y639D01*
X105Y639D01*
X105Y633D01*
X181Y633D01*
X181Y635D01*
X171Y635D01*
X171Y637D01*
X165Y637D01*
X165Y639D01*
X161Y639D01*
X161Y641D01*
X157Y641D01*
X157Y643D01*
X155Y643D01*
X155Y645D01*
X151Y645D01*
X151Y647D01*
X149Y647D01*
X149Y649D01*
X147Y649D01*
X147Y651D01*
X145Y651D01*
X145Y655D01*
X123Y655D01*
G37*
D02*
G36*
X223Y655D02*
X223Y653D01*
X221Y653D01*
X221Y649D01*
X219Y649D01*
X219Y647D01*
X215Y647D01*
X215Y645D01*
X213Y645D01*
X213Y643D01*
X211Y643D01*
X211Y641D01*
X207Y641D01*
X207Y639D01*
X203Y639D01*
X203Y637D01*
X197Y637D01*
X197Y635D01*
X185Y635D01*
X185Y633D01*
X261Y633D01*
X261Y641D01*
X257Y641D01*
X257Y643D01*
X255Y643D01*
X255Y645D01*
X251Y645D01*
X251Y647D01*
X249Y647D01*
X249Y649D01*
X247Y649D01*
X247Y651D01*
X245Y651D01*
X245Y655D01*
X223Y655D01*
G37*
D02*
G36*
X105Y633D02*
X105Y631D01*
X261Y631D01*
X261Y633D01*
X105Y633D01*
G37*
D02*
G36*
X105Y633D02*
X105Y631D01*
X261Y631D01*
X261Y633D01*
X105Y633D01*
G37*
D02*
G36*
X105Y631D02*
X105Y383D01*
X107Y383D01*
X107Y289D01*
X109Y289D01*
X109Y287D01*
X111Y287D01*
X111Y285D01*
X113Y285D01*
X113Y283D01*
X115Y283D01*
X115Y281D01*
X117Y281D01*
X117Y279D01*
X119Y279D01*
X119Y277D01*
X121Y277D01*
X121Y275D01*
X123Y275D01*
X123Y273D01*
X125Y273D01*
X125Y271D01*
X127Y271D01*
X127Y269D01*
X129Y269D01*
X129Y267D01*
X131Y267D01*
X131Y265D01*
X133Y265D01*
X133Y263D01*
X135Y263D01*
X135Y261D01*
X137Y261D01*
X137Y259D01*
X139Y259D01*
X139Y257D01*
X141Y257D01*
X141Y255D01*
X143Y255D01*
X143Y253D01*
X145Y253D01*
X145Y251D01*
X147Y251D01*
X147Y249D01*
X149Y249D01*
X149Y247D01*
X151Y247D01*
X151Y245D01*
X153Y245D01*
X153Y243D01*
X155Y243D01*
X155Y241D01*
X157Y241D01*
X157Y239D01*
X159Y239D01*
X159Y237D01*
X161Y237D01*
X161Y235D01*
X163Y235D01*
X163Y233D01*
X165Y233D01*
X165Y231D01*
X167Y231D01*
X167Y229D01*
X169Y229D01*
X169Y227D01*
X171Y227D01*
X171Y225D01*
X173Y225D01*
X173Y223D01*
X175Y223D01*
X175Y221D01*
X177Y221D01*
X177Y219D01*
X179Y219D01*
X179Y217D01*
X181Y217D01*
X181Y215D01*
X183Y215D01*
X183Y213D01*
X185Y213D01*
X185Y211D01*
X187Y211D01*
X187Y209D01*
X189Y209D01*
X189Y207D01*
X191Y207D01*
X191Y205D01*
X193Y205D01*
X193Y203D01*
X195Y203D01*
X195Y201D01*
X197Y201D01*
X197Y199D01*
X201Y199D01*
X201Y197D01*
X203Y197D01*
X203Y195D01*
X205Y195D01*
X205Y193D01*
X207Y193D01*
X207Y191D01*
X209Y191D01*
X209Y189D01*
X211Y189D01*
X211Y187D01*
X213Y187D01*
X213Y185D01*
X215Y185D01*
X215Y183D01*
X217Y183D01*
X217Y181D01*
X219Y181D01*
X219Y179D01*
X221Y179D01*
X221Y177D01*
X223Y177D01*
X223Y175D01*
X225Y175D01*
X225Y173D01*
X227Y173D01*
X227Y171D01*
X229Y171D01*
X229Y169D01*
X231Y169D01*
X231Y167D01*
X233Y167D01*
X233Y165D01*
X235Y165D01*
X235Y163D01*
X237Y163D01*
X237Y161D01*
X239Y161D01*
X239Y159D01*
X241Y159D01*
X241Y157D01*
X243Y157D01*
X243Y155D01*
X245Y155D01*
X245Y153D01*
X247Y153D01*
X247Y151D01*
X249Y151D01*
X249Y149D01*
X251Y149D01*
X251Y147D01*
X253Y147D01*
X253Y145D01*
X255Y145D01*
X255Y143D01*
X257Y143D01*
X257Y141D01*
X259Y141D01*
X259Y139D01*
X261Y139D01*
X261Y137D01*
X263Y137D01*
X263Y135D01*
X265Y135D01*
X265Y133D01*
X481Y133D01*
X481Y135D01*
X471Y135D01*
X471Y137D01*
X465Y137D01*
X465Y139D01*
X461Y139D01*
X461Y141D01*
X457Y141D01*
X457Y143D01*
X455Y143D01*
X455Y145D01*
X451Y145D01*
X451Y147D01*
X449Y147D01*
X449Y149D01*
X447Y149D01*
X447Y151D01*
X445Y151D01*
X445Y155D01*
X443Y155D01*
X443Y157D01*
X441Y157D01*
X441Y161D01*
X439Y161D01*
X439Y165D01*
X437Y165D01*
X437Y171D01*
X435Y171D01*
X435Y197D01*
X437Y197D01*
X437Y203D01*
X439Y203D01*
X439Y207D01*
X441Y207D01*
X441Y211D01*
X443Y211D01*
X443Y213D01*
X445Y213D01*
X445Y215D01*
X447Y215D01*
X447Y217D01*
X449Y217D01*
X449Y219D01*
X451Y219D01*
X451Y221D01*
X453Y221D01*
X453Y223D01*
X455Y223D01*
X455Y225D01*
X459Y225D01*
X459Y227D01*
X463Y227D01*
X463Y229D01*
X467Y229D01*
X467Y231D01*
X473Y231D01*
X473Y233D01*
X485Y233D01*
X485Y253D01*
X483Y253D01*
X483Y255D01*
X481Y255D01*
X481Y257D01*
X479Y257D01*
X479Y259D01*
X477Y259D01*
X477Y261D01*
X475Y261D01*
X475Y263D01*
X473Y263D01*
X473Y265D01*
X471Y265D01*
X471Y267D01*
X469Y267D01*
X469Y269D01*
X467Y269D01*
X467Y271D01*
X465Y271D01*
X465Y273D01*
X463Y273D01*
X463Y275D01*
X461Y275D01*
X461Y277D01*
X459Y277D01*
X459Y279D01*
X457Y279D01*
X457Y281D01*
X455Y281D01*
X455Y283D01*
X453Y283D01*
X453Y285D01*
X451Y285D01*
X451Y287D01*
X449Y287D01*
X449Y289D01*
X447Y289D01*
X447Y291D01*
X445Y291D01*
X445Y293D01*
X443Y293D01*
X443Y295D01*
X441Y295D01*
X441Y297D01*
X439Y297D01*
X439Y299D01*
X437Y299D01*
X437Y301D01*
X435Y301D01*
X435Y303D01*
X433Y303D01*
X433Y305D01*
X431Y305D01*
X431Y307D01*
X429Y307D01*
X429Y309D01*
X427Y309D01*
X427Y311D01*
X425Y311D01*
X425Y313D01*
X423Y313D01*
X423Y315D01*
X421Y315D01*
X421Y317D01*
X419Y317D01*
X419Y319D01*
X417Y319D01*
X417Y321D01*
X415Y321D01*
X415Y323D01*
X413Y323D01*
X413Y325D01*
X411Y325D01*
X411Y327D01*
X409Y327D01*
X409Y329D01*
X407Y329D01*
X407Y331D01*
X405Y331D01*
X405Y333D01*
X403Y333D01*
X403Y335D01*
X401Y335D01*
X401Y337D01*
X399Y337D01*
X399Y339D01*
X397Y339D01*
X397Y341D01*
X395Y341D01*
X395Y343D01*
X393Y343D01*
X393Y345D01*
X391Y345D01*
X391Y347D01*
X389Y347D01*
X389Y349D01*
X387Y349D01*
X387Y351D01*
X385Y351D01*
X385Y353D01*
X383Y353D01*
X383Y355D01*
X381Y355D01*
X381Y357D01*
X379Y357D01*
X379Y359D01*
X377Y359D01*
X377Y361D01*
X375Y361D01*
X375Y363D01*
X373Y363D01*
X373Y365D01*
X371Y365D01*
X371Y367D01*
X369Y367D01*
X369Y369D01*
X367Y369D01*
X367Y371D01*
X365Y371D01*
X365Y373D01*
X363Y373D01*
X363Y375D01*
X361Y375D01*
X361Y377D01*
X359Y377D01*
X359Y379D01*
X357Y379D01*
X357Y381D01*
X355Y381D01*
X355Y383D01*
X353Y383D01*
X353Y385D01*
X351Y385D01*
X351Y387D01*
X349Y387D01*
X349Y389D01*
X347Y389D01*
X347Y391D01*
X345Y391D01*
X345Y393D01*
X343Y393D01*
X343Y395D01*
X341Y395D01*
X341Y397D01*
X339Y397D01*
X339Y399D01*
X337Y399D01*
X337Y401D01*
X335Y401D01*
X335Y403D01*
X333Y403D01*
X333Y405D01*
X331Y405D01*
X331Y407D01*
X329Y407D01*
X329Y409D01*
X327Y409D01*
X327Y411D01*
X325Y411D01*
X325Y413D01*
X323Y413D01*
X323Y415D01*
X321Y415D01*
X321Y417D01*
X319Y417D01*
X319Y419D01*
X317Y419D01*
X317Y421D01*
X315Y421D01*
X315Y423D01*
X313Y423D01*
X313Y425D01*
X311Y425D01*
X311Y427D01*
X309Y427D01*
X309Y429D01*
X307Y429D01*
X307Y431D01*
X305Y431D01*
X305Y433D01*
X303Y433D01*
X303Y435D01*
X301Y435D01*
X301Y437D01*
X299Y437D01*
X299Y439D01*
X297Y439D01*
X297Y441D01*
X295Y441D01*
X295Y443D01*
X293Y443D01*
X293Y445D01*
X291Y445D01*
X291Y447D01*
X289Y447D01*
X289Y449D01*
X287Y449D01*
X287Y451D01*
X285Y451D01*
X285Y453D01*
X283Y453D01*
X283Y455D01*
X281Y455D01*
X281Y457D01*
X279Y457D01*
X279Y459D01*
X277Y459D01*
X277Y461D01*
X275Y461D01*
X275Y463D01*
X273Y463D01*
X273Y465D01*
X271Y465D01*
X271Y467D01*
X269Y467D01*
X269Y469D01*
X267Y469D01*
X267Y471D01*
X265Y471D01*
X265Y475D01*
X263Y475D01*
X263Y619D01*
X261Y619D01*
X261Y631D01*
X105Y631D01*
G37*
D02*
G36*
X523Y155D02*
X523Y153D01*
X521Y153D01*
X521Y149D01*
X519Y149D01*
X519Y147D01*
X515Y147D01*
X515Y145D01*
X513Y145D01*
X513Y143D01*
X511Y143D01*
X511Y141D01*
X507Y141D01*
X507Y139D01*
X503Y139D01*
X503Y137D01*
X497Y137D01*
X497Y135D01*
X485Y135D01*
X485Y133D01*
X581Y133D01*
X581Y135D01*
X571Y135D01*
X571Y137D01*
X565Y137D01*
X565Y139D01*
X561Y139D01*
X561Y141D01*
X557Y141D01*
X557Y143D01*
X555Y143D01*
X555Y145D01*
X551Y145D01*
X551Y147D01*
X549Y147D01*
X549Y149D01*
X547Y149D01*
X547Y151D01*
X545Y151D01*
X545Y155D01*
X523Y155D01*
G37*
D02*
G36*
X623Y155D02*
X623Y153D01*
X621Y153D01*
X621Y149D01*
X619Y149D01*
X619Y147D01*
X615Y147D01*
X615Y145D01*
X613Y145D01*
X613Y143D01*
X611Y143D01*
X611Y141D01*
X607Y141D01*
X607Y139D01*
X603Y139D01*
X603Y137D01*
X597Y137D01*
X597Y135D01*
X585Y135D01*
X585Y133D01*
X681Y133D01*
X681Y135D01*
X671Y135D01*
X671Y137D01*
X665Y137D01*
X665Y139D01*
X661Y139D01*
X661Y141D01*
X657Y141D01*
X657Y143D01*
X655Y143D01*
X655Y145D01*
X651Y145D01*
X651Y147D01*
X649Y147D01*
X649Y149D01*
X647Y149D01*
X647Y151D01*
X645Y151D01*
X645Y155D01*
X623Y155D01*
G37*
D02*
G36*
X723Y155D02*
X723Y153D01*
X721Y153D01*
X721Y149D01*
X719Y149D01*
X719Y147D01*
X715Y147D01*
X715Y145D01*
X713Y145D01*
X713Y143D01*
X711Y143D01*
X711Y141D01*
X707Y141D01*
X707Y139D01*
X703Y139D01*
X703Y137D01*
X697Y137D01*
X697Y135D01*
X685Y135D01*
X685Y133D01*
X781Y133D01*
X781Y135D01*
X771Y135D01*
X771Y137D01*
X765Y137D01*
X765Y139D01*
X761Y139D01*
X761Y141D01*
X757Y141D01*
X757Y143D01*
X755Y143D01*
X755Y145D01*
X751Y145D01*
X751Y147D01*
X749Y147D01*
X749Y149D01*
X747Y149D01*
X747Y151D01*
X745Y151D01*
X745Y155D01*
X723Y155D01*
G37*
D02*
G36*
X267Y133D02*
X267Y131D01*
X783Y131D01*
X783Y133D01*
X267Y133D01*
G37*
D02*
G36*
X267Y133D02*
X267Y131D01*
X783Y131D01*
X783Y133D01*
X267Y133D01*
G37*
D02*
G36*
X267Y133D02*
X267Y131D01*
X783Y131D01*
X783Y133D01*
X267Y133D01*
G37*
D02*
G36*
X267Y133D02*
X267Y131D01*
X783Y131D01*
X783Y133D01*
X267Y133D01*
G37*
D02*
G36*
X269Y131D02*
X269Y129D01*
X271Y129D01*
X271Y127D01*
X273Y127D01*
X273Y125D01*
X275Y125D01*
X275Y123D01*
X277Y123D01*
X277Y121D01*
X279Y121D01*
X279Y119D01*
X281Y119D01*
X281Y117D01*
X283Y117D01*
X283Y115D01*
X285Y115D01*
X285Y113D01*
X287Y113D01*
X287Y111D01*
X289Y111D01*
X289Y109D01*
X291Y109D01*
X291Y107D01*
X567Y107D01*
X567Y105D01*
X775Y105D01*
X775Y107D01*
X777Y107D01*
X777Y109D01*
X779Y109D01*
X779Y111D01*
X781Y111D01*
X781Y113D01*
X783Y113D01*
X783Y131D01*
X269Y131D01*
G37*
D02*
G54D15*
X1056Y710D02*
X1110Y710D01*
X1356Y710D02*
X1410Y710D01*
X1050Y709D02*
X1116Y709D01*
X1350Y709D02*
X1416Y709D01*
X1047Y708D02*
X1119Y708D01*
X1347Y708D02*
X1418Y708D01*
X1045Y707D02*
X1120Y707D01*
X1345Y707D02*
X1420Y707D01*
X1044Y706D02*
X1122Y706D01*
X1344Y706D02*
X1422Y706D01*
X1042Y705D02*
X1124Y705D01*
X1342Y705D02*
X1424Y705D01*
X1041Y704D02*
X1125Y704D01*
X1341Y704D02*
X1425Y704D01*
X1040Y703D02*
X1126Y703D01*
X1340Y703D02*
X1426Y703D01*
X1039Y702D02*
X1127Y702D01*
X1339Y702D02*
X1427Y702D01*
X1038Y701D02*
X1128Y701D01*
X1338Y701D02*
X1428Y701D01*
X1037Y700D02*
X1082Y700D01*
X1084Y700D02*
X1129Y700D01*
X1337Y700D02*
X1382Y700D01*
X1384Y700D02*
X1429Y700D01*
X1036Y699D02*
X1077Y699D01*
X1089Y699D02*
X1130Y699D01*
X1336Y699D02*
X1377Y699D01*
X1389Y699D02*
X1430Y699D01*
X1036Y698D02*
X1075Y698D01*
X1091Y698D02*
X1130Y698D01*
X1336Y698D02*
X1375Y698D01*
X1391Y698D02*
X1430Y698D01*
X1035Y697D02*
X1073Y697D01*
X1093Y697D02*
X1131Y697D01*
X1335Y697D02*
X1373Y697D01*
X1393Y697D02*
X1431Y697D01*
X1035Y696D02*
X1072Y696D01*
X1094Y696D02*
X1131Y696D01*
X1334Y696D02*
X1372Y696D01*
X1394Y696D02*
X1431Y696D01*
X1034Y695D02*
X1071Y695D01*
X1095Y695D02*
X1132Y695D01*
X1334Y695D02*
X1371Y695D01*
X1395Y695D02*
X1432Y695D01*
X1033Y694D02*
X1070Y694D01*
X1096Y694D02*
X1132Y694D01*
X1333Y694D02*
X1370Y694D01*
X1396Y694D02*
X1432Y694D01*
X1033Y693D02*
X1069Y693D01*
X1097Y693D02*
X1133Y693D01*
X1333Y693D02*
X1369Y693D01*
X1397Y693D02*
X1433Y693D01*
X1033Y692D02*
X1069Y692D01*
X1097Y692D02*
X1133Y692D01*
X1333Y692D02*
X1369Y692D01*
X1397Y692D02*
X1433Y692D01*
X1032Y691D02*
X1068Y691D01*
X1098Y691D02*
X1133Y691D01*
X1332Y691D02*
X1368Y691D01*
X1398Y691D02*
X1433Y691D01*
X1032Y690D02*
X1068Y690D01*
X1098Y690D02*
X1134Y690D01*
X1332Y690D02*
X1368Y690D01*
X1398Y690D02*
X1434Y690D01*
X1032Y689D02*
X1067Y689D01*
X1099Y689D02*
X1134Y689D01*
X1332Y689D02*
X1367Y689D01*
X1399Y689D02*
X1434Y689D01*
X1032Y688D02*
X1067Y688D01*
X1099Y688D02*
X1134Y688D01*
X1332Y688D02*
X1367Y688D01*
X1399Y688D02*
X1434Y688D01*
X1032Y687D02*
X1067Y687D01*
X1099Y687D02*
X1134Y687D01*
X1332Y687D02*
X1367Y687D01*
X1399Y687D02*
X1434Y687D01*
X1032Y686D02*
X1067Y686D01*
X1099Y686D02*
X1134Y686D01*
X1332Y686D02*
X1367Y686D01*
X1399Y686D02*
X1434Y686D01*
X1032Y685D02*
X1067Y685D01*
X1099Y685D02*
X1134Y685D01*
X1331Y685D02*
X1366Y685D01*
X1399Y685D02*
X1434Y685D01*
X1031Y684D02*
X1066Y684D01*
X1099Y684D02*
X1134Y684D01*
X1331Y684D02*
X1366Y684D01*
X1399Y684D02*
X1434Y684D01*
X1032Y683D02*
X1067Y683D01*
X1099Y683D02*
X1134Y683D01*
X1331Y683D02*
X1367Y683D01*
X1399Y683D02*
X1434Y683D01*
X1032Y682D02*
X1067Y682D01*
X1099Y682D02*
X1134Y682D01*
X1332Y682D02*
X1367Y682D01*
X1399Y682D02*
X1434Y682D01*
X1032Y681D02*
X1067Y681D01*
X1099Y681D02*
X1134Y681D01*
X1332Y681D02*
X1367Y681D01*
X1399Y681D02*
X1434Y681D01*
X1032Y680D02*
X1067Y680D01*
X1099Y680D02*
X1134Y680D01*
X1332Y680D02*
X1367Y680D01*
X1399Y680D02*
X1434Y680D01*
X1032Y679D02*
X1067Y679D01*
X1099Y679D02*
X1134Y679D01*
X1332Y679D02*
X1367Y679D01*
X1398Y679D02*
X1434Y679D01*
X1032Y678D02*
X1068Y678D01*
X1098Y678D02*
X1134Y678D01*
X1332Y678D02*
X1368Y678D01*
X1398Y678D02*
X1434Y678D01*
X1032Y677D02*
X1068Y677D01*
X1098Y677D02*
X1133Y677D01*
X1332Y677D02*
X1368Y677D01*
X1398Y677D02*
X1433Y677D01*
X1033Y676D02*
X1069Y676D01*
X1097Y676D02*
X1133Y676D01*
X1333Y676D02*
X1369Y676D01*
X1397Y676D02*
X1433Y676D01*
X1033Y675D02*
X1069Y675D01*
X1097Y675D02*
X1133Y675D01*
X1333Y675D02*
X1369Y675D01*
X1397Y675D02*
X1433Y675D01*
X1034Y674D02*
X1070Y674D01*
X1096Y674D02*
X1132Y674D01*
X1333Y674D02*
X1370Y674D01*
X1396Y674D02*
X1432Y674D01*
X1034Y673D02*
X1071Y673D01*
X1095Y673D02*
X1132Y673D01*
X1334Y673D02*
X1371Y673D01*
X1395Y673D02*
X1432Y673D01*
X1035Y672D02*
X1072Y672D01*
X1094Y672D02*
X1131Y672D01*
X1335Y672D02*
X1372Y672D01*
X1394Y672D02*
X1431Y672D01*
X1035Y671D02*
X1073Y671D01*
X1093Y671D02*
X1131Y671D01*
X1335Y671D02*
X1373Y671D01*
X1393Y671D02*
X1431Y671D01*
X1036Y670D02*
X1075Y670D01*
X1091Y670D02*
X1130Y670D01*
X1336Y670D02*
X1375Y670D01*
X1391Y670D02*
X1430Y670D01*
X1036Y669D02*
X1077Y669D01*
X1089Y669D02*
X1130Y669D01*
X1336Y669D02*
X1377Y669D01*
X1389Y669D02*
X1430Y669D01*
X1037Y668D02*
X1129Y668D01*
X1337Y668D02*
X1429Y668D01*
X1038Y667D02*
X1128Y667D01*
X1338Y667D02*
X1428Y667D01*
X1039Y666D02*
X1127Y666D01*
X1339Y666D02*
X1427Y666D01*
X1040Y665D02*
X1126Y665D01*
X1340Y665D02*
X1426Y665D01*
X1041Y664D02*
X1125Y664D01*
X1341Y664D02*
X1425Y664D01*
X1042Y663D02*
X1124Y663D01*
X1342Y663D02*
X1424Y663D01*
X1044Y662D02*
X1122Y662D01*
X1344Y662D02*
X1422Y662D01*
X1046Y661D02*
X1120Y661D01*
X1346Y661D02*
X1420Y661D01*
X1048Y660D02*
X1118Y660D01*
X1348Y660D02*
X1418Y660D01*
X1051Y659D02*
X1115Y659D01*
X1351Y659D02*
X1415Y659D01*
X1056Y610D02*
X1110Y610D01*
X1356Y610D02*
X1410Y610D01*
X1050Y609D02*
X1116Y609D01*
X1350Y609D02*
X1416Y609D01*
X1047Y608D02*
X1119Y608D01*
X1347Y608D02*
X1419Y608D01*
X1045Y607D02*
X1121Y607D01*
X1345Y607D02*
X1420Y607D01*
X1044Y606D02*
X1122Y606D01*
X1343Y606D02*
X1422Y606D01*
X1042Y605D02*
X1124Y605D01*
X1342Y605D02*
X1424Y605D01*
X1041Y604D02*
X1125Y604D01*
X1341Y604D02*
X1425Y604D01*
X1040Y603D02*
X1126Y603D01*
X1340Y603D02*
X1426Y603D01*
X1039Y602D02*
X1127Y602D01*
X1339Y602D02*
X1427Y602D01*
X1038Y601D02*
X1128Y601D01*
X1338Y601D02*
X1428Y601D01*
X1037Y600D02*
X1082Y600D01*
X1084Y600D02*
X1129Y600D01*
X1337Y600D02*
X1381Y600D01*
X1384Y600D02*
X1429Y600D01*
X1036Y599D02*
X1077Y599D01*
X1089Y599D02*
X1130Y599D01*
X1336Y599D02*
X1377Y599D01*
X1389Y599D02*
X1430Y599D01*
X1036Y598D02*
X1075Y598D01*
X1091Y598D02*
X1130Y598D01*
X1335Y598D02*
X1375Y598D01*
X1391Y598D02*
X1430Y598D01*
X1035Y597D02*
X1073Y597D01*
X1093Y597D02*
X1131Y597D01*
X1335Y597D02*
X1373Y597D01*
X1393Y597D02*
X1431Y597D01*
X1034Y596D02*
X1072Y596D01*
X1094Y596D02*
X1131Y596D01*
X1334Y596D02*
X1372Y596D01*
X1394Y596D02*
X1431Y596D01*
X1034Y595D02*
X1071Y595D01*
X1095Y595D02*
X1132Y595D01*
X1334Y595D02*
X1371Y595D01*
X1395Y595D02*
X1432Y595D01*
X1033Y594D02*
X1070Y594D01*
X1096Y594D02*
X1132Y594D01*
X1333Y594D02*
X1370Y594D01*
X1396Y594D02*
X1432Y594D01*
X1033Y593D02*
X1069Y593D01*
X1097Y593D02*
X1133Y593D01*
X1333Y593D02*
X1369Y593D01*
X1397Y593D02*
X1433Y593D01*
X1033Y592D02*
X1069Y592D01*
X1097Y592D02*
X1133Y592D01*
X1333Y592D02*
X1369Y592D01*
X1397Y592D02*
X1433Y592D01*
X1032Y591D02*
X1068Y591D01*
X1098Y591D02*
X1134Y591D01*
X1332Y591D02*
X1368Y591D01*
X1398Y591D02*
X1433Y591D01*
X1032Y590D02*
X1068Y590D01*
X1098Y590D02*
X1134Y590D01*
X1332Y590D02*
X1368Y590D01*
X1398Y590D02*
X1434Y590D01*
X1032Y589D02*
X1067Y589D01*
X1099Y589D02*
X1134Y589D01*
X1332Y589D02*
X1367Y589D01*
X1399Y589D02*
X1434Y589D01*
X1032Y588D02*
X1067Y588D01*
X1099Y588D02*
X1134Y588D01*
X1332Y588D02*
X1367Y588D01*
X1399Y588D02*
X1434Y588D01*
X1032Y587D02*
X1067Y587D01*
X1099Y587D02*
X1134Y587D01*
X1332Y587D02*
X1367Y587D01*
X1399Y587D02*
X1434Y587D01*
X1032Y586D02*
X1067Y586D01*
X1099Y586D02*
X1134Y586D01*
X1332Y586D02*
X1367Y586D01*
X1399Y586D02*
X1434Y586D01*
X1032Y585D02*
X1067Y585D01*
X1099Y585D02*
X1134Y585D01*
X1331Y585D02*
X1366Y585D01*
X1399Y585D02*
X1434Y585D01*
X1031Y584D02*
X1066Y584D01*
X1099Y584D02*
X1134Y584D01*
X1331Y584D02*
X1366Y584D01*
X1399Y584D02*
X1434Y584D01*
X1032Y583D02*
X1067Y583D01*
X1099Y583D02*
X1134Y583D01*
X1331Y583D02*
X1367Y583D01*
X1399Y583D02*
X1434Y583D01*
X1032Y582D02*
X1067Y582D01*
X1099Y582D02*
X1134Y582D01*
X1332Y582D02*
X1367Y582D01*
X1399Y582D02*
X1434Y582D01*
X1032Y581D02*
X1067Y581D01*
X1099Y581D02*
X1134Y581D01*
X1332Y581D02*
X1367Y581D01*
X1399Y581D02*
X1434Y581D01*
X1032Y580D02*
X1067Y580D01*
X1099Y580D02*
X1134Y580D01*
X1332Y580D02*
X1367Y580D01*
X1399Y580D02*
X1434Y580D01*
X1032Y579D02*
X1067Y579D01*
X1099Y579D02*
X1134Y579D01*
X1332Y579D02*
X1367Y579D01*
X1398Y579D02*
X1434Y579D01*
X1032Y578D02*
X1068Y578D01*
X1098Y578D02*
X1134Y578D01*
X1332Y578D02*
X1368Y578D01*
X1398Y578D02*
X1434Y578D01*
X1032Y577D02*
X1068Y577D01*
X1098Y577D02*
X1133Y577D01*
X1332Y577D02*
X1368Y577D01*
X1398Y577D02*
X1433Y577D01*
X1033Y576D02*
X1069Y576D01*
X1097Y576D02*
X1133Y576D01*
X1333Y576D02*
X1369Y576D01*
X1397Y576D02*
X1433Y576D01*
X1033Y575D02*
X1069Y575D01*
X1097Y575D02*
X1133Y575D01*
X1333Y575D02*
X1369Y575D01*
X1397Y575D02*
X1433Y575D01*
X1034Y574D02*
X1070Y574D01*
X1096Y574D02*
X1132Y574D01*
X1333Y574D02*
X1370Y574D01*
X1396Y574D02*
X1432Y574D01*
X1034Y573D02*
X1071Y573D01*
X1095Y573D02*
X1132Y573D01*
X1334Y573D02*
X1371Y573D01*
X1395Y573D02*
X1432Y573D01*
X1035Y572D02*
X1072Y572D01*
X1094Y572D02*
X1131Y572D01*
X1335Y572D02*
X1372Y572D01*
X1394Y572D02*
X1431Y572D01*
X1035Y571D02*
X1073Y571D01*
X1093Y571D02*
X1131Y571D01*
X1335Y571D02*
X1373Y571D01*
X1393Y571D02*
X1431Y571D01*
X1036Y570D02*
X1075Y570D01*
X1091Y570D02*
X1130Y570D01*
X1336Y570D02*
X1375Y570D01*
X1391Y570D02*
X1430Y570D01*
X1036Y569D02*
X1077Y569D01*
X1089Y569D02*
X1130Y569D01*
X1336Y569D02*
X1377Y569D01*
X1388Y569D02*
X1429Y569D01*
X1037Y568D02*
X1129Y568D01*
X1337Y568D02*
X1429Y568D01*
X1038Y567D02*
X1128Y567D01*
X1338Y567D02*
X1428Y567D01*
X1039Y566D02*
X1127Y566D01*
X1339Y566D02*
X1427Y566D01*
X1040Y565D02*
X1126Y565D01*
X1340Y565D02*
X1426Y565D01*
X1041Y564D02*
X1125Y564D01*
X1341Y564D02*
X1425Y564D01*
X1042Y563D02*
X1124Y563D01*
X1342Y563D02*
X1423Y563D01*
X1044Y562D02*
X1122Y562D01*
X1344Y562D02*
X1422Y562D01*
X1046Y561D02*
X1120Y561D01*
X1346Y561D02*
X1420Y561D01*
X1048Y560D02*
X1118Y560D01*
X1348Y560D02*
X1418Y560D01*
X1051Y559D02*
X1115Y559D01*
X1351Y559D02*
X1415Y559D01*
D02*
G04 End of Copper1*
M02*