G04 MADE WITH FRITZING*
G04 WWW.FRITZING.ORG*
G04 DOUBLE SIDED*
G04 HOLES PLATED*
G04 CONTOUR ON CENTER OF CONTOUR VECTOR*
%ASAXBY*%
%FSLAX23Y23*%
%MOIN*%
%OFA0B0*%
%SFA1.0B1.0*%
%ADD10R,0.015000X0.040000*%
%ADD11C,0.010000*%
%ADD12C,0.008000*%
%ADD13R,0.001000X0.001000*%
%LNSILK1*%
G90*
G70*
G54D10*
X1226Y584D03*
X1201Y584D03*
X1176Y584D03*
X1226Y684D03*
X1201Y684D03*
X1176Y684D03*
G54D11*
X1329Y312D02*
X1329Y233D01*
D02*
X1133Y390D02*
X1300Y390D01*
D02*
X1133Y154D02*
X1300Y154D01*
D02*
X1093Y312D02*
X1093Y233D01*
D02*
X1211Y292D02*
X1211Y253D01*
D02*
X1231Y272D02*
X1192Y272D01*
G54D12*
D02*
X1429Y764D02*
X1299Y764D01*
D02*
X1169Y764D02*
X1169Y744D01*
D02*
X1169Y744D02*
X1299Y744D01*
D02*
X1299Y744D02*
X1299Y764D01*
D02*
X1169Y764D02*
X1039Y764D01*
D02*
X1299Y764D02*
X1169Y764D01*
D02*
X1039Y504D02*
X1169Y504D01*
D02*
X1299Y504D02*
X1299Y524D01*
D02*
X1299Y524D02*
X1169Y524D01*
D02*
X1169Y524D02*
X1169Y504D01*
D02*
X1299Y504D02*
X1429Y504D01*
D02*
X1169Y504D02*
X1299Y504D01*
D02*
X1309Y614D02*
X1159Y614D01*
D02*
X1309Y614D02*
X1309Y554D01*
D02*
X1159Y554D02*
X1309Y554D01*
D02*
X1159Y554D02*
X1159Y614D01*
D02*
X1309Y714D02*
X1159Y714D01*
D02*
X1309Y714D02*
X1309Y654D01*
D02*
X1159Y654D02*
X1309Y654D01*
D02*
X1159Y654D02*
X1159Y714D01*
G54D11*
D02*
X434Y134D02*
X934Y134D01*
D02*
X934Y134D02*
X934Y234D01*
D02*
X934Y234D02*
X434Y234D01*
D02*
X434Y234D02*
X434Y134D01*
D02*
X434Y734D02*
X934Y734D01*
D02*
X934Y734D02*
X934Y834D01*
D02*
X934Y834D02*
X434Y834D01*
D02*
X434Y834D02*
X434Y734D01*
D02*
X34Y634D02*
X434Y634D01*
D02*
X434Y634D02*
X434Y734D01*
D02*
X434Y734D02*
X34Y734D01*
D02*
X34Y734D02*
X34Y634D01*
D02*
X734Y634D02*
X834Y634D01*
D02*
X834Y634D02*
X834Y734D01*
D02*
X834Y734D02*
X734Y734D01*
D02*
X734Y734D02*
X734Y634D01*
G54D13*
X0Y984D02*
X1475Y984D01*
X0Y983D02*
X1475Y983D01*
X0Y982D02*
X1475Y982D01*
X0Y981D02*
X1475Y981D01*
X0Y980D02*
X1475Y980D01*
X0Y979D02*
X1475Y979D01*
X0Y978D02*
X1475Y978D01*
X0Y977D02*
X1475Y977D01*
X0Y976D02*
X7Y976D01*
X1468Y976D02*
X1475Y976D01*
X0Y975D02*
X7Y975D01*
X1468Y975D02*
X1475Y975D01*
X0Y974D02*
X7Y974D01*
X1468Y974D02*
X1475Y974D01*
X0Y973D02*
X7Y973D01*
X1468Y973D02*
X1475Y973D01*
X0Y972D02*
X7Y972D01*
X1468Y972D02*
X1475Y972D01*
X0Y971D02*
X7Y971D01*
X1468Y971D02*
X1475Y971D01*
X0Y970D02*
X7Y970D01*
X1468Y970D02*
X1475Y970D01*
X0Y969D02*
X7Y969D01*
X1468Y969D02*
X1475Y969D01*
X0Y968D02*
X7Y968D01*
X1468Y968D02*
X1475Y968D01*
X0Y967D02*
X7Y967D01*
X1468Y967D02*
X1475Y967D01*
X0Y966D02*
X7Y966D01*
X1468Y966D02*
X1475Y966D01*
X0Y965D02*
X7Y965D01*
X1468Y965D02*
X1475Y965D01*
X0Y964D02*
X7Y964D01*
X1468Y964D02*
X1475Y964D01*
X0Y963D02*
X7Y963D01*
X1468Y963D02*
X1475Y963D01*
X0Y962D02*
X7Y962D01*
X1468Y962D02*
X1475Y962D01*
X0Y961D02*
X7Y961D01*
X1468Y961D02*
X1475Y961D01*
X0Y960D02*
X7Y960D01*
X1468Y960D02*
X1475Y960D01*
X0Y959D02*
X7Y959D01*
X1468Y959D02*
X1475Y959D01*
X0Y958D02*
X7Y958D01*
X1468Y958D02*
X1475Y958D01*
X0Y957D02*
X7Y957D01*
X1468Y957D02*
X1475Y957D01*
X0Y956D02*
X7Y956D01*
X1468Y956D02*
X1475Y956D01*
X0Y955D02*
X7Y955D01*
X1468Y955D02*
X1475Y955D01*
X0Y954D02*
X7Y954D01*
X1468Y954D02*
X1475Y954D01*
X0Y953D02*
X7Y953D01*
X1468Y953D02*
X1475Y953D01*
X0Y952D02*
X7Y952D01*
X1468Y952D02*
X1475Y952D01*
X0Y951D02*
X7Y951D01*
X1468Y951D02*
X1475Y951D01*
X0Y950D02*
X7Y950D01*
X1468Y950D02*
X1475Y950D01*
X0Y949D02*
X7Y949D01*
X1468Y949D02*
X1475Y949D01*
X0Y948D02*
X7Y948D01*
X1468Y948D02*
X1475Y948D01*
X0Y947D02*
X7Y947D01*
X1468Y947D02*
X1475Y947D01*
X0Y946D02*
X7Y946D01*
X1468Y946D02*
X1475Y946D01*
X0Y945D02*
X7Y945D01*
X1468Y945D02*
X1475Y945D01*
X0Y944D02*
X7Y944D01*
X1468Y944D02*
X1475Y944D01*
X0Y943D02*
X7Y943D01*
X1468Y943D02*
X1475Y943D01*
X0Y942D02*
X7Y942D01*
X1468Y942D02*
X1475Y942D01*
X0Y941D02*
X7Y941D01*
X1468Y941D02*
X1475Y941D01*
X0Y940D02*
X7Y940D01*
X1468Y940D02*
X1475Y940D01*
X0Y939D02*
X7Y939D01*
X1468Y939D02*
X1475Y939D01*
X0Y938D02*
X7Y938D01*
X1468Y938D02*
X1475Y938D01*
X0Y937D02*
X7Y937D01*
X1468Y937D02*
X1475Y937D01*
X0Y936D02*
X7Y936D01*
X1468Y936D02*
X1475Y936D01*
X0Y935D02*
X7Y935D01*
X1468Y935D02*
X1475Y935D01*
X0Y934D02*
X7Y934D01*
X1468Y934D02*
X1475Y934D01*
X0Y933D02*
X7Y933D01*
X1468Y933D02*
X1475Y933D01*
X0Y932D02*
X7Y932D01*
X1468Y932D02*
X1475Y932D01*
X0Y931D02*
X7Y931D01*
X1468Y931D02*
X1475Y931D01*
X0Y930D02*
X7Y930D01*
X1468Y930D02*
X1475Y930D01*
X0Y929D02*
X7Y929D01*
X1468Y929D02*
X1475Y929D01*
X0Y928D02*
X7Y928D01*
X1468Y928D02*
X1475Y928D01*
X0Y927D02*
X7Y927D01*
X1468Y927D02*
X1475Y927D01*
X0Y926D02*
X7Y926D01*
X1468Y926D02*
X1475Y926D01*
X0Y925D02*
X7Y925D01*
X1468Y925D02*
X1475Y925D01*
X0Y924D02*
X7Y924D01*
X1468Y924D02*
X1475Y924D01*
X0Y923D02*
X7Y923D01*
X1468Y923D02*
X1475Y923D01*
X0Y922D02*
X7Y922D01*
X1468Y922D02*
X1475Y922D01*
X0Y921D02*
X7Y921D01*
X1468Y921D02*
X1475Y921D01*
X0Y920D02*
X7Y920D01*
X1468Y920D02*
X1475Y920D01*
X0Y919D02*
X7Y919D01*
X1468Y919D02*
X1475Y919D01*
X0Y918D02*
X7Y918D01*
X1468Y918D02*
X1475Y918D01*
X0Y917D02*
X7Y917D01*
X1468Y917D02*
X1475Y917D01*
X0Y916D02*
X7Y916D01*
X1468Y916D02*
X1475Y916D01*
X0Y915D02*
X7Y915D01*
X1468Y915D02*
X1475Y915D01*
X0Y914D02*
X7Y914D01*
X1468Y914D02*
X1475Y914D01*
X0Y913D02*
X7Y913D01*
X1468Y913D02*
X1475Y913D01*
X0Y912D02*
X7Y912D01*
X1468Y912D02*
X1475Y912D01*
X0Y911D02*
X7Y911D01*
X1468Y911D02*
X1475Y911D01*
X0Y910D02*
X7Y910D01*
X1468Y910D02*
X1475Y910D01*
X0Y909D02*
X7Y909D01*
X1468Y909D02*
X1475Y909D01*
X0Y908D02*
X7Y908D01*
X1468Y908D02*
X1475Y908D01*
X0Y907D02*
X7Y907D01*
X1468Y907D02*
X1475Y907D01*
X0Y906D02*
X7Y906D01*
X1468Y906D02*
X1475Y906D01*
X0Y905D02*
X7Y905D01*
X1468Y905D02*
X1475Y905D01*
X0Y904D02*
X7Y904D01*
X1468Y904D02*
X1475Y904D01*
X0Y903D02*
X7Y903D01*
X1468Y903D02*
X1475Y903D01*
X0Y902D02*
X7Y902D01*
X1468Y902D02*
X1475Y902D01*
X0Y901D02*
X7Y901D01*
X1468Y901D02*
X1475Y901D01*
X0Y900D02*
X7Y900D01*
X1468Y900D02*
X1475Y900D01*
X0Y899D02*
X7Y899D01*
X1468Y899D02*
X1475Y899D01*
X0Y898D02*
X7Y898D01*
X861Y898D02*
X870Y898D01*
X883Y898D02*
X888Y898D01*
X902Y898D02*
X903Y898D01*
X917Y898D02*
X927Y898D01*
X1468Y898D02*
X1475Y898D01*
X0Y897D02*
X7Y897D01*
X859Y897D02*
X871Y897D01*
X882Y897D02*
X888Y897D01*
X901Y897D02*
X904Y897D01*
X916Y897D02*
X930Y897D01*
X1468Y897D02*
X1475Y897D01*
X0Y896D02*
X7Y896D01*
X555Y896D02*
X564Y896D01*
X590Y896D02*
X590Y896D01*
X858Y896D02*
X871Y896D01*
X882Y896D02*
X889Y896D01*
X901Y896D02*
X904Y896D01*
X916Y896D02*
X931Y896D01*
X1468Y896D02*
X1475Y896D01*
X0Y895D02*
X7Y895D01*
X554Y895D02*
X567Y895D01*
X588Y895D02*
X591Y895D01*
X857Y895D02*
X871Y895D01*
X882Y895D02*
X889Y895D01*
X901Y895D02*
X904Y895D01*
X916Y895D02*
X931Y895D01*
X1468Y895D02*
X1475Y895D01*
X0Y894D02*
X7Y894D01*
X553Y894D02*
X568Y894D01*
X588Y894D02*
X591Y894D01*
X660Y894D02*
X671Y894D01*
X693Y894D02*
X712Y894D01*
X856Y894D02*
X870Y894D01*
X882Y894D02*
X889Y894D01*
X901Y894D02*
X904Y894D01*
X917Y894D02*
X932Y894D01*
X1468Y894D02*
X1475Y894D01*
X0Y893D02*
X7Y893D01*
X455Y893D02*
X468Y893D01*
X492Y893D02*
X509Y893D01*
X554Y893D02*
X569Y893D01*
X588Y893D02*
X592Y893D01*
X659Y893D02*
X673Y893D01*
X693Y893D02*
X713Y893D01*
X855Y893D02*
X861Y893D01*
X882Y893D02*
X890Y893D01*
X901Y893D02*
X904Y893D01*
X920Y893D02*
X924Y893D01*
X928Y893D02*
X933Y893D01*
X1468Y893D02*
X1475Y893D01*
X0Y892D02*
X7Y892D01*
X454Y892D02*
X469Y892D01*
X492Y892D02*
X510Y892D01*
X554Y892D02*
X570Y892D01*
X588Y892D02*
X592Y892D01*
X603Y892D02*
X604Y892D01*
X659Y892D02*
X674Y892D01*
X692Y892D02*
X714Y892D01*
X855Y892D02*
X860Y892D01*
X882Y892D02*
X890Y892D01*
X901Y892D02*
X904Y892D01*
X920Y892D02*
X924Y892D01*
X929Y892D02*
X933Y892D01*
X1468Y892D02*
X1475Y892D01*
X0Y891D02*
X7Y891D01*
X454Y891D02*
X470Y891D01*
X492Y891D02*
X510Y891D01*
X558Y891D02*
X562Y891D01*
X565Y891D02*
X570Y891D01*
X588Y891D02*
X592Y891D01*
X602Y891D02*
X605Y891D01*
X659Y891D02*
X675Y891D01*
X693Y891D02*
X714Y891D01*
X854Y891D02*
X859Y891D01*
X882Y891D02*
X891Y891D01*
X901Y891D02*
X904Y891D01*
X920Y891D02*
X924Y891D01*
X929Y891D02*
X934Y891D01*
X1468Y891D02*
X1475Y891D01*
X0Y890D02*
X7Y890D01*
X455Y890D02*
X470Y890D01*
X492Y890D02*
X509Y890D01*
X558Y890D02*
X562Y890D01*
X566Y890D02*
X571Y890D01*
X588Y890D02*
X592Y890D01*
X602Y890D02*
X605Y890D01*
X661Y890D02*
X675Y890D01*
X694Y890D02*
X714Y890D01*
X853Y890D02*
X858Y890D01*
X882Y890D02*
X891Y890D01*
X901Y890D02*
X904Y890D01*
X920Y890D02*
X924Y890D01*
X930Y890D02*
X934Y890D01*
X1468Y890D02*
X1475Y890D01*
X0Y889D02*
X7Y889D01*
X459Y889D02*
X463Y889D01*
X466Y889D02*
X471Y889D01*
X492Y889D02*
X496Y889D01*
X558Y889D02*
X562Y889D01*
X567Y889D02*
X571Y889D01*
X588Y889D02*
X592Y889D01*
X602Y889D02*
X605Y889D01*
X664Y889D02*
X667Y889D01*
X672Y889D02*
X676Y889D01*
X711Y889D02*
X714Y889D01*
X852Y889D02*
X857Y889D01*
X882Y889D02*
X892Y889D01*
X901Y889D02*
X904Y889D01*
X920Y889D02*
X924Y889D01*
X930Y889D02*
X935Y889D01*
X1468Y889D02*
X1475Y889D01*
X0Y888D02*
X7Y888D01*
X459Y888D02*
X463Y888D01*
X467Y888D02*
X471Y888D01*
X492Y888D02*
X496Y888D01*
X558Y888D02*
X562Y888D01*
X567Y888D02*
X572Y888D01*
X588Y888D02*
X592Y888D01*
X602Y888D02*
X605Y888D01*
X664Y888D02*
X667Y888D01*
X672Y888D02*
X676Y888D01*
X711Y888D02*
X714Y888D01*
X852Y888D02*
X856Y888D01*
X882Y888D02*
X886Y888D01*
X888Y888D02*
X892Y888D01*
X901Y888D02*
X904Y888D01*
X920Y888D02*
X924Y888D01*
X931Y888D02*
X935Y888D01*
X1468Y888D02*
X1475Y888D01*
X0Y887D02*
X7Y887D01*
X459Y887D02*
X463Y887D01*
X468Y887D02*
X472Y887D01*
X492Y887D02*
X496Y887D01*
X558Y887D02*
X562Y887D01*
X568Y887D02*
X572Y887D01*
X588Y887D02*
X592Y887D01*
X602Y887D02*
X605Y887D01*
X664Y887D02*
X667Y887D01*
X673Y887D02*
X677Y887D01*
X711Y887D02*
X714Y887D01*
X851Y887D02*
X856Y887D01*
X882Y887D02*
X886Y887D01*
X888Y887D02*
X893Y887D01*
X901Y887D02*
X904Y887D01*
X920Y887D02*
X924Y887D01*
X931Y887D02*
X936Y887D01*
X1468Y887D02*
X1475Y887D01*
X0Y886D02*
X7Y886D01*
X459Y886D02*
X463Y886D01*
X468Y886D02*
X472Y886D01*
X492Y886D02*
X496Y886D01*
X558Y886D02*
X562Y886D01*
X568Y886D02*
X573Y886D01*
X588Y886D02*
X592Y886D01*
X602Y886D02*
X605Y886D01*
X664Y886D02*
X667Y886D01*
X673Y886D02*
X677Y886D01*
X711Y886D02*
X714Y886D01*
X850Y886D02*
X855Y886D01*
X882Y886D02*
X886Y886D01*
X889Y886D02*
X893Y886D01*
X901Y886D02*
X904Y886D01*
X920Y886D02*
X924Y886D01*
X932Y886D02*
X936Y886D01*
X1468Y886D02*
X1475Y886D01*
X0Y885D02*
X7Y885D01*
X459Y885D02*
X463Y885D01*
X469Y885D02*
X473Y885D01*
X492Y885D02*
X496Y885D01*
X558Y885D02*
X562Y885D01*
X569Y885D02*
X573Y885D01*
X588Y885D02*
X592Y885D01*
X602Y885D02*
X605Y885D01*
X664Y885D02*
X667Y885D01*
X674Y885D02*
X678Y885D01*
X711Y885D02*
X714Y885D01*
X850Y885D02*
X854Y885D01*
X882Y885D02*
X886Y885D01*
X889Y885D02*
X893Y885D01*
X901Y885D02*
X904Y885D01*
X920Y885D02*
X924Y885D01*
X932Y885D02*
X937Y885D01*
X1170Y885D02*
X1192Y885D01*
X1217Y885D02*
X1219Y885D01*
X1245Y885D02*
X1247Y885D01*
X1267Y885D02*
X1285Y885D01*
X1468Y885D02*
X1475Y885D01*
X0Y884D02*
X7Y884D01*
X459Y884D02*
X463Y884D01*
X469Y884D02*
X473Y884D01*
X492Y884D02*
X496Y884D01*
X558Y884D02*
X562Y884D01*
X569Y884D02*
X574Y884D01*
X588Y884D02*
X592Y884D01*
X602Y884D02*
X605Y884D01*
X664Y884D02*
X667Y884D01*
X674Y884D02*
X678Y884D01*
X711Y884D02*
X714Y884D01*
X849Y884D02*
X853Y884D01*
X882Y884D02*
X886Y884D01*
X890Y884D02*
X894Y884D01*
X901Y884D02*
X904Y884D01*
X920Y884D02*
X924Y884D01*
X933Y884D02*
X937Y884D01*
X1168Y884D02*
X1194Y884D01*
X1216Y884D02*
X1221Y884D01*
X1244Y884D02*
X1248Y884D01*
X1266Y884D02*
X1285Y884D01*
X1468Y884D02*
X1475Y884D01*
X0Y883D02*
X7Y883D01*
X459Y883D02*
X463Y883D01*
X470Y883D02*
X474Y883D01*
X492Y883D02*
X496Y883D01*
X558Y883D02*
X562Y883D01*
X570Y883D02*
X574Y883D01*
X588Y883D02*
X592Y883D01*
X602Y883D02*
X605Y883D01*
X664Y883D02*
X667Y883D01*
X675Y883D02*
X679Y883D01*
X711Y883D02*
X714Y883D01*
X849Y883D02*
X853Y883D01*
X882Y883D02*
X886Y883D01*
X890Y883D02*
X894Y883D01*
X901Y883D02*
X904Y883D01*
X920Y883D02*
X924Y883D01*
X933Y883D02*
X937Y883D01*
X1167Y883D02*
X1195Y883D01*
X1215Y883D02*
X1221Y883D01*
X1243Y883D02*
X1249Y883D01*
X1266Y883D02*
X1285Y883D01*
X1468Y883D02*
X1475Y883D01*
X0Y882D02*
X7Y882D01*
X459Y882D02*
X463Y882D01*
X470Y882D02*
X474Y882D01*
X492Y882D02*
X496Y882D01*
X558Y882D02*
X562Y882D01*
X570Y882D02*
X575Y882D01*
X588Y882D02*
X592Y882D01*
X602Y882D02*
X605Y882D01*
X664Y882D02*
X667Y882D01*
X675Y882D02*
X679Y882D01*
X711Y882D02*
X714Y882D01*
X849Y882D02*
X853Y882D01*
X882Y882D02*
X886Y882D01*
X891Y882D02*
X895Y882D01*
X901Y882D02*
X904Y882D01*
X920Y882D02*
X924Y882D01*
X934Y882D02*
X938Y882D01*
X1166Y882D02*
X1196Y882D01*
X1215Y882D02*
X1221Y882D01*
X1243Y882D02*
X1249Y882D01*
X1266Y882D02*
X1285Y882D01*
X1468Y882D02*
X1475Y882D01*
X0Y881D02*
X7Y881D01*
X459Y881D02*
X463Y881D01*
X471Y881D02*
X475Y881D01*
X492Y881D02*
X496Y881D01*
X558Y881D02*
X562Y881D01*
X571Y881D02*
X575Y881D01*
X588Y881D02*
X592Y881D01*
X602Y881D02*
X605Y881D01*
X664Y881D02*
X667Y881D01*
X676Y881D02*
X680Y881D01*
X711Y881D02*
X714Y881D01*
X849Y881D02*
X853Y881D01*
X882Y881D02*
X886Y881D01*
X891Y881D02*
X895Y881D01*
X901Y881D02*
X904Y881D01*
X920Y881D02*
X924Y881D01*
X934Y881D02*
X938Y881D01*
X1166Y881D02*
X1197Y881D01*
X1215Y881D02*
X1221Y881D01*
X1243Y881D02*
X1249Y881D01*
X1266Y881D02*
X1285Y881D01*
X1468Y881D02*
X1475Y881D01*
X0Y880D02*
X7Y880D01*
X459Y880D02*
X463Y880D01*
X471Y880D02*
X475Y880D01*
X492Y880D02*
X496Y880D01*
X558Y880D02*
X562Y880D01*
X571Y880D02*
X575Y880D01*
X588Y880D02*
X592Y880D01*
X602Y880D02*
X605Y880D01*
X664Y880D02*
X667Y880D01*
X676Y880D02*
X680Y880D01*
X710Y880D02*
X714Y880D01*
X849Y880D02*
X853Y880D01*
X882Y880D02*
X886Y880D01*
X891Y880D02*
X896Y880D01*
X901Y880D02*
X904Y880D01*
X920Y880D02*
X924Y880D01*
X934Y880D02*
X938Y880D01*
X1165Y880D02*
X1198Y880D01*
X1215Y880D02*
X1221Y880D01*
X1243Y880D02*
X1249Y880D01*
X1266Y880D02*
X1285Y880D01*
X1468Y880D02*
X1475Y880D01*
X0Y879D02*
X7Y879D01*
X459Y879D02*
X463Y879D01*
X472Y879D02*
X476Y879D01*
X492Y879D02*
X496Y879D01*
X558Y879D02*
X562Y879D01*
X572Y879D02*
X575Y879D01*
X588Y879D02*
X592Y879D01*
X602Y879D02*
X605Y879D01*
X664Y879D02*
X667Y879D01*
X677Y879D02*
X681Y879D01*
X709Y879D02*
X714Y879D01*
X849Y879D02*
X853Y879D01*
X882Y879D02*
X886Y879D01*
X892Y879D02*
X896Y879D01*
X901Y879D02*
X904Y879D01*
X920Y879D02*
X924Y879D01*
X934Y879D02*
X938Y879D01*
X1165Y879D02*
X1198Y879D01*
X1215Y879D02*
X1221Y879D01*
X1243Y879D02*
X1249Y879D01*
X1267Y879D02*
X1285Y879D01*
X1468Y879D02*
X1475Y879D01*
X0Y878D02*
X7Y878D01*
X459Y878D02*
X463Y878D01*
X472Y878D02*
X476Y878D01*
X492Y878D02*
X506Y878D01*
X558Y878D02*
X562Y878D01*
X572Y878D02*
X575Y878D01*
X588Y878D02*
X592Y878D01*
X602Y878D02*
X605Y878D01*
X664Y878D02*
X667Y878D01*
X677Y878D02*
X681Y878D01*
X697Y878D02*
X713Y878D01*
X849Y878D02*
X853Y878D01*
X861Y878D02*
X871Y878D01*
X882Y878D02*
X886Y878D01*
X892Y878D02*
X896Y878D01*
X901Y878D02*
X904Y878D01*
X920Y878D02*
X924Y878D01*
X934Y878D02*
X938Y878D01*
X1165Y878D02*
X1171Y878D01*
X1191Y878D02*
X1198Y878D01*
X1215Y878D02*
X1221Y878D01*
X1243Y878D02*
X1249Y878D01*
X1279Y878D02*
X1285Y878D01*
X1468Y878D02*
X1475Y878D01*
X0Y877D02*
X7Y877D01*
X459Y877D02*
X463Y877D01*
X473Y877D02*
X476Y877D01*
X492Y877D02*
X508Y877D01*
X558Y877D02*
X562Y877D01*
X572Y877D02*
X575Y877D01*
X588Y877D02*
X592Y877D01*
X602Y877D02*
X605Y877D01*
X664Y877D02*
X667Y877D01*
X677Y877D02*
X681Y877D01*
X697Y877D02*
X713Y877D01*
X849Y877D02*
X853Y877D01*
X861Y877D02*
X871Y877D01*
X882Y877D02*
X886Y877D01*
X893Y877D02*
X897Y877D01*
X901Y877D02*
X904Y877D01*
X920Y877D02*
X924Y877D01*
X933Y877D02*
X937Y877D01*
X1165Y877D02*
X1171Y877D01*
X1192Y877D02*
X1199Y877D01*
X1215Y877D02*
X1221Y877D01*
X1243Y877D02*
X1249Y877D01*
X1279Y877D02*
X1285Y877D01*
X1468Y877D02*
X1475Y877D01*
X0Y876D02*
X7Y876D01*
X459Y876D02*
X463Y876D01*
X473Y876D02*
X476Y876D01*
X492Y876D02*
X509Y876D01*
X558Y876D02*
X562Y876D01*
X571Y876D02*
X575Y876D01*
X588Y876D02*
X607Y876D01*
X664Y876D02*
X667Y876D01*
X677Y876D02*
X681Y876D01*
X697Y876D02*
X713Y876D01*
X849Y876D02*
X853Y876D01*
X861Y876D02*
X871Y876D01*
X882Y876D02*
X886Y876D01*
X893Y876D02*
X897Y876D01*
X901Y876D02*
X904Y876D01*
X920Y876D02*
X924Y876D01*
X933Y876D02*
X937Y876D01*
X1165Y876D02*
X1172Y876D01*
X1193Y876D02*
X1199Y876D01*
X1215Y876D02*
X1221Y876D01*
X1243Y876D02*
X1249Y876D01*
X1279Y876D02*
X1285Y876D01*
X1468Y876D02*
X1475Y876D01*
X0Y875D02*
X7Y875D01*
X459Y875D02*
X463Y875D01*
X473Y875D02*
X476Y875D01*
X492Y875D02*
X509Y875D01*
X558Y875D02*
X562Y875D01*
X571Y875D02*
X575Y875D01*
X588Y875D02*
X607Y875D01*
X664Y875D02*
X667Y875D01*
X677Y875D02*
X681Y875D01*
X698Y875D02*
X713Y875D01*
X849Y875D02*
X853Y875D01*
X861Y875D02*
X871Y875D01*
X882Y875D02*
X886Y875D01*
X894Y875D02*
X898Y875D01*
X901Y875D02*
X904Y875D01*
X920Y875D02*
X924Y875D01*
X932Y875D02*
X936Y875D01*
X1166Y875D02*
X1173Y875D01*
X1193Y875D02*
X1198Y875D01*
X1215Y875D02*
X1221Y875D01*
X1243Y875D02*
X1249Y875D01*
X1279Y875D02*
X1285Y875D01*
X1468Y875D02*
X1475Y875D01*
X0Y874D02*
X7Y874D01*
X459Y874D02*
X463Y874D01*
X472Y874D02*
X476Y874D01*
X492Y874D02*
X510Y874D01*
X558Y874D02*
X562Y874D01*
X570Y874D02*
X574Y874D01*
X588Y874D02*
X608Y874D01*
X664Y874D02*
X667Y874D01*
X677Y874D02*
X681Y874D01*
X709Y874D02*
X714Y874D01*
X849Y874D02*
X853Y874D01*
X863Y874D02*
X871Y874D01*
X882Y874D02*
X886Y874D01*
X894Y874D02*
X898Y874D01*
X901Y874D02*
X904Y874D01*
X920Y874D02*
X924Y874D01*
X932Y874D02*
X936Y874D01*
X1166Y874D02*
X1174Y874D01*
X1193Y874D02*
X1198Y874D01*
X1215Y874D02*
X1221Y874D01*
X1243Y874D02*
X1249Y874D01*
X1279Y874D02*
X1285Y874D01*
X1468Y874D02*
X1475Y874D01*
X0Y873D02*
X7Y873D01*
X459Y873D02*
X463Y873D01*
X472Y873D02*
X476Y873D01*
X506Y873D02*
X510Y873D01*
X558Y873D02*
X562Y873D01*
X570Y873D02*
X574Y873D01*
X588Y873D02*
X607Y873D01*
X664Y873D02*
X667Y873D01*
X676Y873D02*
X680Y873D01*
X710Y873D02*
X714Y873D01*
X849Y873D02*
X853Y873D01*
X867Y873D02*
X871Y873D01*
X882Y873D02*
X886Y873D01*
X895Y873D02*
X899Y873D01*
X901Y873D02*
X904Y873D01*
X920Y873D02*
X924Y873D01*
X931Y873D02*
X935Y873D01*
X1167Y873D02*
X1174Y873D01*
X1195Y873D02*
X1197Y873D01*
X1215Y873D02*
X1221Y873D01*
X1243Y873D02*
X1249Y873D01*
X1279Y873D02*
X1285Y873D01*
X1468Y873D02*
X1475Y873D01*
X0Y872D02*
X7Y872D01*
X459Y872D02*
X463Y872D01*
X471Y872D02*
X475Y872D01*
X506Y872D02*
X510Y872D01*
X558Y872D02*
X562Y872D01*
X569Y872D02*
X574Y872D01*
X588Y872D02*
X606Y872D01*
X664Y872D02*
X667Y872D01*
X676Y872D02*
X680Y872D01*
X711Y872D02*
X714Y872D01*
X849Y872D02*
X853Y872D01*
X867Y872D02*
X871Y872D01*
X882Y872D02*
X886Y872D01*
X895Y872D02*
X899Y872D01*
X901Y872D02*
X904Y872D01*
X920Y872D02*
X924Y872D01*
X931Y872D02*
X935Y872D01*
X1167Y872D02*
X1175Y872D01*
X1215Y872D02*
X1221Y872D01*
X1243Y872D02*
X1249Y872D01*
X1279Y872D02*
X1285Y872D01*
X1468Y872D02*
X1475Y872D01*
X0Y871D02*
X7Y871D01*
X459Y871D02*
X463Y871D01*
X471Y871D02*
X475Y871D01*
X506Y871D02*
X510Y871D01*
X558Y871D02*
X562Y871D01*
X569Y871D02*
X573Y871D01*
X602Y871D02*
X605Y871D01*
X664Y871D02*
X667Y871D01*
X675Y871D02*
X679Y871D01*
X711Y871D02*
X714Y871D01*
X849Y871D02*
X853Y871D01*
X867Y871D02*
X871Y871D01*
X882Y871D02*
X886Y871D01*
X895Y871D02*
X904Y871D01*
X920Y871D02*
X924Y871D01*
X930Y871D02*
X934Y871D01*
X1168Y871D02*
X1176Y871D01*
X1215Y871D02*
X1221Y871D01*
X1243Y871D02*
X1249Y871D01*
X1279Y871D02*
X1285Y871D01*
X1468Y871D02*
X1475Y871D01*
X0Y870D02*
X7Y870D01*
X459Y870D02*
X463Y870D01*
X470Y870D02*
X475Y870D01*
X506Y870D02*
X510Y870D01*
X558Y870D02*
X562Y870D01*
X568Y870D02*
X573Y870D01*
X602Y870D02*
X605Y870D01*
X664Y870D02*
X667Y870D01*
X675Y870D02*
X679Y870D01*
X711Y870D02*
X714Y870D01*
X849Y870D02*
X853Y870D01*
X867Y870D02*
X871Y870D01*
X882Y870D02*
X886Y870D01*
X896Y870D02*
X904Y870D01*
X920Y870D02*
X924Y870D01*
X930Y870D02*
X934Y870D01*
X1169Y870D02*
X1177Y870D01*
X1215Y870D02*
X1221Y870D01*
X1243Y870D02*
X1249Y870D01*
X1279Y870D02*
X1285Y870D01*
X1468Y870D02*
X1475Y870D01*
X0Y869D02*
X7Y869D01*
X459Y869D02*
X463Y869D01*
X470Y869D02*
X474Y869D01*
X506Y869D02*
X510Y869D01*
X558Y869D02*
X562Y869D01*
X568Y869D02*
X572Y869D01*
X602Y869D02*
X605Y869D01*
X664Y869D02*
X667Y869D01*
X674Y869D02*
X678Y869D01*
X711Y869D02*
X714Y869D01*
X849Y869D02*
X853Y869D01*
X867Y869D02*
X871Y869D01*
X882Y869D02*
X886Y869D01*
X896Y869D02*
X904Y869D01*
X920Y869D02*
X924Y869D01*
X929Y869D02*
X933Y869D01*
X1170Y869D02*
X1178Y869D01*
X1215Y869D02*
X1221Y869D01*
X1243Y869D02*
X1249Y869D01*
X1279Y869D02*
X1285Y869D01*
X1468Y869D02*
X1475Y869D01*
X0Y868D02*
X7Y868D01*
X459Y868D02*
X463Y868D01*
X469Y868D02*
X474Y868D01*
X506Y868D02*
X510Y868D01*
X558Y868D02*
X562Y868D01*
X567Y868D02*
X572Y868D01*
X602Y868D02*
X605Y868D01*
X664Y868D02*
X667Y868D01*
X674Y868D02*
X678Y868D01*
X711Y868D02*
X714Y868D01*
X849Y868D02*
X853Y868D01*
X867Y868D02*
X871Y868D01*
X882Y868D02*
X886Y868D01*
X897Y868D02*
X904Y868D01*
X920Y868D02*
X924Y868D01*
X929Y868D02*
X933Y868D01*
X1170Y868D02*
X1178Y868D01*
X1215Y868D02*
X1221Y868D01*
X1243Y868D02*
X1249Y868D01*
X1279Y868D02*
X1285Y868D01*
X1468Y868D02*
X1475Y868D01*
X0Y867D02*
X7Y867D01*
X459Y867D02*
X463Y867D01*
X469Y867D02*
X473Y867D01*
X506Y867D02*
X510Y867D01*
X558Y867D02*
X562Y867D01*
X567Y867D02*
X571Y867D01*
X602Y867D02*
X605Y867D01*
X664Y867D02*
X667Y867D01*
X673Y867D02*
X677Y867D01*
X711Y867D02*
X714Y867D01*
X850Y867D02*
X855Y867D01*
X866Y867D02*
X871Y867D01*
X882Y867D02*
X886Y867D01*
X897Y867D02*
X904Y867D01*
X920Y867D02*
X924Y867D01*
X927Y867D02*
X932Y867D01*
X1171Y867D02*
X1179Y867D01*
X1215Y867D02*
X1221Y867D01*
X1230Y867D02*
X1234Y867D01*
X1243Y867D02*
X1249Y867D01*
X1279Y867D02*
X1285Y867D01*
X1468Y867D02*
X1475Y867D01*
X0Y866D02*
X7Y866D01*
X459Y866D02*
X463Y866D01*
X468Y866D02*
X473Y866D01*
X506Y866D02*
X510Y866D01*
X558Y866D02*
X562Y866D01*
X566Y866D02*
X571Y866D01*
X602Y866D02*
X605Y866D01*
X664Y866D02*
X667Y866D01*
X673Y866D02*
X677Y866D01*
X711Y866D02*
X714Y866D01*
X850Y866D02*
X870Y866D01*
X882Y866D02*
X886Y866D01*
X898Y866D02*
X904Y866D01*
X916Y866D02*
X932Y866D01*
X1172Y866D02*
X1180Y866D01*
X1215Y866D02*
X1221Y866D01*
X1230Y866D02*
X1235Y866D01*
X1243Y866D02*
X1249Y866D01*
X1279Y866D02*
X1285Y866D01*
X1468Y866D02*
X1475Y866D01*
X0Y865D02*
X7Y865D01*
X459Y865D02*
X463Y865D01*
X468Y865D02*
X472Y865D01*
X506Y865D02*
X510Y865D01*
X558Y865D02*
X562Y865D01*
X565Y865D02*
X570Y865D01*
X602Y865D02*
X605Y865D01*
X664Y865D02*
X667Y865D01*
X672Y865D02*
X676Y865D01*
X711Y865D02*
X714Y865D01*
X851Y865D02*
X870Y865D01*
X882Y865D02*
X886Y865D01*
X898Y865D02*
X904Y865D01*
X916Y865D02*
X931Y865D01*
X1173Y865D02*
X1181Y865D01*
X1215Y865D02*
X1221Y865D01*
X1229Y865D02*
X1235Y865D01*
X1243Y865D02*
X1249Y865D01*
X1279Y865D02*
X1285Y865D01*
X1468Y865D02*
X1475Y865D01*
X0Y864D02*
X7Y864D01*
X459Y864D02*
X463Y864D01*
X467Y864D02*
X472Y864D01*
X489Y864D02*
X491Y864D01*
X506Y864D02*
X510Y864D01*
X554Y864D02*
X570Y864D01*
X602Y864D02*
X605Y864D01*
X664Y864D02*
X667Y864D01*
X671Y864D02*
X676Y864D01*
X711Y864D02*
X714Y864D01*
X852Y864D02*
X869Y864D01*
X883Y864D02*
X886Y864D01*
X898Y864D02*
X904Y864D01*
X916Y864D02*
X930Y864D01*
X1173Y864D02*
X1181Y864D01*
X1215Y864D02*
X1221Y864D01*
X1229Y864D02*
X1235Y864D01*
X1243Y864D02*
X1249Y864D01*
X1279Y864D02*
X1285Y864D01*
X1468Y864D02*
X1475Y864D01*
X0Y863D02*
X7Y863D01*
X459Y863D02*
X463Y863D01*
X466Y863D02*
X471Y863D01*
X488Y863D02*
X493Y863D01*
X506Y863D02*
X510Y863D01*
X554Y863D02*
X569Y863D01*
X602Y863D02*
X605Y863D01*
X660Y863D02*
X675Y863D01*
X694Y863D02*
X714Y863D01*
X853Y863D02*
X867Y863D01*
X883Y863D02*
X885Y863D01*
X899Y863D02*
X904Y863D01*
X917Y863D02*
X929Y863D01*
X1174Y863D02*
X1182Y863D01*
X1215Y863D02*
X1221Y863D01*
X1229Y863D02*
X1235Y863D01*
X1243Y863D02*
X1249Y863D01*
X1279Y863D02*
X1285Y863D01*
X1468Y863D02*
X1475Y863D01*
X0Y862D02*
X7Y862D01*
X455Y862D02*
X471Y862D01*
X488Y862D02*
X510Y862D01*
X554Y862D02*
X568Y862D01*
X602Y862D02*
X605Y862D01*
X659Y862D02*
X675Y862D01*
X693Y862D02*
X714Y862D01*
X1175Y862D02*
X1183Y862D01*
X1215Y862D02*
X1221Y862D01*
X1229Y862D02*
X1235Y862D01*
X1243Y862D02*
X1249Y862D01*
X1279Y862D02*
X1285Y862D01*
X1468Y862D02*
X1475Y862D01*
X0Y861D02*
X7Y861D01*
X454Y861D02*
X470Y861D01*
X488Y861D02*
X509Y861D01*
X554Y861D02*
X567Y861D01*
X602Y861D02*
X605Y861D01*
X659Y861D02*
X674Y861D01*
X692Y861D02*
X714Y861D01*
X1176Y861D02*
X1184Y861D01*
X1215Y861D02*
X1221Y861D01*
X1229Y861D02*
X1235Y861D01*
X1243Y861D02*
X1249Y861D01*
X1279Y861D02*
X1285Y861D01*
X1468Y861D02*
X1475Y861D01*
X0Y860D02*
X7Y860D01*
X454Y860D02*
X469Y860D01*
X489Y860D02*
X509Y860D01*
X659Y860D02*
X673Y860D01*
X693Y860D02*
X713Y860D01*
X1177Y860D02*
X1185Y860D01*
X1215Y860D02*
X1221Y860D01*
X1229Y860D02*
X1235Y860D01*
X1243Y860D02*
X1249Y860D01*
X1279Y860D02*
X1285Y860D01*
X1468Y860D02*
X1475Y860D01*
X0Y859D02*
X7Y859D01*
X455Y859D02*
X468Y859D01*
X491Y859D02*
X508Y859D01*
X660Y859D02*
X671Y859D01*
X693Y859D02*
X711Y859D01*
X1177Y859D02*
X1185Y859D01*
X1215Y859D02*
X1221Y859D01*
X1229Y859D02*
X1235Y859D01*
X1243Y859D02*
X1249Y859D01*
X1279Y859D02*
X1285Y859D01*
X1468Y859D02*
X1475Y859D01*
X0Y858D02*
X7Y858D01*
X456Y858D02*
X465Y858D01*
X495Y858D02*
X505Y858D01*
X1178Y858D02*
X1186Y858D01*
X1215Y858D02*
X1221Y858D01*
X1229Y858D02*
X1235Y858D01*
X1243Y858D02*
X1249Y858D01*
X1279Y858D02*
X1285Y858D01*
X1468Y858D02*
X1475Y858D01*
X0Y857D02*
X7Y857D01*
X1179Y857D02*
X1187Y857D01*
X1215Y857D02*
X1221Y857D01*
X1229Y857D02*
X1235Y857D01*
X1243Y857D02*
X1249Y857D01*
X1279Y857D02*
X1285Y857D01*
X1468Y857D02*
X1475Y857D01*
X0Y856D02*
X7Y856D01*
X1180Y856D02*
X1188Y856D01*
X1215Y856D02*
X1221Y856D01*
X1229Y856D02*
X1235Y856D01*
X1243Y856D02*
X1249Y856D01*
X1279Y856D02*
X1285Y856D01*
X1468Y856D02*
X1475Y856D01*
X0Y855D02*
X7Y855D01*
X1180Y855D02*
X1188Y855D01*
X1215Y855D02*
X1221Y855D01*
X1229Y855D02*
X1235Y855D01*
X1243Y855D02*
X1249Y855D01*
X1279Y855D02*
X1285Y855D01*
X1294Y855D02*
X1298Y855D01*
X1468Y855D02*
X1475Y855D01*
X0Y854D02*
X7Y854D01*
X1181Y854D02*
X1189Y854D01*
X1215Y854D02*
X1221Y854D01*
X1229Y854D02*
X1235Y854D01*
X1243Y854D02*
X1249Y854D01*
X1279Y854D02*
X1285Y854D01*
X1293Y854D02*
X1299Y854D01*
X1468Y854D02*
X1475Y854D01*
X0Y853D02*
X7Y853D01*
X1182Y853D02*
X1190Y853D01*
X1215Y853D02*
X1221Y853D01*
X1229Y853D02*
X1235Y853D01*
X1243Y853D02*
X1249Y853D01*
X1279Y853D02*
X1285Y853D01*
X1293Y853D02*
X1299Y853D01*
X1468Y853D02*
X1475Y853D01*
X0Y852D02*
X7Y852D01*
X1183Y852D02*
X1191Y852D01*
X1215Y852D02*
X1221Y852D01*
X1229Y852D02*
X1235Y852D01*
X1243Y852D02*
X1249Y852D01*
X1279Y852D02*
X1285Y852D01*
X1293Y852D02*
X1299Y852D01*
X1468Y852D02*
X1475Y852D01*
X0Y851D02*
X7Y851D01*
X1183Y851D02*
X1192Y851D01*
X1215Y851D02*
X1221Y851D01*
X1229Y851D02*
X1235Y851D01*
X1243Y851D02*
X1249Y851D01*
X1279Y851D02*
X1285Y851D01*
X1293Y851D02*
X1299Y851D01*
X1468Y851D02*
X1475Y851D01*
X0Y850D02*
X7Y850D01*
X1184Y850D02*
X1192Y850D01*
X1215Y850D02*
X1221Y850D01*
X1229Y850D02*
X1235Y850D01*
X1243Y850D02*
X1249Y850D01*
X1279Y850D02*
X1285Y850D01*
X1293Y850D02*
X1299Y850D01*
X1468Y850D02*
X1475Y850D01*
X0Y849D02*
X7Y849D01*
X1185Y849D02*
X1193Y849D01*
X1215Y849D02*
X1221Y849D01*
X1229Y849D02*
X1235Y849D01*
X1243Y849D02*
X1249Y849D01*
X1279Y849D02*
X1285Y849D01*
X1293Y849D02*
X1299Y849D01*
X1468Y849D02*
X1475Y849D01*
X0Y848D02*
X7Y848D01*
X1186Y848D02*
X1194Y848D01*
X1215Y848D02*
X1221Y848D01*
X1229Y848D02*
X1235Y848D01*
X1243Y848D02*
X1249Y848D01*
X1279Y848D02*
X1285Y848D01*
X1293Y848D02*
X1299Y848D01*
X1468Y848D02*
X1475Y848D01*
X0Y847D02*
X7Y847D01*
X1187Y847D02*
X1195Y847D01*
X1215Y847D02*
X1221Y847D01*
X1229Y847D02*
X1235Y847D01*
X1243Y847D02*
X1249Y847D01*
X1279Y847D02*
X1285Y847D01*
X1293Y847D02*
X1299Y847D01*
X1468Y847D02*
X1475Y847D01*
X0Y846D02*
X7Y846D01*
X1187Y846D02*
X1195Y846D01*
X1215Y846D02*
X1221Y846D01*
X1229Y846D02*
X1235Y846D01*
X1243Y846D02*
X1249Y846D01*
X1279Y846D02*
X1285Y846D01*
X1293Y846D02*
X1299Y846D01*
X1468Y846D02*
X1475Y846D01*
X0Y845D02*
X7Y845D01*
X1188Y845D02*
X1196Y845D01*
X1215Y845D02*
X1221Y845D01*
X1229Y845D02*
X1235Y845D01*
X1243Y845D02*
X1249Y845D01*
X1279Y845D02*
X1285Y845D01*
X1293Y845D02*
X1299Y845D01*
X1468Y845D02*
X1475Y845D01*
X0Y844D02*
X7Y844D01*
X1168Y844D02*
X1169Y844D01*
X1189Y844D02*
X1197Y844D01*
X1215Y844D02*
X1221Y844D01*
X1229Y844D02*
X1235Y844D01*
X1243Y844D02*
X1249Y844D01*
X1279Y844D02*
X1285Y844D01*
X1293Y844D02*
X1299Y844D01*
X1468Y844D02*
X1475Y844D01*
X0Y843D02*
X7Y843D01*
X1166Y843D02*
X1170Y843D01*
X1190Y843D02*
X1198Y843D01*
X1215Y843D02*
X1221Y843D01*
X1229Y843D02*
X1235Y843D01*
X1243Y843D02*
X1249Y843D01*
X1279Y843D02*
X1285Y843D01*
X1293Y843D02*
X1299Y843D01*
X1468Y843D02*
X1475Y843D01*
X0Y842D02*
X7Y842D01*
X1165Y842D02*
X1171Y842D01*
X1190Y842D02*
X1198Y842D01*
X1215Y842D02*
X1221Y842D01*
X1229Y842D02*
X1235Y842D01*
X1243Y842D02*
X1249Y842D01*
X1279Y842D02*
X1285Y842D01*
X1293Y842D02*
X1299Y842D01*
X1468Y842D02*
X1475Y842D01*
X0Y841D02*
X7Y841D01*
X1165Y841D02*
X1171Y841D01*
X1191Y841D02*
X1198Y841D01*
X1215Y841D02*
X1222Y841D01*
X1229Y841D02*
X1236Y841D01*
X1242Y841D02*
X1249Y841D01*
X1279Y841D02*
X1285Y841D01*
X1293Y841D02*
X1299Y841D01*
X1468Y841D02*
X1475Y841D01*
X0Y840D02*
X7Y840D01*
X1165Y840D02*
X1171Y840D01*
X1192Y840D02*
X1199Y840D01*
X1215Y840D02*
X1222Y840D01*
X1228Y840D02*
X1236Y840D01*
X1242Y840D02*
X1249Y840D01*
X1279Y840D02*
X1285Y840D01*
X1293Y840D02*
X1299Y840D01*
X1468Y840D02*
X1475Y840D01*
X0Y839D02*
X7Y839D01*
X1165Y839D02*
X1172Y839D01*
X1193Y839D02*
X1199Y839D01*
X1216Y839D02*
X1223Y839D01*
X1227Y839D02*
X1237Y839D01*
X1241Y839D02*
X1248Y839D01*
X1279Y839D02*
X1285Y839D01*
X1293Y839D02*
X1299Y839D01*
X1468Y839D02*
X1475Y839D01*
X0Y838D02*
X7Y838D01*
X1166Y838D02*
X1199Y838D01*
X1216Y838D02*
X1248Y838D01*
X1268Y838D02*
X1299Y838D01*
X1468Y838D02*
X1475Y838D01*
X0Y837D02*
X7Y837D01*
X1166Y837D02*
X1198Y837D01*
X1217Y837D02*
X1247Y837D01*
X1266Y837D02*
X1299Y837D01*
X1468Y837D02*
X1475Y837D01*
X0Y836D02*
X7Y836D01*
X1166Y836D02*
X1198Y836D01*
X1217Y836D02*
X1247Y836D01*
X1266Y836D02*
X1299Y836D01*
X1468Y836D02*
X1475Y836D01*
X0Y835D02*
X7Y835D01*
X1167Y835D02*
X1197Y835D01*
X1218Y835D02*
X1246Y835D01*
X1266Y835D02*
X1299Y835D01*
X1468Y835D02*
X1475Y835D01*
X0Y834D02*
X7Y834D01*
X1168Y834D02*
X1197Y834D01*
X1219Y834D02*
X1245Y834D01*
X1266Y834D02*
X1299Y834D01*
X1468Y834D02*
X1475Y834D01*
X0Y833D02*
X7Y833D01*
X1169Y833D02*
X1196Y833D01*
X1219Y833D02*
X1231Y833D01*
X1233Y833D02*
X1245Y833D01*
X1266Y833D02*
X1298Y833D01*
X1468Y833D02*
X1475Y833D01*
X0Y832D02*
X7Y832D01*
X1171Y832D02*
X1194Y832D01*
X1220Y832D02*
X1230Y832D01*
X1234Y832D02*
X1244Y832D01*
X1267Y832D02*
X1298Y832D01*
X1468Y832D02*
X1475Y832D01*
X0Y831D02*
X7Y831D01*
X1468Y831D02*
X1475Y831D01*
X0Y830D02*
X7Y830D01*
X1468Y830D02*
X1475Y830D01*
X0Y829D02*
X7Y829D01*
X1468Y829D02*
X1475Y829D01*
X0Y828D02*
X7Y828D01*
X1468Y828D02*
X1475Y828D01*
X0Y827D02*
X7Y827D01*
X1468Y827D02*
X1475Y827D01*
X0Y826D02*
X7Y826D01*
X1468Y826D02*
X1475Y826D01*
X0Y825D02*
X7Y825D01*
X1468Y825D02*
X1475Y825D01*
X0Y824D02*
X7Y824D01*
X1468Y824D02*
X1475Y824D01*
X0Y823D02*
X7Y823D01*
X1468Y823D02*
X1475Y823D01*
X0Y822D02*
X7Y822D01*
X1468Y822D02*
X1475Y822D01*
X0Y821D02*
X7Y821D01*
X1468Y821D02*
X1475Y821D01*
X0Y820D02*
X7Y820D01*
X60Y820D02*
X67Y820D01*
X85Y820D02*
X93Y820D01*
X110Y820D02*
X134Y820D01*
X163Y820D02*
X163Y820D01*
X190Y820D02*
X191Y820D01*
X213Y820D02*
X217Y820D01*
X266Y820D02*
X288Y820D01*
X318Y820D02*
X341Y820D01*
X366Y820D02*
X388Y820D01*
X1468Y820D02*
X1475Y820D01*
X0Y819D02*
X7Y819D01*
X59Y819D02*
X68Y819D01*
X84Y819D02*
X93Y819D01*
X110Y819D02*
X137Y819D01*
X161Y819D02*
X165Y819D01*
X188Y819D02*
X192Y819D01*
X211Y819D02*
X218Y819D01*
X264Y819D02*
X290Y819D01*
X317Y819D02*
X343Y819D01*
X364Y819D02*
X391Y819D01*
X1468Y819D02*
X1475Y819D01*
X0Y818D02*
X7Y818D01*
X59Y818D02*
X69Y818D01*
X84Y818D02*
X93Y818D01*
X110Y818D02*
X139Y818D01*
X160Y818D02*
X166Y818D01*
X188Y818D02*
X193Y818D01*
X210Y818D02*
X219Y818D01*
X262Y818D02*
X292Y818D01*
X317Y818D02*
X344Y818D01*
X363Y818D02*
X392Y818D01*
X1468Y818D02*
X1475Y818D01*
X0Y817D02*
X7Y817D01*
X59Y817D02*
X69Y817D01*
X83Y817D02*
X93Y817D01*
X110Y817D02*
X140Y817D01*
X160Y817D02*
X166Y817D01*
X187Y817D02*
X193Y817D01*
X210Y817D02*
X219Y817D01*
X261Y817D02*
X293Y817D01*
X317Y817D02*
X344Y817D01*
X362Y817D02*
X393Y817D01*
X1468Y817D02*
X1475Y817D01*
X0Y816D02*
X7Y816D01*
X59Y816D02*
X70Y816D01*
X82Y816D02*
X93Y816D01*
X110Y816D02*
X141Y816D01*
X160Y816D02*
X166Y816D01*
X187Y816D02*
X193Y816D01*
X210Y816D02*
X219Y816D01*
X261Y816D02*
X293Y816D01*
X317Y816D02*
X344Y816D01*
X361Y816D02*
X394Y816D01*
X1468Y816D02*
X1475Y816D01*
X0Y815D02*
X7Y815D01*
X59Y815D02*
X71Y815D01*
X82Y815D02*
X93Y815D01*
X110Y815D02*
X142Y815D01*
X160Y815D02*
X166Y815D01*
X187Y815D02*
X193Y815D01*
X210Y815D02*
X219Y815D01*
X261Y815D02*
X294Y815D01*
X317Y815D02*
X344Y815D01*
X361Y815D02*
X394Y815D01*
X1468Y815D02*
X1475Y815D01*
X0Y814D02*
X7Y814D01*
X59Y814D02*
X72Y814D01*
X81Y814D02*
X93Y814D01*
X110Y814D02*
X142Y814D01*
X160Y814D02*
X166Y814D01*
X187Y814D02*
X193Y814D01*
X210Y814D02*
X218Y814D01*
X260Y814D02*
X294Y814D01*
X317Y814D02*
X343Y814D01*
X361Y814D02*
X394Y814D01*
X1468Y814D02*
X1475Y814D01*
X0Y813D02*
X7Y813D01*
X59Y813D02*
X72Y813D01*
X80Y813D02*
X93Y813D01*
X110Y813D02*
X116Y813D01*
X134Y813D02*
X143Y813D01*
X160Y813D02*
X166Y813D01*
X187Y813D02*
X193Y813D01*
X210Y813D02*
X216Y813D01*
X260Y813D02*
X267Y813D01*
X287Y813D02*
X294Y813D01*
X317Y813D02*
X324Y813D01*
X361Y813D02*
X367Y813D01*
X388Y813D02*
X394Y813D01*
X1468Y813D02*
X1475Y813D01*
X0Y812D02*
X7Y812D01*
X59Y812D02*
X73Y812D01*
X80Y812D02*
X93Y812D01*
X110Y812D02*
X116Y812D01*
X136Y812D02*
X143Y812D01*
X160Y812D02*
X166Y812D01*
X187Y812D02*
X193Y812D01*
X210Y812D02*
X216Y812D01*
X260Y812D02*
X266Y812D01*
X288Y812D02*
X294Y812D01*
X317Y812D02*
X323Y812D01*
X361Y812D02*
X367Y812D01*
X388Y812D02*
X394Y812D01*
X1468Y812D02*
X1475Y812D01*
X0Y811D02*
X7Y811D01*
X59Y811D02*
X74Y811D01*
X79Y811D02*
X93Y811D01*
X110Y811D02*
X116Y811D01*
X137Y811D02*
X143Y811D01*
X160Y811D02*
X166Y811D01*
X187Y811D02*
X193Y811D01*
X210Y811D02*
X216Y811D01*
X260Y811D02*
X266Y811D01*
X288Y811D02*
X294Y811D01*
X317Y811D02*
X323Y811D01*
X361Y811D02*
X367Y811D01*
X388Y811D02*
X394Y811D01*
X1468Y811D02*
X1475Y811D01*
X0Y810D02*
X7Y810D01*
X59Y810D02*
X74Y810D01*
X78Y810D02*
X93Y810D01*
X110Y810D02*
X116Y810D01*
X137Y810D02*
X143Y810D01*
X160Y810D02*
X166Y810D01*
X187Y810D02*
X193Y810D01*
X210Y810D02*
X216Y810D01*
X260Y810D02*
X266Y810D01*
X288Y810D02*
X294Y810D01*
X317Y810D02*
X323Y810D01*
X361Y810D02*
X367Y810D01*
X388Y810D02*
X394Y810D01*
X1468Y810D02*
X1475Y810D01*
X0Y809D02*
X7Y809D01*
X59Y809D02*
X65Y809D01*
X67Y809D02*
X75Y809D01*
X77Y809D02*
X85Y809D01*
X87Y809D02*
X93Y809D01*
X110Y809D02*
X116Y809D01*
X137Y809D02*
X143Y809D01*
X160Y809D02*
X166Y809D01*
X187Y809D02*
X193Y809D01*
X210Y809D02*
X216Y809D01*
X260Y809D02*
X266Y809D01*
X288Y809D02*
X294Y809D01*
X317Y809D02*
X323Y809D01*
X361Y809D02*
X367Y809D01*
X388Y809D02*
X394Y809D01*
X1468Y809D02*
X1475Y809D01*
X0Y808D02*
X7Y808D01*
X59Y808D02*
X65Y808D01*
X68Y808D02*
X84Y808D01*
X87Y808D02*
X93Y808D01*
X110Y808D02*
X116Y808D01*
X137Y808D02*
X143Y808D01*
X160Y808D02*
X166Y808D01*
X187Y808D02*
X193Y808D01*
X210Y808D02*
X216Y808D01*
X260Y808D02*
X266Y808D01*
X288Y808D02*
X294Y808D01*
X317Y808D02*
X323Y808D01*
X361Y808D02*
X367Y808D01*
X388Y808D02*
X394Y808D01*
X1468Y808D02*
X1475Y808D01*
X0Y807D02*
X7Y807D01*
X59Y807D02*
X65Y807D01*
X69Y807D02*
X84Y807D01*
X87Y807D02*
X93Y807D01*
X110Y807D02*
X116Y807D01*
X137Y807D02*
X143Y807D01*
X160Y807D02*
X166Y807D01*
X187Y807D02*
X193Y807D01*
X210Y807D02*
X216Y807D01*
X260Y807D02*
X266Y807D01*
X288Y807D02*
X294Y807D01*
X317Y807D02*
X323Y807D01*
X361Y807D02*
X367Y807D01*
X388Y807D02*
X394Y807D01*
X1468Y807D02*
X1475Y807D01*
X0Y806D02*
X7Y806D01*
X59Y806D02*
X65Y806D01*
X70Y806D02*
X83Y806D01*
X87Y806D02*
X93Y806D01*
X110Y806D02*
X116Y806D01*
X137Y806D02*
X143Y806D01*
X160Y806D02*
X166Y806D01*
X187Y806D02*
X193Y806D01*
X210Y806D02*
X216Y806D01*
X260Y806D02*
X266Y806D01*
X288Y806D02*
X294Y806D01*
X317Y806D02*
X323Y806D01*
X361Y806D02*
X367Y806D01*
X388Y806D02*
X394Y806D01*
X1468Y806D02*
X1475Y806D01*
X0Y805D02*
X7Y805D01*
X59Y805D02*
X65Y805D01*
X70Y805D02*
X82Y805D01*
X87Y805D02*
X93Y805D01*
X110Y805D02*
X116Y805D01*
X137Y805D02*
X143Y805D01*
X160Y805D02*
X166Y805D01*
X187Y805D02*
X193Y805D01*
X210Y805D02*
X216Y805D01*
X260Y805D02*
X266Y805D01*
X288Y805D02*
X294Y805D01*
X317Y805D02*
X323Y805D01*
X361Y805D02*
X367Y805D01*
X388Y805D02*
X394Y805D01*
X1468Y805D02*
X1475Y805D01*
X0Y804D02*
X7Y804D01*
X59Y804D02*
X65Y804D01*
X71Y804D02*
X81Y804D01*
X87Y804D02*
X93Y804D01*
X110Y804D02*
X116Y804D01*
X137Y804D02*
X143Y804D01*
X160Y804D02*
X166Y804D01*
X187Y804D02*
X193Y804D01*
X210Y804D02*
X216Y804D01*
X260Y804D02*
X266Y804D01*
X288Y804D02*
X294Y804D01*
X317Y804D02*
X323Y804D01*
X361Y804D02*
X367Y804D01*
X388Y804D02*
X394Y804D01*
X1468Y804D02*
X1475Y804D01*
X0Y803D02*
X7Y803D01*
X59Y803D02*
X65Y803D01*
X72Y803D02*
X81Y803D01*
X87Y803D02*
X93Y803D01*
X110Y803D02*
X116Y803D01*
X137Y803D02*
X143Y803D01*
X160Y803D02*
X166Y803D01*
X187Y803D02*
X193Y803D01*
X210Y803D02*
X216Y803D01*
X260Y803D02*
X266Y803D01*
X288Y803D02*
X294Y803D01*
X317Y803D02*
X323Y803D01*
X361Y803D02*
X367Y803D01*
X388Y803D02*
X394Y803D01*
X1468Y803D02*
X1475Y803D01*
X0Y802D02*
X7Y802D01*
X59Y802D02*
X65Y802D01*
X72Y802D02*
X80Y802D01*
X87Y802D02*
X93Y802D01*
X110Y802D02*
X116Y802D01*
X137Y802D02*
X143Y802D01*
X160Y802D02*
X166Y802D01*
X187Y802D02*
X193Y802D01*
X210Y802D02*
X216Y802D01*
X260Y802D02*
X266Y802D01*
X288Y802D02*
X294Y802D01*
X317Y802D02*
X323Y802D01*
X361Y802D02*
X367Y802D01*
X388Y802D02*
X394Y802D01*
X1468Y802D02*
X1475Y802D01*
X0Y801D02*
X7Y801D01*
X59Y801D02*
X65Y801D01*
X73Y801D02*
X79Y801D01*
X87Y801D02*
X93Y801D01*
X110Y801D02*
X116Y801D01*
X137Y801D02*
X143Y801D01*
X160Y801D02*
X166Y801D01*
X187Y801D02*
X193Y801D01*
X210Y801D02*
X216Y801D01*
X260Y801D02*
X266Y801D01*
X288Y801D02*
X294Y801D01*
X317Y801D02*
X323Y801D01*
X361Y801D02*
X367Y801D01*
X388Y801D02*
X394Y801D01*
X1468Y801D02*
X1475Y801D01*
X0Y800D02*
X7Y800D01*
X59Y800D02*
X65Y800D01*
X73Y800D02*
X79Y800D01*
X87Y800D02*
X93Y800D01*
X110Y800D02*
X116Y800D01*
X137Y800D02*
X143Y800D01*
X160Y800D02*
X166Y800D01*
X187Y800D02*
X193Y800D01*
X210Y800D02*
X216Y800D01*
X260Y800D02*
X266Y800D01*
X288Y800D02*
X294Y800D01*
X317Y800D02*
X323Y800D01*
X361Y800D02*
X367Y800D01*
X388Y800D02*
X394Y800D01*
X1468Y800D02*
X1475Y800D01*
X0Y799D02*
X7Y799D01*
X59Y799D02*
X65Y799D01*
X73Y799D02*
X79Y799D01*
X87Y799D02*
X93Y799D01*
X110Y799D02*
X116Y799D01*
X137Y799D02*
X143Y799D01*
X160Y799D02*
X166Y799D01*
X187Y799D02*
X193Y799D01*
X210Y799D02*
X216Y799D01*
X260Y799D02*
X266Y799D01*
X288Y799D02*
X294Y799D01*
X317Y799D02*
X323Y799D01*
X361Y799D02*
X367Y799D01*
X388Y799D02*
X394Y799D01*
X1468Y799D02*
X1475Y799D01*
X0Y798D02*
X7Y798D01*
X59Y798D02*
X65Y798D01*
X73Y798D02*
X79Y798D01*
X87Y798D02*
X93Y798D01*
X110Y798D02*
X116Y798D01*
X137Y798D02*
X143Y798D01*
X160Y798D02*
X166Y798D01*
X187Y798D02*
X193Y798D01*
X210Y798D02*
X216Y798D01*
X260Y798D02*
X266Y798D01*
X288Y798D02*
X294Y798D01*
X317Y798D02*
X323Y798D01*
X361Y798D02*
X367Y798D01*
X388Y798D02*
X394Y798D01*
X1468Y798D02*
X1475Y798D01*
X0Y797D02*
X7Y797D01*
X59Y797D02*
X65Y797D01*
X74Y797D02*
X79Y797D01*
X87Y797D02*
X93Y797D01*
X110Y797D02*
X116Y797D01*
X137Y797D02*
X143Y797D01*
X160Y797D02*
X166Y797D01*
X187Y797D02*
X193Y797D01*
X210Y797D02*
X216Y797D01*
X260Y797D02*
X266Y797D01*
X288Y797D02*
X294Y797D01*
X317Y797D02*
X323Y797D01*
X361Y797D02*
X367Y797D01*
X388Y797D02*
X394Y797D01*
X1468Y797D02*
X1475Y797D01*
X0Y796D02*
X7Y796D01*
X59Y796D02*
X65Y796D01*
X75Y796D02*
X78Y796D01*
X87Y796D02*
X93Y796D01*
X110Y796D02*
X116Y796D01*
X137Y796D02*
X143Y796D01*
X160Y796D02*
X166Y796D01*
X187Y796D02*
X193Y796D01*
X210Y796D02*
X216Y796D01*
X260Y796D02*
X266Y796D01*
X288Y796D02*
X294Y796D01*
X317Y796D02*
X340Y796D01*
X361Y796D02*
X367Y796D01*
X388Y796D02*
X394Y796D01*
X1468Y796D02*
X1475Y796D01*
X0Y795D02*
X7Y795D01*
X59Y795D02*
X65Y795D01*
X87Y795D02*
X93Y795D01*
X110Y795D02*
X116Y795D01*
X136Y795D02*
X143Y795D01*
X160Y795D02*
X166Y795D01*
X187Y795D02*
X193Y795D01*
X210Y795D02*
X216Y795D01*
X260Y795D02*
X266Y795D01*
X288Y795D02*
X294Y795D01*
X317Y795D02*
X341Y795D01*
X361Y795D02*
X367Y795D01*
X388Y795D02*
X394Y795D01*
X1468Y795D02*
X1475Y795D01*
X0Y794D02*
X7Y794D01*
X59Y794D02*
X65Y794D01*
X87Y794D02*
X93Y794D01*
X110Y794D02*
X116Y794D01*
X135Y794D02*
X143Y794D01*
X160Y794D02*
X166Y794D01*
X187Y794D02*
X193Y794D01*
X210Y794D02*
X216Y794D01*
X260Y794D02*
X266Y794D01*
X288Y794D02*
X294Y794D01*
X317Y794D02*
X342Y794D01*
X361Y794D02*
X367Y794D01*
X388Y794D02*
X394Y794D01*
X1468Y794D02*
X1475Y794D01*
X0Y793D02*
X7Y793D01*
X59Y793D02*
X65Y793D01*
X87Y793D02*
X93Y793D01*
X110Y793D02*
X142Y793D01*
X160Y793D02*
X166Y793D01*
X187Y793D02*
X193Y793D01*
X210Y793D02*
X216Y793D01*
X260Y793D02*
X266Y793D01*
X288Y793D02*
X294Y793D01*
X317Y793D02*
X343Y793D01*
X361Y793D02*
X367Y793D01*
X388Y793D02*
X394Y793D01*
X1468Y793D02*
X1475Y793D01*
X0Y792D02*
X7Y792D01*
X59Y792D02*
X65Y792D01*
X87Y792D02*
X93Y792D01*
X110Y792D02*
X142Y792D01*
X160Y792D02*
X166Y792D01*
X187Y792D02*
X193Y792D01*
X210Y792D02*
X216Y792D01*
X260Y792D02*
X266Y792D01*
X288Y792D02*
X294Y792D01*
X317Y792D02*
X344Y792D01*
X361Y792D02*
X367Y792D01*
X388Y792D02*
X394Y792D01*
X1468Y792D02*
X1475Y792D01*
X0Y791D02*
X7Y791D01*
X59Y791D02*
X65Y791D01*
X87Y791D02*
X93Y791D01*
X110Y791D02*
X141Y791D01*
X160Y791D02*
X166Y791D01*
X187Y791D02*
X193Y791D01*
X210Y791D02*
X216Y791D01*
X260Y791D02*
X266Y791D01*
X288Y791D02*
X294Y791D01*
X317Y791D02*
X344Y791D01*
X361Y791D02*
X367Y791D01*
X388Y791D02*
X394Y791D01*
X1468Y791D02*
X1475Y791D01*
X0Y790D02*
X7Y790D01*
X59Y790D02*
X65Y790D01*
X87Y790D02*
X93Y790D01*
X110Y790D02*
X140Y790D01*
X160Y790D02*
X166Y790D01*
X187Y790D02*
X193Y790D01*
X210Y790D02*
X242Y790D01*
X260Y790D02*
X266Y790D01*
X288Y790D02*
X294Y790D01*
X317Y790D02*
X344Y790D01*
X361Y790D02*
X367Y790D01*
X388Y790D02*
X394Y790D01*
X1468Y790D02*
X1475Y790D01*
X0Y789D02*
X7Y789D01*
X59Y789D02*
X65Y789D01*
X87Y789D02*
X93Y789D01*
X110Y789D02*
X139Y789D01*
X160Y789D02*
X166Y789D01*
X187Y789D02*
X193Y789D01*
X210Y789D02*
X243Y789D01*
X260Y789D02*
X266Y789D01*
X288Y789D02*
X294Y789D01*
X338Y789D02*
X344Y789D01*
X361Y789D02*
X367Y789D01*
X388Y789D02*
X394Y789D01*
X1468Y789D02*
X1475Y789D01*
X0Y788D02*
X7Y788D01*
X59Y788D02*
X65Y788D01*
X87Y788D02*
X93Y788D01*
X110Y788D02*
X138Y788D01*
X160Y788D02*
X166Y788D01*
X187Y788D02*
X193Y788D01*
X210Y788D02*
X243Y788D01*
X260Y788D02*
X266Y788D01*
X288Y788D02*
X294Y788D01*
X338Y788D02*
X344Y788D01*
X361Y788D02*
X367Y788D01*
X388Y788D02*
X394Y788D01*
X1468Y788D02*
X1475Y788D01*
X0Y787D02*
X7Y787D01*
X59Y787D02*
X65Y787D01*
X87Y787D02*
X93Y787D01*
X110Y787D02*
X135Y787D01*
X160Y787D02*
X166Y787D01*
X187Y787D02*
X193Y787D01*
X210Y787D02*
X244Y787D01*
X260Y787D02*
X266Y787D01*
X288Y787D02*
X294Y787D01*
X338Y787D02*
X344Y787D01*
X361Y787D02*
X367Y787D01*
X388Y787D02*
X394Y787D01*
X1468Y787D02*
X1475Y787D01*
X0Y786D02*
X7Y786D01*
X59Y786D02*
X65Y786D01*
X87Y786D02*
X93Y786D01*
X110Y786D02*
X116Y786D01*
X160Y786D02*
X166Y786D01*
X187Y786D02*
X193Y786D01*
X210Y786D02*
X244Y786D01*
X260Y786D02*
X266Y786D01*
X288Y786D02*
X294Y786D01*
X338Y786D02*
X344Y786D01*
X361Y786D02*
X367Y786D01*
X388Y786D02*
X394Y786D01*
X1468Y786D02*
X1475Y786D01*
X0Y785D02*
X7Y785D01*
X59Y785D02*
X65Y785D01*
X87Y785D02*
X93Y785D01*
X110Y785D02*
X116Y785D01*
X160Y785D02*
X166Y785D01*
X187Y785D02*
X193Y785D01*
X210Y785D02*
X244Y785D01*
X260Y785D02*
X266Y785D01*
X288Y785D02*
X294Y785D01*
X338Y785D02*
X344Y785D01*
X361Y785D02*
X367Y785D01*
X388Y785D02*
X394Y785D01*
X1468Y785D02*
X1475Y785D01*
X0Y784D02*
X7Y784D01*
X59Y784D02*
X65Y784D01*
X87Y784D02*
X93Y784D01*
X110Y784D02*
X116Y784D01*
X160Y784D02*
X166Y784D01*
X187Y784D02*
X193Y784D01*
X210Y784D02*
X244Y784D01*
X260Y784D02*
X266Y784D01*
X288Y784D02*
X294Y784D01*
X338Y784D02*
X344Y784D01*
X361Y784D02*
X367Y784D01*
X388Y784D02*
X394Y784D01*
X1468Y784D02*
X1475Y784D01*
X0Y783D02*
X7Y783D01*
X59Y783D02*
X65Y783D01*
X87Y783D02*
X93Y783D01*
X110Y783D02*
X116Y783D01*
X160Y783D02*
X166Y783D01*
X187Y783D02*
X193Y783D01*
X210Y783D02*
X216Y783D01*
X238Y783D02*
X244Y783D01*
X260Y783D02*
X266Y783D01*
X288Y783D02*
X294Y783D01*
X338Y783D02*
X344Y783D01*
X361Y783D02*
X367Y783D01*
X388Y783D02*
X394Y783D01*
X1468Y783D02*
X1475Y783D01*
X0Y782D02*
X7Y782D01*
X59Y782D02*
X65Y782D01*
X87Y782D02*
X93Y782D01*
X110Y782D02*
X116Y782D01*
X160Y782D02*
X166Y782D01*
X187Y782D02*
X193Y782D01*
X210Y782D02*
X216Y782D01*
X238Y782D02*
X244Y782D01*
X260Y782D02*
X266Y782D01*
X288Y782D02*
X294Y782D01*
X338Y782D02*
X344Y782D01*
X361Y782D02*
X367Y782D01*
X388Y782D02*
X394Y782D01*
X1468Y782D02*
X1475Y782D01*
X0Y781D02*
X7Y781D01*
X59Y781D02*
X65Y781D01*
X87Y781D02*
X93Y781D01*
X110Y781D02*
X116Y781D01*
X160Y781D02*
X166Y781D01*
X187Y781D02*
X193Y781D01*
X210Y781D02*
X216Y781D01*
X238Y781D02*
X244Y781D01*
X260Y781D02*
X266Y781D01*
X288Y781D02*
X294Y781D01*
X338Y781D02*
X344Y781D01*
X361Y781D02*
X367Y781D01*
X388Y781D02*
X394Y781D01*
X1468Y781D02*
X1475Y781D01*
X0Y780D02*
X7Y780D01*
X59Y780D02*
X65Y780D01*
X87Y780D02*
X93Y780D01*
X110Y780D02*
X116Y780D01*
X160Y780D02*
X166Y780D01*
X187Y780D02*
X193Y780D01*
X210Y780D02*
X216Y780D01*
X238Y780D02*
X244Y780D01*
X260Y780D02*
X266Y780D01*
X288Y780D02*
X294Y780D01*
X338Y780D02*
X344Y780D01*
X361Y780D02*
X367Y780D01*
X388Y780D02*
X394Y780D01*
X1468Y780D02*
X1475Y780D01*
X0Y779D02*
X7Y779D01*
X59Y779D02*
X65Y779D01*
X87Y779D02*
X93Y779D01*
X110Y779D02*
X116Y779D01*
X160Y779D02*
X166Y779D01*
X187Y779D02*
X193Y779D01*
X210Y779D02*
X216Y779D01*
X238Y779D02*
X244Y779D01*
X260Y779D02*
X266Y779D01*
X288Y779D02*
X294Y779D01*
X338Y779D02*
X344Y779D01*
X361Y779D02*
X367Y779D01*
X388Y779D02*
X394Y779D01*
X1468Y779D02*
X1475Y779D01*
X0Y778D02*
X7Y778D01*
X59Y778D02*
X65Y778D01*
X87Y778D02*
X93Y778D01*
X110Y778D02*
X116Y778D01*
X160Y778D02*
X166Y778D01*
X187Y778D02*
X193Y778D01*
X210Y778D02*
X216Y778D01*
X238Y778D02*
X244Y778D01*
X260Y778D02*
X266Y778D01*
X288Y778D02*
X294Y778D01*
X338Y778D02*
X344Y778D01*
X361Y778D02*
X367Y778D01*
X388Y778D02*
X394Y778D01*
X1468Y778D02*
X1475Y778D01*
X0Y777D02*
X7Y777D01*
X59Y777D02*
X65Y777D01*
X87Y777D02*
X93Y777D01*
X110Y777D02*
X116Y777D01*
X160Y777D02*
X166Y777D01*
X187Y777D02*
X193Y777D01*
X210Y777D02*
X216Y777D01*
X238Y777D02*
X244Y777D01*
X260Y777D02*
X266Y777D01*
X288Y777D02*
X294Y777D01*
X338Y777D02*
X344Y777D01*
X361Y777D02*
X367Y777D01*
X388Y777D02*
X394Y777D01*
X1468Y777D02*
X1475Y777D01*
X0Y776D02*
X7Y776D01*
X59Y776D02*
X65Y776D01*
X87Y776D02*
X93Y776D01*
X110Y776D02*
X116Y776D01*
X160Y776D02*
X166Y776D01*
X187Y776D02*
X193Y776D01*
X210Y776D02*
X216Y776D01*
X238Y776D02*
X244Y776D01*
X260Y776D02*
X266Y776D01*
X288Y776D02*
X294Y776D01*
X338Y776D02*
X344Y776D01*
X361Y776D02*
X367Y776D01*
X388Y776D02*
X394Y776D01*
X1468Y776D02*
X1475Y776D01*
X0Y775D02*
X7Y775D01*
X59Y775D02*
X65Y775D01*
X87Y775D02*
X93Y775D01*
X110Y775D02*
X116Y775D01*
X160Y775D02*
X166Y775D01*
X187Y775D02*
X193Y775D01*
X210Y775D02*
X216Y775D01*
X238Y775D02*
X244Y775D01*
X260Y775D02*
X266Y775D01*
X288Y775D02*
X294Y775D01*
X312Y775D02*
X316Y775D01*
X338Y775D02*
X344Y775D01*
X361Y775D02*
X367Y775D01*
X388Y775D02*
X394Y775D01*
X1468Y775D02*
X1475Y775D01*
X0Y774D02*
X7Y774D01*
X59Y774D02*
X65Y774D01*
X87Y774D02*
X93Y774D01*
X110Y774D02*
X116Y774D01*
X160Y774D02*
X167Y774D01*
X186Y774D02*
X193Y774D01*
X210Y774D02*
X216Y774D01*
X238Y774D02*
X244Y774D01*
X260Y774D02*
X266Y774D01*
X288Y774D02*
X294Y774D01*
X311Y774D02*
X318Y774D01*
X338Y774D02*
X344Y774D01*
X361Y774D02*
X367Y774D01*
X388Y774D02*
X394Y774D01*
X1468Y774D02*
X1475Y774D01*
X0Y773D02*
X7Y773D01*
X59Y773D02*
X65Y773D01*
X87Y773D02*
X93Y773D01*
X110Y773D02*
X116Y773D01*
X160Y773D02*
X169Y773D01*
X184Y773D02*
X193Y773D01*
X210Y773D02*
X216Y773D01*
X237Y773D02*
X244Y773D01*
X260Y773D02*
X267Y773D01*
X287Y773D02*
X294Y773D01*
X311Y773D02*
X321Y773D01*
X338Y773D02*
X344Y773D01*
X361Y773D02*
X367Y773D01*
X388Y773D02*
X394Y773D01*
X1468Y773D02*
X1475Y773D01*
X0Y772D02*
X7Y772D01*
X59Y772D02*
X65Y772D01*
X87Y772D02*
X93Y772D01*
X110Y772D02*
X116Y772D01*
X161Y772D02*
X192Y772D01*
X210Y772D02*
X244Y772D01*
X260Y772D02*
X294Y772D01*
X310Y772D02*
X344Y772D01*
X361Y772D02*
X394Y772D01*
X1468Y772D02*
X1475Y772D01*
X0Y771D02*
X7Y771D01*
X59Y771D02*
X65Y771D01*
X87Y771D02*
X93Y771D01*
X110Y771D02*
X116Y771D01*
X161Y771D02*
X192Y771D01*
X210Y771D02*
X244Y771D01*
X261Y771D02*
X293Y771D01*
X311Y771D02*
X344Y771D01*
X361Y771D02*
X394Y771D01*
X1468Y771D02*
X1475Y771D01*
X0Y770D02*
X7Y770D01*
X59Y770D02*
X65Y770D01*
X87Y770D02*
X93Y770D01*
X110Y770D02*
X116Y770D01*
X162Y770D02*
X191Y770D01*
X210Y770D02*
X244Y770D01*
X261Y770D02*
X293Y770D01*
X311Y770D02*
X343Y770D01*
X361Y770D02*
X393Y770D01*
X435Y770D02*
X435Y770D01*
X1468Y770D02*
X1475Y770D01*
X0Y769D02*
X7Y769D01*
X60Y769D02*
X65Y769D01*
X87Y769D02*
X93Y769D01*
X110Y769D02*
X116Y769D01*
X163Y769D02*
X190Y769D01*
X210Y769D02*
X244Y769D01*
X262Y769D02*
X292Y769D01*
X313Y769D02*
X343Y769D01*
X362Y769D02*
X393Y769D01*
X434Y769D02*
X436Y769D01*
X1468Y769D02*
X1475Y769D01*
X0Y768D02*
X7Y768D01*
X60Y768D02*
X65Y768D01*
X87Y768D02*
X93Y768D01*
X110Y768D02*
X115Y768D01*
X164Y768D02*
X189Y768D01*
X210Y768D02*
X243Y768D01*
X262Y768D02*
X292Y768D01*
X315Y768D02*
X342Y768D01*
X363Y768D02*
X392Y768D01*
X433Y768D02*
X437Y768D01*
X1038Y768D02*
X1038Y768D01*
X1468Y768D02*
X1475Y768D01*
X0Y767D02*
X7Y767D01*
X61Y767D02*
X64Y767D01*
X88Y767D02*
X92Y767D01*
X111Y767D02*
X115Y767D01*
X166Y767D02*
X187Y767D01*
X211Y767D02*
X242Y767D01*
X264Y767D02*
X290Y767D01*
X317Y767D02*
X341Y767D01*
X364Y767D02*
X391Y767D01*
X432Y767D02*
X438Y767D01*
X1036Y767D02*
X1040Y767D01*
X1426Y767D02*
X1430Y767D01*
X1468Y767D02*
X1475Y767D01*
X0Y766D02*
X7Y766D01*
X170Y766D02*
X183Y766D01*
X213Y766D02*
X240Y766D01*
X267Y766D02*
X287Y766D01*
X322Y766D02*
X337Y766D01*
X367Y766D02*
X388Y766D01*
X433Y766D02*
X439Y766D01*
X1035Y766D02*
X1041Y766D01*
X1425Y766D02*
X1431Y766D01*
X1468Y766D02*
X1475Y766D01*
X0Y765D02*
X7Y765D01*
X434Y765D02*
X440Y765D01*
X1035Y765D02*
X1041Y765D01*
X1425Y765D02*
X1431Y765D01*
X1468Y765D02*
X1475Y765D01*
X0Y764D02*
X7Y764D01*
X435Y764D02*
X441Y764D01*
X1035Y764D02*
X1041Y764D01*
X1424Y764D02*
X1431Y764D01*
X1468Y764D02*
X1475Y764D01*
X0Y763D02*
X7Y763D01*
X436Y763D02*
X442Y763D01*
X1034Y763D02*
X1041Y763D01*
X1424Y763D02*
X1431Y763D01*
X1468Y763D02*
X1475Y763D01*
X0Y762D02*
X7Y762D01*
X437Y762D02*
X443Y762D01*
X1034Y762D02*
X1041Y762D01*
X1424Y762D02*
X1431Y762D01*
X1468Y762D02*
X1475Y762D01*
X0Y761D02*
X7Y761D01*
X438Y761D02*
X444Y761D01*
X1034Y761D02*
X1041Y761D01*
X1424Y761D02*
X1431Y761D01*
X1468Y761D02*
X1475Y761D01*
X0Y760D02*
X7Y760D01*
X439Y760D02*
X445Y760D01*
X1034Y760D02*
X1041Y760D01*
X1424Y760D02*
X1431Y760D01*
X1468Y760D02*
X1475Y760D01*
X0Y759D02*
X7Y759D01*
X440Y759D02*
X446Y759D01*
X1034Y759D02*
X1041Y759D01*
X1424Y759D02*
X1431Y759D01*
X1468Y759D02*
X1475Y759D01*
X0Y758D02*
X7Y758D01*
X441Y758D02*
X446Y758D01*
X1034Y758D02*
X1041Y758D01*
X1424Y758D02*
X1431Y758D01*
X1468Y758D02*
X1475Y758D01*
X0Y757D02*
X7Y757D01*
X442Y757D02*
X447Y757D01*
X1034Y757D02*
X1041Y757D01*
X1424Y757D02*
X1431Y757D01*
X1468Y757D02*
X1475Y757D01*
X0Y756D02*
X7Y756D01*
X443Y756D02*
X448Y756D01*
X1034Y756D02*
X1041Y756D01*
X1424Y756D02*
X1431Y756D01*
X1468Y756D02*
X1475Y756D01*
X0Y755D02*
X7Y755D01*
X444Y755D02*
X449Y755D01*
X1034Y755D02*
X1041Y755D01*
X1424Y755D02*
X1431Y755D01*
X1468Y755D02*
X1475Y755D01*
X0Y754D02*
X7Y754D01*
X445Y754D02*
X450Y754D01*
X1034Y754D02*
X1041Y754D01*
X1424Y754D02*
X1431Y754D01*
X1468Y754D02*
X1475Y754D01*
X0Y753D02*
X7Y753D01*
X446Y753D02*
X451Y753D01*
X1034Y753D02*
X1041Y753D01*
X1424Y753D02*
X1431Y753D01*
X1468Y753D02*
X1475Y753D01*
X0Y752D02*
X7Y752D01*
X447Y752D02*
X452Y752D01*
X1034Y752D02*
X1041Y752D01*
X1424Y752D02*
X1431Y752D01*
X1468Y752D02*
X1475Y752D01*
X0Y751D02*
X7Y751D01*
X448Y751D02*
X453Y751D01*
X1034Y751D02*
X1041Y751D01*
X1424Y751D02*
X1431Y751D01*
X1468Y751D02*
X1475Y751D01*
X0Y750D02*
X7Y750D01*
X449Y750D02*
X454Y750D01*
X1034Y750D02*
X1041Y750D01*
X1424Y750D02*
X1431Y750D01*
X1468Y750D02*
X1475Y750D01*
X0Y749D02*
X7Y749D01*
X450Y749D02*
X455Y749D01*
X1034Y749D02*
X1041Y749D01*
X1424Y749D02*
X1431Y749D01*
X1468Y749D02*
X1475Y749D01*
X0Y748D02*
X7Y748D01*
X451Y748D02*
X456Y748D01*
X1034Y748D02*
X1041Y748D01*
X1424Y748D02*
X1431Y748D01*
X1468Y748D02*
X1475Y748D01*
X0Y747D02*
X7Y747D01*
X452Y747D02*
X458Y747D01*
X1034Y747D02*
X1041Y747D01*
X1424Y747D02*
X1431Y747D01*
X1468Y747D02*
X1475Y747D01*
X0Y746D02*
X7Y746D01*
X453Y746D02*
X459Y746D01*
X1034Y746D02*
X1041Y746D01*
X1424Y746D02*
X1431Y746D01*
X1468Y746D02*
X1475Y746D01*
X0Y745D02*
X7Y745D01*
X454Y745D02*
X460Y745D01*
X1034Y745D02*
X1041Y745D01*
X1424Y745D02*
X1431Y745D01*
X1468Y745D02*
X1475Y745D01*
X0Y744D02*
X7Y744D01*
X455Y744D02*
X461Y744D01*
X1034Y744D02*
X1041Y744D01*
X1424Y744D02*
X1431Y744D01*
X1468Y744D02*
X1475Y744D01*
X0Y743D02*
X7Y743D01*
X456Y743D02*
X462Y743D01*
X1034Y743D02*
X1041Y743D01*
X1424Y743D02*
X1431Y743D01*
X1468Y743D02*
X1475Y743D01*
X0Y742D02*
X7Y742D01*
X457Y742D02*
X463Y742D01*
X1034Y742D02*
X1041Y742D01*
X1424Y742D02*
X1431Y742D01*
X1468Y742D02*
X1475Y742D01*
X0Y741D02*
X7Y741D01*
X458Y741D02*
X464Y741D01*
X1034Y741D02*
X1041Y741D01*
X1424Y741D02*
X1431Y741D01*
X1468Y741D02*
X1475Y741D01*
X0Y740D02*
X7Y740D01*
X459Y740D02*
X465Y740D01*
X1034Y740D02*
X1041Y740D01*
X1424Y740D02*
X1431Y740D01*
X1468Y740D02*
X1475Y740D01*
X0Y739D02*
X7Y739D01*
X460Y739D02*
X466Y739D01*
X1034Y739D02*
X1041Y739D01*
X1424Y739D02*
X1431Y739D01*
X1468Y739D02*
X1475Y739D01*
X0Y738D02*
X7Y738D01*
X461Y738D02*
X467Y738D01*
X1034Y738D02*
X1041Y738D01*
X1424Y738D02*
X1431Y738D01*
X1468Y738D02*
X1475Y738D01*
X0Y737D02*
X7Y737D01*
X462Y737D02*
X468Y737D01*
X1034Y737D02*
X1041Y737D01*
X1424Y737D02*
X1431Y737D01*
X1468Y737D02*
X1475Y737D01*
X0Y736D02*
X7Y736D01*
X463Y736D02*
X469Y736D01*
X1034Y736D02*
X1041Y736D01*
X1424Y736D02*
X1431Y736D01*
X1468Y736D02*
X1475Y736D01*
X0Y735D02*
X7Y735D01*
X464Y735D02*
X469Y735D01*
X1034Y735D02*
X1041Y735D01*
X1424Y735D02*
X1431Y735D01*
X1468Y735D02*
X1475Y735D01*
X0Y734D02*
X7Y734D01*
X465Y734D02*
X468Y734D01*
X1034Y734D02*
X1041Y734D01*
X1424Y734D02*
X1431Y734D01*
X1468Y734D02*
X1475Y734D01*
X0Y733D02*
X7Y733D01*
X466Y733D02*
X467Y733D01*
X1034Y733D02*
X1041Y733D01*
X1424Y733D02*
X1431Y733D01*
X1468Y733D02*
X1475Y733D01*
X0Y732D02*
X7Y732D01*
X1034Y732D02*
X1041Y732D01*
X1424Y732D02*
X1431Y732D01*
X1468Y732D02*
X1475Y732D01*
X0Y731D02*
X7Y731D01*
X1034Y731D02*
X1041Y731D01*
X1424Y731D02*
X1431Y731D01*
X1468Y731D02*
X1475Y731D01*
X0Y730D02*
X7Y730D01*
X1034Y730D02*
X1041Y730D01*
X1424Y730D02*
X1431Y730D01*
X1468Y730D02*
X1475Y730D01*
X0Y729D02*
X7Y729D01*
X1034Y729D02*
X1041Y729D01*
X1424Y729D02*
X1431Y729D01*
X1468Y729D02*
X1475Y729D01*
X0Y728D02*
X7Y728D01*
X1034Y728D02*
X1041Y728D01*
X1424Y728D02*
X1431Y728D01*
X1468Y728D02*
X1475Y728D01*
X0Y727D02*
X7Y727D01*
X1034Y727D02*
X1041Y727D01*
X1424Y727D02*
X1431Y727D01*
X1468Y727D02*
X1475Y727D01*
X0Y726D02*
X7Y726D01*
X1034Y726D02*
X1041Y726D01*
X1424Y726D02*
X1431Y726D01*
X1468Y726D02*
X1475Y726D01*
X0Y725D02*
X7Y725D01*
X1034Y725D02*
X1041Y725D01*
X1424Y725D02*
X1431Y725D01*
X1468Y725D02*
X1475Y725D01*
X0Y724D02*
X7Y724D01*
X1034Y724D02*
X1041Y724D01*
X1424Y724D02*
X1431Y724D01*
X1468Y724D02*
X1475Y724D01*
X0Y723D02*
X7Y723D01*
X1034Y723D02*
X1041Y723D01*
X1424Y723D02*
X1431Y723D01*
X1468Y723D02*
X1475Y723D01*
X0Y722D02*
X7Y722D01*
X1034Y722D02*
X1041Y722D01*
X1424Y722D02*
X1431Y722D01*
X1468Y722D02*
X1475Y722D01*
X0Y721D02*
X7Y721D01*
X1034Y721D02*
X1041Y721D01*
X1424Y721D02*
X1431Y721D01*
X1468Y721D02*
X1475Y721D01*
X0Y720D02*
X7Y720D01*
X1034Y720D02*
X1041Y720D01*
X1424Y720D02*
X1431Y720D01*
X1468Y720D02*
X1475Y720D01*
X0Y719D02*
X7Y719D01*
X1034Y719D02*
X1041Y719D01*
X1424Y719D02*
X1431Y719D01*
X1468Y719D02*
X1475Y719D01*
X0Y718D02*
X7Y718D01*
X1034Y718D02*
X1041Y718D01*
X1424Y718D02*
X1431Y718D01*
X1468Y718D02*
X1475Y718D01*
X0Y717D02*
X7Y717D01*
X1034Y717D02*
X1041Y717D01*
X1424Y717D02*
X1431Y717D01*
X1468Y717D02*
X1475Y717D01*
X0Y716D02*
X7Y716D01*
X1034Y716D02*
X1041Y716D01*
X1424Y716D02*
X1431Y716D01*
X1468Y716D02*
X1475Y716D01*
X0Y715D02*
X7Y715D01*
X1034Y715D02*
X1041Y715D01*
X1424Y715D02*
X1431Y715D01*
X1468Y715D02*
X1475Y715D01*
X0Y714D02*
X7Y714D01*
X1034Y714D02*
X1041Y714D01*
X1424Y714D02*
X1431Y714D01*
X1468Y714D02*
X1475Y714D01*
X0Y713D02*
X7Y713D01*
X1034Y713D02*
X1041Y713D01*
X1424Y713D02*
X1431Y713D01*
X1468Y713D02*
X1475Y713D01*
X0Y712D02*
X7Y712D01*
X1034Y712D02*
X1041Y712D01*
X1424Y712D02*
X1431Y712D01*
X1468Y712D02*
X1475Y712D01*
X0Y711D02*
X7Y711D01*
X1034Y711D02*
X1041Y711D01*
X1425Y711D02*
X1431Y711D01*
X1468Y711D02*
X1475Y711D01*
X0Y710D02*
X7Y710D01*
X1034Y710D02*
X1040Y710D01*
X1426Y710D02*
X1431Y710D01*
X1468Y710D02*
X1475Y710D01*
X0Y709D02*
X7Y709D01*
X1034Y709D02*
X1038Y709D01*
X1428Y709D02*
X1431Y709D01*
X1468Y709D02*
X1475Y709D01*
X0Y708D02*
X7Y708D01*
X1034Y708D02*
X1037Y708D01*
X1429Y708D02*
X1431Y708D01*
X1468Y708D02*
X1475Y708D01*
X0Y707D02*
X7Y707D01*
X1034Y707D02*
X1036Y707D01*
X1430Y707D02*
X1431Y707D01*
X1468Y707D02*
X1475Y707D01*
X0Y706D02*
X7Y706D01*
X1034Y706D02*
X1035Y706D01*
X1431Y706D02*
X1431Y706D01*
X1468Y706D02*
X1475Y706D01*
X0Y705D02*
X7Y705D01*
X1034Y705D02*
X1034Y705D01*
X1468Y705D02*
X1475Y705D01*
X0Y704D02*
X7Y704D01*
X1468Y704D02*
X1475Y704D01*
X0Y703D02*
X7Y703D01*
X1468Y703D02*
X1475Y703D01*
X0Y702D02*
X7Y702D01*
X1468Y702D02*
X1475Y702D01*
X0Y701D02*
X7Y701D01*
X1468Y701D02*
X1475Y701D01*
X0Y700D02*
X7Y700D01*
X1468Y700D02*
X1475Y700D01*
X0Y699D02*
X7Y699D01*
X1468Y699D02*
X1475Y699D01*
X0Y698D02*
X7Y698D01*
X1468Y698D02*
X1475Y698D01*
X0Y697D02*
X7Y697D01*
X1468Y697D02*
X1475Y697D01*
X0Y696D02*
X7Y696D01*
X1468Y696D02*
X1475Y696D01*
X0Y695D02*
X7Y695D01*
X1468Y695D02*
X1475Y695D01*
X0Y694D02*
X7Y694D01*
X1468Y694D02*
X1475Y694D01*
X0Y693D02*
X7Y693D01*
X1468Y693D02*
X1475Y693D01*
X0Y692D02*
X7Y692D01*
X1468Y692D02*
X1475Y692D01*
X0Y691D02*
X7Y691D01*
X1468Y691D02*
X1475Y691D01*
X0Y690D02*
X7Y690D01*
X1468Y690D02*
X1475Y690D01*
X0Y689D02*
X7Y689D01*
X1468Y689D02*
X1475Y689D01*
X0Y688D02*
X7Y688D01*
X1468Y688D02*
X1475Y688D01*
X0Y687D02*
X7Y687D01*
X1468Y687D02*
X1475Y687D01*
X0Y686D02*
X7Y686D01*
X1468Y686D02*
X1475Y686D01*
X0Y685D02*
X7Y685D01*
X1468Y685D02*
X1475Y685D01*
X0Y684D02*
X7Y684D01*
X1468Y684D02*
X1475Y684D01*
X0Y683D02*
X7Y683D01*
X1468Y683D02*
X1475Y683D01*
X0Y682D02*
X7Y682D01*
X1468Y682D02*
X1475Y682D01*
X0Y681D02*
X7Y681D01*
X1468Y681D02*
X1475Y681D01*
X0Y680D02*
X7Y680D01*
X1468Y680D02*
X1475Y680D01*
X0Y679D02*
X7Y679D01*
X1468Y679D02*
X1475Y679D01*
X0Y678D02*
X7Y678D01*
X1468Y678D02*
X1475Y678D01*
X0Y677D02*
X7Y677D01*
X1468Y677D02*
X1475Y677D01*
X0Y676D02*
X7Y676D01*
X1468Y676D02*
X1475Y676D01*
X0Y675D02*
X7Y675D01*
X1468Y675D02*
X1475Y675D01*
X0Y674D02*
X7Y674D01*
X1468Y674D02*
X1475Y674D01*
X0Y673D02*
X7Y673D01*
X1468Y673D02*
X1475Y673D01*
X0Y672D02*
X7Y672D01*
X1468Y672D02*
X1475Y672D01*
X0Y671D02*
X7Y671D01*
X1468Y671D02*
X1475Y671D01*
X0Y670D02*
X7Y670D01*
X35Y670D02*
X35Y670D01*
X734Y670D02*
X735Y670D01*
X1468Y670D02*
X1475Y670D01*
X0Y669D02*
X7Y669D01*
X34Y669D02*
X36Y669D01*
X733Y669D02*
X736Y669D01*
X1468Y669D02*
X1475Y669D01*
X0Y668D02*
X7Y668D01*
X33Y668D02*
X37Y668D01*
X732Y668D02*
X737Y668D01*
X1468Y668D02*
X1475Y668D01*
X0Y667D02*
X7Y667D01*
X32Y667D02*
X38Y667D01*
X732Y667D02*
X738Y667D01*
X1468Y667D02*
X1475Y667D01*
X0Y666D02*
X7Y666D01*
X33Y666D02*
X39Y666D01*
X733Y666D02*
X739Y666D01*
X1468Y666D02*
X1475Y666D01*
X0Y665D02*
X7Y665D01*
X34Y665D02*
X40Y665D01*
X734Y665D02*
X740Y665D01*
X1468Y665D02*
X1475Y665D01*
X0Y664D02*
X7Y664D01*
X35Y664D02*
X41Y664D01*
X735Y664D02*
X741Y664D01*
X1468Y664D02*
X1475Y664D01*
X0Y663D02*
X7Y663D01*
X36Y663D02*
X42Y663D01*
X736Y663D02*
X742Y663D01*
X1034Y663D02*
X1034Y663D01*
X1468Y663D02*
X1475Y663D01*
X0Y662D02*
X7Y662D01*
X37Y662D02*
X43Y662D01*
X737Y662D02*
X743Y662D01*
X1034Y662D02*
X1035Y662D01*
X1431Y662D02*
X1431Y662D01*
X1468Y662D02*
X1475Y662D01*
X0Y661D02*
X7Y661D01*
X38Y661D02*
X44Y661D01*
X738Y661D02*
X744Y661D01*
X1034Y661D02*
X1036Y661D01*
X1430Y661D02*
X1431Y661D01*
X1468Y661D02*
X1475Y661D01*
X0Y660D02*
X7Y660D01*
X39Y660D02*
X45Y660D01*
X739Y660D02*
X745Y660D01*
X1034Y660D02*
X1037Y660D01*
X1429Y660D02*
X1431Y660D01*
X1468Y660D02*
X1475Y660D01*
X0Y659D02*
X7Y659D01*
X40Y659D02*
X46Y659D01*
X740Y659D02*
X746Y659D01*
X1034Y659D02*
X1038Y659D01*
X1427Y659D02*
X1431Y659D01*
X1468Y659D02*
X1475Y659D01*
X0Y658D02*
X7Y658D01*
X41Y658D02*
X47Y658D01*
X741Y658D02*
X746Y658D01*
X1034Y658D02*
X1040Y658D01*
X1426Y658D02*
X1431Y658D01*
X1468Y658D02*
X1475Y658D01*
X0Y657D02*
X7Y657D01*
X42Y657D02*
X47Y657D01*
X742Y657D02*
X747Y657D01*
X1034Y657D02*
X1041Y657D01*
X1424Y657D02*
X1431Y657D01*
X1468Y657D02*
X1475Y657D01*
X0Y656D02*
X7Y656D01*
X43Y656D02*
X48Y656D01*
X743Y656D02*
X748Y656D01*
X1034Y656D02*
X1041Y656D01*
X1424Y656D02*
X1431Y656D01*
X1468Y656D02*
X1475Y656D01*
X0Y655D02*
X7Y655D01*
X44Y655D02*
X49Y655D01*
X744Y655D02*
X749Y655D01*
X1034Y655D02*
X1041Y655D01*
X1424Y655D02*
X1431Y655D01*
X1468Y655D02*
X1475Y655D01*
X0Y654D02*
X7Y654D01*
X45Y654D02*
X50Y654D01*
X745Y654D02*
X750Y654D01*
X1034Y654D02*
X1041Y654D01*
X1424Y654D02*
X1431Y654D01*
X1468Y654D02*
X1475Y654D01*
X0Y653D02*
X7Y653D01*
X46Y653D02*
X51Y653D01*
X746Y653D02*
X750Y653D01*
X1034Y653D02*
X1041Y653D01*
X1424Y653D02*
X1431Y653D01*
X1468Y653D02*
X1475Y653D01*
X0Y652D02*
X7Y652D01*
X47Y652D02*
X52Y652D01*
X747Y652D02*
X751Y652D01*
X1034Y652D02*
X1041Y652D01*
X1424Y652D02*
X1431Y652D01*
X1468Y652D02*
X1475Y652D01*
X0Y651D02*
X7Y651D01*
X48Y651D02*
X53Y651D01*
X748Y651D02*
X753Y651D01*
X1034Y651D02*
X1041Y651D01*
X1424Y651D02*
X1431Y651D01*
X1468Y651D02*
X1475Y651D01*
X0Y650D02*
X7Y650D01*
X49Y650D02*
X54Y650D01*
X749Y650D02*
X754Y650D01*
X1034Y650D02*
X1041Y650D01*
X1424Y650D02*
X1431Y650D01*
X1468Y650D02*
X1475Y650D01*
X0Y649D02*
X7Y649D01*
X50Y649D02*
X55Y649D01*
X750Y649D02*
X755Y649D01*
X1034Y649D02*
X1041Y649D01*
X1424Y649D02*
X1431Y649D01*
X1468Y649D02*
X1475Y649D01*
X0Y648D02*
X7Y648D01*
X51Y648D02*
X57Y648D01*
X751Y648D02*
X756Y648D01*
X1034Y648D02*
X1041Y648D01*
X1424Y648D02*
X1431Y648D01*
X1468Y648D02*
X1475Y648D01*
X0Y647D02*
X7Y647D01*
X52Y647D02*
X58Y647D01*
X752Y647D02*
X758Y647D01*
X1034Y647D02*
X1041Y647D01*
X1424Y647D02*
X1431Y647D01*
X1468Y647D02*
X1475Y647D01*
X0Y646D02*
X7Y646D01*
X53Y646D02*
X59Y646D01*
X753Y646D02*
X759Y646D01*
X1034Y646D02*
X1041Y646D01*
X1424Y646D02*
X1431Y646D01*
X1468Y646D02*
X1475Y646D01*
X0Y645D02*
X7Y645D01*
X54Y645D02*
X60Y645D01*
X754Y645D02*
X760Y645D01*
X1034Y645D02*
X1041Y645D01*
X1424Y645D02*
X1431Y645D01*
X1468Y645D02*
X1475Y645D01*
X0Y644D02*
X7Y644D01*
X55Y644D02*
X61Y644D01*
X755Y644D02*
X761Y644D01*
X1034Y644D02*
X1041Y644D01*
X1424Y644D02*
X1431Y644D01*
X1468Y644D02*
X1475Y644D01*
X0Y643D02*
X7Y643D01*
X56Y643D02*
X62Y643D01*
X756Y643D02*
X762Y643D01*
X1034Y643D02*
X1041Y643D01*
X1424Y643D02*
X1431Y643D01*
X1468Y643D02*
X1475Y643D01*
X0Y642D02*
X7Y642D01*
X57Y642D02*
X63Y642D01*
X757Y642D02*
X763Y642D01*
X1034Y642D02*
X1041Y642D01*
X1424Y642D02*
X1431Y642D01*
X1468Y642D02*
X1475Y642D01*
X0Y641D02*
X7Y641D01*
X58Y641D02*
X64Y641D01*
X758Y641D02*
X764Y641D01*
X1034Y641D02*
X1041Y641D01*
X1424Y641D02*
X1431Y641D01*
X1468Y641D02*
X1475Y641D01*
X0Y640D02*
X7Y640D01*
X59Y640D02*
X65Y640D01*
X759Y640D02*
X765Y640D01*
X1034Y640D02*
X1041Y640D01*
X1424Y640D02*
X1431Y640D01*
X1468Y640D02*
X1475Y640D01*
X0Y639D02*
X7Y639D01*
X60Y639D02*
X66Y639D01*
X760Y639D02*
X766Y639D01*
X1034Y639D02*
X1041Y639D01*
X1424Y639D02*
X1431Y639D01*
X1468Y639D02*
X1475Y639D01*
X0Y638D02*
X7Y638D01*
X61Y638D02*
X67Y638D01*
X761Y638D02*
X767Y638D01*
X1034Y638D02*
X1041Y638D01*
X1424Y638D02*
X1431Y638D01*
X1468Y638D02*
X1475Y638D01*
X0Y637D02*
X7Y637D01*
X62Y637D02*
X68Y637D01*
X762Y637D02*
X768Y637D01*
X1034Y637D02*
X1041Y637D01*
X1424Y637D02*
X1431Y637D01*
X1468Y637D02*
X1475Y637D01*
X0Y636D02*
X7Y636D01*
X63Y636D02*
X69Y636D01*
X763Y636D02*
X769Y636D01*
X1034Y636D02*
X1041Y636D01*
X1424Y636D02*
X1431Y636D01*
X1468Y636D02*
X1475Y636D01*
X0Y635D02*
X7Y635D01*
X64Y635D02*
X69Y635D01*
X764Y635D02*
X768Y635D01*
X1034Y635D02*
X1041Y635D01*
X1424Y635D02*
X1431Y635D01*
X1468Y635D02*
X1475Y635D01*
X0Y634D02*
X7Y634D01*
X65Y634D02*
X68Y634D01*
X765Y634D02*
X767Y634D01*
X1034Y634D02*
X1041Y634D01*
X1424Y634D02*
X1431Y634D01*
X1468Y634D02*
X1475Y634D01*
X0Y633D02*
X7Y633D01*
X66Y633D02*
X67Y633D01*
X766Y633D02*
X766Y633D01*
X1034Y633D02*
X1041Y633D01*
X1424Y633D02*
X1431Y633D01*
X1468Y633D02*
X1475Y633D01*
X0Y632D02*
X7Y632D01*
X1034Y632D02*
X1041Y632D01*
X1424Y632D02*
X1431Y632D01*
X1468Y632D02*
X1475Y632D01*
X0Y631D02*
X7Y631D01*
X1034Y631D02*
X1041Y631D01*
X1424Y631D02*
X1431Y631D01*
X1468Y631D02*
X1475Y631D01*
X0Y630D02*
X7Y630D01*
X1034Y630D02*
X1041Y630D01*
X1424Y630D02*
X1431Y630D01*
X1468Y630D02*
X1475Y630D01*
X0Y629D02*
X7Y629D01*
X1034Y629D02*
X1041Y629D01*
X1424Y629D02*
X1431Y629D01*
X1468Y629D02*
X1475Y629D01*
X0Y628D02*
X7Y628D01*
X1034Y628D02*
X1041Y628D01*
X1424Y628D02*
X1431Y628D01*
X1468Y628D02*
X1475Y628D01*
X0Y627D02*
X7Y627D01*
X1034Y627D02*
X1041Y627D01*
X1424Y627D02*
X1431Y627D01*
X1468Y627D02*
X1475Y627D01*
X0Y626D02*
X7Y626D01*
X1034Y626D02*
X1041Y626D01*
X1424Y626D02*
X1431Y626D01*
X1468Y626D02*
X1475Y626D01*
X0Y625D02*
X7Y625D01*
X1034Y625D02*
X1041Y625D01*
X1424Y625D02*
X1431Y625D01*
X1468Y625D02*
X1475Y625D01*
X0Y624D02*
X7Y624D01*
X1034Y624D02*
X1041Y624D01*
X1424Y624D02*
X1431Y624D01*
X1468Y624D02*
X1475Y624D01*
X0Y623D02*
X7Y623D01*
X1034Y623D02*
X1041Y623D01*
X1424Y623D02*
X1431Y623D01*
X1468Y623D02*
X1475Y623D01*
X0Y622D02*
X7Y622D01*
X1034Y622D02*
X1041Y622D01*
X1424Y622D02*
X1431Y622D01*
X1468Y622D02*
X1475Y622D01*
X0Y621D02*
X7Y621D01*
X1034Y621D02*
X1041Y621D01*
X1424Y621D02*
X1431Y621D01*
X1468Y621D02*
X1475Y621D01*
X0Y620D02*
X7Y620D01*
X1034Y620D02*
X1041Y620D01*
X1424Y620D02*
X1431Y620D01*
X1468Y620D02*
X1475Y620D01*
X0Y619D02*
X7Y619D01*
X1034Y619D02*
X1041Y619D01*
X1424Y619D02*
X1431Y619D01*
X1468Y619D02*
X1475Y619D01*
X0Y618D02*
X7Y618D01*
X1034Y618D02*
X1041Y618D01*
X1424Y618D02*
X1431Y618D01*
X1468Y618D02*
X1475Y618D01*
X0Y617D02*
X7Y617D01*
X1034Y617D02*
X1041Y617D01*
X1424Y617D02*
X1431Y617D01*
X1468Y617D02*
X1475Y617D01*
X0Y616D02*
X7Y616D01*
X1034Y616D02*
X1041Y616D01*
X1424Y616D02*
X1431Y616D01*
X1468Y616D02*
X1475Y616D01*
X0Y615D02*
X7Y615D01*
X1034Y615D02*
X1041Y615D01*
X1424Y615D02*
X1431Y615D01*
X1468Y615D02*
X1475Y615D01*
X0Y614D02*
X7Y614D01*
X1034Y614D02*
X1041Y614D01*
X1424Y614D02*
X1431Y614D01*
X1468Y614D02*
X1475Y614D01*
X0Y613D02*
X7Y613D01*
X1034Y613D02*
X1041Y613D01*
X1424Y613D02*
X1431Y613D01*
X1468Y613D02*
X1475Y613D01*
X0Y612D02*
X7Y612D01*
X1034Y612D02*
X1041Y612D01*
X1424Y612D02*
X1431Y612D01*
X1468Y612D02*
X1475Y612D01*
X0Y611D02*
X7Y611D01*
X1034Y611D02*
X1041Y611D01*
X1425Y611D02*
X1431Y611D01*
X1468Y611D02*
X1475Y611D01*
X0Y610D02*
X7Y610D01*
X1034Y610D02*
X1040Y610D01*
X1426Y610D02*
X1431Y610D01*
X1468Y610D02*
X1475Y610D01*
X0Y609D02*
X7Y609D01*
X1034Y609D02*
X1038Y609D01*
X1428Y609D02*
X1431Y609D01*
X1468Y609D02*
X1475Y609D01*
X0Y608D02*
X7Y608D01*
X1034Y608D02*
X1037Y608D01*
X1429Y608D02*
X1431Y608D01*
X1468Y608D02*
X1475Y608D01*
X0Y607D02*
X7Y607D01*
X1034Y607D02*
X1036Y607D01*
X1430Y607D02*
X1431Y607D01*
X1468Y607D02*
X1475Y607D01*
X0Y606D02*
X7Y606D01*
X1034Y606D02*
X1035Y606D01*
X1431Y606D02*
X1431Y606D01*
X1468Y606D02*
X1475Y606D01*
X0Y605D02*
X7Y605D01*
X1034Y605D02*
X1034Y605D01*
X1468Y605D02*
X1475Y605D01*
X0Y604D02*
X7Y604D01*
X1468Y604D02*
X1475Y604D01*
X0Y603D02*
X7Y603D01*
X1468Y603D02*
X1475Y603D01*
X0Y602D02*
X7Y602D01*
X1468Y602D02*
X1475Y602D01*
X0Y601D02*
X7Y601D01*
X1468Y601D02*
X1475Y601D01*
X0Y600D02*
X7Y600D01*
X1468Y600D02*
X1475Y600D01*
X0Y599D02*
X7Y599D01*
X1468Y599D02*
X1475Y599D01*
X0Y598D02*
X7Y598D01*
X1468Y598D02*
X1475Y598D01*
X0Y597D02*
X7Y597D01*
X395Y597D02*
X397Y597D01*
X1468Y597D02*
X1475Y597D01*
X0Y596D02*
X7Y596D01*
X391Y596D02*
X398Y596D01*
X1468Y596D02*
X1475Y596D01*
X0Y595D02*
X7Y595D01*
X388Y595D02*
X398Y595D01*
X758Y595D02*
X764Y595D01*
X1468Y595D02*
X1475Y595D01*
X0Y594D02*
X7Y594D01*
X384Y594D02*
X398Y594D01*
X757Y594D02*
X765Y594D01*
X1468Y594D02*
X1475Y594D01*
X0Y593D02*
X7Y593D01*
X297Y593D02*
X298Y593D01*
X381Y593D02*
X396Y593D01*
X757Y593D02*
X765Y593D01*
X1468Y593D02*
X1475Y593D01*
X0Y592D02*
X7Y592D01*
X296Y592D02*
X299Y592D01*
X377Y592D02*
X393Y592D01*
X757Y592D02*
X765Y592D01*
X1468Y592D02*
X1475Y592D01*
X0Y591D02*
X7Y591D01*
X295Y591D02*
X299Y591D01*
X374Y591D02*
X390Y591D01*
X757Y591D02*
X764Y591D01*
X1468Y591D02*
X1475Y591D01*
X0Y590D02*
X7Y590D01*
X67Y590D02*
X67Y590D01*
X98Y590D02*
X98Y590D01*
X295Y590D02*
X299Y590D01*
X371Y590D02*
X390Y590D01*
X757Y590D02*
X761Y590D01*
X1468Y590D02*
X1475Y590D01*
X0Y589D02*
X7Y589D01*
X65Y589D02*
X68Y589D01*
X97Y589D02*
X99Y589D01*
X295Y589D02*
X299Y589D01*
X367Y589D02*
X383Y589D01*
X387Y589D02*
X390Y589D01*
X757Y589D02*
X761Y589D01*
X1468Y589D02*
X1475Y589D01*
X0Y588D02*
X7Y588D01*
X65Y588D02*
X69Y588D01*
X96Y588D02*
X100Y588D01*
X295Y588D02*
X299Y588D01*
X364Y588D02*
X379Y588D01*
X387Y588D02*
X390Y588D01*
X757Y588D02*
X761Y588D01*
X1468Y588D02*
X1475Y588D01*
X0Y587D02*
X7Y587D01*
X65Y587D02*
X69Y587D01*
X96Y587D02*
X100Y587D01*
X295Y587D02*
X299Y587D01*
X363Y587D02*
X376Y587D01*
X387Y587D02*
X390Y587D01*
X757Y587D02*
X761Y587D01*
X1468Y587D02*
X1475Y587D01*
X0Y586D02*
X7Y586D01*
X65Y586D02*
X69Y586D01*
X96Y586D02*
X100Y586D01*
X181Y586D02*
X188Y586D01*
X295Y586D02*
X299Y586D01*
X363Y586D02*
X374Y586D01*
X387Y586D02*
X390Y586D01*
X757Y586D02*
X791Y586D01*
X1468Y586D02*
X1475Y586D01*
X0Y585D02*
X7Y585D01*
X65Y585D02*
X69Y585D01*
X96Y585D02*
X100Y585D01*
X179Y585D02*
X190Y585D01*
X295Y585D02*
X299Y585D01*
X364Y585D02*
X377Y585D01*
X387Y585D02*
X390Y585D01*
X757Y585D02*
X792Y585D01*
X1468Y585D02*
X1475Y585D01*
X0Y584D02*
X7Y584D01*
X65Y584D02*
X69Y584D01*
X96Y584D02*
X100Y584D01*
X177Y584D02*
X192Y584D01*
X295Y584D02*
X299Y584D01*
X365Y584D02*
X380Y584D01*
X387Y584D02*
X390Y584D01*
X757Y584D02*
X792Y584D01*
X1468Y584D02*
X1475Y584D01*
X0Y583D02*
X7Y583D01*
X65Y583D02*
X69Y583D01*
X96Y583D02*
X100Y583D01*
X175Y583D02*
X194Y583D01*
X295Y583D02*
X299Y583D01*
X368Y583D02*
X383Y583D01*
X387Y583D02*
X390Y583D01*
X757Y583D02*
X792Y583D01*
X1468Y583D02*
X1475Y583D01*
X0Y582D02*
X7Y582D01*
X65Y582D02*
X69Y582D01*
X96Y582D02*
X100Y582D01*
X173Y582D02*
X183Y582D01*
X186Y582D02*
X196Y582D01*
X295Y582D02*
X299Y582D01*
X371Y582D02*
X390Y582D01*
X757Y582D02*
X791Y582D01*
X1468Y582D02*
X1475Y582D01*
X0Y581D02*
X7Y581D01*
X65Y581D02*
X69Y581D01*
X96Y581D02*
X100Y581D01*
X171Y581D02*
X180Y581D01*
X189Y581D02*
X198Y581D01*
X295Y581D02*
X299Y581D01*
X375Y581D02*
X391Y581D01*
X757Y581D02*
X761Y581D01*
X1468Y581D02*
X1475Y581D01*
X0Y580D02*
X7Y580D01*
X65Y580D02*
X69Y580D01*
X96Y580D02*
X100Y580D01*
X170Y580D02*
X178Y580D01*
X191Y580D02*
X200Y580D01*
X295Y580D02*
X299Y580D01*
X378Y580D02*
X394Y580D01*
X757Y580D02*
X761Y580D01*
X1468Y580D02*
X1475Y580D01*
X0Y579D02*
X7Y579D01*
X65Y579D02*
X69Y579D01*
X96Y579D02*
X100Y579D01*
X169Y579D02*
X177Y579D01*
X193Y579D02*
X201Y579D01*
X295Y579D02*
X299Y579D01*
X381Y579D02*
X397Y579D01*
X757Y579D02*
X761Y579D01*
X1468Y579D02*
X1475Y579D01*
X0Y578D02*
X7Y578D01*
X65Y578D02*
X69Y578D01*
X96Y578D02*
X100Y578D01*
X168Y578D02*
X175Y578D01*
X195Y578D02*
X201Y578D01*
X295Y578D02*
X299Y578D01*
X385Y578D02*
X398Y578D01*
X757Y578D02*
X761Y578D01*
X1468Y578D02*
X1475Y578D01*
X0Y577D02*
X7Y577D01*
X65Y577D02*
X70Y577D01*
X95Y577D02*
X100Y577D01*
X168Y577D02*
X173Y577D01*
X197Y577D02*
X202Y577D01*
X295Y577D02*
X299Y577D01*
X388Y577D02*
X398Y577D01*
X757Y577D02*
X763Y577D01*
X1468Y577D02*
X1475Y577D01*
X0Y576D02*
X7Y576D01*
X66Y576D02*
X72Y576D01*
X93Y576D02*
X99Y576D01*
X167Y576D02*
X171Y576D01*
X198Y576D02*
X202Y576D01*
X295Y576D02*
X299Y576D01*
X392Y576D02*
X398Y576D01*
X757Y576D02*
X765Y576D01*
X1468Y576D02*
X1475Y576D01*
X0Y575D02*
X7Y575D01*
X66Y575D02*
X74Y575D01*
X91Y575D02*
X98Y575D01*
X167Y575D02*
X171Y575D01*
X198Y575D02*
X202Y575D01*
X267Y575D02*
X299Y575D01*
X395Y575D02*
X397Y575D01*
X757Y575D02*
X765Y575D01*
X1468Y575D02*
X1475Y575D01*
X0Y574D02*
X7Y574D01*
X67Y574D02*
X76Y574D01*
X89Y574D02*
X98Y574D01*
X167Y574D02*
X171Y574D01*
X198Y574D02*
X202Y574D01*
X265Y574D02*
X299Y574D01*
X757Y574D02*
X765Y574D01*
X1468Y574D02*
X1475Y574D01*
X0Y573D02*
X7Y573D01*
X69Y573D02*
X78Y573D01*
X87Y573D02*
X96Y573D01*
X167Y573D02*
X202Y573D01*
X264Y573D02*
X299Y573D01*
X757Y573D02*
X764Y573D01*
X1468Y573D02*
X1475Y573D01*
X0Y572D02*
X7Y572D01*
X71Y572D02*
X80Y572D01*
X85Y572D02*
X94Y572D01*
X167Y572D02*
X202Y572D01*
X264Y572D02*
X299Y572D01*
X1468Y572D02*
X1475Y572D01*
X0Y571D02*
X7Y571D01*
X73Y571D02*
X92Y571D01*
X167Y571D02*
X202Y571D01*
X265Y571D02*
X299Y571D01*
X1468Y571D02*
X1475Y571D01*
X0Y570D02*
X7Y570D01*
X75Y570D02*
X90Y570D01*
X167Y570D02*
X202Y570D01*
X1468Y570D02*
X1475Y570D01*
X0Y569D02*
X7Y569D01*
X77Y569D02*
X88Y569D01*
X167Y569D02*
X202Y569D01*
X1468Y569D02*
X1475Y569D01*
X0Y568D02*
X7Y568D01*
X79Y568D02*
X86Y568D01*
X167Y568D02*
X171Y568D01*
X198Y568D02*
X202Y568D01*
X1468Y568D02*
X1475Y568D01*
X0Y567D02*
X7Y567D01*
X167Y567D02*
X171Y567D01*
X198Y567D02*
X202Y567D01*
X1468Y567D02*
X1475Y567D01*
X0Y566D02*
X7Y566D01*
X167Y566D02*
X171Y566D01*
X199Y566D02*
X202Y566D01*
X1468Y566D02*
X1475Y566D01*
X0Y565D02*
X7Y565D01*
X168Y565D02*
X170Y565D01*
X199Y565D02*
X202Y565D01*
X1468Y565D02*
X1475Y565D01*
X0Y564D02*
X7Y564D01*
X169Y564D02*
X169Y564D01*
X200Y564D02*
X200Y564D01*
X379Y564D02*
X382Y564D01*
X1468Y564D02*
X1475Y564D01*
X0Y563D02*
X7Y563D01*
X376Y563D02*
X385Y563D01*
X1034Y563D02*
X1034Y563D01*
X1468Y563D02*
X1475Y563D01*
X0Y562D02*
X7Y562D01*
X374Y562D02*
X387Y562D01*
X759Y562D02*
X792Y562D01*
X1034Y562D02*
X1035Y562D01*
X1431Y562D02*
X1431Y562D01*
X1468Y562D02*
X1475Y562D01*
X0Y561D02*
X7Y561D01*
X372Y561D02*
X389Y561D01*
X758Y561D02*
X792Y561D01*
X1034Y561D02*
X1036Y561D01*
X1430Y561D02*
X1431Y561D01*
X1468Y561D02*
X1475Y561D01*
X0Y560D02*
X7Y560D01*
X370Y560D02*
X391Y560D01*
X758Y560D02*
X792Y560D01*
X1034Y560D02*
X1037Y560D01*
X1429Y560D02*
X1431Y560D01*
X1468Y560D02*
X1475Y560D01*
X0Y559D02*
X7Y559D01*
X265Y559D02*
X267Y559D01*
X296Y559D02*
X299Y559D01*
X368Y559D02*
X378Y559D01*
X384Y559D02*
X393Y559D01*
X758Y559D02*
X792Y559D01*
X1034Y559D02*
X1038Y559D01*
X1427Y559D02*
X1431Y559D01*
X1468Y559D02*
X1475Y559D01*
X0Y558D02*
X7Y558D01*
X264Y558D02*
X268Y558D01*
X296Y558D02*
X299Y558D01*
X366Y558D02*
X376Y558D01*
X386Y558D02*
X395Y558D01*
X758Y558D02*
X792Y558D01*
X1034Y558D02*
X1040Y558D01*
X1426Y558D02*
X1431Y558D01*
X1468Y558D02*
X1475Y558D01*
X0Y557D02*
X7Y557D01*
X264Y557D02*
X268Y557D01*
X295Y557D02*
X299Y557D01*
X365Y557D02*
X374Y557D01*
X388Y557D02*
X396Y557D01*
X784Y557D02*
X792Y557D01*
X1034Y557D02*
X1041Y557D01*
X1424Y557D02*
X1431Y557D01*
X1468Y557D02*
X1475Y557D01*
X0Y556D02*
X7Y556D01*
X66Y556D02*
X68Y556D01*
X97Y556D02*
X99Y556D01*
X264Y556D02*
X268Y556D01*
X295Y556D02*
X299Y556D01*
X364Y556D02*
X372Y556D01*
X390Y556D02*
X397Y556D01*
X782Y556D02*
X792Y556D01*
X1034Y556D02*
X1041Y556D01*
X1424Y556D02*
X1431Y556D01*
X1468Y556D02*
X1475Y556D01*
X0Y555D02*
X7Y555D01*
X65Y555D02*
X68Y555D01*
X96Y555D02*
X100Y555D01*
X264Y555D02*
X268Y555D01*
X295Y555D02*
X299Y555D01*
X364Y555D02*
X370Y555D01*
X392Y555D02*
X398Y555D01*
X780Y555D02*
X790Y555D01*
X1034Y555D02*
X1041Y555D01*
X1424Y555D02*
X1431Y555D01*
X1468Y555D02*
X1475Y555D01*
X0Y554D02*
X7Y554D01*
X65Y554D02*
X69Y554D01*
X96Y554D02*
X100Y554D01*
X264Y554D02*
X268Y554D01*
X295Y554D02*
X299Y554D01*
X364Y554D02*
X368Y554D01*
X393Y554D02*
X398Y554D01*
X777Y554D02*
X788Y554D01*
X1034Y554D02*
X1041Y554D01*
X1424Y554D02*
X1431Y554D01*
X1468Y554D02*
X1475Y554D01*
X0Y553D02*
X7Y553D01*
X65Y553D02*
X69Y553D01*
X96Y553D02*
X100Y553D01*
X168Y553D02*
X202Y553D01*
X264Y553D02*
X268Y553D01*
X295Y553D02*
X299Y553D01*
X363Y553D02*
X367Y553D01*
X394Y553D02*
X398Y553D01*
X775Y553D02*
X786Y553D01*
X1034Y553D02*
X1041Y553D01*
X1424Y553D02*
X1431Y553D01*
X1468Y553D02*
X1475Y553D01*
X0Y552D02*
X7Y552D01*
X65Y552D02*
X69Y552D01*
X96Y552D02*
X100Y552D01*
X167Y552D02*
X202Y552D01*
X264Y552D02*
X268Y552D01*
X295Y552D02*
X299Y552D01*
X363Y552D02*
X367Y552D01*
X395Y552D02*
X398Y552D01*
X773Y552D02*
X783Y552D01*
X1034Y552D02*
X1041Y552D01*
X1424Y552D02*
X1431Y552D01*
X1468Y552D02*
X1475Y552D01*
X0Y551D02*
X7Y551D01*
X65Y551D02*
X69Y551D01*
X96Y551D02*
X100Y551D01*
X167Y551D02*
X202Y551D01*
X264Y551D02*
X268Y551D01*
X295Y551D02*
X299Y551D01*
X363Y551D02*
X367Y551D01*
X395Y551D02*
X398Y551D01*
X771Y551D02*
X781Y551D01*
X1034Y551D02*
X1041Y551D01*
X1424Y551D02*
X1431Y551D01*
X1468Y551D02*
X1475Y551D01*
X0Y550D02*
X7Y550D01*
X65Y550D02*
X69Y550D01*
X96Y550D02*
X100Y550D01*
X168Y550D02*
X202Y550D01*
X264Y550D02*
X268Y550D01*
X295Y550D02*
X299Y550D01*
X363Y550D02*
X398Y550D01*
X768Y550D02*
X779Y550D01*
X1034Y550D02*
X1041Y550D01*
X1424Y550D02*
X1431Y550D01*
X1468Y550D02*
X1475Y550D01*
X0Y549D02*
X7Y549D01*
X65Y549D02*
X69Y549D01*
X96Y549D02*
X100Y549D01*
X169Y549D02*
X202Y549D01*
X264Y549D02*
X268Y549D01*
X295Y549D02*
X299Y549D01*
X363Y549D02*
X398Y549D01*
X766Y549D02*
X777Y549D01*
X1034Y549D02*
X1041Y549D01*
X1424Y549D02*
X1431Y549D01*
X1468Y549D02*
X1475Y549D01*
X0Y548D02*
X7Y548D01*
X65Y548D02*
X69Y548D01*
X96Y548D02*
X100Y548D01*
X193Y548D02*
X202Y548D01*
X264Y548D02*
X268Y548D01*
X295Y548D02*
X299Y548D01*
X363Y548D02*
X398Y548D01*
X764Y548D02*
X774Y548D01*
X1034Y548D02*
X1041Y548D01*
X1424Y548D02*
X1431Y548D01*
X1468Y548D02*
X1475Y548D01*
X0Y547D02*
X7Y547D01*
X65Y547D02*
X69Y547D01*
X96Y547D02*
X100Y547D01*
X191Y547D02*
X201Y547D01*
X264Y547D02*
X269Y547D01*
X294Y547D02*
X299Y547D01*
X363Y547D02*
X398Y547D01*
X761Y547D02*
X772Y547D01*
X1034Y547D02*
X1041Y547D01*
X1424Y547D02*
X1431Y547D01*
X1468Y547D02*
X1475Y547D01*
X0Y546D02*
X7Y546D01*
X65Y546D02*
X69Y546D01*
X96Y546D02*
X100Y546D01*
X188Y546D02*
X199Y546D01*
X265Y546D02*
X271Y546D01*
X292Y546D02*
X298Y546D01*
X363Y546D02*
X398Y546D01*
X759Y546D02*
X770Y546D01*
X1034Y546D02*
X1041Y546D01*
X1424Y546D02*
X1431Y546D01*
X1468Y546D02*
X1475Y546D01*
X0Y545D02*
X7Y545D01*
X65Y545D02*
X69Y545D01*
X96Y545D02*
X100Y545D01*
X186Y545D02*
X197Y545D01*
X265Y545D02*
X273Y545D01*
X290Y545D02*
X298Y545D01*
X363Y545D02*
X367Y545D01*
X395Y545D02*
X398Y545D01*
X758Y545D02*
X767Y545D01*
X1034Y545D02*
X1041Y545D01*
X1424Y545D02*
X1431Y545D01*
X1468Y545D02*
X1475Y545D01*
X0Y544D02*
X7Y544D01*
X65Y544D02*
X70Y544D01*
X95Y544D02*
X100Y544D01*
X184Y544D02*
X195Y544D01*
X266Y544D02*
X275Y544D01*
X288Y544D02*
X297Y544D01*
X363Y544D02*
X367Y544D01*
X395Y544D02*
X398Y544D01*
X757Y544D02*
X766Y544D01*
X1034Y544D02*
X1041Y544D01*
X1424Y544D02*
X1431Y544D01*
X1468Y544D02*
X1475Y544D01*
X0Y543D02*
X7Y543D01*
X66Y543D02*
X71Y543D01*
X93Y543D02*
X99Y543D01*
X182Y543D02*
X192Y543D01*
X268Y543D02*
X277Y543D01*
X286Y543D02*
X295Y543D01*
X363Y543D02*
X367Y543D01*
X395Y543D02*
X398Y543D01*
X757Y543D02*
X792Y543D01*
X1034Y543D02*
X1041Y543D01*
X1424Y543D02*
X1431Y543D01*
X1468Y543D02*
X1475Y543D01*
X0Y542D02*
X7Y542D01*
X66Y542D02*
X73Y542D01*
X91Y542D02*
X99Y542D01*
X179Y542D02*
X190Y542D01*
X269Y542D02*
X279Y542D01*
X284Y542D02*
X294Y542D01*
X364Y542D02*
X366Y542D01*
X395Y542D02*
X397Y542D01*
X757Y542D02*
X792Y542D01*
X1034Y542D02*
X1041Y542D01*
X1424Y542D02*
X1431Y542D01*
X1468Y542D02*
X1475Y542D01*
X0Y541D02*
X7Y541D01*
X67Y541D02*
X75Y541D01*
X90Y541D02*
X98Y541D01*
X177Y541D02*
X188Y541D01*
X272Y541D02*
X292Y541D01*
X757Y541D02*
X792Y541D01*
X1034Y541D02*
X1041Y541D01*
X1424Y541D02*
X1431Y541D01*
X1468Y541D02*
X1475Y541D01*
X0Y540D02*
X7Y540D01*
X68Y540D02*
X77Y540D01*
X88Y540D02*
X97Y540D01*
X175Y540D02*
X185Y540D01*
X274Y540D02*
X290Y540D01*
X757Y540D02*
X792Y540D01*
X1034Y540D02*
X1041Y540D01*
X1424Y540D02*
X1431Y540D01*
X1468Y540D02*
X1475Y540D01*
X0Y539D02*
X7Y539D01*
X70Y539D02*
X79Y539D01*
X86Y539D02*
X95Y539D01*
X172Y539D02*
X183Y539D01*
X276Y539D02*
X288Y539D01*
X1034Y539D02*
X1041Y539D01*
X1424Y539D02*
X1431Y539D01*
X1468Y539D02*
X1475Y539D01*
X0Y538D02*
X7Y538D01*
X72Y538D02*
X93Y538D01*
X170Y538D02*
X181Y538D01*
X278Y538D02*
X286Y538D01*
X1034Y538D02*
X1041Y538D01*
X1424Y538D02*
X1431Y538D01*
X1468Y538D02*
X1475Y538D01*
X0Y537D02*
X7Y537D01*
X74Y537D02*
X91Y537D01*
X168Y537D02*
X179Y537D01*
X1034Y537D02*
X1041Y537D01*
X1424Y537D02*
X1431Y537D01*
X1468Y537D02*
X1475Y537D01*
X0Y536D02*
X7Y536D01*
X76Y536D02*
X89Y536D01*
X167Y536D02*
X176Y536D01*
X1034Y536D02*
X1041Y536D01*
X1424Y536D02*
X1431Y536D01*
X1468Y536D02*
X1475Y536D01*
X0Y535D02*
X7Y535D01*
X78Y535D02*
X87Y535D01*
X167Y535D02*
X201Y535D01*
X1034Y535D02*
X1041Y535D01*
X1424Y535D02*
X1431Y535D01*
X1468Y535D02*
X1475Y535D01*
X0Y534D02*
X7Y534D01*
X81Y534D02*
X84Y534D01*
X167Y534D02*
X202Y534D01*
X1034Y534D02*
X1041Y534D01*
X1424Y534D02*
X1431Y534D01*
X1468Y534D02*
X1475Y534D01*
X0Y533D02*
X7Y533D01*
X167Y533D02*
X202Y533D01*
X1034Y533D02*
X1041Y533D01*
X1424Y533D02*
X1431Y533D01*
X1468Y533D02*
X1475Y533D01*
X0Y532D02*
X7Y532D01*
X167Y532D02*
X202Y532D01*
X1034Y532D02*
X1041Y532D01*
X1424Y532D02*
X1431Y532D01*
X1468Y532D02*
X1475Y532D01*
X0Y531D02*
X7Y531D01*
X167Y531D02*
X201Y531D01*
X1034Y531D02*
X1041Y531D01*
X1424Y531D02*
X1431Y531D01*
X1468Y531D02*
X1475Y531D01*
X0Y530D02*
X7Y530D01*
X366Y530D02*
X370Y530D01*
X391Y530D02*
X396Y530D01*
X1034Y530D02*
X1041Y530D01*
X1424Y530D02*
X1431Y530D01*
X1468Y530D02*
X1475Y530D01*
X0Y529D02*
X7Y529D01*
X365Y529D02*
X371Y529D01*
X390Y529D02*
X397Y529D01*
X1034Y529D02*
X1041Y529D01*
X1424Y529D02*
X1431Y529D01*
X1468Y529D02*
X1475Y529D01*
X0Y528D02*
X7Y528D01*
X364Y528D02*
X371Y528D01*
X388Y528D02*
X398Y528D01*
X758Y528D02*
X760Y528D01*
X789Y528D02*
X792Y528D01*
X1034Y528D02*
X1041Y528D01*
X1424Y528D02*
X1431Y528D01*
X1468Y528D02*
X1475Y528D01*
X0Y527D02*
X7Y527D01*
X364Y527D02*
X370Y527D01*
X387Y527D02*
X398Y527D01*
X758Y527D02*
X761Y527D01*
X789Y527D02*
X792Y527D01*
X1034Y527D02*
X1041Y527D01*
X1424Y527D02*
X1431Y527D01*
X1468Y527D02*
X1475Y527D01*
X0Y526D02*
X7Y526D01*
X268Y526D02*
X271Y526D01*
X293Y526D02*
X296Y526D01*
X363Y526D02*
X368Y526D01*
X386Y526D02*
X398Y526D01*
X757Y526D02*
X761Y526D01*
X789Y526D02*
X792Y526D01*
X1034Y526D02*
X1041Y526D01*
X1424Y526D02*
X1431Y526D01*
X1468Y526D02*
X1475Y526D01*
X0Y525D02*
X7Y525D01*
X266Y525D02*
X272Y525D01*
X291Y525D02*
X297Y525D01*
X363Y525D02*
X367Y525D01*
X385Y525D02*
X391Y525D01*
X395Y525D02*
X398Y525D01*
X757Y525D02*
X761Y525D01*
X789Y525D02*
X792Y525D01*
X1034Y525D02*
X1041Y525D01*
X1424Y525D02*
X1431Y525D01*
X1468Y525D02*
X1475Y525D01*
X0Y524D02*
X7Y524D01*
X265Y524D02*
X272Y524D01*
X290Y524D02*
X298Y524D01*
X363Y524D02*
X367Y524D01*
X383Y524D02*
X390Y524D01*
X395Y524D02*
X398Y524D01*
X757Y524D02*
X761Y524D01*
X789Y524D02*
X792Y524D01*
X1034Y524D02*
X1041Y524D01*
X1424Y524D02*
X1431Y524D01*
X1468Y524D02*
X1475Y524D01*
X0Y523D02*
X7Y523D01*
X66Y523D02*
X76Y523D01*
X265Y523D02*
X271Y523D01*
X288Y523D02*
X299Y523D01*
X363Y523D02*
X367Y523D01*
X382Y523D02*
X389Y523D01*
X395Y523D02*
X398Y523D01*
X757Y523D02*
X761Y523D01*
X789Y523D02*
X792Y523D01*
X1034Y523D02*
X1041Y523D01*
X1424Y523D02*
X1431Y523D01*
X1468Y523D02*
X1475Y523D01*
X0Y522D02*
X7Y522D01*
X65Y522D02*
X78Y522D01*
X264Y522D02*
X270Y522D01*
X287Y522D02*
X299Y522D01*
X363Y522D02*
X367Y522D01*
X381Y522D02*
X387Y522D01*
X395Y522D02*
X398Y522D01*
X757Y522D02*
X761Y522D01*
X789Y522D02*
X792Y522D01*
X1034Y522D02*
X1041Y522D01*
X1424Y522D02*
X1431Y522D01*
X1468Y522D02*
X1475Y522D01*
X0Y521D02*
X7Y521D01*
X65Y521D02*
X81Y521D01*
X264Y521D02*
X268Y521D01*
X286Y521D02*
X293Y521D01*
X295Y521D02*
X299Y521D01*
X363Y521D02*
X367Y521D01*
X379Y521D02*
X386Y521D01*
X395Y521D02*
X398Y521D01*
X757Y521D02*
X761Y521D01*
X789Y521D02*
X792Y521D01*
X1034Y521D02*
X1041Y521D01*
X1424Y521D02*
X1431Y521D01*
X1468Y521D02*
X1475Y521D01*
X0Y520D02*
X7Y520D01*
X65Y520D02*
X83Y520D01*
X169Y520D02*
X169Y520D01*
X187Y520D02*
X197Y520D01*
X264Y520D02*
X268Y520D01*
X285Y520D02*
X291Y520D01*
X295Y520D02*
X299Y520D01*
X363Y520D02*
X367Y520D01*
X378Y520D02*
X385Y520D01*
X395Y520D02*
X398Y520D01*
X757Y520D02*
X761Y520D01*
X789Y520D02*
X792Y520D01*
X1034Y520D02*
X1041Y520D01*
X1424Y520D02*
X1431Y520D01*
X1468Y520D02*
X1475Y520D01*
X0Y519D02*
X7Y519D01*
X66Y519D02*
X86Y519D01*
X168Y519D02*
X170Y519D01*
X187Y519D02*
X199Y519D01*
X264Y519D02*
X268Y519D01*
X283Y519D02*
X290Y519D01*
X295Y519D02*
X299Y519D01*
X363Y519D02*
X367Y519D01*
X377Y519D02*
X384Y519D01*
X395Y519D02*
X398Y519D01*
X757Y519D02*
X792Y519D01*
X1034Y519D02*
X1041Y519D01*
X1424Y519D02*
X1431Y519D01*
X1468Y519D02*
X1475Y519D01*
X0Y518D02*
X7Y518D01*
X77Y518D02*
X88Y518D01*
X167Y518D02*
X171Y518D01*
X187Y518D02*
X200Y518D01*
X264Y518D02*
X268Y518D01*
X282Y518D02*
X289Y518D01*
X295Y518D02*
X299Y518D01*
X363Y518D02*
X367Y518D01*
X376Y518D02*
X382Y518D01*
X395Y518D02*
X398Y518D01*
X757Y518D02*
X792Y518D01*
X1034Y518D02*
X1041Y518D01*
X1424Y518D02*
X1431Y518D01*
X1468Y518D02*
X1475Y518D01*
X0Y517D02*
X7Y517D01*
X79Y517D02*
X91Y517D01*
X167Y517D02*
X171Y517D01*
X187Y517D02*
X201Y517D01*
X264Y517D02*
X268Y517D01*
X281Y517D02*
X287Y517D01*
X295Y517D02*
X299Y517D01*
X363Y517D02*
X367Y517D01*
X374Y517D02*
X381Y517D01*
X395Y517D02*
X398Y517D01*
X757Y517D02*
X792Y517D01*
X1034Y517D02*
X1041Y517D01*
X1424Y517D02*
X1431Y517D01*
X1468Y517D02*
X1475Y517D01*
X0Y516D02*
X7Y516D01*
X82Y516D02*
X94Y516D01*
X167Y516D02*
X171Y516D01*
X187Y516D02*
X202Y516D01*
X264Y516D02*
X268Y516D01*
X279Y516D02*
X286Y516D01*
X295Y516D02*
X299Y516D01*
X363Y516D02*
X367Y516D01*
X373Y516D02*
X380Y516D01*
X395Y516D02*
X398Y516D01*
X757Y516D02*
X792Y516D01*
X1034Y516D02*
X1041Y516D01*
X1424Y516D02*
X1431Y516D01*
X1468Y516D02*
X1475Y516D01*
X0Y515D02*
X7Y515D01*
X84Y515D02*
X96Y515D01*
X167Y515D02*
X171Y515D01*
X187Y515D02*
X190Y515D01*
X197Y515D02*
X202Y515D01*
X264Y515D02*
X268Y515D01*
X278Y515D02*
X285Y515D01*
X295Y515D02*
X299Y515D01*
X363Y515D02*
X367Y515D01*
X372Y515D02*
X378Y515D01*
X395Y515D02*
X398Y515D01*
X757Y515D02*
X792Y515D01*
X1034Y515D02*
X1041Y515D01*
X1424Y515D02*
X1431Y515D01*
X1468Y515D02*
X1475Y515D01*
X0Y514D02*
X7Y514D01*
X87Y514D02*
X99Y514D01*
X167Y514D02*
X171Y514D01*
X187Y514D02*
X190Y514D01*
X198Y514D02*
X202Y514D01*
X264Y514D02*
X268Y514D01*
X277Y514D02*
X284Y514D01*
X295Y514D02*
X299Y514D01*
X363Y514D02*
X367Y514D01*
X370Y514D02*
X377Y514D01*
X394Y514D02*
X398Y514D01*
X757Y514D02*
X761Y514D01*
X789Y514D02*
X792Y514D01*
X1034Y514D02*
X1041Y514D01*
X1424Y514D02*
X1431Y514D01*
X1468Y514D02*
X1475Y514D01*
X0Y513D02*
X7Y513D01*
X89Y513D02*
X100Y513D01*
X167Y513D02*
X171Y513D01*
X187Y513D02*
X190Y513D01*
X198Y513D02*
X202Y513D01*
X264Y513D02*
X268Y513D01*
X276Y513D02*
X282Y513D01*
X295Y513D02*
X299Y513D01*
X363Y513D02*
X367Y513D01*
X369Y513D02*
X376Y513D01*
X394Y513D02*
X398Y513D01*
X757Y513D02*
X761Y513D01*
X789Y513D02*
X792Y513D01*
X1034Y513D02*
X1041Y513D01*
X1424Y513D02*
X1431Y513D01*
X1468Y513D02*
X1475Y513D01*
X0Y512D02*
X7Y512D01*
X91Y512D02*
X100Y512D01*
X167Y512D02*
X171Y512D01*
X187Y512D02*
X190Y512D01*
X198Y512D02*
X202Y512D01*
X264Y512D02*
X268Y512D01*
X274Y512D02*
X281Y512D01*
X295Y512D02*
X299Y512D01*
X363Y512D02*
X375Y512D01*
X391Y512D02*
X398Y512D01*
X757Y512D02*
X761Y512D01*
X789Y512D02*
X792Y512D01*
X1034Y512D02*
X1041Y512D01*
X1424Y512D02*
X1431Y512D01*
X1468Y512D02*
X1475Y512D01*
X0Y511D02*
X7Y511D01*
X90Y511D02*
X100Y511D01*
X167Y511D02*
X171Y511D01*
X187Y511D02*
X190Y511D01*
X198Y511D02*
X202Y511D01*
X264Y511D02*
X268Y511D01*
X273Y511D02*
X280Y511D01*
X295Y511D02*
X299Y511D01*
X364Y511D02*
X373Y511D01*
X391Y511D02*
X397Y511D01*
X757Y511D02*
X761Y511D01*
X789Y511D02*
X792Y511D01*
X1034Y511D02*
X1041Y511D01*
X1424Y511D02*
X1431Y511D01*
X1468Y511D02*
X1475Y511D01*
X0Y510D02*
X7Y510D01*
X87Y510D02*
X99Y510D01*
X167Y510D02*
X171Y510D01*
X187Y510D02*
X190Y510D01*
X198Y510D02*
X202Y510D01*
X264Y510D02*
X268Y510D01*
X272Y510D02*
X278Y510D01*
X295Y510D02*
X299Y510D01*
X364Y510D02*
X372Y510D01*
X391Y510D02*
X396Y510D01*
X757Y510D02*
X761Y510D01*
X789Y510D02*
X792Y510D01*
X1034Y510D02*
X1041Y510D01*
X1424Y510D02*
X1431Y510D01*
X1468Y510D02*
X1475Y510D01*
X0Y509D02*
X7Y509D01*
X85Y509D02*
X97Y509D01*
X167Y509D02*
X172Y509D01*
X188Y509D02*
X189Y509D01*
X198Y509D02*
X202Y509D01*
X264Y509D02*
X268Y509D01*
X270Y509D02*
X277Y509D01*
X295Y509D02*
X299Y509D01*
X365Y509D02*
X371Y509D01*
X391Y509D02*
X395Y509D01*
X757Y509D02*
X761Y509D01*
X789Y509D02*
X792Y509D01*
X1034Y509D02*
X1041Y509D01*
X1424Y509D02*
X1431Y509D01*
X1468Y509D02*
X1475Y509D01*
X0Y508D02*
X7Y508D01*
X82Y508D02*
X94Y508D01*
X168Y508D02*
X173Y508D01*
X198Y508D02*
X202Y508D01*
X264Y508D02*
X276Y508D01*
X293Y508D02*
X299Y508D01*
X368Y508D02*
X368Y508D01*
X758Y508D02*
X761Y508D01*
X789Y508D02*
X792Y508D01*
X1034Y508D02*
X1041Y508D01*
X1424Y508D02*
X1431Y508D01*
X1468Y508D02*
X1475Y508D01*
X0Y507D02*
X7Y507D01*
X80Y507D02*
X92Y507D01*
X168Y507D02*
X174Y507D01*
X198Y507D02*
X202Y507D01*
X265Y507D02*
X275Y507D01*
X292Y507D02*
X298Y507D01*
X758Y507D02*
X761Y507D01*
X789Y507D02*
X792Y507D01*
X1034Y507D02*
X1041Y507D01*
X1424Y507D02*
X1431Y507D01*
X1468Y507D02*
X1475Y507D01*
X0Y506D02*
X7Y506D01*
X77Y506D02*
X89Y506D01*
X169Y506D02*
X176Y506D01*
X198Y506D02*
X202Y506D01*
X265Y506D02*
X273Y506D01*
X292Y506D02*
X298Y506D01*
X759Y506D02*
X760Y506D01*
X790Y506D02*
X791Y506D01*
X1034Y506D02*
X1041Y506D01*
X1424Y506D02*
X1431Y506D01*
X1468Y506D02*
X1475Y506D01*
X0Y505D02*
X7Y505D01*
X67Y505D02*
X86Y505D01*
X170Y505D02*
X177Y505D01*
X198Y505D02*
X202Y505D01*
X266Y505D02*
X272Y505D01*
X292Y505D02*
X297Y505D01*
X1034Y505D02*
X1041Y505D01*
X1424Y505D02*
X1431Y505D01*
X1468Y505D02*
X1475Y505D01*
X0Y504D02*
X7Y504D01*
X65Y504D02*
X84Y504D01*
X172Y504D02*
X178Y504D01*
X198Y504D02*
X202Y504D01*
X268Y504D02*
X270Y504D01*
X293Y504D02*
X295Y504D01*
X1035Y504D02*
X1041Y504D01*
X1424Y504D02*
X1431Y504D01*
X1468Y504D02*
X1475Y504D01*
X0Y503D02*
X7Y503D01*
X65Y503D02*
X81Y503D01*
X173Y503D02*
X180Y503D01*
X198Y503D02*
X202Y503D01*
X1035Y503D02*
X1041Y503D01*
X1425Y503D02*
X1431Y503D01*
X1468Y503D02*
X1475Y503D01*
X0Y502D02*
X7Y502D01*
X65Y502D02*
X79Y502D01*
X174Y502D02*
X182Y502D01*
X197Y502D02*
X202Y502D01*
X1035Y502D02*
X1041Y502D01*
X1425Y502D02*
X1431Y502D01*
X1468Y502D02*
X1475Y502D01*
X0Y501D02*
X7Y501D01*
X66Y501D02*
X76Y501D01*
X176Y501D02*
X201Y501D01*
X1036Y501D02*
X1040Y501D01*
X1426Y501D02*
X1430Y501D01*
X1468Y501D02*
X1475Y501D01*
X0Y500D02*
X7Y500D01*
X177Y500D02*
X201Y500D01*
X1468Y500D02*
X1475Y500D01*
X0Y499D02*
X7Y499D01*
X178Y499D02*
X200Y499D01*
X1468Y499D02*
X1475Y499D01*
X0Y498D02*
X7Y498D01*
X180Y498D02*
X198Y498D01*
X1468Y498D02*
X1475Y498D01*
X0Y497D02*
X7Y497D01*
X1468Y497D02*
X1475Y497D01*
X0Y496D02*
X7Y496D01*
X1468Y496D02*
X1475Y496D01*
X0Y495D02*
X7Y495D01*
X1468Y495D02*
X1475Y495D01*
X0Y494D02*
X7Y494D01*
X1468Y494D02*
X1475Y494D01*
X0Y493D02*
X7Y493D01*
X1468Y493D02*
X1475Y493D01*
X0Y492D02*
X7Y492D01*
X1468Y492D02*
X1475Y492D01*
X0Y491D02*
X7Y491D01*
X1468Y491D02*
X1475Y491D01*
X0Y490D02*
X7Y490D01*
X1468Y490D02*
X1475Y490D01*
X0Y489D02*
X7Y489D01*
X1468Y489D02*
X1475Y489D01*
X0Y488D02*
X7Y488D01*
X1468Y488D02*
X1475Y488D01*
X0Y487D02*
X7Y487D01*
X1468Y487D02*
X1475Y487D01*
X0Y486D02*
X7Y486D01*
X1468Y486D02*
X1475Y486D01*
X0Y485D02*
X7Y485D01*
X1468Y485D02*
X1475Y485D01*
X0Y484D02*
X7Y484D01*
X1468Y484D02*
X1475Y484D01*
X0Y483D02*
X7Y483D01*
X1468Y483D02*
X1475Y483D01*
X0Y482D02*
X7Y482D01*
X1468Y482D02*
X1475Y482D01*
X0Y481D02*
X7Y481D01*
X1468Y481D02*
X1475Y481D01*
X0Y480D02*
X7Y480D01*
X1468Y480D02*
X1475Y480D01*
X0Y479D02*
X7Y479D01*
X1468Y479D02*
X1475Y479D01*
X0Y478D02*
X7Y478D01*
X1468Y478D02*
X1475Y478D01*
X0Y477D02*
X7Y477D01*
X1468Y477D02*
X1475Y477D01*
X0Y476D02*
X7Y476D01*
X1468Y476D02*
X1475Y476D01*
X0Y475D02*
X7Y475D01*
X1468Y475D02*
X1475Y475D01*
X0Y474D02*
X7Y474D01*
X1468Y474D02*
X1475Y474D01*
X0Y473D02*
X7Y473D01*
X1468Y473D02*
X1475Y473D01*
X0Y472D02*
X7Y472D01*
X1468Y472D02*
X1475Y472D01*
X0Y471D02*
X7Y471D01*
X1468Y471D02*
X1475Y471D01*
X0Y470D02*
X7Y470D01*
X1468Y470D02*
X1475Y470D01*
X0Y469D02*
X7Y469D01*
X1468Y469D02*
X1475Y469D01*
X0Y468D02*
X7Y468D01*
X1468Y468D02*
X1475Y468D01*
X0Y467D02*
X7Y467D01*
X1468Y467D02*
X1475Y467D01*
X0Y466D02*
X7Y466D01*
X1468Y466D02*
X1475Y466D01*
X0Y465D02*
X7Y465D01*
X1468Y465D02*
X1475Y465D01*
X0Y464D02*
X7Y464D01*
X1468Y464D02*
X1475Y464D01*
X0Y463D02*
X7Y463D01*
X1468Y463D02*
X1475Y463D01*
X0Y462D02*
X7Y462D01*
X1468Y462D02*
X1475Y462D01*
X0Y461D02*
X7Y461D01*
X1468Y461D02*
X1475Y461D01*
X0Y460D02*
X7Y460D01*
X1468Y460D02*
X1475Y460D01*
X0Y459D02*
X7Y459D01*
X1468Y459D02*
X1475Y459D01*
X0Y458D02*
X7Y458D01*
X1468Y458D02*
X1475Y458D01*
X0Y457D02*
X7Y457D01*
X1468Y457D02*
X1475Y457D01*
X0Y456D02*
X7Y456D01*
X1468Y456D02*
X1475Y456D01*
X0Y455D02*
X7Y455D01*
X1468Y455D02*
X1475Y455D01*
X0Y454D02*
X7Y454D01*
X1468Y454D02*
X1475Y454D01*
X0Y453D02*
X7Y453D01*
X1468Y453D02*
X1475Y453D01*
X0Y452D02*
X7Y452D01*
X1468Y452D02*
X1475Y452D01*
X0Y451D02*
X7Y451D01*
X1468Y451D02*
X1475Y451D01*
X0Y450D02*
X7Y450D01*
X1468Y450D02*
X1475Y450D01*
X0Y449D02*
X7Y449D01*
X1468Y449D02*
X1475Y449D01*
X0Y448D02*
X7Y448D01*
X1468Y448D02*
X1475Y448D01*
X0Y447D02*
X7Y447D01*
X1468Y447D02*
X1475Y447D01*
X0Y446D02*
X7Y446D01*
X1468Y446D02*
X1475Y446D01*
X0Y445D02*
X7Y445D01*
X1468Y445D02*
X1475Y445D01*
X0Y444D02*
X7Y444D01*
X1468Y444D02*
X1475Y444D01*
X0Y443D02*
X7Y443D01*
X1468Y443D02*
X1475Y443D01*
X0Y442D02*
X7Y442D01*
X1468Y442D02*
X1475Y442D01*
X0Y441D02*
X7Y441D01*
X1468Y441D02*
X1475Y441D01*
X0Y440D02*
X7Y440D01*
X1468Y440D02*
X1475Y440D01*
X0Y439D02*
X7Y439D01*
X1468Y439D02*
X1475Y439D01*
X0Y438D02*
X7Y438D01*
X1468Y438D02*
X1475Y438D01*
X0Y437D02*
X7Y437D01*
X1468Y437D02*
X1475Y437D01*
X0Y436D02*
X7Y436D01*
X1468Y436D02*
X1475Y436D01*
X0Y435D02*
X7Y435D01*
X1468Y435D02*
X1475Y435D01*
X0Y434D02*
X7Y434D01*
X1468Y434D02*
X1475Y434D01*
X0Y433D02*
X7Y433D01*
X1468Y433D02*
X1475Y433D01*
X0Y432D02*
X7Y432D01*
X1468Y432D02*
X1475Y432D01*
X0Y431D02*
X7Y431D01*
X1468Y431D02*
X1475Y431D01*
X0Y430D02*
X7Y430D01*
X1468Y430D02*
X1475Y430D01*
X0Y429D02*
X7Y429D01*
X1468Y429D02*
X1475Y429D01*
X0Y428D02*
X7Y428D01*
X1468Y428D02*
X1475Y428D01*
X0Y427D02*
X7Y427D01*
X1468Y427D02*
X1475Y427D01*
X0Y426D02*
X7Y426D01*
X1468Y426D02*
X1475Y426D01*
X0Y425D02*
X7Y425D01*
X1468Y425D02*
X1475Y425D01*
X0Y424D02*
X7Y424D01*
X1468Y424D02*
X1475Y424D01*
X0Y423D02*
X7Y423D01*
X1468Y423D02*
X1475Y423D01*
X0Y422D02*
X7Y422D01*
X1468Y422D02*
X1475Y422D01*
X0Y421D02*
X7Y421D01*
X1468Y421D02*
X1475Y421D01*
X0Y420D02*
X7Y420D01*
X586Y420D02*
X588Y420D01*
X1468Y420D02*
X1475Y420D01*
X0Y419D02*
X7Y419D01*
X585Y419D02*
X590Y419D01*
X1468Y419D02*
X1475Y419D01*
X0Y418D02*
X7Y418D01*
X190Y418D02*
X192Y418D01*
X244Y418D02*
X257Y418D01*
X364Y418D02*
X364Y418D01*
X478Y418D02*
X491Y418D01*
X584Y418D02*
X590Y418D01*
X615Y418D02*
X621Y418D01*
X1468Y418D02*
X1475Y418D01*
X0Y417D02*
X7Y417D01*
X186Y417D02*
X196Y417D01*
X244Y417D02*
X261Y417D01*
X363Y417D02*
X365Y417D01*
X477Y417D02*
X494Y417D01*
X584Y417D02*
X590Y417D01*
X613Y417D02*
X623Y417D01*
X1468Y417D02*
X1475Y417D01*
X0Y416D02*
X7Y416D01*
X185Y416D02*
X197Y416D01*
X244Y416D02*
X262Y416D01*
X362Y416D02*
X366Y416D01*
X477Y416D02*
X496Y416D01*
X584Y416D02*
X590Y416D01*
X613Y416D02*
X623Y416D01*
X1468Y416D02*
X1475Y416D01*
X0Y415D02*
X7Y415D01*
X183Y415D02*
X188Y415D01*
X194Y415D02*
X199Y415D01*
X244Y415D02*
X263Y415D01*
X362Y415D02*
X366Y415D01*
X477Y415D02*
X497Y415D01*
X584Y415D02*
X590Y415D01*
X613Y415D02*
X623Y415D01*
X1468Y415D02*
X1475Y415D01*
X0Y414D02*
X7Y414D01*
X182Y414D02*
X186Y414D01*
X196Y414D02*
X200Y414D01*
X244Y414D02*
X264Y414D01*
X362Y414D02*
X366Y414D01*
X477Y414D02*
X498Y414D01*
X585Y414D02*
X589Y414D01*
X614Y414D02*
X623Y414D01*
X1468Y414D02*
X1475Y414D01*
X0Y413D02*
X7Y413D01*
X182Y413D02*
X185Y413D01*
X197Y413D02*
X200Y413D01*
X244Y413D02*
X248Y413D01*
X259Y413D02*
X265Y413D01*
X362Y413D02*
X366Y413D01*
X477Y413D02*
X481Y413D01*
X493Y413D02*
X498Y413D01*
X620Y413D02*
X623Y413D01*
X1468Y413D02*
X1475Y413D01*
X0Y412D02*
X7Y412D01*
X181Y412D02*
X184Y412D01*
X198Y412D02*
X201Y412D01*
X244Y412D02*
X248Y412D01*
X261Y412D02*
X265Y412D01*
X362Y412D02*
X366Y412D01*
X477Y412D02*
X481Y412D01*
X494Y412D02*
X499Y412D01*
X620Y412D02*
X623Y412D01*
X1468Y412D02*
X1475Y412D01*
X0Y411D02*
X7Y411D01*
X180Y411D02*
X183Y411D01*
X190Y411D02*
X195Y411D01*
X199Y411D02*
X202Y411D01*
X244Y411D02*
X248Y411D01*
X261Y411D02*
X266Y411D01*
X362Y411D02*
X366Y411D01*
X477Y411D02*
X481Y411D01*
X495Y411D02*
X499Y411D01*
X620Y411D02*
X623Y411D01*
X1468Y411D02*
X1475Y411D01*
X0Y410D02*
X7Y410D01*
X180Y410D02*
X182Y410D01*
X188Y410D02*
X197Y410D01*
X200Y410D02*
X202Y410D01*
X244Y410D02*
X248Y410D01*
X262Y410D02*
X266Y410D01*
X362Y410D02*
X366Y410D01*
X477Y410D02*
X481Y410D01*
X495Y410D02*
X499Y410D01*
X620Y410D02*
X623Y410D01*
X1468Y410D02*
X1475Y410D01*
X0Y409D02*
X7Y409D01*
X179Y409D02*
X182Y409D01*
X186Y409D02*
X197Y409D01*
X200Y409D02*
X203Y409D01*
X244Y409D02*
X248Y409D01*
X262Y409D02*
X266Y409D01*
X362Y409D02*
X366Y409D01*
X477Y409D02*
X481Y409D01*
X495Y409D02*
X499Y409D01*
X620Y409D02*
X623Y409D01*
X1468Y409D02*
X1475Y409D01*
X0Y408D02*
X7Y408D01*
X179Y408D02*
X181Y408D01*
X186Y408D02*
X197Y408D01*
X201Y408D02*
X203Y408D01*
X244Y408D02*
X248Y408D01*
X262Y408D02*
X266Y408D01*
X284Y408D02*
X293Y408D01*
X317Y408D02*
X324Y408D01*
X330Y408D02*
X331Y408D01*
X350Y408D02*
X357Y408D01*
X362Y408D02*
X366Y408D01*
X383Y408D02*
X394Y408D01*
X412Y408D02*
X413Y408D01*
X421Y408D02*
X427Y408D01*
X477Y408D02*
X481Y408D01*
X496Y408D02*
X499Y408D01*
X516Y408D02*
X527Y408D01*
X553Y408D02*
X565Y408D01*
X581Y408D02*
X589Y408D01*
X620Y408D02*
X623Y408D01*
X650Y408D02*
X660Y408D01*
X1468Y408D02*
X1475Y408D01*
X0Y407D02*
X7Y407D01*
X179Y407D02*
X181Y407D01*
X185Y407D02*
X189Y407D01*
X201Y407D02*
X203Y407D01*
X244Y407D02*
X248Y407D01*
X262Y407D02*
X266Y407D01*
X282Y407D02*
X295Y407D01*
X315Y407D02*
X326Y407D01*
X329Y407D02*
X332Y407D01*
X349Y407D02*
X359Y407D01*
X362Y407D02*
X366Y407D01*
X382Y407D02*
X396Y407D01*
X411Y407D02*
X414Y407D01*
X419Y407D02*
X429Y407D01*
X477Y407D02*
X481Y407D01*
X496Y407D02*
X499Y407D01*
X515Y407D02*
X529Y407D01*
X551Y407D02*
X566Y407D01*
X580Y407D02*
X590Y407D01*
X620Y407D02*
X623Y407D01*
X649Y407D02*
X662Y407D01*
X1468Y407D02*
X1475Y407D01*
X0Y406D02*
X7Y406D01*
X178Y406D02*
X180Y406D01*
X184Y406D02*
X188Y406D01*
X201Y406D02*
X204Y406D01*
X244Y406D02*
X248Y406D01*
X262Y406D02*
X266Y406D01*
X281Y406D02*
X296Y406D01*
X314Y406D02*
X327Y406D01*
X329Y406D02*
X332Y406D01*
X347Y406D02*
X360Y406D01*
X362Y406D02*
X366Y406D01*
X382Y406D02*
X397Y406D01*
X411Y406D02*
X414Y406D01*
X418Y406D02*
X430Y406D01*
X477Y406D02*
X481Y406D01*
X495Y406D02*
X499Y406D01*
X515Y406D02*
X530Y406D01*
X549Y406D02*
X566Y406D01*
X580Y406D02*
X590Y406D01*
X620Y406D02*
X623Y406D01*
X649Y406D02*
X663Y406D01*
X1468Y406D02*
X1475Y406D01*
X0Y405D02*
X7Y405D01*
X178Y405D02*
X180Y405D01*
X184Y405D02*
X187Y405D01*
X202Y405D02*
X204Y405D01*
X244Y405D02*
X248Y405D01*
X262Y405D02*
X266Y405D01*
X279Y405D02*
X297Y405D01*
X313Y405D02*
X333Y405D01*
X346Y405D02*
X366Y405D01*
X382Y405D02*
X397Y405D01*
X411Y405D02*
X414Y405D01*
X416Y405D02*
X431Y405D01*
X477Y405D02*
X481Y405D01*
X495Y405D02*
X499Y405D01*
X515Y405D02*
X531Y405D01*
X548Y405D02*
X566Y405D01*
X580Y405D02*
X590Y405D01*
X620Y405D02*
X623Y405D01*
X649Y405D02*
X664Y405D01*
X1468Y405D02*
X1475Y405D01*
X0Y404D02*
X7Y404D01*
X178Y404D02*
X180Y404D01*
X184Y404D02*
X186Y404D01*
X202Y404D02*
X204Y404D01*
X244Y404D02*
X248Y404D01*
X261Y404D02*
X265Y404D01*
X279Y404D02*
X298Y404D01*
X312Y404D02*
X333Y404D01*
X345Y404D02*
X366Y404D01*
X383Y404D02*
X398Y404D01*
X411Y404D02*
X431Y404D01*
X477Y404D02*
X481Y404D01*
X494Y404D02*
X499Y404D01*
X516Y404D02*
X531Y404D01*
X547Y404D02*
X565Y404D01*
X581Y404D02*
X590Y404D01*
X620Y404D02*
X623Y404D01*
X650Y404D02*
X665Y404D01*
X1468Y404D02*
X1475Y404D01*
X0Y403D02*
X7Y403D01*
X178Y403D02*
X180Y403D01*
X183Y403D02*
X186Y403D01*
X202Y403D02*
X204Y403D01*
X244Y403D02*
X248Y403D01*
X260Y403D02*
X265Y403D01*
X278Y403D02*
X283Y403D01*
X293Y403D02*
X298Y403D01*
X311Y403D02*
X317Y403D01*
X324Y403D02*
X333Y403D01*
X345Y403D02*
X350Y403D01*
X357Y403D02*
X366Y403D01*
X394Y403D02*
X398Y403D01*
X411Y403D02*
X421Y403D01*
X427Y403D02*
X432Y403D01*
X477Y403D02*
X481Y403D01*
X493Y403D02*
X498Y403D01*
X528Y403D02*
X532Y403D01*
X546Y403D02*
X552Y403D01*
X586Y403D02*
X590Y403D01*
X620Y403D02*
X623Y403D01*
X661Y403D02*
X665Y403D01*
X1468Y403D02*
X1475Y403D01*
X0Y402D02*
X7Y402D01*
X178Y402D02*
X180Y402D01*
X183Y402D02*
X186Y402D01*
X202Y402D02*
X204Y402D01*
X244Y402D02*
X264Y402D01*
X278Y402D02*
X282Y402D01*
X294Y402D02*
X299Y402D01*
X311Y402D02*
X315Y402D01*
X325Y402D02*
X333Y402D01*
X344Y402D02*
X349Y402D01*
X359Y402D02*
X366Y402D01*
X395Y402D02*
X399Y402D01*
X411Y402D02*
X419Y402D01*
X428Y402D02*
X432Y402D01*
X477Y402D02*
X498Y402D01*
X528Y402D02*
X532Y402D01*
X545Y402D02*
X551Y402D01*
X586Y402D02*
X590Y402D01*
X620Y402D02*
X623Y402D01*
X661Y402D02*
X665Y402D01*
X1468Y402D02*
X1475Y402D01*
X0Y401D02*
X7Y401D01*
X178Y401D02*
X180Y401D01*
X183Y401D02*
X186Y401D01*
X202Y401D02*
X204Y401D01*
X244Y401D02*
X263Y401D01*
X277Y401D02*
X281Y401D01*
X295Y401D02*
X299Y401D01*
X311Y401D02*
X314Y401D01*
X326Y401D02*
X333Y401D01*
X344Y401D02*
X348Y401D01*
X360Y401D02*
X366Y401D01*
X395Y401D02*
X399Y401D01*
X411Y401D02*
X418Y401D01*
X428Y401D02*
X432Y401D01*
X477Y401D02*
X497Y401D01*
X528Y401D02*
X532Y401D01*
X545Y401D02*
X550Y401D01*
X586Y401D02*
X590Y401D01*
X620Y401D02*
X623Y401D01*
X662Y401D02*
X665Y401D01*
X1468Y401D02*
X1475Y401D01*
X0Y400D02*
X7Y400D01*
X178Y400D02*
X180Y400D01*
X183Y400D02*
X186Y400D01*
X202Y400D02*
X204Y400D01*
X244Y400D02*
X263Y400D01*
X277Y400D02*
X281Y400D01*
X295Y400D02*
X299Y400D01*
X311Y400D02*
X314Y400D01*
X328Y400D02*
X333Y400D01*
X344Y400D02*
X348Y400D01*
X361Y400D02*
X366Y400D01*
X395Y400D02*
X399Y400D01*
X411Y400D02*
X416Y400D01*
X428Y400D02*
X432Y400D01*
X477Y400D02*
X496Y400D01*
X528Y400D02*
X532Y400D01*
X544Y400D02*
X549Y400D01*
X586Y400D02*
X590Y400D01*
X620Y400D02*
X623Y400D01*
X662Y400D02*
X665Y400D01*
X1468Y400D02*
X1475Y400D01*
X0Y399D02*
X7Y399D01*
X178Y399D02*
X180Y399D01*
X183Y399D02*
X186Y399D01*
X202Y399D02*
X204Y399D01*
X244Y399D02*
X264Y399D01*
X277Y399D02*
X281Y399D01*
X296Y399D02*
X299Y399D01*
X311Y399D02*
X314Y399D01*
X329Y399D02*
X333Y399D01*
X344Y399D02*
X348Y399D01*
X362Y399D02*
X366Y399D01*
X395Y399D02*
X399Y399D01*
X411Y399D02*
X415Y399D01*
X428Y399D02*
X432Y399D01*
X477Y399D02*
X497Y399D01*
X528Y399D02*
X532Y399D01*
X544Y399D02*
X548Y399D01*
X586Y399D02*
X590Y399D01*
X620Y399D02*
X623Y399D01*
X662Y399D02*
X665Y399D01*
X1468Y399D02*
X1475Y399D01*
X0Y398D02*
X7Y398D01*
X178Y398D02*
X180Y398D01*
X183Y398D02*
X186Y398D01*
X202Y398D02*
X204Y398D01*
X244Y398D02*
X264Y398D01*
X277Y398D02*
X281Y398D01*
X296Y398D02*
X299Y398D01*
X311Y398D02*
X314Y398D01*
X329Y398D02*
X333Y398D01*
X344Y398D02*
X348Y398D01*
X362Y398D02*
X366Y398D01*
X382Y398D02*
X399Y398D01*
X411Y398D02*
X414Y398D01*
X428Y398D02*
X432Y398D01*
X477Y398D02*
X498Y398D01*
X515Y398D02*
X532Y398D01*
X544Y398D02*
X548Y398D01*
X586Y398D02*
X590Y398D01*
X620Y398D02*
X623Y398D01*
X648Y398D02*
X665Y398D01*
X1468Y398D02*
X1475Y398D01*
X0Y397D02*
X7Y397D01*
X178Y397D02*
X180Y397D01*
X183Y397D02*
X186Y397D01*
X202Y397D02*
X204Y397D01*
X244Y397D02*
X248Y397D01*
X260Y397D02*
X265Y397D01*
X277Y397D02*
X281Y397D01*
X296Y397D02*
X299Y397D01*
X311Y397D02*
X314Y397D01*
X329Y397D02*
X333Y397D01*
X344Y397D02*
X348Y397D01*
X362Y397D02*
X366Y397D01*
X380Y397D02*
X399Y397D01*
X411Y397D02*
X414Y397D01*
X428Y397D02*
X432Y397D01*
X477Y397D02*
X481Y397D01*
X493Y397D02*
X498Y397D01*
X513Y397D02*
X532Y397D01*
X544Y397D02*
X548Y397D01*
X586Y397D02*
X590Y397D01*
X620Y397D02*
X623Y397D01*
X647Y397D02*
X665Y397D01*
X1468Y397D02*
X1475Y397D01*
X0Y396D02*
X7Y396D01*
X178Y396D02*
X180Y396D01*
X183Y396D02*
X186Y396D01*
X202Y396D02*
X204Y396D01*
X244Y396D02*
X248Y396D01*
X261Y396D02*
X265Y396D01*
X277Y396D02*
X281Y396D01*
X296Y396D02*
X299Y396D01*
X311Y396D02*
X314Y396D01*
X329Y396D02*
X333Y396D01*
X344Y396D02*
X348Y396D01*
X362Y396D02*
X366Y396D01*
X379Y396D02*
X399Y396D01*
X411Y396D02*
X414Y396D01*
X428Y396D02*
X432Y396D01*
X477Y396D02*
X481Y396D01*
X494Y396D02*
X499Y396D01*
X512Y396D02*
X532Y396D01*
X544Y396D02*
X548Y396D01*
X586Y396D02*
X590Y396D01*
X620Y396D02*
X623Y396D01*
X646Y396D02*
X666Y396D01*
X1468Y396D02*
X1475Y396D01*
X0Y395D02*
X7Y395D01*
X178Y395D02*
X180Y395D01*
X184Y395D02*
X186Y395D01*
X202Y395D02*
X204Y395D01*
X244Y395D02*
X248Y395D01*
X262Y395D02*
X266Y395D01*
X277Y395D02*
X281Y395D01*
X296Y395D02*
X299Y395D01*
X311Y395D02*
X314Y395D01*
X329Y395D02*
X333Y395D01*
X344Y395D02*
X348Y395D01*
X362Y395D02*
X366Y395D01*
X378Y395D02*
X399Y395D01*
X411Y395D02*
X414Y395D01*
X428Y395D02*
X432Y395D01*
X477Y395D02*
X481Y395D01*
X495Y395D02*
X499Y395D01*
X511Y395D02*
X532Y395D01*
X544Y395D02*
X548Y395D01*
X586Y395D02*
X590Y395D01*
X620Y395D02*
X623Y395D01*
X645Y395D02*
X666Y395D01*
X1468Y395D02*
X1475Y395D01*
X0Y394D02*
X7Y394D01*
X178Y394D02*
X180Y394D01*
X184Y394D02*
X187Y394D01*
X202Y394D02*
X204Y394D01*
X244Y394D02*
X248Y394D01*
X262Y394D02*
X266Y394D01*
X277Y394D02*
X281Y394D01*
X296Y394D02*
X299Y394D01*
X311Y394D02*
X314Y394D01*
X329Y394D02*
X333Y394D01*
X344Y394D02*
X348Y394D01*
X362Y394D02*
X366Y394D01*
X378Y394D02*
X399Y394D01*
X411Y394D02*
X414Y394D01*
X429Y394D02*
X432Y394D01*
X477Y394D02*
X481Y394D01*
X495Y394D02*
X499Y394D01*
X511Y394D02*
X532Y394D01*
X544Y394D02*
X548Y394D01*
X586Y394D02*
X590Y394D01*
X620Y394D02*
X623Y394D01*
X644Y394D02*
X666Y394D01*
X1468Y394D02*
X1475Y394D01*
X0Y393D02*
X7Y393D01*
X178Y393D02*
X181Y393D01*
X184Y393D02*
X188Y393D01*
X201Y393D02*
X203Y393D01*
X244Y393D02*
X248Y393D01*
X262Y393D02*
X266Y393D01*
X277Y393D02*
X281Y393D01*
X296Y393D02*
X299Y393D01*
X311Y393D02*
X314Y393D01*
X328Y393D02*
X333Y393D01*
X344Y393D02*
X348Y393D01*
X362Y393D02*
X366Y393D01*
X377Y393D02*
X381Y393D01*
X395Y393D02*
X399Y393D01*
X411Y393D02*
X414Y393D01*
X429Y393D02*
X432Y393D01*
X477Y393D02*
X481Y393D01*
X496Y393D02*
X499Y393D01*
X511Y393D02*
X515Y393D01*
X528Y393D02*
X532Y393D01*
X544Y393D02*
X548Y393D01*
X586Y393D02*
X590Y393D01*
X620Y393D02*
X623Y393D01*
X644Y393D02*
X648Y393D01*
X661Y393D02*
X666Y393D01*
X1468Y393D02*
X1475Y393D01*
X0Y392D02*
X7Y392D01*
X179Y392D02*
X181Y392D01*
X185Y392D02*
X189Y392D01*
X201Y392D02*
X203Y392D01*
X244Y392D02*
X248Y392D01*
X262Y392D02*
X266Y392D01*
X277Y392D02*
X281Y392D01*
X296Y392D02*
X299Y392D01*
X311Y392D02*
X314Y392D01*
X327Y392D02*
X333Y392D01*
X344Y392D02*
X348Y392D01*
X362Y392D02*
X366Y392D01*
X377Y392D02*
X381Y392D01*
X395Y392D02*
X399Y392D01*
X411Y392D02*
X414Y392D01*
X429Y392D02*
X432Y392D01*
X477Y392D02*
X481Y392D01*
X496Y392D02*
X499Y392D01*
X511Y392D02*
X514Y392D01*
X529Y392D02*
X532Y392D01*
X544Y392D02*
X548Y392D01*
X586Y392D02*
X590Y392D01*
X620Y392D02*
X623Y392D01*
X644Y392D02*
X648Y392D01*
X662Y392D02*
X666Y392D01*
X1468Y392D02*
X1475Y392D01*
X0Y391D02*
X7Y391D01*
X179Y391D02*
X181Y391D01*
X186Y391D02*
X191Y391D01*
X195Y391D02*
X197Y391D01*
X201Y391D02*
X203Y391D01*
X244Y391D02*
X248Y391D01*
X262Y391D02*
X266Y391D01*
X277Y391D02*
X281Y391D01*
X296Y391D02*
X299Y391D01*
X311Y391D02*
X315Y391D01*
X326Y391D02*
X333Y391D01*
X344Y391D02*
X348Y391D01*
X362Y391D02*
X366Y391D01*
X377Y391D02*
X381Y391D01*
X395Y391D02*
X399Y391D01*
X411Y391D02*
X414Y391D01*
X429Y391D02*
X432Y391D01*
X477Y391D02*
X481Y391D01*
X495Y391D02*
X499Y391D01*
X511Y391D02*
X514Y391D01*
X529Y391D02*
X532Y391D01*
X544Y391D02*
X548Y391D01*
X586Y391D02*
X590Y391D01*
X620Y391D02*
X623Y391D01*
X644Y391D02*
X648Y391D01*
X662Y391D02*
X666Y391D01*
X1468Y391D02*
X1475Y391D01*
X0Y390D02*
X7Y390D01*
X179Y390D02*
X182Y390D01*
X187Y390D02*
X197Y390D01*
X200Y390D02*
X203Y390D01*
X244Y390D02*
X248Y390D01*
X262Y390D02*
X266Y390D01*
X277Y390D02*
X281Y390D01*
X295Y390D02*
X299Y390D01*
X311Y390D02*
X316Y390D01*
X325Y390D02*
X333Y390D01*
X344Y390D02*
X348Y390D01*
X360Y390D02*
X366Y390D01*
X377Y390D02*
X381Y390D01*
X395Y390D02*
X399Y390D01*
X411Y390D02*
X414Y390D01*
X429Y390D02*
X432Y390D01*
X477Y390D02*
X481Y390D01*
X495Y390D02*
X499Y390D01*
X511Y390D02*
X514Y390D01*
X529Y390D02*
X532Y390D01*
X544Y390D02*
X549Y390D01*
X586Y390D02*
X590Y390D01*
X620Y390D02*
X623Y390D01*
X644Y390D02*
X648Y390D01*
X662Y390D02*
X666Y390D01*
X1468Y390D02*
X1475Y390D01*
X0Y389D02*
X7Y389D01*
X180Y389D02*
X182Y389D01*
X188Y389D02*
X197Y389D01*
X200Y389D02*
X202Y389D01*
X244Y389D02*
X248Y389D01*
X261Y389D02*
X265Y389D01*
X277Y389D02*
X281Y389D01*
X295Y389D02*
X299Y389D01*
X311Y389D02*
X317Y389D01*
X324Y389D02*
X333Y389D01*
X344Y389D02*
X348Y389D01*
X359Y389D02*
X366Y389D01*
X377Y389D02*
X381Y389D01*
X394Y389D02*
X399Y389D01*
X411Y389D02*
X414Y389D01*
X429Y389D02*
X432Y389D01*
X477Y389D02*
X481Y389D01*
X495Y389D02*
X499Y389D01*
X511Y389D02*
X514Y389D01*
X527Y389D02*
X532Y389D01*
X545Y389D02*
X550Y389D01*
X586Y389D02*
X590Y389D01*
X620Y389D02*
X623Y389D01*
X644Y389D02*
X648Y389D01*
X661Y389D02*
X666Y389D01*
X1468Y389D02*
X1475Y389D01*
X0Y388D02*
X7Y388D01*
X181Y388D02*
X183Y388D01*
X191Y388D02*
X195Y388D01*
X199Y388D02*
X201Y388D01*
X244Y388D02*
X248Y388D01*
X261Y388D02*
X265Y388D01*
X278Y388D02*
X282Y388D01*
X294Y388D02*
X299Y388D01*
X312Y388D02*
X333Y388D01*
X344Y388D02*
X349Y388D01*
X358Y388D02*
X366Y388D01*
X377Y388D02*
X381Y388D01*
X392Y388D02*
X399Y388D01*
X411Y388D02*
X414Y388D01*
X429Y388D02*
X432Y388D01*
X477Y388D02*
X481Y388D01*
X494Y388D02*
X499Y388D01*
X511Y388D02*
X515Y388D01*
X526Y388D02*
X532Y388D01*
X546Y388D02*
X552Y388D01*
X586Y388D02*
X590Y388D01*
X620Y388D02*
X623Y388D01*
X644Y388D02*
X648Y388D01*
X659Y388D02*
X666Y388D01*
X1468Y388D02*
X1475Y388D01*
X0Y387D02*
X7Y387D01*
X181Y387D02*
X184Y387D01*
X198Y387D02*
X201Y387D01*
X244Y387D02*
X248Y387D01*
X259Y387D02*
X265Y387D01*
X278Y387D02*
X284Y387D01*
X292Y387D02*
X298Y387D01*
X313Y387D02*
X333Y387D01*
X345Y387D02*
X351Y387D01*
X357Y387D02*
X366Y387D01*
X378Y387D02*
X382Y387D01*
X391Y387D02*
X399Y387D01*
X411Y387D02*
X414Y387D01*
X429Y387D02*
X432Y387D01*
X477Y387D02*
X481Y387D01*
X492Y387D02*
X498Y387D01*
X511Y387D02*
X516Y387D01*
X524Y387D02*
X532Y387D01*
X547Y387D02*
X553Y387D01*
X586Y387D02*
X590Y387D01*
X620Y387D02*
X624Y387D01*
X644Y387D02*
X649Y387D01*
X657Y387D02*
X666Y387D01*
X1468Y387D02*
X1475Y387D01*
X0Y386D02*
X7Y386D01*
X182Y386D02*
X185Y386D01*
X197Y386D02*
X200Y386D01*
X244Y386D02*
X264Y386D01*
X279Y386D02*
X297Y386D01*
X314Y386D02*
X326Y386D01*
X329Y386D02*
X333Y386D01*
X346Y386D02*
X366Y386D01*
X378Y386D02*
X399Y386D01*
X411Y386D02*
X414Y386D01*
X429Y386D02*
X432Y386D01*
X477Y386D02*
X497Y386D01*
X511Y386D02*
X532Y386D01*
X548Y386D02*
X565Y386D01*
X580Y386D02*
X596Y386D01*
X614Y386D02*
X630Y386D01*
X645Y386D02*
X666Y386D01*
X1468Y386D02*
X1475Y386D01*
X0Y385D02*
X7Y385D01*
X183Y385D02*
X186Y385D01*
X196Y385D02*
X199Y385D01*
X244Y385D02*
X263Y385D01*
X280Y385D02*
X296Y385D01*
X316Y385D02*
X325Y385D01*
X329Y385D02*
X333Y385D01*
X347Y385D02*
X366Y385D01*
X379Y385D02*
X399Y385D01*
X411Y385D02*
X414Y385D01*
X429Y385D02*
X432Y385D01*
X477Y385D02*
X497Y385D01*
X512Y385D02*
X533Y385D01*
X549Y385D02*
X566Y385D01*
X580Y385D02*
X597Y385D01*
X613Y385D02*
X630Y385D01*
X645Y385D02*
X666Y385D01*
X1468Y385D02*
X1475Y385D01*
X0Y384D02*
X7Y384D01*
X183Y384D02*
X189Y384D01*
X193Y384D02*
X199Y384D01*
X244Y384D02*
X262Y384D01*
X281Y384D02*
X295Y384D01*
X329Y384D02*
X333Y384D01*
X348Y384D02*
X360Y384D01*
X362Y384D02*
X366Y384D01*
X379Y384D02*
X399Y384D01*
X411Y384D02*
X414Y384D01*
X429Y384D02*
X432Y384D01*
X477Y384D02*
X495Y384D01*
X513Y384D02*
X527Y384D01*
X529Y384D02*
X532Y384D01*
X550Y384D02*
X566Y384D01*
X580Y384D02*
X597Y384D01*
X613Y384D02*
X630Y384D01*
X646Y384D02*
X666Y384D01*
X1468Y384D02*
X1475Y384D01*
X0Y383D02*
X7Y383D01*
X185Y383D02*
X197Y383D01*
X244Y383D02*
X260Y383D01*
X282Y383D02*
X294Y383D01*
X329Y383D02*
X333Y383D01*
X349Y383D02*
X358Y383D01*
X363Y383D02*
X365Y383D01*
X381Y383D02*
X392Y383D01*
X396Y383D02*
X399Y383D01*
X411Y383D02*
X414Y383D01*
X429Y383D02*
X432Y383D01*
X477Y383D02*
X494Y383D01*
X514Y383D02*
X525Y383D01*
X529Y383D02*
X532Y383D01*
X552Y383D02*
X565Y383D01*
X580Y383D02*
X596Y383D01*
X613Y383D02*
X630Y383D01*
X647Y383D02*
X659Y383D01*
X663Y383D02*
X665Y383D01*
X1468Y383D02*
X1475Y383D01*
X0Y382D02*
X7Y382D01*
X187Y382D02*
X195Y382D01*
X329Y382D02*
X333Y382D01*
X1468Y382D02*
X1475Y382D01*
X0Y381D02*
X7Y381D01*
X329Y381D02*
X333Y381D01*
X1468Y381D02*
X1475Y381D01*
X0Y380D02*
X7Y380D01*
X329Y380D02*
X332Y380D01*
X1468Y380D02*
X1475Y380D01*
X0Y379D02*
X7Y379D01*
X328Y379D02*
X332Y379D01*
X1468Y379D02*
X1475Y379D01*
X0Y378D02*
X7Y378D01*
X327Y378D02*
X332Y378D01*
X1468Y378D02*
X1475Y378D01*
X0Y377D02*
X7Y377D01*
X325Y377D02*
X331Y377D01*
X1468Y377D02*
X1475Y377D01*
X0Y376D02*
X7Y376D01*
X313Y376D02*
X331Y376D01*
X1468Y376D02*
X1475Y376D01*
X0Y375D02*
X7Y375D01*
X313Y375D02*
X330Y375D01*
X1468Y375D02*
X1475Y375D01*
X0Y374D02*
X7Y374D01*
X313Y374D02*
X328Y374D01*
X1468Y374D02*
X1475Y374D01*
X0Y373D02*
X7Y373D01*
X314Y373D02*
X327Y373D01*
X1468Y373D02*
X1475Y373D01*
X0Y372D02*
X7Y372D01*
X1468Y372D02*
X1475Y372D01*
X0Y371D02*
X7Y371D01*
X1468Y371D02*
X1475Y371D01*
X0Y370D02*
X7Y370D01*
X1468Y370D02*
X1475Y370D01*
X0Y369D02*
X7Y369D01*
X1468Y369D02*
X1475Y369D01*
X0Y368D02*
X7Y368D01*
X1468Y368D02*
X1475Y368D01*
X0Y367D02*
X7Y367D01*
X1468Y367D02*
X1475Y367D01*
X0Y366D02*
X7Y366D01*
X1468Y366D02*
X1475Y366D01*
X0Y365D02*
X7Y365D01*
X1468Y365D02*
X1475Y365D01*
X0Y364D02*
X7Y364D01*
X1468Y364D02*
X1475Y364D01*
X0Y363D02*
X7Y363D01*
X1468Y363D02*
X1475Y363D01*
X0Y362D02*
X7Y362D01*
X1468Y362D02*
X1475Y362D01*
X0Y361D02*
X7Y361D01*
X1468Y361D02*
X1475Y361D01*
X0Y360D02*
X7Y360D01*
X1468Y360D02*
X1475Y360D01*
X0Y359D02*
X7Y359D01*
X1468Y359D02*
X1475Y359D01*
X0Y358D02*
X7Y358D01*
X1468Y358D02*
X1475Y358D01*
X0Y357D02*
X7Y357D01*
X1468Y357D02*
X1475Y357D01*
X0Y356D02*
X7Y356D01*
X1468Y356D02*
X1475Y356D01*
X0Y355D02*
X7Y355D01*
X1468Y355D02*
X1475Y355D01*
X0Y354D02*
X7Y354D01*
X1468Y354D02*
X1475Y354D01*
X0Y353D02*
X7Y353D01*
X1468Y353D02*
X1475Y353D01*
X0Y352D02*
X7Y352D01*
X1468Y352D02*
X1475Y352D01*
X0Y351D02*
X7Y351D01*
X1468Y351D02*
X1475Y351D01*
X0Y350D02*
X7Y350D01*
X1468Y350D02*
X1475Y350D01*
X0Y349D02*
X7Y349D01*
X1468Y349D02*
X1475Y349D01*
X0Y348D02*
X7Y348D01*
X1468Y348D02*
X1475Y348D01*
X0Y347D02*
X7Y347D01*
X1468Y347D02*
X1475Y347D01*
X0Y346D02*
X7Y346D01*
X1468Y346D02*
X1475Y346D01*
X0Y345D02*
X7Y345D01*
X1468Y345D02*
X1475Y345D01*
X0Y344D02*
X7Y344D01*
X1468Y344D02*
X1475Y344D01*
X0Y343D02*
X7Y343D01*
X1468Y343D02*
X1475Y343D01*
X0Y342D02*
X7Y342D01*
X1468Y342D02*
X1475Y342D01*
X0Y341D02*
X7Y341D01*
X1468Y341D02*
X1475Y341D01*
X0Y340D02*
X7Y340D01*
X1468Y340D02*
X1475Y340D01*
X0Y339D02*
X7Y339D01*
X1468Y339D02*
X1475Y339D01*
X0Y338D02*
X7Y338D01*
X1468Y338D02*
X1475Y338D01*
X0Y337D02*
X7Y337D01*
X1468Y337D02*
X1475Y337D01*
X0Y336D02*
X7Y336D01*
X1468Y336D02*
X1475Y336D01*
X0Y335D02*
X7Y335D01*
X1468Y335D02*
X1475Y335D01*
X0Y334D02*
X7Y334D01*
X1468Y334D02*
X1475Y334D01*
X0Y333D02*
X7Y333D01*
X1468Y333D02*
X1475Y333D01*
X0Y332D02*
X7Y332D01*
X1468Y332D02*
X1475Y332D01*
X0Y331D02*
X7Y331D01*
X1468Y331D02*
X1475Y331D01*
X0Y330D02*
X7Y330D01*
X1468Y330D02*
X1475Y330D01*
X0Y329D02*
X7Y329D01*
X1468Y329D02*
X1475Y329D01*
X0Y328D02*
X7Y328D01*
X1468Y328D02*
X1475Y328D01*
X0Y327D02*
X7Y327D01*
X1468Y327D02*
X1475Y327D01*
X0Y326D02*
X7Y326D01*
X1468Y326D02*
X1475Y326D01*
X0Y325D02*
X7Y325D01*
X1468Y325D02*
X1475Y325D01*
X0Y324D02*
X7Y324D01*
X1468Y324D02*
X1475Y324D01*
X0Y323D02*
X7Y323D01*
X1468Y323D02*
X1475Y323D01*
X0Y322D02*
X7Y322D01*
X1468Y322D02*
X1475Y322D01*
X0Y321D02*
X7Y321D01*
X1468Y321D02*
X1475Y321D01*
X0Y320D02*
X7Y320D01*
X1468Y320D02*
X1475Y320D01*
X0Y319D02*
X7Y319D01*
X1468Y319D02*
X1475Y319D01*
X0Y318D02*
X7Y318D01*
X1468Y318D02*
X1475Y318D01*
X0Y317D02*
X7Y317D01*
X1468Y317D02*
X1475Y317D01*
X0Y316D02*
X7Y316D01*
X1468Y316D02*
X1475Y316D01*
X0Y315D02*
X7Y315D01*
X1468Y315D02*
X1475Y315D01*
X0Y314D02*
X7Y314D01*
X1468Y314D02*
X1475Y314D01*
X0Y313D02*
X7Y313D01*
X1468Y313D02*
X1475Y313D01*
X0Y312D02*
X7Y312D01*
X1468Y312D02*
X1475Y312D01*
X0Y311D02*
X7Y311D01*
X1468Y311D02*
X1475Y311D01*
X0Y310D02*
X7Y310D01*
X1468Y310D02*
X1475Y310D01*
X0Y309D02*
X7Y309D01*
X1468Y309D02*
X1475Y309D01*
X0Y308D02*
X7Y308D01*
X1468Y308D02*
X1475Y308D01*
X0Y307D02*
X7Y307D01*
X1468Y307D02*
X1475Y307D01*
X0Y306D02*
X7Y306D01*
X1468Y306D02*
X1475Y306D01*
X0Y305D02*
X7Y305D01*
X913Y305D02*
X930Y305D01*
X942Y305D02*
X945Y305D01*
X961Y305D02*
X963Y305D01*
X1468Y305D02*
X1475Y305D01*
X0Y304D02*
X7Y304D01*
X466Y304D02*
X469Y304D01*
X492Y304D02*
X494Y304D01*
X566Y304D02*
X568Y304D01*
X593Y304D02*
X610Y304D01*
X913Y304D02*
X930Y304D01*
X942Y304D02*
X945Y304D01*
X960Y304D02*
X964Y304D01*
X1468Y304D02*
X1475Y304D01*
X0Y303D02*
X7Y303D01*
X466Y303D02*
X469Y303D01*
X491Y303D02*
X494Y303D01*
X565Y303D02*
X568Y303D01*
X593Y303D02*
X611Y303D01*
X756Y303D02*
X761Y303D01*
X775Y303D02*
X777Y303D01*
X799Y303D02*
X810Y303D01*
X913Y303D02*
X930Y303D01*
X942Y303D02*
X945Y303D01*
X960Y303D02*
X964Y303D01*
X1468Y303D02*
X1475Y303D01*
X0Y302D02*
X7Y302D01*
X465Y302D02*
X470Y302D01*
X491Y302D02*
X495Y302D01*
X565Y302D02*
X569Y302D01*
X593Y302D02*
X611Y302D01*
X660Y302D02*
X665Y302D01*
X679Y302D02*
X681Y302D01*
X702Y302D02*
X714Y302D01*
X756Y302D02*
X762Y302D01*
X774Y302D02*
X778Y302D01*
X797Y302D02*
X811Y302D01*
X913Y302D02*
X930Y302D01*
X942Y302D02*
X945Y302D01*
X960Y302D02*
X964Y302D01*
X1468Y302D02*
X1475Y302D01*
X0Y301D02*
X7Y301D01*
X465Y301D02*
X470Y301D01*
X491Y301D02*
X495Y301D01*
X564Y301D02*
X569Y301D01*
X593Y301D02*
X610Y301D01*
X660Y301D02*
X666Y301D01*
X678Y301D02*
X682Y301D01*
X701Y301D02*
X715Y301D01*
X756Y301D02*
X762Y301D01*
X774Y301D02*
X778Y301D01*
X796Y301D02*
X811Y301D01*
X913Y301D02*
X917Y301D01*
X942Y301D02*
X945Y301D01*
X960Y301D02*
X964Y301D01*
X1468Y301D02*
X1475Y301D01*
X0Y300D02*
X7Y300D01*
X465Y300D02*
X470Y300D01*
X491Y300D02*
X495Y300D01*
X505Y300D02*
X508Y300D01*
X564Y300D02*
X569Y300D01*
X593Y300D02*
X598Y300D01*
X660Y300D02*
X666Y300D01*
X678Y300D02*
X682Y300D01*
X700Y300D02*
X715Y300D01*
X756Y300D02*
X763Y300D01*
X774Y300D02*
X778Y300D01*
X795Y300D02*
X811Y300D01*
X913Y300D02*
X917Y300D01*
X942Y300D02*
X945Y300D01*
X960Y300D02*
X964Y300D01*
X1468Y300D02*
X1475Y300D01*
X0Y299D02*
X7Y299D01*
X465Y299D02*
X470Y299D01*
X491Y299D02*
X495Y299D01*
X505Y299D02*
X508Y299D01*
X564Y299D02*
X569Y299D01*
X593Y299D02*
X597Y299D01*
X660Y299D02*
X667Y299D01*
X678Y299D02*
X682Y299D01*
X699Y299D02*
X715Y299D01*
X756Y299D02*
X763Y299D01*
X774Y299D02*
X778Y299D01*
X795Y299D02*
X809Y299D01*
X886Y299D02*
X886Y299D01*
X913Y299D02*
X917Y299D01*
X942Y299D02*
X945Y299D01*
X960Y299D02*
X964Y299D01*
X1468Y299D02*
X1475Y299D01*
X0Y298D02*
X7Y298D01*
X464Y298D02*
X471Y298D01*
X491Y298D02*
X495Y298D01*
X505Y298D02*
X508Y298D01*
X563Y298D02*
X570Y298D01*
X593Y298D02*
X597Y298D01*
X660Y298D02*
X667Y298D01*
X678Y298D02*
X682Y298D01*
X699Y298D02*
X704Y298D01*
X756Y298D02*
X764Y298D01*
X774Y298D02*
X778Y298D01*
X794Y298D02*
X799Y298D01*
X884Y298D02*
X887Y298D01*
X913Y298D02*
X917Y298D01*
X942Y298D02*
X945Y298D01*
X960Y298D02*
X964Y298D01*
X1468Y298D02*
X1475Y298D01*
X0Y297D02*
X7Y297D01*
X464Y297D02*
X471Y297D01*
X491Y297D02*
X495Y297D01*
X505Y297D02*
X508Y297D01*
X563Y297D02*
X570Y297D01*
X593Y297D02*
X597Y297D01*
X660Y297D02*
X668Y297D01*
X678Y297D02*
X682Y297D01*
X698Y297D02*
X702Y297D01*
X756Y297D02*
X764Y297D01*
X774Y297D02*
X778Y297D01*
X794Y297D02*
X798Y297D01*
X884Y297D02*
X888Y297D01*
X913Y297D02*
X917Y297D01*
X942Y297D02*
X945Y297D01*
X960Y297D02*
X964Y297D01*
X1468Y297D02*
X1475Y297D01*
X0Y296D02*
X7Y296D01*
X464Y296D02*
X471Y296D01*
X491Y296D02*
X495Y296D01*
X505Y296D02*
X508Y296D01*
X563Y296D02*
X570Y296D01*
X593Y296D02*
X597Y296D01*
X660Y296D02*
X668Y296D01*
X678Y296D02*
X682Y296D01*
X698Y296D02*
X702Y296D01*
X756Y296D02*
X764Y296D01*
X774Y296D02*
X778Y296D01*
X793Y296D02*
X797Y296D01*
X884Y296D02*
X888Y296D01*
X913Y296D02*
X917Y296D01*
X942Y296D02*
X945Y296D01*
X960Y296D02*
X964Y296D01*
X1468Y296D02*
X1475Y296D01*
X0Y295D02*
X7Y295D01*
X463Y295D02*
X472Y295D01*
X491Y295D02*
X495Y295D01*
X505Y295D02*
X508Y295D01*
X562Y295D02*
X571Y295D01*
X593Y295D02*
X597Y295D01*
X660Y295D02*
X668Y295D01*
X678Y295D02*
X682Y295D01*
X697Y295D02*
X701Y295D01*
X756Y295D02*
X765Y295D01*
X774Y295D02*
X778Y295D01*
X793Y295D02*
X797Y295D01*
X884Y295D02*
X888Y295D01*
X913Y295D02*
X917Y295D01*
X942Y295D02*
X946Y295D01*
X960Y295D02*
X964Y295D01*
X1468Y295D02*
X1475Y295D01*
X0Y294D02*
X7Y294D01*
X463Y294D02*
X472Y294D01*
X491Y294D02*
X495Y294D01*
X505Y294D02*
X508Y294D01*
X562Y294D02*
X571Y294D01*
X593Y294D02*
X597Y294D01*
X660Y294D02*
X669Y294D01*
X678Y294D02*
X682Y294D01*
X697Y294D02*
X701Y294D01*
X756Y294D02*
X765Y294D01*
X774Y294D02*
X778Y294D01*
X792Y294D02*
X796Y294D01*
X884Y294D02*
X888Y294D01*
X913Y294D02*
X917Y294D01*
X942Y294D02*
X946Y294D01*
X959Y294D02*
X963Y294D01*
X1468Y294D02*
X1475Y294D01*
X0Y293D02*
X7Y293D01*
X463Y293D02*
X472Y293D01*
X491Y293D02*
X495Y293D01*
X505Y293D02*
X508Y293D01*
X562Y293D02*
X571Y293D01*
X593Y293D02*
X597Y293D01*
X660Y293D02*
X669Y293D01*
X678Y293D02*
X682Y293D01*
X696Y293D02*
X700Y293D01*
X756Y293D02*
X760Y293D01*
X762Y293D02*
X766Y293D01*
X774Y293D02*
X778Y293D01*
X792Y293D02*
X796Y293D01*
X884Y293D02*
X888Y293D01*
X913Y293D02*
X917Y293D01*
X942Y293D02*
X947Y293D01*
X959Y293D02*
X963Y293D01*
X1468Y293D02*
X1475Y293D01*
X0Y292D02*
X7Y292D01*
X462Y292D02*
X466Y292D01*
X469Y292D02*
X472Y292D01*
X491Y292D02*
X495Y292D01*
X505Y292D02*
X508Y292D01*
X562Y292D02*
X565Y292D01*
X568Y292D02*
X572Y292D01*
X593Y292D02*
X597Y292D01*
X660Y292D02*
X664Y292D01*
X666Y292D02*
X670Y292D01*
X678Y292D02*
X682Y292D01*
X696Y292D02*
X700Y292D01*
X756Y292D02*
X760Y292D01*
X762Y292D02*
X766Y292D01*
X774Y292D02*
X778Y292D01*
X791Y292D02*
X795Y292D01*
X884Y292D02*
X888Y292D01*
X913Y292D02*
X917Y292D01*
X943Y292D02*
X947Y292D01*
X958Y292D02*
X962Y292D01*
X1468Y292D02*
X1475Y292D01*
X0Y291D02*
X7Y291D01*
X462Y291D02*
X466Y291D01*
X469Y291D02*
X473Y291D01*
X491Y291D02*
X495Y291D01*
X505Y291D02*
X508Y291D01*
X561Y291D02*
X565Y291D01*
X568Y291D02*
X572Y291D01*
X593Y291D02*
X597Y291D01*
X660Y291D02*
X664Y291D01*
X666Y291D02*
X670Y291D01*
X678Y291D02*
X682Y291D01*
X695Y291D02*
X699Y291D01*
X756Y291D02*
X760Y291D01*
X763Y291D02*
X767Y291D01*
X774Y291D02*
X778Y291D01*
X791Y291D02*
X795Y291D01*
X884Y291D02*
X888Y291D01*
X913Y291D02*
X917Y291D01*
X943Y291D02*
X947Y291D01*
X958Y291D02*
X962Y291D01*
X1468Y291D02*
X1475Y291D01*
X0Y290D02*
X7Y290D01*
X462Y290D02*
X466Y290D01*
X469Y290D02*
X473Y290D01*
X491Y290D02*
X495Y290D01*
X505Y290D02*
X508Y290D01*
X561Y290D02*
X565Y290D01*
X568Y290D02*
X572Y290D01*
X593Y290D02*
X597Y290D01*
X660Y290D02*
X664Y290D01*
X666Y290D02*
X671Y290D01*
X678Y290D02*
X682Y290D01*
X695Y290D02*
X699Y290D01*
X756Y290D02*
X760Y290D01*
X763Y290D02*
X767Y290D01*
X774Y290D02*
X778Y290D01*
X790Y290D02*
X794Y290D01*
X877Y290D02*
X895Y290D01*
X913Y290D02*
X926Y290D01*
X944Y290D02*
X948Y290D01*
X958Y290D02*
X962Y290D01*
X1468Y290D02*
X1475Y290D01*
X0Y289D02*
X7Y289D01*
X462Y289D02*
X465Y289D01*
X469Y289D02*
X473Y289D01*
X491Y289D02*
X495Y289D01*
X505Y289D02*
X508Y289D01*
X561Y289D02*
X565Y289D01*
X569Y289D02*
X572Y289D01*
X593Y289D02*
X606Y289D01*
X660Y289D02*
X664Y289D01*
X667Y289D02*
X671Y289D01*
X678Y289D02*
X682Y289D01*
X694Y289D02*
X698Y289D01*
X756Y289D02*
X760Y289D01*
X763Y289D02*
X767Y289D01*
X774Y289D02*
X778Y289D01*
X790Y289D02*
X794Y289D01*
X875Y289D02*
X897Y289D01*
X913Y289D02*
X928Y289D01*
X944Y289D02*
X948Y289D01*
X957Y289D02*
X961Y289D01*
X1468Y289D02*
X1475Y289D01*
X0Y288D02*
X7Y288D01*
X461Y288D02*
X465Y288D01*
X470Y288D02*
X474Y288D01*
X491Y288D02*
X495Y288D01*
X505Y288D02*
X508Y288D01*
X560Y288D02*
X564Y288D01*
X569Y288D02*
X573Y288D01*
X593Y288D02*
X609Y288D01*
X660Y288D02*
X664Y288D01*
X667Y288D02*
X671Y288D01*
X678Y288D02*
X682Y288D01*
X694Y288D02*
X698Y288D01*
X756Y288D02*
X760Y288D01*
X764Y288D02*
X768Y288D01*
X774Y288D02*
X778Y288D01*
X790Y288D02*
X793Y288D01*
X875Y288D02*
X897Y288D01*
X913Y288D02*
X929Y288D01*
X944Y288D02*
X948Y288D01*
X957Y288D02*
X961Y288D01*
X1468Y288D02*
X1475Y288D01*
X0Y287D02*
X7Y287D01*
X461Y287D02*
X465Y287D01*
X470Y287D02*
X474Y287D01*
X491Y287D02*
X495Y287D01*
X505Y287D02*
X508Y287D01*
X560Y287D02*
X564Y287D01*
X569Y287D02*
X573Y287D01*
X593Y287D02*
X610Y287D01*
X660Y287D02*
X664Y287D01*
X668Y287D02*
X672Y287D01*
X678Y287D02*
X682Y287D01*
X693Y287D02*
X697Y287D01*
X756Y287D02*
X760Y287D01*
X764Y287D02*
X768Y287D01*
X774Y287D02*
X778Y287D01*
X789Y287D02*
X793Y287D01*
X875Y287D02*
X897Y287D01*
X913Y287D02*
X930Y287D01*
X945Y287D02*
X949Y287D01*
X956Y287D02*
X960Y287D01*
X1468Y287D02*
X1475Y287D01*
X0Y286D02*
X7Y286D01*
X461Y286D02*
X465Y286D01*
X470Y286D02*
X474Y286D01*
X491Y286D02*
X495Y286D01*
X505Y286D02*
X508Y286D01*
X560Y286D02*
X564Y286D01*
X569Y286D02*
X573Y286D01*
X593Y286D02*
X611Y286D01*
X660Y286D02*
X664Y286D01*
X668Y286D02*
X672Y286D01*
X678Y286D02*
X682Y286D01*
X693Y286D02*
X697Y286D01*
X756Y286D02*
X760Y286D01*
X765Y286D02*
X769Y286D01*
X774Y286D02*
X778Y286D01*
X789Y286D02*
X793Y286D01*
X876Y286D02*
X896Y286D01*
X913Y286D02*
X930Y286D01*
X945Y286D02*
X949Y286D01*
X956Y286D02*
X960Y286D01*
X1468Y286D02*
X1475Y286D01*
X0Y285D02*
X7Y285D01*
X460Y285D02*
X464Y285D01*
X471Y285D02*
X474Y285D01*
X491Y285D02*
X509Y285D01*
X560Y285D02*
X563Y285D01*
X570Y285D02*
X574Y285D01*
X593Y285D02*
X611Y285D01*
X660Y285D02*
X664Y285D01*
X669Y285D02*
X673Y285D01*
X678Y285D02*
X682Y285D01*
X693Y285D02*
X697Y285D01*
X756Y285D02*
X760Y285D01*
X765Y285D02*
X769Y285D01*
X774Y285D02*
X778Y285D01*
X789Y285D02*
X793Y285D01*
X884Y285D02*
X888Y285D01*
X927Y285D02*
X930Y285D01*
X946Y285D02*
X950Y285D01*
X956Y285D02*
X960Y285D01*
X1468Y285D02*
X1475Y285D01*
X0Y284D02*
X7Y284D01*
X460Y284D02*
X464Y284D01*
X471Y284D02*
X475Y284D01*
X491Y284D02*
X510Y284D01*
X559Y284D02*
X563Y284D01*
X570Y284D02*
X574Y284D01*
X607Y284D02*
X611Y284D01*
X660Y284D02*
X664Y284D01*
X669Y284D02*
X673Y284D01*
X678Y284D02*
X682Y284D01*
X693Y284D02*
X697Y284D01*
X756Y284D02*
X760Y284D01*
X766Y284D02*
X770Y284D01*
X774Y284D02*
X778Y284D01*
X789Y284D02*
X793Y284D01*
X884Y284D02*
X888Y284D01*
X927Y284D02*
X930Y284D01*
X946Y284D02*
X950Y284D01*
X955Y284D02*
X959Y284D01*
X1468Y284D02*
X1475Y284D01*
X0Y283D02*
X7Y283D01*
X460Y283D02*
X464Y283D01*
X471Y283D02*
X475Y283D01*
X491Y283D02*
X511Y283D01*
X559Y283D02*
X563Y283D01*
X570Y283D02*
X574Y283D01*
X607Y283D02*
X611Y283D01*
X660Y283D02*
X664Y283D01*
X670Y283D02*
X674Y283D01*
X678Y283D02*
X682Y283D01*
X693Y283D02*
X697Y283D01*
X756Y283D02*
X760Y283D01*
X766Y283D02*
X770Y283D01*
X774Y283D02*
X778Y283D01*
X790Y283D02*
X794Y283D01*
X884Y283D02*
X888Y283D01*
X927Y283D02*
X930Y283D01*
X946Y283D02*
X950Y283D01*
X955Y283D02*
X959Y283D01*
X1468Y283D02*
X1475Y283D01*
X0Y282D02*
X7Y282D01*
X460Y282D02*
X463Y282D01*
X471Y282D02*
X475Y282D01*
X491Y282D02*
X510Y282D01*
X559Y282D02*
X563Y282D01*
X571Y282D02*
X574Y282D01*
X607Y282D02*
X611Y282D01*
X660Y282D02*
X664Y282D01*
X670Y282D02*
X674Y282D01*
X678Y282D02*
X682Y282D01*
X694Y282D02*
X698Y282D01*
X756Y282D02*
X760Y282D01*
X766Y282D02*
X771Y282D01*
X774Y282D02*
X778Y282D01*
X790Y282D02*
X794Y282D01*
X884Y282D02*
X888Y282D01*
X927Y282D02*
X930Y282D01*
X947Y282D02*
X951Y282D01*
X954Y282D02*
X959Y282D01*
X1468Y282D02*
X1475Y282D01*
X0Y281D02*
X7Y281D01*
X459Y281D02*
X476Y281D01*
X491Y281D02*
X510Y281D01*
X558Y281D02*
X575Y281D01*
X607Y281D02*
X611Y281D01*
X660Y281D02*
X664Y281D01*
X670Y281D02*
X675Y281D01*
X678Y281D02*
X682Y281D01*
X694Y281D02*
X698Y281D01*
X756Y281D02*
X760Y281D01*
X767Y281D02*
X771Y281D01*
X774Y281D02*
X778Y281D01*
X790Y281D02*
X795Y281D01*
X884Y281D02*
X888Y281D01*
X927Y281D02*
X930Y281D01*
X947Y281D02*
X951Y281D01*
X954Y281D02*
X958Y281D01*
X1468Y281D02*
X1475Y281D01*
X0Y280D02*
X7Y280D01*
X459Y280D02*
X476Y280D01*
X505Y280D02*
X508Y280D01*
X558Y280D02*
X575Y280D01*
X607Y280D02*
X611Y280D01*
X660Y280D02*
X664Y280D01*
X671Y280D02*
X675Y280D01*
X678Y280D02*
X682Y280D01*
X694Y280D02*
X699Y280D01*
X756Y280D02*
X760Y280D01*
X767Y280D02*
X771Y280D01*
X774Y280D02*
X778Y280D01*
X791Y280D02*
X795Y280D01*
X884Y280D02*
X888Y280D01*
X927Y280D02*
X930Y280D01*
X948Y280D02*
X952Y280D01*
X954Y280D02*
X958Y280D01*
X1468Y280D02*
X1475Y280D01*
X0Y279D02*
X7Y279D01*
X459Y279D02*
X476Y279D01*
X505Y279D02*
X508Y279D01*
X558Y279D02*
X575Y279D01*
X607Y279D02*
X611Y279D01*
X660Y279D02*
X664Y279D01*
X671Y279D02*
X675Y279D01*
X678Y279D02*
X682Y279D01*
X695Y279D02*
X699Y279D01*
X756Y279D02*
X760Y279D01*
X768Y279D02*
X772Y279D01*
X774Y279D02*
X778Y279D01*
X791Y279D02*
X796Y279D01*
X884Y279D02*
X888Y279D01*
X927Y279D02*
X930Y279D01*
X948Y279D02*
X957Y279D01*
X1468Y279D02*
X1475Y279D01*
X0Y278D02*
X7Y278D01*
X458Y278D02*
X476Y278D01*
X505Y278D02*
X508Y278D01*
X557Y278D02*
X576Y278D01*
X607Y278D02*
X611Y278D01*
X660Y278D02*
X664Y278D01*
X672Y278D02*
X676Y278D01*
X678Y278D02*
X682Y278D01*
X695Y278D02*
X700Y278D01*
X756Y278D02*
X760Y278D01*
X768Y278D02*
X772Y278D01*
X774Y278D02*
X778Y278D01*
X792Y278D02*
X796Y278D01*
X884Y278D02*
X888Y278D01*
X927Y278D02*
X930Y278D01*
X948Y278D02*
X957Y278D01*
X1468Y278D02*
X1475Y278D01*
X0Y277D02*
X7Y277D01*
X458Y277D02*
X477Y277D01*
X505Y277D02*
X508Y277D01*
X557Y277D02*
X576Y277D01*
X607Y277D02*
X611Y277D01*
X660Y277D02*
X664Y277D01*
X672Y277D02*
X676Y277D01*
X678Y277D02*
X682Y277D01*
X696Y277D02*
X700Y277D01*
X756Y277D02*
X760Y277D01*
X769Y277D02*
X778Y277D01*
X792Y277D02*
X797Y277D01*
X885Y277D02*
X887Y277D01*
X927Y277D02*
X930Y277D01*
X949Y277D02*
X957Y277D01*
X1468Y277D02*
X1475Y277D01*
X0Y276D02*
X7Y276D01*
X458Y276D02*
X462Y276D01*
X473Y276D02*
X477Y276D01*
X505Y276D02*
X508Y276D01*
X557Y276D02*
X561Y276D01*
X572Y276D02*
X576Y276D01*
X607Y276D02*
X611Y276D01*
X660Y276D02*
X664Y276D01*
X673Y276D02*
X682Y276D01*
X696Y276D02*
X701Y276D01*
X756Y276D02*
X760Y276D01*
X769Y276D02*
X778Y276D01*
X793Y276D02*
X797Y276D01*
X909Y276D02*
X911Y276D01*
X927Y276D02*
X930Y276D01*
X949Y276D02*
X956Y276D01*
X1468Y276D02*
X1475Y276D01*
X0Y275D02*
X7Y275D01*
X458Y275D02*
X461Y275D01*
X474Y275D02*
X477Y275D01*
X505Y275D02*
X508Y275D01*
X557Y275D02*
X560Y275D01*
X573Y275D02*
X576Y275D01*
X590Y275D02*
X591Y275D01*
X607Y275D02*
X611Y275D01*
X660Y275D02*
X664Y275D01*
X673Y275D02*
X682Y275D01*
X697Y275D02*
X701Y275D01*
X756Y275D02*
X760Y275D01*
X770Y275D02*
X778Y275D01*
X793Y275D02*
X798Y275D01*
X909Y275D02*
X913Y275D01*
X927Y275D02*
X930Y275D01*
X949Y275D02*
X956Y275D01*
X1468Y275D02*
X1475Y275D01*
X0Y274D02*
X7Y274D01*
X457Y274D02*
X461Y274D01*
X474Y274D02*
X478Y274D01*
X505Y274D02*
X508Y274D01*
X556Y274D02*
X560Y274D01*
X573Y274D02*
X577Y274D01*
X589Y274D02*
X594Y274D01*
X607Y274D02*
X611Y274D01*
X660Y274D02*
X664Y274D01*
X673Y274D02*
X682Y274D01*
X697Y274D02*
X702Y274D01*
X756Y274D02*
X760Y274D01*
X770Y274D02*
X778Y274D01*
X794Y274D02*
X798Y274D01*
X908Y274D02*
X930Y274D01*
X950Y274D02*
X955Y274D01*
X1468Y274D02*
X1475Y274D01*
X0Y273D02*
X7Y273D01*
X457Y273D02*
X461Y273D01*
X474Y273D02*
X478Y273D01*
X505Y273D02*
X508Y273D01*
X556Y273D02*
X560Y273D01*
X573Y273D02*
X577Y273D01*
X589Y273D02*
X611Y273D01*
X660Y273D02*
X664Y273D01*
X674Y273D02*
X682Y273D01*
X698Y273D02*
X702Y273D01*
X756Y273D02*
X760Y273D01*
X770Y273D02*
X778Y273D01*
X794Y273D02*
X799Y273D01*
X909Y273D02*
X930Y273D01*
X950Y273D02*
X955Y273D01*
X1468Y273D02*
X1475Y273D01*
X0Y272D02*
X7Y272D01*
X457Y272D02*
X460Y272D01*
X474Y272D02*
X478Y272D01*
X505Y272D02*
X508Y272D01*
X556Y272D02*
X560Y272D01*
X574Y272D02*
X577Y272D01*
X589Y272D02*
X611Y272D01*
X660Y272D02*
X664Y272D01*
X674Y272D02*
X682Y272D01*
X698Y272D02*
X703Y272D01*
X756Y272D02*
X760Y272D01*
X771Y272D02*
X778Y272D01*
X795Y272D02*
X810Y272D01*
X910Y272D02*
X929Y272D01*
X951Y272D02*
X955Y272D01*
X1468Y272D02*
X1475Y272D01*
X0Y271D02*
X7Y271D01*
X456Y271D02*
X460Y271D01*
X475Y271D02*
X478Y271D01*
X505Y271D02*
X508Y271D01*
X556Y271D02*
X559Y271D01*
X574Y271D02*
X578Y271D01*
X590Y271D02*
X610Y271D01*
X660Y271D02*
X664Y271D01*
X675Y271D02*
X682Y271D01*
X699Y271D02*
X714Y271D01*
X756Y271D02*
X760Y271D01*
X771Y271D02*
X778Y271D01*
X795Y271D02*
X811Y271D01*
X912Y271D02*
X929Y271D01*
X951Y271D02*
X954Y271D01*
X1468Y271D02*
X1475Y271D01*
X0Y270D02*
X7Y270D01*
X457Y270D02*
X460Y270D01*
X475Y270D02*
X478Y270D01*
X505Y270D02*
X508Y270D01*
X556Y270D02*
X559Y270D01*
X574Y270D02*
X577Y270D01*
X592Y270D02*
X609Y270D01*
X660Y270D02*
X664Y270D01*
X675Y270D02*
X682Y270D01*
X699Y270D02*
X715Y270D01*
X756Y270D02*
X760Y270D01*
X772Y270D02*
X778Y270D01*
X796Y270D02*
X811Y270D01*
X914Y270D02*
X927Y270D01*
X952Y270D02*
X953Y270D01*
X1468Y270D02*
X1475Y270D01*
X0Y269D02*
X7Y269D01*
X458Y269D02*
X459Y269D01*
X476Y269D02*
X477Y269D01*
X506Y269D02*
X507Y269D01*
X557Y269D02*
X558Y269D01*
X575Y269D02*
X576Y269D01*
X595Y269D02*
X608Y269D01*
X660Y269D02*
X663Y269D01*
X676Y269D02*
X682Y269D01*
X700Y269D02*
X715Y269D01*
X756Y269D02*
X759Y269D01*
X772Y269D02*
X778Y269D01*
X797Y269D02*
X811Y269D01*
X1468Y269D02*
X1475Y269D01*
X0Y268D02*
X7Y268D01*
X660Y268D02*
X663Y268D01*
X676Y268D02*
X682Y268D01*
X701Y268D02*
X715Y268D01*
X757Y268D02*
X758Y268D01*
X773Y268D02*
X778Y268D01*
X799Y268D02*
X810Y268D01*
X1468Y268D02*
X1475Y268D01*
X0Y267D02*
X7Y267D01*
X661Y267D02*
X662Y267D01*
X677Y267D02*
X682Y267D01*
X704Y267D02*
X714Y267D01*
X1468Y267D02*
X1475Y267D01*
X0Y266D02*
X7Y266D01*
X1468Y266D02*
X1475Y266D01*
X0Y265D02*
X7Y265D01*
X1468Y265D02*
X1475Y265D01*
X0Y264D02*
X7Y264D01*
X1468Y264D02*
X1475Y264D01*
X0Y263D02*
X7Y263D01*
X1468Y263D02*
X1475Y263D01*
X0Y262D02*
X7Y262D01*
X1468Y262D02*
X1475Y262D01*
X0Y261D02*
X7Y261D01*
X1468Y261D02*
X1475Y261D01*
X0Y260D02*
X7Y260D01*
X1468Y260D02*
X1475Y260D01*
X0Y259D02*
X7Y259D01*
X1468Y259D02*
X1475Y259D01*
X0Y258D02*
X7Y258D01*
X1468Y258D02*
X1475Y258D01*
X0Y257D02*
X7Y257D01*
X1468Y257D02*
X1475Y257D01*
X0Y256D02*
X7Y256D01*
X1468Y256D02*
X1475Y256D01*
X0Y255D02*
X7Y255D01*
X1468Y255D02*
X1475Y255D01*
X0Y254D02*
X7Y254D01*
X1468Y254D02*
X1475Y254D01*
X0Y253D02*
X7Y253D01*
X1468Y253D02*
X1475Y253D01*
X0Y252D02*
X7Y252D01*
X1468Y252D02*
X1475Y252D01*
X0Y251D02*
X7Y251D01*
X1468Y251D02*
X1475Y251D01*
X0Y250D02*
X7Y250D01*
X1468Y250D02*
X1475Y250D01*
X0Y249D02*
X7Y249D01*
X1468Y249D02*
X1475Y249D01*
X0Y248D02*
X7Y248D01*
X1468Y248D02*
X1475Y248D01*
X0Y247D02*
X7Y247D01*
X1468Y247D02*
X1475Y247D01*
X0Y246D02*
X7Y246D01*
X1468Y246D02*
X1475Y246D01*
X0Y245D02*
X7Y245D01*
X1468Y245D02*
X1475Y245D01*
X0Y244D02*
X7Y244D01*
X1468Y244D02*
X1475Y244D01*
X0Y243D02*
X7Y243D01*
X1468Y243D02*
X1475Y243D01*
X0Y242D02*
X7Y242D01*
X1468Y242D02*
X1475Y242D01*
X0Y241D02*
X7Y241D01*
X1468Y241D02*
X1475Y241D01*
X0Y240D02*
X7Y240D01*
X1468Y240D02*
X1475Y240D01*
X0Y239D02*
X7Y239D01*
X1468Y239D02*
X1475Y239D01*
X0Y238D02*
X7Y238D01*
X1468Y238D02*
X1475Y238D01*
X0Y237D02*
X7Y237D01*
X1468Y237D02*
X1475Y237D01*
X0Y236D02*
X7Y236D01*
X1468Y236D02*
X1475Y236D01*
X0Y235D02*
X7Y235D01*
X1468Y235D02*
X1475Y235D01*
X0Y234D02*
X7Y234D01*
X1468Y234D02*
X1475Y234D01*
X0Y233D02*
X7Y233D01*
X1468Y233D02*
X1475Y233D01*
X0Y232D02*
X7Y232D01*
X1468Y232D02*
X1475Y232D01*
X0Y231D02*
X7Y231D01*
X1468Y231D02*
X1475Y231D01*
X0Y230D02*
X7Y230D01*
X1468Y230D02*
X1475Y230D01*
X0Y229D02*
X7Y229D01*
X1468Y229D02*
X1475Y229D01*
X0Y228D02*
X7Y228D01*
X1468Y228D02*
X1475Y228D01*
X0Y227D02*
X7Y227D01*
X1468Y227D02*
X1475Y227D01*
X0Y226D02*
X7Y226D01*
X1468Y226D02*
X1475Y226D01*
X0Y225D02*
X7Y225D01*
X1468Y225D02*
X1475Y225D01*
X0Y224D02*
X7Y224D01*
X1468Y224D02*
X1475Y224D01*
X0Y223D02*
X7Y223D01*
X1468Y223D02*
X1475Y223D01*
X0Y222D02*
X7Y222D01*
X1468Y222D02*
X1475Y222D01*
X0Y221D02*
X7Y221D01*
X1468Y221D02*
X1475Y221D01*
X0Y220D02*
X7Y220D01*
X1468Y220D02*
X1475Y220D01*
X0Y219D02*
X7Y219D01*
X1468Y219D02*
X1475Y219D01*
X0Y218D02*
X7Y218D01*
X1468Y218D02*
X1475Y218D01*
X0Y217D02*
X7Y217D01*
X1468Y217D02*
X1475Y217D01*
X0Y216D02*
X7Y216D01*
X1468Y216D02*
X1475Y216D01*
X0Y215D02*
X7Y215D01*
X1468Y215D02*
X1475Y215D01*
X0Y214D02*
X7Y214D01*
X1468Y214D02*
X1475Y214D01*
X0Y213D02*
X7Y213D01*
X1468Y213D02*
X1475Y213D01*
X0Y212D02*
X7Y212D01*
X1468Y212D02*
X1475Y212D01*
X0Y211D02*
X7Y211D01*
X1468Y211D02*
X1475Y211D01*
X0Y210D02*
X7Y210D01*
X1468Y210D02*
X1475Y210D01*
X0Y209D02*
X7Y209D01*
X1468Y209D02*
X1475Y209D01*
X0Y208D02*
X7Y208D01*
X1468Y208D02*
X1475Y208D01*
X0Y207D02*
X7Y207D01*
X1468Y207D02*
X1475Y207D01*
X0Y206D02*
X7Y206D01*
X1468Y206D02*
X1475Y206D01*
X0Y205D02*
X7Y205D01*
X1468Y205D02*
X1475Y205D01*
X0Y204D02*
X7Y204D01*
X1468Y204D02*
X1475Y204D01*
X0Y203D02*
X7Y203D01*
X1468Y203D02*
X1475Y203D01*
X0Y202D02*
X7Y202D01*
X1468Y202D02*
X1475Y202D01*
X0Y201D02*
X7Y201D01*
X1468Y201D02*
X1475Y201D01*
X0Y200D02*
X7Y200D01*
X1468Y200D02*
X1475Y200D01*
X0Y199D02*
X7Y199D01*
X1468Y199D02*
X1475Y199D01*
X0Y198D02*
X7Y198D01*
X1468Y198D02*
X1475Y198D01*
X0Y197D02*
X7Y197D01*
X1468Y197D02*
X1475Y197D01*
X0Y196D02*
X7Y196D01*
X1468Y196D02*
X1475Y196D01*
X0Y195D02*
X7Y195D01*
X1468Y195D02*
X1475Y195D01*
X0Y194D02*
X7Y194D01*
X1468Y194D02*
X1475Y194D01*
X0Y193D02*
X7Y193D01*
X1468Y193D02*
X1475Y193D01*
X0Y192D02*
X7Y192D01*
X1468Y192D02*
X1475Y192D01*
X0Y191D02*
X7Y191D01*
X1468Y191D02*
X1475Y191D01*
X0Y190D02*
X7Y190D01*
X1468Y190D02*
X1475Y190D01*
X0Y189D02*
X7Y189D01*
X1468Y189D02*
X1475Y189D01*
X0Y188D02*
X7Y188D01*
X1468Y188D02*
X1475Y188D01*
X0Y187D02*
X7Y187D01*
X1468Y187D02*
X1475Y187D01*
X0Y186D02*
X7Y186D01*
X1468Y186D02*
X1475Y186D01*
X0Y185D02*
X7Y185D01*
X1468Y185D02*
X1475Y185D01*
X0Y184D02*
X7Y184D01*
X1468Y184D02*
X1475Y184D01*
X0Y183D02*
X7Y183D01*
X1468Y183D02*
X1475Y183D01*
X0Y182D02*
X7Y182D01*
X1468Y182D02*
X1475Y182D01*
X0Y181D02*
X7Y181D01*
X1468Y181D02*
X1475Y181D01*
X0Y180D02*
X7Y180D01*
X1468Y180D02*
X1475Y180D01*
X0Y179D02*
X7Y179D01*
X1468Y179D02*
X1475Y179D01*
X0Y178D02*
X7Y178D01*
X1468Y178D02*
X1475Y178D01*
X0Y177D02*
X7Y177D01*
X1468Y177D02*
X1475Y177D01*
X0Y176D02*
X7Y176D01*
X1468Y176D02*
X1475Y176D01*
X0Y175D02*
X7Y175D01*
X1468Y175D02*
X1475Y175D01*
X0Y174D02*
X7Y174D01*
X1468Y174D02*
X1475Y174D01*
X0Y173D02*
X7Y173D01*
X1468Y173D02*
X1475Y173D01*
X0Y172D02*
X7Y172D01*
X1468Y172D02*
X1475Y172D01*
X0Y171D02*
X7Y171D01*
X1468Y171D02*
X1475Y171D01*
X0Y170D02*
X7Y170D01*
X434Y170D02*
X435Y170D01*
X1468Y170D02*
X1475Y170D01*
X0Y169D02*
X7Y169D01*
X433Y169D02*
X436Y169D01*
X1468Y169D02*
X1475Y169D01*
X0Y168D02*
X7Y168D01*
X432Y168D02*
X437Y168D01*
X1468Y168D02*
X1475Y168D01*
X0Y167D02*
X7Y167D01*
X432Y167D02*
X438Y167D01*
X1468Y167D02*
X1475Y167D01*
X0Y166D02*
X7Y166D01*
X433Y166D02*
X439Y166D01*
X1468Y166D02*
X1475Y166D01*
X0Y165D02*
X7Y165D01*
X434Y165D02*
X440Y165D01*
X1468Y165D02*
X1475Y165D01*
X0Y164D02*
X7Y164D01*
X435Y164D02*
X441Y164D01*
X1468Y164D02*
X1475Y164D01*
X0Y163D02*
X7Y163D01*
X436Y163D02*
X442Y163D01*
X1468Y163D02*
X1475Y163D01*
X0Y162D02*
X7Y162D01*
X437Y162D02*
X443Y162D01*
X1468Y162D02*
X1475Y162D01*
X0Y161D02*
X7Y161D01*
X438Y161D02*
X444Y161D01*
X1468Y161D02*
X1475Y161D01*
X0Y160D02*
X7Y160D01*
X439Y160D02*
X445Y160D01*
X1468Y160D02*
X1475Y160D01*
X0Y159D02*
X7Y159D01*
X440Y159D02*
X446Y159D01*
X1468Y159D02*
X1475Y159D01*
X0Y158D02*
X7Y158D01*
X441Y158D02*
X447Y158D01*
X1468Y158D02*
X1475Y158D01*
X0Y157D02*
X7Y157D01*
X442Y157D02*
X447Y157D01*
X1468Y157D02*
X1475Y157D01*
X0Y156D02*
X7Y156D01*
X443Y156D02*
X448Y156D01*
X1468Y156D02*
X1475Y156D01*
X0Y155D02*
X7Y155D01*
X444Y155D02*
X449Y155D01*
X1468Y155D02*
X1475Y155D01*
X0Y154D02*
X7Y154D01*
X445Y154D02*
X450Y154D01*
X1468Y154D02*
X1475Y154D01*
X0Y153D02*
X7Y153D01*
X446Y153D02*
X451Y153D01*
X1468Y153D02*
X1475Y153D01*
X0Y152D02*
X7Y152D01*
X447Y152D02*
X452Y152D01*
X1468Y152D02*
X1475Y152D01*
X0Y151D02*
X7Y151D01*
X448Y151D02*
X453Y151D01*
X1468Y151D02*
X1475Y151D01*
X0Y150D02*
X7Y150D01*
X449Y150D02*
X454Y150D01*
X1468Y150D02*
X1475Y150D01*
X0Y149D02*
X7Y149D01*
X450Y149D02*
X455Y149D01*
X1468Y149D02*
X1475Y149D01*
X0Y148D02*
X7Y148D01*
X451Y148D02*
X457Y148D01*
X1468Y148D02*
X1475Y148D01*
X0Y147D02*
X7Y147D01*
X452Y147D02*
X458Y147D01*
X1468Y147D02*
X1475Y147D01*
X0Y146D02*
X7Y146D01*
X453Y146D02*
X459Y146D01*
X1468Y146D02*
X1475Y146D01*
X0Y145D02*
X7Y145D01*
X454Y145D02*
X460Y145D01*
X1468Y145D02*
X1475Y145D01*
X0Y144D02*
X7Y144D01*
X455Y144D02*
X461Y144D01*
X1468Y144D02*
X1475Y144D01*
X0Y143D02*
X7Y143D01*
X456Y143D02*
X462Y143D01*
X1468Y143D02*
X1475Y143D01*
X0Y142D02*
X7Y142D01*
X457Y142D02*
X463Y142D01*
X1468Y142D02*
X1475Y142D01*
X0Y141D02*
X7Y141D01*
X458Y141D02*
X464Y141D01*
X1468Y141D02*
X1475Y141D01*
X0Y140D02*
X7Y140D01*
X459Y140D02*
X465Y140D01*
X1468Y140D02*
X1475Y140D01*
X0Y139D02*
X7Y139D01*
X460Y139D02*
X466Y139D01*
X1468Y139D02*
X1475Y139D01*
X0Y138D02*
X7Y138D01*
X461Y138D02*
X467Y138D01*
X1468Y138D02*
X1475Y138D01*
X0Y137D02*
X7Y137D01*
X462Y137D02*
X468Y137D01*
X1468Y137D02*
X1475Y137D01*
X0Y136D02*
X7Y136D01*
X463Y136D02*
X469Y136D01*
X1468Y136D02*
X1475Y136D01*
X0Y135D02*
X7Y135D01*
X464Y135D02*
X468Y135D01*
X1468Y135D02*
X1475Y135D01*
X0Y134D02*
X7Y134D01*
X465Y134D02*
X467Y134D01*
X1468Y134D02*
X1475Y134D01*
X0Y133D02*
X7Y133D01*
X466Y133D02*
X466Y133D01*
X1468Y133D02*
X1475Y133D01*
X0Y132D02*
X7Y132D01*
X1468Y132D02*
X1475Y132D01*
X0Y131D02*
X7Y131D01*
X1468Y131D02*
X1475Y131D01*
X0Y130D02*
X7Y130D01*
X1468Y130D02*
X1475Y130D01*
X0Y129D02*
X7Y129D01*
X1468Y129D02*
X1475Y129D01*
X0Y128D02*
X7Y128D01*
X1468Y128D02*
X1475Y128D01*
X0Y127D02*
X7Y127D01*
X1468Y127D02*
X1475Y127D01*
X0Y126D02*
X7Y126D01*
X1468Y126D02*
X1475Y126D01*
X0Y125D02*
X7Y125D01*
X1468Y125D02*
X1475Y125D01*
X0Y124D02*
X7Y124D01*
X1468Y124D02*
X1475Y124D01*
X0Y123D02*
X7Y123D01*
X1183Y123D02*
X1205Y123D01*
X1230Y123D02*
X1248Y123D01*
X1468Y123D02*
X1475Y123D01*
X0Y122D02*
X7Y122D01*
X1181Y122D02*
X1207Y122D01*
X1229Y122D02*
X1248Y122D01*
X1468Y122D02*
X1475Y122D01*
X0Y121D02*
X7Y121D01*
X1180Y121D02*
X1209Y121D01*
X1228Y121D02*
X1248Y121D01*
X1468Y121D02*
X1475Y121D01*
X0Y120D02*
X7Y120D01*
X1179Y120D02*
X1209Y120D01*
X1228Y120D02*
X1248Y120D01*
X1468Y120D02*
X1475Y120D01*
X0Y119D02*
X7Y119D01*
X1179Y119D02*
X1210Y119D01*
X1228Y119D02*
X1248Y119D01*
X1468Y119D02*
X1475Y119D01*
X0Y118D02*
X7Y118D01*
X1178Y118D02*
X1211Y118D01*
X1229Y118D02*
X1248Y118D01*
X1468Y118D02*
X1475Y118D01*
X0Y117D02*
X7Y117D01*
X1178Y117D02*
X1211Y117D01*
X1230Y117D02*
X1248Y117D01*
X1468Y117D02*
X1475Y117D01*
X0Y116D02*
X7Y116D01*
X1178Y116D02*
X1184Y116D01*
X1205Y116D02*
X1211Y116D01*
X1242Y116D02*
X1248Y116D01*
X1468Y116D02*
X1475Y116D01*
X0Y115D02*
X7Y115D01*
X1178Y115D02*
X1184Y115D01*
X1205Y115D02*
X1211Y115D01*
X1242Y115D02*
X1248Y115D01*
X1468Y115D02*
X1475Y115D01*
X0Y114D02*
X7Y114D01*
X1178Y114D02*
X1185Y114D01*
X1206Y114D02*
X1211Y114D01*
X1242Y114D02*
X1248Y114D01*
X1468Y114D02*
X1475Y114D01*
X0Y113D02*
X7Y113D01*
X1178Y113D02*
X1186Y113D01*
X1206Y113D02*
X1211Y113D01*
X1242Y113D02*
X1248Y113D01*
X1468Y113D02*
X1475Y113D01*
X0Y112D02*
X7Y112D01*
X1179Y112D02*
X1187Y112D01*
X1206Y112D02*
X1211Y112D01*
X1242Y112D02*
X1248Y112D01*
X1468Y112D02*
X1475Y112D01*
X0Y111D02*
X7Y111D01*
X1180Y111D02*
X1187Y111D01*
X1208Y111D02*
X1209Y111D01*
X1242Y111D02*
X1248Y111D01*
X1468Y111D02*
X1475Y111D01*
X0Y110D02*
X7Y110D01*
X1180Y110D02*
X1188Y110D01*
X1242Y110D02*
X1248Y110D01*
X1468Y110D02*
X1475Y110D01*
X0Y109D02*
X7Y109D01*
X1181Y109D02*
X1189Y109D01*
X1242Y109D02*
X1248Y109D01*
X1468Y109D02*
X1475Y109D01*
X0Y108D02*
X7Y108D01*
X1182Y108D02*
X1190Y108D01*
X1242Y108D02*
X1248Y108D01*
X1468Y108D02*
X1475Y108D01*
X0Y107D02*
X7Y107D01*
X1183Y107D02*
X1191Y107D01*
X1242Y107D02*
X1248Y107D01*
X1468Y107D02*
X1475Y107D01*
X0Y106D02*
X7Y106D01*
X1183Y106D02*
X1191Y106D01*
X1242Y106D02*
X1248Y106D01*
X1468Y106D02*
X1475Y106D01*
X0Y105D02*
X7Y105D01*
X1184Y105D02*
X1192Y105D01*
X1242Y105D02*
X1248Y105D01*
X1468Y105D02*
X1475Y105D01*
X0Y104D02*
X7Y104D01*
X1185Y104D02*
X1193Y104D01*
X1242Y104D02*
X1248Y104D01*
X1468Y104D02*
X1475Y104D01*
X0Y103D02*
X7Y103D01*
X1186Y103D02*
X1194Y103D01*
X1242Y103D02*
X1248Y103D01*
X1468Y103D02*
X1475Y103D01*
X0Y102D02*
X7Y102D01*
X1186Y102D02*
X1194Y102D01*
X1242Y102D02*
X1248Y102D01*
X1468Y102D02*
X1475Y102D01*
X0Y101D02*
X7Y101D01*
X1187Y101D02*
X1195Y101D01*
X1242Y101D02*
X1248Y101D01*
X1468Y101D02*
X1475Y101D01*
X0Y100D02*
X7Y100D01*
X1188Y100D02*
X1196Y100D01*
X1242Y100D02*
X1248Y100D01*
X1468Y100D02*
X1475Y100D01*
X0Y99D02*
X7Y99D01*
X1189Y99D02*
X1197Y99D01*
X1242Y99D02*
X1248Y99D01*
X1468Y99D02*
X1475Y99D01*
X0Y98D02*
X7Y98D01*
X395Y98D02*
X395Y98D01*
X536Y98D02*
X536Y98D01*
X601Y98D02*
X632Y98D01*
X791Y98D02*
X791Y98D01*
X1190Y98D02*
X1198Y98D01*
X1242Y98D02*
X1248Y98D01*
X1468Y98D02*
X1475Y98D01*
X0Y97D02*
X7Y97D01*
X213Y97D02*
X214Y97D01*
X245Y97D02*
X269Y97D01*
X294Y97D02*
X295Y97D01*
X368Y97D02*
X371Y97D01*
X393Y97D02*
X397Y97D01*
X534Y97D02*
X538Y97D01*
X601Y97D02*
X632Y97D01*
X789Y97D02*
X793Y97D01*
X1190Y97D02*
X1198Y97D01*
X1242Y97D02*
X1248Y97D01*
X1468Y97D02*
X1475Y97D01*
X0Y96D02*
X7Y96D01*
X212Y96D02*
X216Y96D01*
X245Y96D02*
X271Y96D01*
X293Y96D02*
X297Y96D01*
X367Y96D02*
X372Y96D01*
X393Y96D02*
X398Y96D01*
X533Y96D02*
X538Y96D01*
X601Y96D02*
X632Y96D01*
X789Y96D02*
X794Y96D01*
X1191Y96D02*
X1199Y96D01*
X1242Y96D02*
X1248Y96D01*
X1468Y96D02*
X1475Y96D01*
X0Y95D02*
X7Y95D01*
X211Y95D02*
X216Y95D01*
X245Y95D02*
X273Y95D01*
X292Y95D02*
X297Y95D01*
X367Y95D02*
X372Y95D01*
X392Y95D02*
X398Y95D01*
X533Y95D02*
X538Y95D01*
X601Y95D02*
X632Y95D01*
X788Y95D02*
X794Y95D01*
X1192Y95D02*
X1200Y95D01*
X1242Y95D02*
X1248Y95D01*
X1468Y95D02*
X1475Y95D01*
X0Y94D02*
X7Y94D01*
X211Y94D02*
X217Y94D01*
X245Y94D02*
X274Y94D01*
X292Y94D02*
X297Y94D01*
X367Y94D02*
X372Y94D01*
X392Y94D02*
X398Y94D01*
X533Y94D02*
X539Y94D01*
X601Y94D02*
X632Y94D01*
X788Y94D02*
X794Y94D01*
X1193Y94D02*
X1201Y94D01*
X1242Y94D02*
X1248Y94D01*
X1258Y94D02*
X1259Y94D01*
X1468Y94D02*
X1475Y94D01*
X0Y93D02*
X7Y93D01*
X211Y93D02*
X217Y93D01*
X245Y93D02*
X275Y93D01*
X292Y93D02*
X297Y93D01*
X367Y93D02*
X372Y93D01*
X392Y93D02*
X398Y93D01*
X533Y93D02*
X539Y93D01*
X601Y93D02*
X632Y93D01*
X788Y93D02*
X794Y93D01*
X1193Y93D02*
X1201Y93D01*
X1242Y93D02*
X1248Y93D01*
X1257Y93D02*
X1261Y93D01*
X1468Y93D02*
X1475Y93D01*
X0Y92D02*
X7Y92D01*
X210Y92D02*
X217Y92D01*
X245Y92D02*
X275Y92D01*
X292Y92D02*
X297Y92D01*
X367Y92D02*
X372Y92D01*
X392Y92D02*
X398Y92D01*
X533Y92D02*
X539Y92D01*
X601Y92D02*
X632Y92D01*
X788Y92D02*
X794Y92D01*
X1194Y92D02*
X1202Y92D01*
X1242Y92D02*
X1248Y92D01*
X1256Y92D02*
X1261Y92D01*
X1468Y92D02*
X1475Y92D01*
X0Y91D02*
X7Y91D01*
X210Y91D02*
X218Y91D01*
X245Y91D02*
X276Y91D01*
X292Y91D02*
X297Y91D01*
X367Y91D02*
X372Y91D01*
X392Y91D02*
X398Y91D01*
X533Y91D02*
X539Y91D01*
X601Y91D02*
X606Y91D01*
X614Y91D02*
X619Y91D01*
X627Y91D02*
X632Y91D01*
X788Y91D02*
X794Y91D01*
X1195Y91D02*
X1203Y91D01*
X1242Y91D02*
X1248Y91D01*
X1256Y91D02*
X1262Y91D01*
X1468Y91D02*
X1475Y91D01*
X0Y90D02*
X7Y90D01*
X210Y90D02*
X218Y90D01*
X245Y90D02*
X251Y90D01*
X269Y90D02*
X276Y90D01*
X292Y90D02*
X297Y90D01*
X367Y90D02*
X372Y90D01*
X392Y90D02*
X398Y90D01*
X533Y90D02*
X539Y90D01*
X601Y90D02*
X606Y90D01*
X614Y90D02*
X619Y90D01*
X627Y90D02*
X632Y90D01*
X788Y90D02*
X794Y90D01*
X1196Y90D02*
X1204Y90D01*
X1242Y90D02*
X1248Y90D01*
X1256Y90D02*
X1262Y90D01*
X1468Y90D02*
X1475Y90D01*
X0Y89D02*
X7Y89D01*
X209Y89D02*
X218Y89D01*
X245Y89D02*
X251Y89D01*
X270Y89D02*
X276Y89D01*
X292Y89D02*
X297Y89D01*
X367Y89D02*
X372Y89D01*
X392Y89D02*
X398Y89D01*
X533Y89D02*
X539Y89D01*
X601Y89D02*
X606Y89D01*
X614Y89D02*
X619Y89D01*
X627Y89D02*
X632Y89D01*
X788Y89D02*
X794Y89D01*
X1197Y89D02*
X1205Y89D01*
X1242Y89D02*
X1248Y89D01*
X1256Y89D02*
X1262Y89D01*
X1468Y89D02*
X1475Y89D01*
X0Y88D02*
X7Y88D01*
X209Y88D02*
X219Y88D01*
X245Y88D02*
X251Y88D01*
X271Y88D02*
X276Y88D01*
X292Y88D02*
X297Y88D01*
X367Y88D02*
X372Y88D01*
X392Y88D02*
X398Y88D01*
X533Y88D02*
X539Y88D01*
X601Y88D02*
X606Y88D01*
X614Y88D02*
X619Y88D01*
X627Y88D02*
X632Y88D01*
X788Y88D02*
X794Y88D01*
X1197Y88D02*
X1205Y88D01*
X1242Y88D02*
X1248Y88D01*
X1256Y88D02*
X1262Y88D01*
X1468Y88D02*
X1475Y88D01*
X0Y87D02*
X7Y87D01*
X209Y87D02*
X219Y87D01*
X245Y87D02*
X251Y87D01*
X271Y87D02*
X276Y87D01*
X292Y87D02*
X297Y87D01*
X367Y87D02*
X372Y87D01*
X392Y87D02*
X398Y87D01*
X533Y87D02*
X539Y87D01*
X602Y87D02*
X605Y87D01*
X614Y87D02*
X619Y87D01*
X628Y87D02*
X631Y87D01*
X788Y87D02*
X794Y87D01*
X1198Y87D02*
X1206Y87D01*
X1242Y87D02*
X1248Y87D01*
X1256Y87D02*
X1262Y87D01*
X1468Y87D02*
X1475Y87D01*
X0Y86D02*
X7Y86D01*
X209Y86D02*
X219Y86D01*
X245Y86D02*
X251Y86D01*
X271Y86D02*
X276Y86D01*
X292Y86D02*
X297Y86D01*
X367Y86D02*
X372Y86D01*
X392Y86D02*
X398Y86D01*
X533Y86D02*
X539Y86D01*
X614Y86D02*
X619Y86D01*
X788Y86D02*
X794Y86D01*
X1199Y86D02*
X1207Y86D01*
X1242Y86D02*
X1248Y86D01*
X1256Y86D02*
X1262Y86D01*
X1468Y86D02*
X1475Y86D01*
X0Y85D02*
X7Y85D01*
X208Y85D02*
X219Y85D01*
X245Y85D02*
X251Y85D01*
X271Y85D02*
X276Y85D01*
X292Y85D02*
X297Y85D01*
X367Y85D02*
X372Y85D01*
X392Y85D02*
X398Y85D01*
X533Y85D02*
X539Y85D01*
X614Y85D02*
X619Y85D01*
X788Y85D02*
X794Y85D01*
X1200Y85D02*
X1208Y85D01*
X1242Y85D02*
X1248Y85D01*
X1256Y85D02*
X1262Y85D01*
X1468Y85D02*
X1475Y85D01*
X0Y84D02*
X7Y84D01*
X208Y84D02*
X220Y84D01*
X245Y84D02*
X251Y84D01*
X271Y84D02*
X276Y84D01*
X292Y84D02*
X297Y84D01*
X367Y84D02*
X372Y84D01*
X392Y84D02*
X398Y84D01*
X423Y84D02*
X435Y84D01*
X469Y84D02*
X484Y84D01*
X517Y84D02*
X525Y84D01*
X533Y84D02*
X539Y84D01*
X614Y84D02*
X619Y84D01*
X650Y84D02*
X651Y84D01*
X662Y84D02*
X672Y84D01*
X703Y84D02*
X718Y84D01*
X754Y84D02*
X771Y84D01*
X788Y84D02*
X794Y84D01*
X813Y84D02*
X814Y84D01*
X845Y84D02*
X857Y84D01*
X884Y84D02*
X886Y84D01*
X897Y84D02*
X906Y84D01*
X1200Y84D02*
X1208Y84D01*
X1242Y84D02*
X1248Y84D01*
X1256Y84D02*
X1262Y84D01*
X1468Y84D02*
X1475Y84D01*
X0Y83D02*
X7Y83D01*
X208Y83D02*
X220Y83D01*
X245Y83D02*
X251Y83D01*
X271Y83D02*
X276Y83D01*
X292Y83D02*
X297Y83D01*
X367Y83D02*
X372Y83D01*
X392Y83D02*
X398Y83D01*
X421Y83D02*
X438Y83D01*
X468Y83D02*
X486Y83D01*
X514Y83D02*
X528Y83D01*
X533Y83D02*
X539Y83D01*
X614Y83D02*
X619Y83D01*
X648Y83D02*
X653Y83D01*
X661Y83D02*
X674Y83D01*
X702Y83D02*
X720Y83D01*
X752Y83D02*
X772Y83D01*
X788Y83D02*
X794Y83D01*
X811Y83D02*
X816Y83D01*
X842Y83D02*
X859Y83D01*
X883Y83D02*
X887Y83D01*
X895Y83D02*
X908Y83D01*
X1201Y83D02*
X1209Y83D01*
X1242Y83D02*
X1248Y83D01*
X1256Y83D02*
X1262Y83D01*
X1468Y83D02*
X1475Y83D01*
X0Y82D02*
X7Y82D01*
X207Y82D02*
X220Y82D01*
X245Y82D02*
X251Y82D01*
X271Y82D02*
X276Y82D01*
X292Y82D02*
X297Y82D01*
X367Y82D02*
X372Y82D01*
X392Y82D02*
X398Y82D01*
X419Y82D02*
X439Y82D01*
X467Y82D02*
X487Y82D01*
X513Y82D02*
X529Y82D01*
X533Y82D02*
X539Y82D01*
X614Y82D02*
X619Y82D01*
X648Y82D02*
X653Y82D01*
X660Y82D02*
X675Y82D01*
X701Y82D02*
X722Y82D01*
X750Y82D02*
X772Y82D01*
X788Y82D02*
X794Y82D01*
X810Y82D02*
X816Y82D01*
X841Y82D02*
X861Y82D01*
X882Y82D02*
X887Y82D01*
X894Y82D02*
X910Y82D01*
X1180Y82D02*
X1182Y82D01*
X1202Y82D02*
X1210Y82D01*
X1242Y82D02*
X1248Y82D01*
X1256Y82D02*
X1262Y82D01*
X1468Y82D02*
X1475Y82D01*
X0Y81D02*
X7Y81D01*
X207Y81D02*
X213Y81D01*
X215Y81D02*
X221Y81D01*
X245Y81D02*
X251Y81D01*
X271Y81D02*
X276Y81D01*
X292Y81D02*
X297Y81D01*
X367Y81D02*
X372Y81D01*
X392Y81D02*
X398Y81D01*
X418Y81D02*
X440Y81D01*
X467Y81D02*
X488Y81D01*
X512Y81D02*
X531Y81D01*
X533Y81D02*
X539Y81D01*
X614Y81D02*
X619Y81D01*
X648Y81D02*
X653Y81D01*
X659Y81D02*
X677Y81D01*
X701Y81D02*
X723Y81D01*
X749Y81D02*
X773Y81D01*
X788Y81D02*
X794Y81D01*
X809Y81D02*
X816Y81D01*
X840Y81D02*
X862Y81D01*
X882Y81D02*
X887Y81D01*
X893Y81D02*
X911Y81D01*
X1179Y81D02*
X1183Y81D01*
X1203Y81D02*
X1211Y81D01*
X1242Y81D02*
X1248Y81D01*
X1256Y81D02*
X1262Y81D01*
X1468Y81D02*
X1475Y81D01*
X0Y80D02*
X7Y80D01*
X207Y80D02*
X213Y80D01*
X215Y80D02*
X221Y80D01*
X245Y80D02*
X251Y80D01*
X271Y80D02*
X276Y80D01*
X292Y80D02*
X297Y80D01*
X367Y80D02*
X372Y80D01*
X392Y80D02*
X398Y80D01*
X417Y80D02*
X441Y80D01*
X467Y80D02*
X489Y80D01*
X511Y80D02*
X539Y80D01*
X614Y80D02*
X619Y80D01*
X648Y80D02*
X653Y80D01*
X658Y80D02*
X677Y80D01*
X701Y80D02*
X723Y80D01*
X748Y80D02*
X772Y80D01*
X788Y80D02*
X794Y80D01*
X808Y80D02*
X816Y80D01*
X839Y80D02*
X863Y80D01*
X882Y80D02*
X887Y80D01*
X892Y80D02*
X912Y80D01*
X1178Y80D02*
X1184Y80D01*
X1204Y80D02*
X1211Y80D01*
X1242Y80D02*
X1248Y80D01*
X1256Y80D02*
X1262Y80D01*
X1468Y80D02*
X1475Y80D01*
X0Y79D02*
X7Y79D01*
X207Y79D02*
X212Y79D01*
X215Y79D02*
X221Y79D01*
X245Y79D02*
X251Y79D01*
X271Y79D02*
X276Y79D01*
X292Y79D02*
X297Y79D01*
X367Y79D02*
X372Y79D01*
X392Y79D02*
X398Y79D01*
X416Y79D02*
X442Y79D01*
X468Y79D02*
X490Y79D01*
X510Y79D02*
X539Y79D01*
X614Y79D02*
X619Y79D01*
X648Y79D02*
X653Y79D01*
X656Y79D02*
X678Y79D01*
X702Y79D02*
X724Y79D01*
X747Y79D02*
X772Y79D01*
X788Y79D02*
X794Y79D01*
X807Y79D02*
X815Y79D01*
X838Y79D02*
X864Y79D01*
X882Y79D02*
X887Y79D01*
X891Y79D02*
X912Y79D01*
X1178Y79D02*
X1184Y79D01*
X1204Y79D02*
X1211Y79D01*
X1242Y79D02*
X1248Y79D01*
X1256Y79D02*
X1262Y79D01*
X1468Y79D02*
X1475Y79D01*
X0Y78D02*
X7Y78D01*
X206Y78D02*
X212Y78D01*
X216Y78D02*
X221Y78D01*
X245Y78D02*
X251Y78D01*
X271Y78D02*
X276Y78D01*
X292Y78D02*
X297Y78D01*
X367Y78D02*
X372Y78D01*
X392Y78D02*
X398Y78D01*
X415Y78D02*
X443Y78D01*
X469Y78D02*
X490Y78D01*
X509Y78D02*
X539Y78D01*
X614Y78D02*
X619Y78D01*
X648Y78D02*
X653Y78D01*
X655Y78D02*
X678Y78D01*
X703Y78D02*
X724Y78D01*
X746Y78D02*
X770Y78D01*
X788Y78D02*
X794Y78D01*
X805Y78D02*
X814Y78D01*
X837Y78D02*
X865Y78D01*
X882Y78D02*
X913Y78D01*
X1178Y78D02*
X1184Y78D01*
X1205Y78D02*
X1211Y78D01*
X1242Y78D02*
X1248Y78D01*
X1256Y78D02*
X1262Y78D01*
X1468Y78D02*
X1475Y78D01*
X0Y77D02*
X7Y77D01*
X206Y77D02*
X212Y77D01*
X216Y77D02*
X222Y77D01*
X245Y77D02*
X251Y77D01*
X271Y77D02*
X276Y77D01*
X292Y77D02*
X297Y77D01*
X367Y77D02*
X372Y77D01*
X392Y77D02*
X398Y77D01*
X415Y77D02*
X423Y77D01*
X436Y77D02*
X444Y77D01*
X484Y77D02*
X491Y77D01*
X508Y77D02*
X516Y77D01*
X526Y77D02*
X539Y77D01*
X614Y77D02*
X619Y77D01*
X648Y77D02*
X663Y77D01*
X672Y77D02*
X679Y77D01*
X718Y77D02*
X725Y77D01*
X745Y77D02*
X754Y77D01*
X788Y77D02*
X794Y77D01*
X804Y77D02*
X813Y77D01*
X836Y77D02*
X844Y77D01*
X857Y77D02*
X865Y77D01*
X882Y77D02*
X897Y77D01*
X906Y77D02*
X913Y77D01*
X1178Y77D02*
X1185Y77D01*
X1205Y77D02*
X1211Y77D01*
X1242Y77D02*
X1248Y77D01*
X1256Y77D02*
X1262Y77D01*
X1468Y77D02*
X1475Y77D01*
X0Y76D02*
X7Y76D01*
X206Y76D02*
X212Y76D01*
X216Y76D02*
X222Y76D01*
X245Y76D02*
X251Y76D01*
X271Y76D02*
X276Y76D01*
X292Y76D02*
X297Y76D01*
X367Y76D02*
X398Y76D01*
X414Y76D02*
X421Y76D01*
X437Y76D02*
X444Y76D01*
X485Y76D02*
X491Y76D01*
X508Y76D02*
X515Y76D01*
X527Y76D02*
X539Y76D01*
X614Y76D02*
X619Y76D01*
X648Y76D02*
X662Y76D01*
X673Y76D02*
X679Y76D01*
X719Y76D02*
X725Y76D01*
X744Y76D02*
X752Y76D01*
X788Y76D02*
X794Y76D01*
X803Y76D02*
X812Y76D01*
X836Y76D02*
X843Y76D01*
X859Y76D02*
X866Y76D01*
X882Y76D02*
X896Y76D01*
X907Y76D02*
X913Y76D01*
X1178Y76D02*
X1211Y76D01*
X1230Y76D02*
X1262Y76D01*
X1468Y76D02*
X1475Y76D01*
X0Y75D02*
X7Y75D01*
X205Y75D02*
X211Y75D01*
X216Y75D02*
X222Y75D01*
X245Y75D02*
X251Y75D01*
X271Y75D02*
X276Y75D01*
X292Y75D02*
X297Y75D01*
X367Y75D02*
X398Y75D01*
X414Y75D02*
X420Y75D01*
X438Y75D02*
X445Y75D01*
X485Y75D02*
X491Y75D01*
X508Y75D02*
X514Y75D01*
X529Y75D02*
X539Y75D01*
X614Y75D02*
X619Y75D01*
X648Y75D02*
X661Y75D01*
X673Y75D02*
X679Y75D01*
X719Y75D02*
X725Y75D01*
X743Y75D02*
X751Y75D01*
X788Y75D02*
X794Y75D01*
X802Y75D02*
X811Y75D01*
X835Y75D02*
X842Y75D01*
X860Y75D02*
X866Y75D01*
X882Y75D02*
X895Y75D01*
X908Y75D02*
X913Y75D01*
X1179Y75D02*
X1211Y75D01*
X1229Y75D02*
X1262Y75D01*
X1468Y75D02*
X1475Y75D01*
X0Y74D02*
X7Y74D01*
X205Y74D02*
X211Y74D01*
X217Y74D02*
X223Y74D01*
X245Y74D02*
X251Y74D01*
X270Y74D02*
X276Y74D01*
X292Y74D02*
X297Y74D01*
X367Y74D02*
X398Y74D01*
X414Y74D02*
X419Y74D01*
X439Y74D02*
X445Y74D01*
X485Y74D02*
X491Y74D01*
X507Y74D02*
X513Y74D01*
X530Y74D02*
X539Y74D01*
X614Y74D02*
X619Y74D01*
X648Y74D02*
X660Y74D01*
X673Y74D02*
X679Y74D01*
X719Y74D02*
X725Y74D01*
X742Y74D02*
X750Y74D01*
X788Y74D02*
X794Y74D01*
X801Y74D02*
X810Y74D01*
X835Y74D02*
X841Y74D01*
X860Y74D02*
X866Y74D01*
X882Y74D02*
X894Y74D01*
X908Y74D02*
X913Y74D01*
X1179Y74D02*
X1211Y74D01*
X1228Y74D02*
X1262Y74D01*
X1468Y74D02*
X1475Y74D01*
X0Y73D02*
X7Y73D01*
X205Y73D02*
X211Y73D01*
X217Y73D02*
X223Y73D01*
X245Y73D02*
X251Y73D01*
X269Y73D02*
X276Y73D01*
X292Y73D02*
X297Y73D01*
X367Y73D02*
X398Y73D01*
X414Y73D02*
X419Y73D01*
X439Y73D02*
X445Y73D01*
X485Y73D02*
X491Y73D01*
X507Y73D02*
X513Y73D01*
X531Y73D02*
X539Y73D01*
X614Y73D02*
X619Y73D01*
X648Y73D02*
X658Y73D01*
X673Y73D02*
X679Y73D01*
X720Y73D02*
X725Y73D01*
X742Y73D02*
X749Y73D01*
X788Y73D02*
X794Y73D01*
X800Y73D02*
X809Y73D01*
X835Y73D02*
X841Y73D01*
X861Y73D02*
X866Y73D01*
X882Y73D02*
X893Y73D01*
X908Y73D02*
X913Y73D01*
X1180Y73D02*
X1210Y73D01*
X1228Y73D02*
X1262Y73D01*
X1468Y73D02*
X1475Y73D01*
X0Y72D02*
X7Y72D01*
X205Y72D02*
X210Y72D01*
X217Y72D02*
X223Y72D01*
X245Y72D02*
X276Y72D01*
X292Y72D02*
X297Y72D01*
X367Y72D02*
X398Y72D01*
X414Y72D02*
X419Y72D01*
X439Y72D02*
X445Y72D01*
X485Y72D02*
X491Y72D01*
X507Y72D02*
X513Y72D01*
X532Y72D02*
X539Y72D01*
X614Y72D02*
X619Y72D01*
X648Y72D02*
X657Y72D01*
X674Y72D02*
X679Y72D01*
X720Y72D02*
X725Y72D01*
X742Y72D02*
X748Y72D01*
X788Y72D02*
X794Y72D01*
X798Y72D02*
X807Y72D01*
X835Y72D02*
X841Y72D01*
X861Y72D02*
X866Y72D01*
X882Y72D02*
X892Y72D01*
X908Y72D02*
X913Y72D01*
X1181Y72D02*
X1209Y72D01*
X1228Y72D02*
X1262Y72D01*
X1468Y72D02*
X1475Y72D01*
X0Y71D02*
X7Y71D01*
X204Y71D02*
X210Y71D01*
X218Y71D02*
X223Y71D01*
X245Y71D02*
X275Y71D01*
X292Y71D02*
X297Y71D01*
X367Y71D02*
X398Y71D01*
X414Y71D02*
X419Y71D01*
X439Y71D02*
X445Y71D01*
X485Y71D02*
X491Y71D01*
X507Y71D02*
X513Y71D01*
X533Y71D02*
X539Y71D01*
X614Y71D02*
X619Y71D01*
X648Y71D02*
X656Y71D01*
X674Y71D02*
X678Y71D01*
X720Y71D02*
X725Y71D01*
X742Y71D02*
X747Y71D01*
X788Y71D02*
X794Y71D01*
X797Y71D02*
X806Y71D01*
X835Y71D02*
X841Y71D01*
X861Y71D02*
X866Y71D01*
X882Y71D02*
X890Y71D01*
X908Y71D02*
X913Y71D01*
X1182Y71D02*
X1208Y71D01*
X1229Y71D02*
X1261Y71D01*
X1468Y71D02*
X1475Y71D01*
X0Y70D02*
X7Y70D01*
X204Y70D02*
X210Y70D01*
X218Y70D02*
X224Y70D01*
X245Y70D02*
X274Y70D01*
X292Y70D02*
X297Y70D01*
X367Y70D02*
X398Y70D01*
X414Y70D02*
X419Y70D01*
X439Y70D02*
X445Y70D01*
X467Y70D02*
X491Y70D01*
X507Y70D02*
X513Y70D01*
X533Y70D02*
X539Y70D01*
X614Y70D02*
X619Y70D01*
X648Y70D02*
X655Y70D01*
X675Y70D02*
X677Y70D01*
X701Y70D02*
X725Y70D01*
X741Y70D02*
X747Y70D01*
X788Y70D02*
X794Y70D01*
X796Y70D02*
X805Y70D01*
X835Y70D02*
X841Y70D01*
X861Y70D02*
X866Y70D01*
X882Y70D02*
X889Y70D01*
X909Y70D02*
X911Y70D01*
X1184Y70D02*
X1206Y70D01*
X1230Y70D02*
X1260Y70D01*
X1468Y70D02*
X1475Y70D01*
X0Y69D02*
X7Y69D01*
X204Y69D02*
X209Y69D01*
X218Y69D02*
X224Y69D01*
X245Y69D02*
X274Y69D01*
X292Y69D02*
X297Y69D01*
X367Y69D02*
X372Y69D01*
X392Y69D02*
X398Y69D01*
X414Y69D02*
X419Y69D01*
X439Y69D02*
X445Y69D01*
X465Y69D02*
X491Y69D01*
X507Y69D02*
X513Y69D01*
X533Y69D02*
X539Y69D01*
X614Y69D02*
X619Y69D01*
X648Y69D02*
X654Y69D01*
X699Y69D02*
X725Y69D01*
X741Y69D02*
X747Y69D01*
X788Y69D02*
X804Y69D01*
X835Y69D02*
X841Y69D01*
X861Y69D02*
X866Y69D01*
X882Y69D02*
X888Y69D01*
X1468Y69D02*
X1475Y69D01*
X0Y68D02*
X7Y68D01*
X203Y68D02*
X209Y68D01*
X219Y68D02*
X224Y68D01*
X245Y68D02*
X272Y68D01*
X292Y68D02*
X297Y68D01*
X367Y68D02*
X372Y68D01*
X392Y68D02*
X398Y68D01*
X414Y68D02*
X419Y68D01*
X439Y68D02*
X445Y68D01*
X464Y68D02*
X491Y68D01*
X507Y68D02*
X513Y68D01*
X533Y68D02*
X539Y68D01*
X614Y68D02*
X619Y68D01*
X648Y68D02*
X653Y68D01*
X698Y68D02*
X725Y68D01*
X741Y68D02*
X747Y68D01*
X788Y68D02*
X803Y68D01*
X835Y68D02*
X841Y68D01*
X861Y68D02*
X866Y68D01*
X882Y68D02*
X887Y68D01*
X1468Y68D02*
X1475Y68D01*
X0Y67D02*
X7Y67D01*
X203Y67D02*
X209Y67D01*
X219Y67D02*
X225Y67D01*
X245Y67D02*
X271Y67D01*
X292Y67D02*
X297Y67D01*
X367Y67D02*
X372Y67D01*
X392Y67D02*
X398Y67D01*
X414Y67D02*
X445Y67D01*
X463Y67D02*
X491Y67D01*
X507Y67D02*
X513Y67D01*
X533Y67D02*
X539Y67D01*
X614Y67D02*
X619Y67D01*
X648Y67D02*
X653Y67D01*
X697Y67D02*
X725Y67D01*
X741Y67D02*
X747Y67D01*
X788Y67D02*
X802Y67D01*
X835Y67D02*
X866Y67D01*
X882Y67D02*
X887Y67D01*
X1468Y67D02*
X1475Y67D01*
X0Y66D02*
X7Y66D01*
X203Y66D02*
X209Y66D01*
X219Y66D02*
X225Y66D01*
X245Y66D02*
X267Y66D01*
X292Y66D02*
X297Y66D01*
X367Y66D02*
X372Y66D01*
X392Y66D02*
X398Y66D01*
X414Y66D02*
X445Y66D01*
X462Y66D02*
X491Y66D01*
X507Y66D02*
X513Y66D01*
X533Y66D02*
X539Y66D01*
X614Y66D02*
X619Y66D01*
X648Y66D02*
X653Y66D01*
X696Y66D02*
X725Y66D01*
X741Y66D02*
X747Y66D01*
X788Y66D02*
X803Y66D01*
X835Y66D02*
X866Y66D01*
X882Y66D02*
X887Y66D01*
X1468Y66D02*
X1475Y66D01*
X0Y65D02*
X7Y65D01*
X202Y65D02*
X208Y65D01*
X219Y65D02*
X225Y65D01*
X245Y65D02*
X251Y65D01*
X292Y65D02*
X297Y65D01*
X367Y65D02*
X372Y65D01*
X392Y65D02*
X398Y65D01*
X414Y65D02*
X445Y65D01*
X461Y65D02*
X491Y65D01*
X507Y65D02*
X513Y65D01*
X533Y65D02*
X539Y65D01*
X614Y65D02*
X619Y65D01*
X648Y65D02*
X653Y65D01*
X696Y65D02*
X725Y65D01*
X741Y65D02*
X747Y65D01*
X788Y65D02*
X805Y65D01*
X835Y65D02*
X866Y65D01*
X882Y65D02*
X887Y65D01*
X1468Y65D02*
X1475Y65D01*
X0Y64D02*
X7Y64D01*
X202Y64D02*
X226Y64D01*
X245Y64D02*
X251Y64D01*
X292Y64D02*
X297Y64D01*
X367Y64D02*
X372Y64D01*
X392Y64D02*
X398Y64D01*
X414Y64D02*
X445Y64D01*
X461Y64D02*
X469Y64D01*
X483Y64D02*
X491Y64D01*
X507Y64D02*
X513Y64D01*
X533Y64D02*
X539Y64D01*
X614Y64D02*
X619Y64D01*
X648Y64D02*
X653Y64D01*
X695Y64D02*
X703Y64D01*
X717Y64D02*
X725Y64D01*
X741Y64D02*
X747Y64D01*
X788Y64D02*
X806Y64D01*
X835Y64D02*
X866Y64D01*
X882Y64D02*
X887Y64D01*
X1468Y64D02*
X1475Y64D01*
X0Y63D02*
X7Y63D01*
X202Y63D02*
X226Y63D01*
X245Y63D02*
X251Y63D01*
X292Y63D02*
X297Y63D01*
X367Y63D02*
X372Y63D01*
X392Y63D02*
X398Y63D01*
X414Y63D02*
X444Y63D01*
X461Y63D02*
X467Y63D01*
X485Y63D02*
X491Y63D01*
X507Y63D02*
X513Y63D01*
X533Y63D02*
X539Y63D01*
X614Y63D02*
X619Y63D01*
X648Y63D02*
X653Y63D01*
X695Y63D02*
X701Y63D01*
X719Y63D02*
X725Y63D01*
X741Y63D02*
X747Y63D01*
X788Y63D02*
X807Y63D01*
X835Y63D02*
X866Y63D01*
X882Y63D02*
X887Y63D01*
X1468Y63D02*
X1475Y63D01*
X0Y62D02*
X7Y62D01*
X202Y62D02*
X226Y62D01*
X245Y62D02*
X251Y62D01*
X292Y62D02*
X297Y62D01*
X367Y62D02*
X372Y62D01*
X392Y62D02*
X398Y62D01*
X414Y62D02*
X444Y62D01*
X461Y62D02*
X466Y62D01*
X485Y62D02*
X491Y62D01*
X507Y62D02*
X513Y62D01*
X533Y62D02*
X539Y62D01*
X614Y62D02*
X619Y62D01*
X648Y62D02*
X653Y62D01*
X695Y62D02*
X700Y62D01*
X720Y62D02*
X725Y62D01*
X741Y62D02*
X747Y62D01*
X788Y62D02*
X796Y62D01*
X799Y62D02*
X808Y62D01*
X835Y62D02*
X865Y62D01*
X882Y62D02*
X887Y62D01*
X1468Y62D02*
X1475Y62D01*
X0Y61D02*
X7Y61D01*
X201Y61D02*
X226Y61D01*
X245Y61D02*
X251Y61D01*
X292Y61D02*
X297Y61D01*
X367Y61D02*
X372Y61D01*
X392Y61D02*
X398Y61D01*
X414Y61D02*
X419Y61D01*
X460Y61D02*
X466Y61D01*
X486Y61D02*
X491Y61D01*
X507Y61D02*
X513Y61D01*
X533Y61D02*
X539Y61D01*
X614Y61D02*
X619Y61D01*
X648Y61D02*
X653Y61D01*
X695Y61D02*
X700Y61D01*
X720Y61D02*
X726Y61D01*
X742Y61D02*
X747Y61D01*
X788Y61D02*
X795Y61D01*
X800Y61D02*
X809Y61D01*
X835Y61D02*
X841Y61D01*
X882Y61D02*
X887Y61D01*
X1468Y61D02*
X1475Y61D01*
X0Y60D02*
X7Y60D01*
X201Y60D02*
X227Y60D01*
X245Y60D02*
X251Y60D01*
X292Y60D02*
X297Y60D01*
X367Y60D02*
X372Y60D01*
X392Y60D02*
X398Y60D01*
X414Y60D02*
X419Y60D01*
X460Y60D02*
X466Y60D01*
X486Y60D02*
X491Y60D01*
X507Y60D02*
X513Y60D01*
X532Y60D02*
X539Y60D01*
X614Y60D02*
X619Y60D01*
X648Y60D02*
X653Y60D01*
X695Y60D02*
X700Y60D01*
X720Y60D02*
X726Y60D01*
X742Y60D02*
X748Y60D01*
X788Y60D02*
X794Y60D01*
X801Y60D02*
X811Y60D01*
X835Y60D02*
X841Y60D01*
X882Y60D02*
X887Y60D01*
X1468Y60D02*
X1475Y60D01*
X0Y59D02*
X7Y59D01*
X201Y59D02*
X227Y59D01*
X245Y59D02*
X251Y59D01*
X292Y59D02*
X297Y59D01*
X367Y59D02*
X372Y59D01*
X392Y59D02*
X398Y59D01*
X414Y59D02*
X419Y59D01*
X460Y59D02*
X466Y59D01*
X486Y59D02*
X491Y59D01*
X507Y59D02*
X513Y59D01*
X531Y59D02*
X539Y59D01*
X614Y59D02*
X619Y59D01*
X648Y59D02*
X653Y59D01*
X695Y59D02*
X700Y59D01*
X720Y59D02*
X726Y59D01*
X742Y59D02*
X749Y59D01*
X788Y59D02*
X794Y59D01*
X803Y59D02*
X812Y59D01*
X835Y59D02*
X841Y59D01*
X882Y59D02*
X887Y59D01*
X1468Y59D02*
X1475Y59D01*
X0Y58D02*
X7Y58D01*
X200Y58D02*
X227Y58D01*
X245Y58D02*
X251Y58D01*
X292Y58D02*
X297Y58D01*
X367Y58D02*
X372Y58D01*
X392Y58D02*
X398Y58D01*
X414Y58D02*
X419Y58D01*
X460Y58D02*
X466Y58D01*
X485Y58D02*
X491Y58D01*
X507Y58D02*
X513Y58D01*
X530Y58D02*
X539Y58D01*
X614Y58D02*
X619Y58D01*
X648Y58D02*
X653Y58D01*
X695Y58D02*
X700Y58D01*
X720Y58D02*
X726Y58D01*
X742Y58D02*
X750Y58D01*
X788Y58D02*
X794Y58D01*
X804Y58D02*
X813Y58D01*
X835Y58D02*
X841Y58D01*
X882Y58D02*
X887Y58D01*
X1468Y58D02*
X1475Y58D01*
X0Y57D02*
X7Y57D01*
X200Y57D02*
X206Y57D01*
X222Y57D02*
X228Y57D01*
X245Y57D02*
X251Y57D01*
X292Y57D02*
X297Y57D01*
X367Y57D02*
X372Y57D01*
X392Y57D02*
X398Y57D01*
X414Y57D02*
X420Y57D01*
X460Y57D02*
X466Y57D01*
X484Y57D02*
X491Y57D01*
X507Y57D02*
X514Y57D01*
X529Y57D02*
X539Y57D01*
X614Y57D02*
X619Y57D01*
X648Y57D02*
X653Y57D01*
X695Y57D02*
X700Y57D01*
X718Y57D02*
X726Y57D01*
X743Y57D02*
X751Y57D01*
X788Y57D02*
X794Y57D01*
X805Y57D02*
X814Y57D01*
X835Y57D02*
X842Y57D01*
X882Y57D02*
X887Y57D01*
X1468Y57D02*
X1475Y57D01*
X0Y56D02*
X7Y56D01*
X200Y56D02*
X206Y56D01*
X222Y56D02*
X228Y56D01*
X245Y56D02*
X251Y56D01*
X292Y56D02*
X297Y56D01*
X367Y56D02*
X372Y56D01*
X392Y56D02*
X398Y56D01*
X414Y56D02*
X421Y56D01*
X461Y56D02*
X466Y56D01*
X482Y56D02*
X491Y56D01*
X508Y56D02*
X515Y56D01*
X528Y56D02*
X539Y56D01*
X614Y56D02*
X619Y56D01*
X648Y56D02*
X653Y56D01*
X695Y56D02*
X700Y56D01*
X716Y56D02*
X726Y56D01*
X744Y56D02*
X752Y56D01*
X788Y56D02*
X794Y56D01*
X806Y56D02*
X815Y56D01*
X836Y56D02*
X843Y56D01*
X882Y56D02*
X887Y56D01*
X1468Y56D02*
X1475Y56D01*
X0Y55D02*
X7Y55D01*
X200Y55D02*
X205Y55D01*
X222Y55D02*
X228Y55D01*
X245Y55D02*
X251Y55D01*
X292Y55D02*
X297Y55D01*
X367Y55D02*
X372Y55D01*
X392Y55D02*
X398Y55D01*
X414Y55D02*
X422Y55D01*
X461Y55D02*
X467Y55D01*
X480Y55D02*
X492Y55D01*
X508Y55D02*
X516Y55D01*
X526Y55D02*
X539Y55D01*
X614Y55D02*
X619Y55D01*
X648Y55D02*
X653Y55D01*
X695Y55D02*
X701Y55D01*
X715Y55D02*
X726Y55D01*
X744Y55D02*
X753Y55D01*
X788Y55D02*
X794Y55D01*
X807Y55D02*
X816Y55D01*
X836Y55D02*
X844Y55D01*
X882Y55D02*
X887Y55D01*
X1468Y55D02*
X1475Y55D01*
X0Y54D02*
X7Y54D01*
X199Y54D02*
X205Y54D01*
X223Y54D02*
X228Y54D01*
X245Y54D02*
X251Y54D01*
X292Y54D02*
X297Y54D01*
X367Y54D02*
X372Y54D01*
X392Y54D02*
X398Y54D01*
X415Y54D02*
X442Y54D01*
X461Y54D02*
X492Y54D01*
X509Y54D02*
X539Y54D01*
X614Y54D02*
X619Y54D01*
X648Y54D02*
X653Y54D01*
X695Y54D02*
X726Y54D01*
X746Y54D02*
X770Y54D01*
X788Y54D02*
X794Y54D01*
X808Y54D02*
X818Y54D01*
X837Y54D02*
X863Y54D01*
X882Y54D02*
X887Y54D01*
X1468Y54D02*
X1475Y54D01*
X0Y53D02*
X7Y53D01*
X199Y53D02*
X205Y53D01*
X223Y53D02*
X229Y53D01*
X245Y53D02*
X251Y53D01*
X292Y53D02*
X321Y53D01*
X367Y53D02*
X372Y53D01*
X392Y53D02*
X398Y53D01*
X416Y53D02*
X444Y53D01*
X461Y53D02*
X492Y53D01*
X510Y53D02*
X539Y53D01*
X614Y53D02*
X619Y53D01*
X648Y53D02*
X653Y53D01*
X696Y53D02*
X726Y53D01*
X747Y53D02*
X772Y53D01*
X788Y53D02*
X794Y53D01*
X810Y53D02*
X819Y53D01*
X837Y53D02*
X865Y53D01*
X882Y53D02*
X887Y53D01*
X1468Y53D02*
X1475Y53D01*
X0Y52D02*
X7Y52D01*
X199Y52D02*
X204Y52D01*
X223Y52D02*
X229Y52D01*
X245Y52D02*
X251Y52D01*
X292Y52D02*
X322Y52D01*
X367Y52D02*
X372Y52D01*
X392Y52D02*
X398Y52D01*
X417Y52D02*
X445Y52D01*
X462Y52D02*
X492Y52D01*
X510Y52D02*
X539Y52D01*
X614Y52D02*
X619Y52D01*
X648Y52D02*
X653Y52D01*
X696Y52D02*
X726Y52D01*
X748Y52D02*
X772Y52D01*
X788Y52D02*
X794Y52D01*
X811Y52D02*
X819Y52D01*
X838Y52D02*
X866Y52D01*
X882Y52D02*
X887Y52D01*
X1468Y52D02*
X1475Y52D01*
X0Y51D02*
X7Y51D01*
X198Y51D02*
X204Y51D01*
X224Y51D02*
X229Y51D01*
X245Y51D02*
X251Y51D01*
X292Y51D02*
X323Y51D01*
X367Y51D02*
X372Y51D01*
X392Y51D02*
X398Y51D01*
X418Y51D02*
X445Y51D01*
X463Y51D02*
X492Y51D01*
X512Y51D02*
X531Y51D01*
X533Y51D02*
X538Y51D01*
X614Y51D02*
X619Y51D01*
X648Y51D02*
X653Y51D01*
X697Y51D02*
X726Y51D01*
X749Y51D02*
X773Y51D01*
X788Y51D02*
X794Y51D01*
X812Y51D02*
X819Y51D01*
X839Y51D02*
X866Y51D01*
X882Y51D02*
X887Y51D01*
X1468Y51D02*
X1475Y51D01*
X0Y50D02*
X7Y50D01*
X198Y50D02*
X204Y50D01*
X224Y50D02*
X230Y50D01*
X245Y50D02*
X251Y50D01*
X292Y50D02*
X323Y50D01*
X367Y50D02*
X372Y50D01*
X393Y50D02*
X398Y50D01*
X419Y50D02*
X445Y50D01*
X464Y50D02*
X484Y50D01*
X486Y50D02*
X492Y50D01*
X513Y50D02*
X530Y50D01*
X533Y50D02*
X538Y50D01*
X614Y50D02*
X619Y50D01*
X648Y50D02*
X653Y50D01*
X698Y50D02*
X718Y50D01*
X720Y50D02*
X726Y50D01*
X750Y50D02*
X773Y50D01*
X788Y50D02*
X794Y50D01*
X813Y50D02*
X819Y50D01*
X841Y50D02*
X866Y50D01*
X882Y50D02*
X887Y50D01*
X1468Y50D02*
X1475Y50D01*
X0Y49D02*
X7Y49D01*
X198Y49D02*
X204Y49D01*
X224Y49D02*
X229Y49D01*
X245Y49D02*
X250Y49D01*
X292Y49D02*
X323Y49D01*
X367Y49D02*
X372Y49D01*
X393Y49D02*
X397Y49D01*
X420Y49D02*
X444Y49D01*
X465Y49D02*
X482Y49D01*
X487Y49D02*
X491Y49D01*
X514Y49D02*
X528Y49D01*
X534Y49D02*
X538Y49D01*
X614Y49D02*
X619Y49D01*
X648Y49D02*
X653Y49D01*
X699Y49D02*
X716Y49D01*
X721Y49D02*
X725Y49D01*
X752Y49D02*
X772Y49D01*
X789Y49D02*
X793Y49D01*
X814Y49D02*
X819Y49D01*
X842Y49D02*
X866Y49D01*
X883Y49D02*
X887Y49D01*
X1468Y49D02*
X1475Y49D01*
X0Y48D02*
X7Y48D01*
X199Y48D02*
X203Y48D01*
X225Y48D02*
X229Y48D01*
X246Y48D02*
X250Y48D01*
X292Y48D02*
X322Y48D01*
X368Y48D02*
X371Y48D01*
X394Y48D02*
X396Y48D01*
X423Y48D02*
X443Y48D01*
X467Y48D02*
X480Y48D01*
X488Y48D02*
X490Y48D01*
X516Y48D02*
X526Y48D01*
X535Y48D02*
X537Y48D01*
X615Y48D02*
X618Y48D01*
X649Y48D02*
X652Y48D01*
X701Y48D02*
X715Y48D01*
X722Y48D02*
X724Y48D01*
X754Y48D02*
X771Y48D01*
X790Y48D02*
X792Y48D01*
X816Y48D02*
X818Y48D01*
X844Y48D02*
X865Y48D01*
X884Y48D02*
X886Y48D01*
X1468Y48D02*
X1475Y48D01*
X0Y47D02*
X7Y47D01*
X200Y47D02*
X202Y47D01*
X226Y47D02*
X228Y47D01*
X247Y47D02*
X249Y47D01*
X292Y47D02*
X321Y47D01*
X1468Y47D02*
X1475Y47D01*
X0Y46D02*
X7Y46D01*
X1468Y46D02*
X1475Y46D01*
X0Y45D02*
X7Y45D01*
X1468Y45D02*
X1475Y45D01*
X0Y44D02*
X7Y44D01*
X1468Y44D02*
X1475Y44D01*
X0Y43D02*
X7Y43D01*
X1468Y43D02*
X1475Y43D01*
X0Y42D02*
X7Y42D01*
X1468Y42D02*
X1475Y42D01*
X0Y41D02*
X7Y41D01*
X1468Y41D02*
X1475Y41D01*
X0Y40D02*
X7Y40D01*
X1468Y40D02*
X1475Y40D01*
X0Y39D02*
X7Y39D01*
X1468Y39D02*
X1475Y39D01*
X0Y38D02*
X7Y38D01*
X1468Y38D02*
X1475Y38D01*
X0Y37D02*
X7Y37D01*
X1468Y37D02*
X1475Y37D01*
X0Y36D02*
X7Y36D01*
X1468Y36D02*
X1475Y36D01*
X0Y35D02*
X7Y35D01*
X1468Y35D02*
X1475Y35D01*
X0Y34D02*
X7Y34D01*
X1468Y34D02*
X1475Y34D01*
X0Y33D02*
X7Y33D01*
X1468Y33D02*
X1475Y33D01*
X0Y32D02*
X7Y32D01*
X1468Y32D02*
X1475Y32D01*
X0Y31D02*
X7Y31D01*
X1468Y31D02*
X1475Y31D01*
X0Y30D02*
X7Y30D01*
X1468Y30D02*
X1475Y30D01*
X0Y29D02*
X7Y29D01*
X1468Y29D02*
X1475Y29D01*
X0Y28D02*
X7Y28D01*
X1468Y28D02*
X1475Y28D01*
X0Y27D02*
X7Y27D01*
X1468Y27D02*
X1475Y27D01*
X0Y26D02*
X7Y26D01*
X1468Y26D02*
X1475Y26D01*
X0Y25D02*
X7Y25D01*
X1468Y25D02*
X1475Y25D01*
X0Y24D02*
X7Y24D01*
X1468Y24D02*
X1475Y24D01*
X0Y23D02*
X7Y23D01*
X1468Y23D02*
X1475Y23D01*
X0Y22D02*
X7Y22D01*
X1468Y22D02*
X1475Y22D01*
X0Y21D02*
X7Y21D01*
X1468Y21D02*
X1475Y21D01*
X0Y20D02*
X7Y20D01*
X1468Y20D02*
X1475Y20D01*
X0Y19D02*
X7Y19D01*
X1468Y19D02*
X1475Y19D01*
X0Y18D02*
X7Y18D01*
X1468Y18D02*
X1475Y18D01*
X0Y17D02*
X7Y17D01*
X1468Y17D02*
X1475Y17D01*
X0Y16D02*
X7Y16D01*
X1468Y16D02*
X1475Y16D01*
X0Y15D02*
X7Y15D01*
X1468Y15D02*
X1475Y15D01*
X0Y14D02*
X7Y14D01*
X1468Y14D02*
X1475Y14D01*
X0Y13D02*
X7Y13D01*
X1468Y13D02*
X1475Y13D01*
X0Y12D02*
X7Y12D01*
X1468Y12D02*
X1475Y12D01*
X0Y11D02*
X7Y11D01*
X1468Y11D02*
X1475Y11D01*
X0Y10D02*
X7Y10D01*
X1468Y10D02*
X1475Y10D01*
X0Y9D02*
X7Y9D01*
X1468Y9D02*
X1475Y9D01*
X0Y8D02*
X1475Y8D01*
X0Y7D02*
X1475Y7D01*
X0Y6D02*
X1475Y6D01*
X0Y5D02*
X1475Y5D01*
X0Y4D02*
X1475Y4D01*
X0Y3D02*
X1475Y3D01*
X0Y2D02*
X1475Y2D01*
X0Y1D02*
X1475Y1D01*
D02*
G04 End of Silk1*
M02*